<svg baseProfile="tiny" xmlns="http://www.w3.org/2000/svg" viewBox="0 0 1076 1010"><path fill="none" stroke="#000" stroke-width="5" stroke-miterlimit="10" d="M259.6 70.6h546v52.5h-546zm-187.5 366h79.5v24H72.1z"/><path fill="none" stroke="#000" stroke-miterlimit="10" d="M72.1 576.1h535.5v12H72.1zm0 29h535.5v12H72.1zm0 24.9h535.5v12H72.1zm0 29H306v12H72.1zm0 61h535.5v12H72.1zm0 29h535.5v12H72.1zm0 24.9h535.5v12H72.1zm0 25.1h535.5v12H72.1zm0 28.4H489v12H72.1z"/><path fill="none" stroke="#000" stroke-width="5" stroke-miterlimit="10" d="M780.733 409.898l224.145 19.61-4.793 54.791-224.145-19.61z"/><path fill="none" stroke="#000" stroke-width="5" stroke-miterlimit="10" d="M938.17 423.756l-157.4-13.771 4.882-55.787 157.4 13.77z"/><path fill="none" stroke="#000" stroke-width="3" stroke-miterlimit="10" d="M788.963 316.306l131.498 11.505-2.615 29.886-131.498-11.505zm-14.429 164.971l201.232 17.606-17.291 197.646-201.233-17.606z"/></svg>