<svg baseProfile="tiny" xmlns="http://www.w3.org/2000/svg" viewBox="168 -11.7 485.7 73.7"><path d="M214.9.4h-17.5v47.9h-11V.4h-17.3v-8.9H215V.4zm44.3 47.9h-10.9V23.7h-16.1v24.6h-10.9V-8.6h10.9v23.3h16.1V-8.6h10.9v56.9zM309.9 24c0 3.6-.5 7-1.4 10.1-1 3.1-2.4 5.7-4.2 7.9-1.8 2.2-4 3.9-6.7 5.2s-5.6 1.9-8.8 1.9-6.2-.6-8.8-1.9c-2.6-1.2-4.7-3-6.4-5.2-1.7-2.2-3.1-4.9-4-7.9-.9-3.1-1.4-6.4-1.4-10.1v-8.3c0-3.6.5-7 1.4-10.1.9-3.1 2.2-5.7 4-7.9 1.7-2.2 3.9-4 6.4-5.2s5.4-1.9 8.7-1.9c3.3 0 6.3.6 8.9 1.9s4.8 3 6.7 5.2c1.8 2.2 3.2 4.9 4.2 7.9 1 3.1 1.4 6.4 1.4 10.1V24zm-11.1-8.3c0-2.3-.2-4.5-.6-6.4-.4-2-1-3.6-1.8-5s-1.8-2.5-3.1-3.3c-1.3-.8-2.8-1.2-4.6-1.2-1.8 0-3.3.4-4.5 1.2-1.2.8-2.2 1.9-2.9 3.3-.7 1.4-1.2 3.1-1.6 5s-.5 4.1-.5 6.4V24c0 2.3.2 4.4.5 6.4s.8 3.6 1.6 5.1c.7 1.4 1.7 2.6 2.9 3.4 1.2.8 2.7 1.2 4.5 1.2 1.8 0 3.3-.4 4.6-1.2 1.3-.8 2.3-1.9 3.1-3.3.8-1.4 1.4-3.1 1.8-5.1s.6-4.1.6-6.4v-8.4zm33.5-24.3l5.4 21.4 6.1-21.4h13.6v56.9h-10.1V31.5l.5-26.6-7.5 24.7H335L328.3 6l.5 25.5v16.8h-10.1V-8.6h13.6zm63.1 45h-17.1l-3.4 11.9h-11.6L382-8.6h10l18.3 56.9h-11.6l-3.3-11.9zM381 27.1h11.8L387 6.2l-6 20.9zm46.7 12.3h28.2v8.9h-41.6v-6.7L441.9.4h-27.5v-8.9h40.8V-2l-27.5 41.4zm71.8-16h-23.4v16.1h27.3v8.9h-38.3v-57h38.2V.3h-27.2v14.3h23.4v8.8zm25.3 16h26.6v8.9h-37.7V-8.6h11v48zm48.6 0H600v8.9h-37.7V-8.6h11v48zm64.8-3h-17.1l-3.4 11.9h-11.6l18.6-56.9h10L653 48.3h-11.6l-3.2-11.9zm-14.4-9.3h11.8l-5.8-20.9-6 20.9z"/></svg>