<svg xmlns="http://www.w3.org/2000/svg" viewBox="225 -144.4 649 488.4"><linearGradient id="a" gradientUnits="userSpaceOnUse" x1="549.5" y1="343.6" x2="549.5" y2="-353.436" gradientTransform="matrix(1 0 0 -1 0 199.2)"><stop offset="0" stop-color="#fdf4be"/><stop offset=".144" stop-color="#fcf1ba"/><stop offset=".297" stop-color="#f7e7ad"/><stop offset=".455" stop-color="#f1d898"/><stop offset=".539" stop-color="#eccd89"/><stop offset="1" stop-color="#a26f40"/></linearGradient><path fill="url(#a)" d="M225-144.4h649V344H225z"/><path d="M670.2 217.7c-29.7 31.3-71.7 49.1-120 47.8-47.8-1.3-89.3-23-116.9-52.7-46.8 8.4-78.9 22.5-79.4 39.3-.7 29 87.7 54.8 197.5 57.6 109.8 2.8 199.4-18.4 200.2-47.4.4-17.5-31.7-33.8-81.4-44.6M545.1 295c-97.2-1.3-172.4-21.2-171.9-42.4.3-12.2 24.2-20.1 65.5-26.6-32.1 6.5-51.8 15.7-52 26.3-.5 21.1 77.9 39.3 175.2 40.7 26.3.4 51.4-.5 73.9-2.5-25.9 2.9-58.9 5-90.7 4.5M397.9 128.5c-22.7-.6-36.5-15.5-44.5-7.5-11 10.9-8.1 49.2 22.3 62.6 20.5 9 44.7 32.1 57.6 26.2-21.4-22.8-32.4-49-35.4-81.3m-17.6 41.6c-8.7 0-15.7-7.3-15.7-16.3s7-16.3 15.7-16.3 15.7 7.3 15.7 16.3c0 9.1-7.1 16.3-15.7 16.3m136.4-280.5C441.3-3.5 702.4-7 579.7 87.1c57.7-75.3-157.6-96-63-197.5m-19.2 20.7c-69.9 81.3 162.7 127.6 65 176.8 83.8-41.3-149.2-103.9-65-176.8m56.6 190.9c-83.8-2.2-151.8 2.4-152 10.1-2.2 81 63.9 148 147.7 150.2 83.8 2.3 153.5-61.5 155.7-142.6.2-7.6-67.6-15.5-151.4-17.7m-12.9 110.6c-14.3-12.1-19.6-29.7-12.6-40.5l54.7 45.9c-9.4 9-27.7 6.8-42.1-5.4m45 1.9L531 168.4c9.3-9.2 27.9-7.1 42.4 5.2 14.2 11.9 19.5 29.3 12.8 40.1m-32.7-78.9c-71.4-1.8-129.2-8.6-129-15.1s58.2-10.3 129.6-8.5c71.4 1.8 129.2 8.6 129 15.2-.2 6.4-58.2 10.2-129.6 8.4" fill="#42210b"/><linearGradient id="b" gradientUnits="userSpaceOnUse" x1="549.5" y1="-144.8" x2="549.5" y2="343.6" gradientTransform="matrix(1 0 0 -1 0 199.2)"><stop offset="0" stop-color="#29282a" stop-opacity=".97"/><stop offset="1" stop-color="#29282a" stop-opacity=".7"/></linearGradient><path fill="url(#b)" d="M225-144.4h649V344H225z"/></svg>