<?xml version="1.0" encoding="utf-8"?>
<!-- Generator: Adobe Illustrator 19.0.0, SVG Export Plug-In . SVG Version: 6.00 Build 0)  -->
<svg version="1.1" id="Layer_1" xmlns="http://www.w3.org/2000/svg" xmlns:xlink="http://www.w3.org/1999/xlink" x="0px" y="0px"
	 viewBox="-164 287.9 267 267" style="enable-background:new -164 287.9 267 267;" xml:space="preserve">
<style type="text/css">
	.st0{fill:#000000;}
</style>
<path class="st0" d="M102.8,302.6c0-8.1-6.6-14.7-14.7-14.7l-237.4,0.2c-8.1,0-14.7,6.6-14.7,14.7l0.2,237.4
	c0,8.1,6.6,14.7,14.7,14.7l237.4-0.2c8.1,0,14.7-6.6,14.7-14.7L102.8,302.6z M66.3,365.7H45c-16.8,0-20,7.9-20,19.6V411h39.9
	l-5.2,40.3H25l0.1,103.4h-41.5l-0.1-103.4h-34.8V411h34.7v-29.7c0-34.4,21-53.2,51.8-53.2c14.7,0,27.4,1.1,31.1,1.6V365.7z"/>
</svg>
