<svg xmlns="http://www.w3.org/2000/svg" viewBox="423 -624.3 1045.2 1449.3">
    <path d="M1203.8 539.4c-1.6 3.5-2.8 7.7-3.3 12.5l-.4 5.9v138.1c0 2.1 0 4.5.4 7.2 2.5 23.2 20.4 34.4 53.6 33.6h106.4c36.3.9 54.3-12.8 54-40.8v-139c-.1-.1-.1-.3 0-.3-.3-6.7-1.5-12.4-3.9-17.2-6.9-14.7-23.7-21.7-50.1-21.1h-112.9c-22.8.7-37.3 7.6-43.8 21.1zm50 48.1c.9-13.3 8-19.7 21.3-19.1h66.4c13.3 0 20.4 6 21.3 17.9v83.1c-.9 11.1-7.3 16.9-19.2 17.6H1271c-10.7-.9-16.4-7.2-17.2-19.2v-80.3zm-95.6-30.9c-.4-6.7-1.6-12.4-3.9-17.2-6.5-13.5-21.1-20.4-43.6-21.1H997.8V430h-54v306.7h160.4c36.3.9 54.3-12.8 54-40.8V556.6zm-73.1 11.9c12.5.1 19.6 5.6 21.3 16.3l.3 87.3c-.4 10-5.2 14.9-14.1 14.9h-95.1l.3-118.5h87.3zM896 736.7V518.3h-54l.1 168.7h-94.9c-9.2 0-13.9-4.9-14-14.9V518.3h-51.6v177.6c-.4 28 17.5 41.7 54 40.8H896zM470.4 518.3c-22.5.7-37.1 7.6-43.6 21.1-2.4 5.1-3.6 10.8-3.7 17.2v.7c-.1.7-.1 1.3 0 2V696c-.5 28 17.5 41.7 54 40.8h106.4V825h53.9V518.3h-167zm4.3 66.4c1.6-10.7 8.8-16.1 21.3-16.3h87.5l.3 118.5h-95.2c-9.1 0-13.7-4.9-14-14.9l.1-87.3zm964.3-75c-2.7.9-4.9 2.5-6.7 4.7-2.1 1.9-3.6 4.1-4.7 6.7-1.1 2.5-1.6 5.1-1.6 7.9 0 6 2.1 10.9 6.3 15.1 1.9 2 4 3.5 6.7 4.5 2.3 1.1 5.1 1.6 8.1 1.6s5.7-.5 8.1-1.6c2.4-.9 4.7-2.5 6.8-4.5 2-2.1 3.6-4.4 4.7-6.8.9-2.4 1.5-5.2 1.5-8.3 0-2.9-.5-5.5-1.5-7.9-1.2-2.5-2.7-4.8-4.7-6.7-3.9-4.3-8.8-6.3-14.9-6.3-3.1 0-5.9.5-8.1 1.6zm-8.7 26.4c-.9-2-1.3-4.4-1.3-7.2 0-4.8 1.7-8.9 5.2-12.5 3.7-3.6 8-5.3 12.9-5.3 2.5 0 4.8.4 6.9 1.3 2.1.9 4.1 2.3 5.9 4 3.6 3.7 5.5 7.9 5.5 12.5 0 2.7-.5 5.1-1.5 7.2-.9 2.3-2.3 4.3-4 5.9-1.7 1.7-3.7 3.1-5.9 4s-4.4 1.3-6.9 1.3c-4.9 0-9.2-1.7-12.9-5.3-1.8-1.8-3.1-3.8-3.9-5.9z"/>
    <path d="M1438.7 540.6h4v-9.3h3.2c1.2 0 2.1.1 2.8.4.5.1 1.2.3 1.7.5.8.5 1.3 1.2 1.7 2 .3.9.5 2 .5 3.2v3.2h3.9v-.5c-.1-.3-.1-1.1-.3-2.5l-.1-2.3c0-.7-.1-1.2-.3-1.6l-.8-1.7c-.3-.3-.5-.5-.7-.8l-.7-.5c-.8-.5-1.5-.8-2.1-.8.7-.1 1.2-.3 1.7-.4l.5-.5.5-.3 1.6-1.7c.4-.9.7-1.7.7-2.7 0-1.5-.3-2.7-.9-3.7-.5-1.1-1.5-1.9-2.8-2.3-1.5-.4-3.6-.7-6.3-.7h-8l.2 23zm4-12.1v-8h3.3c2-.1 3.6.1 5.1.7.7.4 1.1.8 1.2 1.3.3.5.4 1.2.4 2.1 0 .9-.3 1.6-.7 2.1-.4.5-1.1.9-1.9 1.2l-1.5.4c-.7.1-1.5.1-2.3.1l-3.6.1zm-132.4-925.2c-3.6-5.3-7.9-10.3-12.5-15.1-11.7-10.1-24.5-18.8-38.1-26.3-13.7-7.3-28.1-13.2-43.3-17.3-14.5-4-29.2-7.3-44.1-10.3-17.5-3.1-34.5-7.6-51.3-13.7-16.1-5.9-31.5-13.1-46.1-21.9-13.2-7.9-25.6-16.8-37.3-26.7-9.1-7.7-17.6-16.1-25.6-25.1-10.9-12.4-22.7-24.1-34.9-35.2-12.7-11.5-26.8-20.8-42.1-28.1-14.4-6.8-29.5-9.3-45.2-7.3-17.7 1.9-34.3 7.3-49.7 16.3-14.9 8.7-28.7 18.9-41.1 30.9-12.8 12.1-24.9 24.7-36.5 37.6-8.3 9.1-17.2 17.3-26.8 24.8-12.4 9.7-25.3 18.4-38.9 26.1-15.3 8.7-31.1 16.1-47.5 22.4-12.9 4.9-26.3 9.1-39.7 12.7-15.2 3.9-30 8-44.8 12.3-15.5 4.7-30.3 10.9-44.3 18.8-15.6 8.8-28.5 20.5-38.8 35.3-10.3 14.7-16 30.9-17.3 48.8-.7 10-.7 20 .1 30 1.2 16.5 3.6 32.8 7.5 48.9 3.9 16.9 8.4 33.7 13.5 50.1 4.9 15.6 8.3 31.5 10.3 47.5 2.1 17.2 2.4 34.4.7 51.6-1.6 15.6-4.1 31.2-7.6 46.5-3.5 15.6-7.5 31.1-12 46.7-4.4 15.6-7.3 31.5-8.7 47.9-1.6 17.7-.7 35.5 2.8 52.9 2.8 14.4 8.3 27.6 16.3 39.5 4.7 6.9 10.4 12.9 17.2 17.9 12.3 8.8 25.3 16.1 39.1 22.1 16.3 6.9 32.9 13.2 49.9 18.5 13.6 4.4 27.5 8.1 41.5 11.2 16.5 3.9 32.8 8.8 48.5 15.1 14.1 5.5 27.6 12.1 40.5 19.9 13.5 8.3 26 17.5 37.9 27.7 12.7 11.1 24.8 23.1 36.1 35.7 11.6 12.8 24.5 24.3 38.8 34.1 14.3 10 29.9 16.8 46.8 20.3 16.8 3.7 33.2 2.1 49.1-4.7 15.5-6.7 29.9-14.9 43.3-24.9 12.1-8.9 23.7-18.5 34.7-28.5 11.9-10.7 23.2-21.6 34.3-32.9 11.1-11.6 23.3-21.7 36.4-30.8 13.5-9.2 27.6-17.1 42.5-23.6 12.4-5.6 24.9-10.5 37.7-14.8 15.6-5.1 31.3-9.6 47.2-13.5 15.2-3.7 30-8.7 44.5-14.4 16-6.4 30.8-15.1 44.1-26 14-11.2 24-25.3 30.1-42 5.2-14.3 7.3-29.1 6.3-44.5-.9-15.1-2.8-30.1-5.6-45.2-2.7-14.9-6.4-29.5-11.1-43.6-4.8-14.9-8.8-29.9-12-44.9-3.1-14.9-4.8-29.9-5.2-45.2-.4-15.2.4-30.4 2.4-45.3 2.1-17.1 5.6-33.7 10.3-50.3 4.4-15.6 8.5-31.3 12.4-47.1 2.1-8.5 3.7-17.3 4.7-26 1.9-17.3 1.5-34.5-1.5-51.7-3-15.8-8.8-30.2-17.9-43.2zm-11.6 109.4c-3.5 16.5-7.6 33.2-12.1 49.6-4 14.4-7.3 28.8-9.9 43.6-2.9 17.1-4.5 34.4-4.7 51.9-.1 15.2.7 30.1 2.4 45.2 1.7 15.5 4 30.9 6.8 46.3 3.1 17.2 6.1 34.7 8.9 52.3 2.7 17.5 1.9 34.8-2.7 52-4.8 17.5-15.6 29.2-32.5 34.9-9.2 3.2-18.8 4.8-28.7 4.7-17.2-.3-34.3-.3-51.3 0-4.3.1-8.5.5-12.8 1.2-17.7 2.5-34.1 8.8-49.1 18.5-6 4.1-11.9 8.5-17.5 13.1-12.7 10.5-25.1 21.3-37.5 32.5-7.2 6.7-14.8 12.9-22.7 18.8-13.6 10.1-28.7 17.2-45.1 21.3-17.3 4.4-33.6 2.4-49.1-6.3-16-8.8-27.1-22-33.5-39.3-6-16.7-9.3-33.9-9.7-51.5-.5-16.9.1-33.7 2-50.5 1.3-13.7 3.6-27.3 6.7-40.8 3.5-15.7 6.4-31.6 8.5-47.7 2.1-15.6 3.1-31.5 2.9-47.5-.3-17.3-4.1-33.7-11.6-49.2-7.6-15.6-17.7-28.9-30.7-40.3-10.5-9.5-22.7-15.7-36.3-19.2-14.4-3.6-28.9-7.6-43.2-11.9-14.1-4.1-28-8.5-41.7-13.2-13.5-4.5-26.9-9.5-40.3-14.5-13.1-4.8-26-10-38.8-15.5-14.7-6.3-29.3-12.8-43.9-19.9-14.4-7.1-28.5-14.7-42.5-22.8-14.1-8.3-27.6-17.6-40.3-28.3-13.5-11.3-22.5-25.5-27.5-42.4-1.1-4.3-1.3-8.5-.4-12.9 2.8-12.8 9.9-22.8 21.3-30 14.1-8.7 29.2-14.9 45.2-18.7 15.5-3.5 30.7-7.7 45.6-12.7 16.4-5.2 32.5-11.2 48.3-18.1 16.3-6.9 31.9-15.1 46.9-24 15.2-9.2 29.3-19.6 42.3-31.5 11.3-10.5 22.4-21.6 32.9-33.2 6.1-6.8 12.7-13.3 19.2-19.5 12.9-12 27.3-21.7 43.2-29.1 10.3-4.8 20.8-7.2 32-7.3 7.1.8 14.1 2.5 21.1 5.2 16.7 6.4 31.6 15.7 44.9 27.9 10.7 9.7 20.9 20 30.5 30.9 10 11.1 20.7 21.6 32.1 31.2 11.9 10.3 24.4 19.5 37.9 27.6 13.1 8.1 26.9 14.9 41.3 20.5 14.3 5.7 28.9 10.5 44 14.3 14.5 3.6 29.2 6.9 44 10.4 16.7 3.6 32.8 8.9 48.3 16 16.1 7.5 30.3 17.7 42.3 30.5 9.3 14 14.9 29.5 16.8 46.5 2.3 17.2 1.4 34-2.2 50.9z" fill="#fff"/>
    <path d="M1286.6-237.7c4.5-16.4 8.7-33.1 12.1-49.6 3.6-16.9 4.5-33.7 2.7-50.7-1.9-17.1-7.5-32.5-16.8-46.5-12-12.8-26.1-23.1-42.3-30.5-15.5-7.1-31.6-12.4-48.3-16-14.8-3.5-29.5-6.8-44-10.4-15.1-3.7-29.7-8.5-44-14.3-14.4-5.6-28.3-12.4-41.3-20.5-13.5-8.1-26-17.3-37.9-27.6-11.5-9.6-22.1-20.1-32.1-31.2-9.6-10.9-19.9-21.2-30.5-30.9-13.3-12.1-28.3-21.5-44.9-27.9-6.9-2.7-14-4.4-21.1-5.2-11.2.1-21.7 2.5-32 7.3-15.9 7.3-30.3 17.1-43.2 29.1-6.5 6.1-13.1 12.7-19.2 19.5-10.5 11.6-21.6 22.7-32.9 33.2-12.9 11.9-27.1 22.3-42.3 31.5-15.1 8.9-30.7 17.1-46.9 24-15.7 6.9-31.9 12.9-48.3 18.1-14.9 4.9-30.1 9.2-45.6 12.7-16 3.7-31.1 10-45.2 18.7-11.5 7.2-18.5 17.2-21.3 30-.9 4.4-.7 8.7.4 12.9 4.9 16.9 14 31.1 27.5 42.4 12.7 10.7 26.1 20 40.3 28.3 14 8.1 28.1 15.7 42.5 22.8 14.5 7.1 29.2 13.6 43.9 19.9 12.8 5.5 25.7 10.7 38.8 15.5 13.3 5.1 26.8 10 40.3 14.5 13.7 4.7 27.6 9.1 41.7 13.2 14.3 4.3 28.8 8.3 43.2 11.9 13.6 3.5 25.7 9.7 36.3 19.2 12.9 11.3 23.1 24.7 30.7 40.3 7.5 15.5 11.3 31.9 11.6 49.2.1 16-.8 31.9-2.9 47.5-2.1 16.1-5.1 32-8.5 47.7-3.1 13.5-5.3 27.1-6.7 40.8-1.9 16.8-2.5 33.6-2 50.5.4 17.6 3.7 34.8 9.7 51.5 6.4 17.3 17.5 30.5 33.5 39.3 15.5 8.7 31.7 10.7 49.1 6.3 16.4-4.1 31.5-11.2 45.1-21.3 7.9-5.9 15.5-12.1 22.7-18.8 12.4-11.2 24.8-22 37.5-32.5 5.6-4.5 11.5-8.9 17.5-13.1 14.9-9.7 31.3-16 49.1-18.5 4.3-.7 8.5-1.1 12.8-1.2 17.1-.3 34.1-.3 51.3 0 9.9.1 19.5-1.5 28.7-4.7 16.9-5.7 27.7-17.5 32.5-34.9 4.5-17.2 5.3-34.5 2.7-52-2.8-17.6-5.9-35.1-8.9-52.3-2.8-15.3-5.1-30.8-6.8-46.3-1.7-15.1-2.5-30-2.4-45.2.1-17.5 1.7-34.8 4.7-51.9 2-15 5.4-29.4 9.4-43.8z" fill="#3a98e0"/>
</svg>
