<?xml version="1.0" encoding="utf-8"?>
<!-- Generator: Adobe Illustrator 19.0.0, SVG Export Plug-In . SVG Version: 6.00 Build 0)  -->
<svg version="1.1" id="Layer_1" xmlns="http://www.w3.org/2000/svg" xmlns:xlink="http://www.w3.org/1999/xlink" x="0px" y="0px"
	 viewBox="-279 402.9 36.1 36" style="enable-background:new -279 402.9 36.1 36;" xml:space="preserve">
<style type="text/css">
	.st0{fill:#000000;}
</style>
<path class="st0" d="M-245.6,402.9h-30.7c-1.5,0-2.7,1.2-2.7,2.6v30.8c0,1.4,1.2,2.6,2.7,2.6h30.7c1.5,0,2.7-1.2,2.7-2.6v-30.8
	C-242.9,404.1-244.1,402.9-245.6,402.9z M-268.3,433.6h-5.3v-17.2h5.3V433.6z M-270.9,414.1c-1.7,0-3.1-1.4-3.1-3.1
	c0-1.8,1.4-3.1,3.1-3.1c1.7,0,3.1,1.4,3.1,3.1S-269.2,414.1-270.9,414.1z M-248.2,433.5h-5.3v-8.4c0-2,0-4.6-2.8-4.6
	s-3.2,2.2-3.2,4.4v8.5h-5.3l-0.1-17h5.1v2.3h0.1c0.7-1.4,2.5-2.8,5.1-2.8c5.4,0,6.4,3.6,6.4,8.2V433.5z"/>
</svg>
