<svg baseProfile="tiny" xmlns="http://www.w3.org/2000/svg" viewBox="0 0 44.5 44.5"><path d="M49.1 11.3h.1-.1zm-2.9 0h.1-.1zm-2.9 0zm-3 0h.1-.1zm-2.9 0h.1-.1zM50.2 10zm-1.9-1.3H48v-.4h-.1v.4l-.3-.1-.1.1.4.1-.1.3h.1l.1-.3h.3zm-.6 1.8v-.4l.4.1v-.1l-.4-.1.1-.3h-.1v.3l-.4-.1v.1l.3.1v.3zm1.3.2l.1-.4.3.1v-.1h-.3l.1-.4h-.1l-.1.3h-.3v.1h.3l-.1.4zm.7-1.7l-.4-.1.1-.3h-.1l-.1.3-.3-.1v.1l.3.1v.3h.1V9l.3.1zm-4.3-.3H45l.1-.4H45v.4l-.4-.1v.1l.3.1v.3h.1v-.3h.4zm-.7 1.8l.1-.4.3.1v-.1l-.3-.1.1-.3h-.1l-.1.3-.3-.1v.1l.3.1v.3zm1.4.2l.1-.4.3.1v-.1h-.3v-.4h-.1v.3h-.3l-.1.1h.4l-.1.4zm.6-1.7l-.3-.1.1-.3h-.1l-.1.3-.3-.1v.1l.3.1-.1.3h.1l.1-.3.3.1zm-4.3-.3h-.3l.1-.4h-.1l-.1.4-.3-.1v.1l.3.1v.3l.1-.3h.3zm-.6 1.8l.1-.4.3.1v-.1l-.3-.1v-.3l-.1.3-.3-.1v.1l.3.1-.1.3zm1.4.2v-.4l.4.1v-.1h-.4l.1-.4h-.1v.3h-.4v.1h.3v.4zm.6-1.7l-.3-.1v-.3h-.1v.3l-.3-.1-.1.1.4.1-.1.3h.1l.1-.3.3.1zm-4.3-.3h-.3v-.4l-.1.4-.3-.1v.1l.3.1-.1.3h.1l.1-.3h.3zm-.6 1.8v-.4l.4.1v-.1L39 10v-.3h-.1v.3l-.4-.1v.1l.4.1-.1.3zm1.3.2l.1-.4.3.1v-.1h-.3l.1-.4h-.1l-.1.3h-.3v.1h.3l-.1.4zm.7-1.7l-.4-.1.1-.3h-.1v.3l-.4-.1v.1l.3.1v.3h.1V9l.4.1zm-4.7.1v-.3h.4v-.1h-.3v-.4h-.1v.4l-.4-.1v.1l.4.1-.1.3zm-.2 1.4v-.4l.3.1.1-.1-.4-.1.1-.3H36l-.1.3-.3-.1v.1l.3.1v.3zm1.3.2l.1-.4.3.1v-.1h-.3v-.4l-.1.3H37l-.1.1h.4l-.1.4zm.6-1.7l-.3-.1.1-.3h-.1l-.1.3-.3-.1v.1l.3.1-.1.3h.1l.1-.3.3.1zm11.8-2.8v-.4l.3.1.1-.1-.4-.1.1-.3h-.1l-.1.3h-.3l.3.1v.3zm-.6.9h.3l-.1.4h.1l.1-.3h.3v-.1h-.3l.1-.4h-.1l-.1.4-.3-.1zm-2.4-.9l.1-.4.3.1v-.1l-.3-.1.1-.3h-.1l-.1.3h-.3l.3.1-.1.3zm-.6.9h.4l-.1.4h.1l.1-.3h.3v-.1h-.3v-.4h-.1v.4l-.3-.1zm1.8-.1l-.1.3-.3-.1v.1l.3.1v.3h.1v-.3h.4l-.4-.1.1-.3zm.6-1h-.3v-.4h-.1v.3h-.4V6h.4l-.1.4h.1v-.3h.4zm-4.7.2l.1-.4.3.1v-.1l-.3-.1v-.3h-.1v.3h-.4l.4.1-.1.3zm-.6.9h.3v.4h.1v-.3h.4v-.1h-.4l.1-.4h-.1v.4l-.4-.1zM45 7l-.1.3-.3-.1v.1l.3.1-.1.3h.1l.1-.3h.3l-.3-.1.1-.3zm.6-1h-.4l.1-.4h-.1l-.1.3h-.3V6h.3v.4h.1v-.3h.3zm-4.7.2v-.4l.4.1v-.1l-.4-.1.1-.3h-.1v.3h-.4l.3.1v.3zm-.6.9h.3v.4l.1-.3h.3v-.1h-.3l.1-.4h-.1l-.1.4-.3-.1zM42 7v.3l-.3-.1-.1.1.4.1-.1.3h.1l.1-.3h.3l-.3-.1V7zm.6-1h-.3l.1-.4h-.1l-.1.3h-.3V6h.3l-.1.4h.1l.1-.3h.3zm-4.7.2l.1-.4.3.1v-.1l-.3-.1.1-.3H38l-.1.3h-.3l.3.1v.3zm-.5.9h.3l-.1.4h.1l.1-.3h.3v-.1h-.3v-.4l-.1.4-.3-.1zm1.7-.1l-.1.3-.3-.1v.1l.3.1v.3h.1v-.3h.4l-.4-.1.1-.3zm.6-1h-.3v-.4h-.1v.3H39l-.1.1h.4l-.1.4h.1l.1-.3h.3zM36 7.7h.1l.1-.3h.3l-.3-.1.1-.3h-.1l-.1.3-.3-.1v.1l.3.1zm.8-1.7h-.4l.1-.4h-.1l-.1.3H36V6h.3v.4h.1v-.3h.4zm12.1-3.2h-.3v-.4h-.1v.4l-.4-.1v.1l.4.1-.1.3h.1v-.3h.4zm-.2 1.4l-.4-.1.1-.3h-.1l-.1.3h-.3l.3.1v.3l.1.1v-.4l.3.1zm.6.2h.3l-.1.4h.1l.1-.4.3.1v-.1h-.3V4l-.1.3h-.3zm.5-1l.1-.3.3.1v-.1l-.3-.1.1-.3h-.1l-.1.3-.3-.1V3l.3.1zM46 2.8h-.4l.1-.4h-.1l-.1.4-.3-.1v.1l.3.1v.3h.1v-.3h.3zm-.3 1.4l-.3-.1.1-.3h-.1l-.1.3H45l.3.1-.1.3.1.1.1-.4.3.1zm.6.2h.4l-.1.4h.1v-.4l.4.1v-.1h-.3V4h-.1v.3h-.4zm.5-1h.1l.1-.3.3.1v-.1L47 3v-.3l-.1.3-.3-.1V3l.3.1zM43 2.8h-.3l.1-.4h-.1l-.1.4-.3-.1v.1l.3.1-.1.3h.1l.1-.3h.3zm-.2 1.4l-.3-.1v-.3h-.1v.3H42l.4.1-.1.3.1.1.1-.4.3.1zm.6.2h.3v.4h.1v-.4l.3.1.1-.1h-.4l.1-.4h-.1l-.1.3h-.3zm.5-1h.1v-.3l.4.1v-.1l-.3-.1v-.3H44V3l-.4-.1V3l.4.1zm-3.8-.6h-.3v-.4h-.1v.4l-.3-.1-.1.1.4.1-.1.3h.1l.1-.3h.3zm-.2 1.4l-.4-.1.1-.3h-.1v.3h-.4l.3.1v.3l.1.1v-.4l.4.1zm.6.2h.3l-.1.4h.1l.1-.4.3.1v-.1h-.3L41 4h-.1l-.1.3h-.3zm.5-1h.1v-.3l.3.1.1-.1-.4-.1.1-.3h-.1L41 3l-.3-.1V3l.3.1zm-3.8-.6h-.4l.1-.4h-.1v.4l-.4-.1v.1l.3.1v.3h.1v-.3h.4zm-.3 1.4l-.3-.1.1-.3h-.1l-.1.3h-.3l.3.1-.1.3.1.1.1-.4.3.1zm.6.2h.4l-.1.4h.1l.1-.4.3.1v-.1H38V4h-.1v.3h-.3zm.5-1h.1l.1-.3.3.1v-.1l-.3-.1.1-.3h-.1l-.1.3-.3-.1V3l.3.1zM50.2.3v-.6.1h-.3v.1h.3v.4zM50 1.6l.1-.3h.1v-.1h-.1V.8l-.1.4-.3-.1v.1l.3.1-.1.3zM47.4-.5l-.1.3H47v.1h.3l-.1.4h.1l.1-.4.3.1v-.1l-.3-.1zm-.3 2.1v-.3h.4v-.1h-.3V.8h-.1v.4l-.4-.1v.1l.4.1-.1.3zm1-.2l.3.1v.3l.1-.3.3.1v-.1l-.3-.1.1-.3h-.1l-.1.3-.3-.1zm.6-1.7v.4l-.4-.1v.1h.3v.4h.1V.2h.4V.1h-.4l.1-.4zm-4.2-.2h-.1v.3H44v.1h.4l-.1.4h.1v-.4l.4.1v-.1l-.3-.1zm-.3 2.1v-.3h.3l.1-.1h-.4l.1-.4h-.1l-.1.4-.3-.1v.1l.3.1v.3zm1-.2l.3.1-.1.3h.1l.1-.3.3.1v-.1l-.3-.1v-.3l-.1.3-.3-.1zm.6-1.7l-.1.4-.3-.1v.1h.3v.4l.1-.3h.3V.1h-.3l.1-.4zm-4.2-.2h-.1l-.1.3h-.3v.1h.3v.4h.1v-.4l.3.1.1-.1-.4-.1zm-.4 2.1l.1-.3h.3v-.1h-.3l.1-.4h-.1l-.1.4-.3-.1v.1l.3.1-.1.3zm1-.2l.4.1-.1.3h.1v-.3l.4.1v-.1l-.3-.1v-.3h-.1v.3l-.4-.1zm.7-1.7l-.1.4-.3-.1v.1h.3l-.1.4h.1l.1-.3h.3V.1h-.3v-.4zm-4.2-.2h-.1l-.1.3h-.3v.1h.3l-.1.4h.1l.1-.4.3.1v-.1l-.3-.1zm-.4 2.1l.1-.3h.3v-.1h-.3V.8h-.1v.4l-.3-.1-.1.1.4.1-.1.3zm1-.2l.3.1v.3h.1v-.3l.3.1.1-.1-.4-.1.1-.3h-.1l-.1.3-.3-.1zm.6-1.7v.4l-.4-.1v.1h.3v.4h.1V.2h.4V.1H40v-.4zm-4.2.2l.3.1v-.1l-.3-.1v-.3h-.1v.8zm.1 1.3h-.2v.1h.2zm.6.2l.3.1-.1.3h.1l.1-.3.3.1v-.1l-.3-.1.1-.3h-.1l-.1.3-.3-.1zM37-.3l-.1.4-.3-.1v.1h.3v.4h.1V.2h.3l.1-.1H37l.1-.4zm12.1-3.1v.3l-.4-.1v.1l.3.1v.3h.1V-3h.4l-.4-.1.1-.3zm-.2 1.3l-.1.3h-.3v.1h.3v.4l.1-.4.3.1v-.1l-.3-.1.1-.3zm1.3.6l-.3-.1-.1.1h.4l-.1.4h.1v-.8zm-.1-1.4l.1.1v-.1h-.1zm-3.9-.5l-.1.3-.3-.1v.1l.3.1v.3l.1-.3h.3l-.3-.1.1-.3zM46-2.1l-.1.3h-.3v.1h.3l-.1.4h.1l.1-.4.3.1v-.1l-.3-.1v-.3zm.9.6h.3v.4h.1v-.3h.4v-.1h-.4l.1-.4h-.1v.4l-.4-.1zm.6-1.7v.3h-.4l.4.1-.1.3.1.1.1-.4.3.1v-.1l-.3-.1v-.3zm-4.2-.2l-.1.3-.3-.1v.1l.3.1-.1.3h.1l.1-.3h.3l-.3-.1v-.3zM43-2.1v.3h-.4v.1h.4l-.1.4h.1v-.4l.4.1v-.1l-.3-.1v-.3zm1 .6h.3l-.1.4h.1l.1-.3h.3v-.1h-.3l.1-.4h-.1l-.1.4-.3-.1zm.6-1.7v.3h-.4l.3.1v.3l.1.1v-.4l.4.1v-.1l-.4-.1.1-.3zm-4.3-.2v.3l-.4-.1v.1l.4.1-.1.3h.1V-3h.4l-.3-.1v-.3zm-.2 1.3l-.1.3h-.3v.1h.3v.4h.1v-.4l.3.1.1-.1-.4-.1.1-.3zm1 .6h.3l-.1.4h.1l.1-.3h.3v-.1h-.3v-.4l-.1.4-.3-.1zm.6-1.7l-.1.3h-.3l.3.1-.1.3.1.1.1-.4.3.1v-.1l-.3-.1.1-.3zm-4.3-.2l-.1.3-.3-.1v.1l.3.1v.3h.1V-3h.4l-.4-.1.1-.3zm-.2 1.3l-.1.3h-.3v.1h.3l-.1.4h.1l.1-.4.3.1v-.1l-.3-.1.1-.3zm.9.6h.3v.4h.1v-.3h.4v-.1h-.3v-.4h-.1v.4l-.4-.1zm.7-1.7l-.1.3h-.3l.3.1-.1.3.1.1.1-.4.3.1v-.1l-.3-.1v-.3zm-3.2 1.3v.5h.3l.1-.1h-.4l.1-.4zm0-.9h.1v.3l.1.1v-.4l.4.1v-.1l-.3-.1v-.3h-.1v.3h-.2zM49.1 26h.1-.1zm-2.9 0h.1-.1zm-2.9 0zm-3 0h.1-.1zm-2.9 0h.1-.1zm12.8-1.3v.1zm-1.9-1.2l-.3-.1v-.3h-.1v.3l-.3-.1-.1.1.4.1-.1.3h.1l.1-.3h.3zm-.6 1.7v-.4l.4.1v-.1l-.4-.1.1-.3h-.1v.3h-.4v.1h.3v.4zm1.3.2l.1-.3h.3V25h-.3l.1-.4h-.1l-.1.4-.3-.1v.1l.3.1-.1.3zm.7-1.7l-.4-.1.1-.3h-.1l-.1.3h-.3v.1h.3v.4h.1v-.4l.3.1zm-4.3-.2l-.4-.1.1-.3H45v.3l-.4-.1v.1l.3.1v.3h.1v-.3h.4zm-.7 1.7l.1-.4.3.1v-.1l-.3-.1.1-.3h-.1l-.1.3h-.3v.1h.3v.4zm1.4.2l.1-.3h.3V25h-.3v-.4h-.1v.4l-.3-.1-.1.1.4.1-.1.3zm.6-1.7l-.3-.1.1-.3h-.1l-.1.3H46v.1h.3l-.1.4h.1l.1-.4.3.1zm-4.3-.2l-.3-.1.1-.3h-.1l-.1.3-.3-.1v.1l.3.1v.3l.1-.3h.3zm-.6 1.7l.1-.4.3.1v-.1l-.3-.1v-.3l-.1.3h-.3v.1h.3l-.1.4zm1.4.2v-.3h.4V25h-.4l.1-.4h-.1v.4l-.4-.1v.1l.3.1v.3zm.6-1.7l-.3-.1v-.3h-.1v.3h-.3l-.1.1h.4l-.1.4h.1l.1-.4.3.1zm-4.3-.2l-.3-.1v-.3l-.1.3-.3-.1v.1l.3.1-.1.3h.1l.1-.3h.3zm-.6 1.7v-.4l.4.1v-.1l-.3-.1v-.3h-.1v.3h-.4v.1h.4l-.1.4zm1.3.2l.1-.3h.3V25h-.3l.1-.4h-.1l-.1.4-.3-.1v.1l.3.1-.1.3zm.7-1.7l-.4-.1.1-.3h-.1v.3h-.4v.1h.3v.4h.1v-.4l.4.1zm-4.7.1v-.3h.4l-.3-.1v-.3h-.1v.3l-.4-.1v.1l.4.1-.1.3zm-.2 1.4v-.4l.3.1.1-.1-.4-.1.1-.3H36l-.1.3h-.3v.1h.3v.4zm1.3.2l.1-.3h.3V25h-.3v-.4l-.1.4-.3-.1-.1.1.4.1-.1.3zm.6-1.7l-.3-.1.1-.3h-.1l-.1.3h-.3v.1h.3l-.1.4h.1l.1-.4.3.1zm11.8-2.8v-.4l.3.1.1-.1h-.4l.1-.4h-.1l-.1.3h-.3v.1h.3v.4zm-.6.9l.3.1-.1.3h.1l.1-.3h.3l-.3-.1.1-.3-.1-.1-.1.4-.3-.1zm-2.4-.9l.1-.4.3.1v-.1h-.3l.1-.4h-.1l-.1.3h-.3v.1h.3l-.1.4zm-.6.9l.4.1-.1.3h.1l.1-.3h.3l-.3-.1v-.3l-.1-.1v.4l-.3-.1zm1.8-.1l-.1.3h-.3l.3.1v.3l.1.1v-.4l.3.1.1-.1-.4-.1.1-.3zm.6-1h-.3v-.3l-.1-.1v.4l-.4-.1v.1l.4.1-.1.3h.1v-.3h.4zm-4.7.2l.1-.4.3.1v-.1h-.3v-.4h-.1v.3h-.3l-.1.1h.4l-.1.4zm-.6.9l.3.1v.3h.1v-.3h.4l-.4-.1.1-.3-.1-.1v.4l-.4-.1zm1.8-.1l-.1.3h-.3l.3.1-.1.3.1.1.1-.4.3.1v-.1L45 22l.1-.3zm.6-1h-.4l.1-.3-.1-.1-.1.4-.3-.1v.1l.3.1v.3h.1v-.3h.3zm-4.7.2v-.4l.4.1v-.1h-.4l.1-.4h-.1v.3h-.4v.1h.3v.4zm-.6.9l.3.1v.3l.1-.3h.3l-.3-.1.1-.3-.1-.1-.1.4-.3-.1zm1.7-.1v.3h-.4l.4.1-.1.3.1.1.1-.4.3.1v-.1l-.3-.1v-.3zm.6-1h-.3l.1-.3-.1-.1-.1.4-.3-.1v.1l.3.1-.1.3h.1l.1-.3h.3zm-4.7.2l.1-.4.3.1v-.1H38l.1-.4H38l-.1.3h-.3v.1h.3v.4zm-.5.9l.3.1-.1.3h.1l.1-.3h.3l-.3-.1v-.4l-.1.4-.3-.1zm1.7-.1l-.1.3h-.3l.3.1v.3l.1.1v-.4l.4.1v-.1l-.4-.1.1-.3zm.6-1h-.3v-.3l-.1-.1v.4l-.3-.1-.1.1.4.1-.1.3h.1l.1-.3h.3zM36 22.4l.1.1.1-.4.3.1v-.1l-.3-.1.1-.3h-.1l-.1.3h-.3l.3.1zm.8-1.7h-.4l.1-.3-.1-.1-.1.4-.3-.1v.1l.3.1v.3h.1v-.3h.4zm12.1-3.1l-.3-.1v-.3h-.1v.3l-.4-.1v.1l.4.1-.1.3h.1v-.3l.4.1zm-.2 1.3h-.4l.1-.4h-.1l-.1.3h-.3v.1h.3v.4h.1v-.4l.3.1zm.6.2l.3.1-.1.3h.1l.1-.3h.3v-.1h-.3v-.4l-.1.4-.3-.1zm.5-.9l.1-.4.3.1v-.1l-.3-.1.1-.3h-.1l-.1.3h-.3v.1h.3zm-3.8-.6l-.4-.1.1-.3h-.1l-.1.3-.3-.1v.1l.3.1v.3h.1v-.3l.3.1zm-.3 1.3h-.3l.1-.4h-.1l-.1.3H45v.1h.3l-.1.4h.1l.1-.4.3.1zm.6.2l.4.1-.1.3h.1v-.3h.4v-.1h-.3v-.4h-.1v.4l-.4-.1zm.5-.9h.1l.1-.4.3.1v-.1l-.3-.1v-.3l-.1.3h-.3v.1h.3zm-3.8-.6l-.3-.1.1-.3h-.1l-.1.3-.3-.1v.1l.3.1-.1.3h.1l.1-.3.3.1zm-.2 1.3h-.3v-.4h-.1v.3h-.3l-.1.1h.4l-.1.4h.1l.1-.4.3.1zm.6.2l.3.1v.3h.1v-.3h.3l.1-.1h-.4l.1-.4h-.1l-.1.4-.3-.1zm.5-.9h.1v-.4l.4.1v-.1l-.3-.1v-.3H44v.3h-.4v.1h.4zm-3.8-.6l-.3-.1v-.3h-.1v.3l-.3-.1-.1.1.4.1-.1.3h.1l.1-.3.3.1zm-.2 1.3h-.4l.1-.4h-.1v.3h-.4v.1h.3v.4h.1v-.4l.4.1zm.6.2l.3.1-.1.3h.1l.1-.3h.3v-.1h-.3l.1-.4h-.1l-.1.4-.3-.1zm.5-.9h.1v-.4l.3.1.1-.1-.4-.1.1-.3h-.1l-.1.3h-.3v.1h.3zm-3.8-.6l-.4-.1.1-.3h-.1v.3l-.4-.1v.1l.3.1v.3h.1v-.3l.4.1zm-.3 1.3h-.3l.1-.4h-.1l-.1.3h-.3v.1h.3l-.1.4h.1l.1-.4.3.1zm.6.2l.4.1-.1.3h.1l.1-.3h.3v-.1H38v-.4h-.1v.4l-.3-.1zm.5-.9h.1l.1-.4.3.1v-.1l-.3-.1.1-.3h-.1l-.1.3h-.3v.1h.3zM50.2 15v-.5.1l-.3-.1v.1h.3v.4zm-.2 1.3l.1-.3h.1v-.1h-.1v-.3l-.1.3-.3-.1v.1l.3.1-.1.3zm-2.6-2.1l-.1.4-.3-.1v.1h.3l-.1.4h.1l.1-.3h.3v-.1h-.3zm-.3 2.1V16l.4.1V16l-.3-.1v-.3h-.1v.3l-.4-.1v.1l.4.1-.1.3zm1-.1h.3v.4l.1-.4.3.1v-.1l-.3-.1.1-.3h-.1l-.1.3h-.3zm.6-1.8v.4l-.4-.1v.1l.3.1v.3h.1v-.3h.4l-.4-.1.1-.3zm-4.2-.2h-.1v.4l-.4-.1v.1h.4l-.1.4h.1v-.3h.4v-.1h-.3zm-.3 2.1V16l.3.1.1-.1-.4-.1.1-.3h-.1l-.1.3-.3-.1v.1l.3.1v.3zm1-.1h.3l-.1.4h.1l.1-.4.3.1v-.1l-.3-.1v-.3l-.1.3h-.3zm.6-1.8l-.1.4-.3-.1v.1l.3.1v.3l.1-.3h.3l-.3-.1.1-.3zm-4.2-.2h-.1l-.1.4-.3-.1v.1h.3v.4h.1v-.3h.3l.1-.1h-.4zm-.4 2.1l.1-.3.3.1V16l-.3-.1.1-.3h-.1l-.1.3-.3-.1v.1l.3.1-.1.3zm1-.1h.4l-.1.4h.1v-.4l.4.1v-.1l-.3-.1v-.3h-.1v.3h-.4zm.7-1.8l-.1.4-.3-.1v.1l.3.1-.1.3h.1l.1-.3h.3l-.3-.1v-.3zm-4.2-.2h-.1l-.1.4-.3-.1v.1h.3l-.1.4h.1l.1-.3h.3v-.1h-.3zm-.4 2.1l.1-.3.3.1V16l-.3-.1v-.3h-.1v.3l-.3-.1-.1.1.4.1-.1.3zm1-.1h.3v.4h.1v-.4l.3.1.1-.1-.4-.1.1-.3h-.1l-.1.3h-.3zm.6-1.8v.4l-.4-.1v.1l.3.1v.3h.1v-.3h.4l-.3-.1v-.3zm-4.2.3h.3v-.1h-.3v-.4h-.1v.8zm.1 1.3l-.2-.1v.1l.2.1zm.6.2h.3l-.1.4h.1l.1-.4.3.1v-.1l-.3-.1.1-.3h-.1l-.1.3h-.3zm.6-1.8l-.1.4-.3-.1v.1l.3.1v.3h.1v-.3h.4l-.4-.1.1-.3zm12.1-3.1v.3h-.4l.3.1v.3l.1.1v-.4l.4.1v-.1l-.4-.1.1-.3zm-.2 1.3l-.1.3h-.3v.1h.3v.4l.1-.3h.3V13h-.3l.1-.4zm1.3.6l-.3-.1-.1.1.4.1-.1.3h.1v-.8zm-.1-1.3h.1v-.1h-.1zm-3.9-.6l-.1.3h-.3l.3.1v.4l.1-.4.3.1v-.1l-.3-.1.1-.3zm-.2 1.3l-.1.3h-.3v.1h.3l-.1.4h.1l.1-.3h.3V13H46v-.4zm.9.6l.3.1v.3h.1v-.3h.4l-.4-.1.1-.3-.1-.1v.4l-.4-.1zm.6-1.7v.3h-.3l-.1.1h.4l-.1.4h.1l.1-.4.3.1v-.1h-.3v-.4zm-4.2-.2l-.1.3h-.3l.3.1-.1.3.1.1.1-.4.3.1v-.1l-.3-.1v-.3zm-.3 1.3v.3h-.4v.1h.4l-.1.4h.1v-.3h.4V13h-.3v-.4zm1 .6l.3.1-.1.3h.1l.1-.3h.3l-.3-.1.1-.3-.1-.1-.1.4-.3-.1zm.6-1.7v.3h-.4v.1h.3v.4h.1v-.4l.4.1v-.1h-.4l.1-.4zm-4.3-.2v.3h-.4l.4.1-.1.3.1.1v-.4l.4.1v-.1l-.3-.1v-.3zm-.2 1.3l-.1.3h-.3v.1h.3v.4h.1v-.3h.3l.1-.1h-.4l.1-.4zm1 .6l.3.1-.1.3h.1l.1-.3h.3l-.3-.1v-.4l-.1.4-.3-.1zm.6-1.7l-.1.3h-.3v.1h.3l-.1.4h.1l.1-.4.3.1v-.1h-.3l.1-.4zm-4.3-.2l-.1.3H37l.3.1v.3l.1.1v-.4l.3.1.1-.1-.4-.1.1-.3zm-.2 1.3l-.1.3h-.3v.1h.3l-.1.4h.1l.1-.3h.3V13h-.3l.1-.4zm.9.6l.3.1v.3h.1v-.3h.4l-.3-.1v-.3l-.1-.1v.4l-.4-.1zm.7-1.7l-.1.3h-.3v.1h.3l-.1.4h.1l.1-.4.3.1v-.1h-.3v-.4zm-3.2 1.3v.6-.1h.4l-.4-.1.1-.3zm0-.9h.1v.4h.1v-.4l.4.1v-.1h-.3v-.4h-.1v.3h-.2zm13.5 28.8h.1-.1zm-2.9 0h.1-.1zm-2.9 0zm-3 0h.1-.1zm-2.9 0h.1-.1zm12.8-1.2zm-1.9-1.3l-.3-.1v-.3h-.1v.3h-.4l.4.1-.1.3.1.1.1-.4.3.1zm-.6 1.7v-.3h.4v-.1h-.4l.1-.4h-.1v.4l-.4-.1v.1h.3v.4zm1.3.2l.1-.3h.3l-.3-.1.1-.3h-.1l-.1.3-.3-.1v.1l.3.1-.1.3zm.7-1.7h-.4l.1-.4h-.1l-.1.3h-.3v.1h.3v.4h.1v-.3h.3zm-4.3-.2l-.4-.1.1-.3H45v.3h-.4l.3.1v.3l.1.1v-.4l.4.1zm-.7 1.7l.1-.3h.3v-.1h-.3l.1-.4h-.1l-.1.4-.3-.1v.1h.3v.4zm1.4.2l.1-.3h.3l-.3-.1v-.3h-.1v.3l-.3-.1-.1.1.4.1-.1.3zm.6-1.7h-.3l.1-.4h-.1l-.1.3H46v.1h.3l-.1.4h.1l.1-.3h.3zm-4.3-.2l-.3-.1.1-.3h-.1l-.1.3h-.3l.3.1v.4l.1-.4.3.1zm-.6 1.7l.1-.3h.3v-.1h-.3v-.4l-.1.4-.3-.1v.1h.3l-.1.4zm1.4.2v-.3h.4l-.4-.1.1-.3h-.1v.3l-.4-.1v.1l.3.1v.3zm.6-1.7h-.3V38h-.1v.3h-.3l-.1.1h.4l-.1.4h.1l.1-.3h.3zm-4.3-.2l-.3-.1v-.3l-.1.3h-.3l.3.1-.1.3.1.1.1-.4.3.1zm-.6 1.7v-.3h.4v-.1H39v-.4h-.1v.4l-.4-.1v.1h.4l-.1.4zm1.3.2l.1-.3h.3l-.3-.1.1-.3h-.1l-.1.3-.3-.1v.1l.3.1-.1.3zm.7-1.7h-.4l.1-.4h-.1v.3h-.4v.1h.3v.4h.1v-.3h.4zm-4.7.2v-.4l.4.1v-.1l-.3-.1v-.3h-.1v.3h-.4l.4.1-.1.3zm-.2 1.3v-.3h.3l.1-.1H36l.1-.4H36l-.1.4-.3-.1v.1h.3v.4zm1.3.2l.1-.3h.3l-.3-.1v-.3l-.1.3-.3-.1-.1.1.4.1-.1.3zm.6-1.7h-.3l.1-.4h-.1l-.1.3h-.3v.1h.3l-.1.4h.1l.1-.3h.3zm11.8-2.8v-.3h.3l.1-.1h-.4l.1-.4h-.1l-.1.4-.3-.1v.1l.3.1v.3zm-.6.9l.3.1-.1.3.1.1.1-.4.3.1v-.1l-.3-.1.1-.3h-.1l-.1.3h-.3zm-2.4-.9l.1-.3h.3v-.1h-.3l.1-.4h-.1l-.1.4-.3-.1v.1l.3.1-.1.3zm-.6.9l.4.1-.1.3.1.1.1-.4.3.1v-.1l-.3-.1v-.3h-.1v.3h-.3zm1.8-.1l-.1.3h-.3v.1h.3v.4h.1v-.4l.3.1.1-.1h-.4l.1-.4zm.6-.9l-.3-.1v-.3h-.1v.3l-.4-.1v.1l.4.1-.1.3h.1v-.3l.4.1zm-4.7.1l.1-.3h.3v-.1h-.3v-.4h-.1v.4l-.3-.1-.1.1.4.1-.1.3zm-.6.9l.3.1v.3l.1.1v-.4l.4.1v-.1l-.4-.1.1-.3h-.1v.3h-.4zm1.8-.1l-.1.3h-.3v.1h.3l-.1.4h.1l.1-.4.3.1v-.1H45l.1-.4zm.6-.9l-.4-.1.1-.3h-.1l-.1.3-.3-.1v.1l.3.1v.3h.1v-.3l.3.1zm-4.7.1v-.3h.4v-.1h-.4l.1-.4h-.1v.4l-.4-.1v.1l.3.1v.3zm-.6.9l.3.1v.4l.1-.4.3.1v-.1l-.3-.1.1-.3h-.1l-.1.3h-.3zm1.7-.1v.3h-.3l-.1.1h.4l-.1.4h.1l.1-.4.3.1v-.1h-.3v-.4zm.6-.9l-.3-.1.1-.3h-.1l-.1.3-.3-.1v.1l.3.1-.1.3h.1l.1-.3.3.1zm-4.7.1l.1-.3h.3v-.1H38l.1-.4H38l-.1.4-.3-.1v.1l.3.1v.3zm-.5.9l.3.1-.1.3.1.1.1-.4.3.1v-.1l-.3-.1v-.3l-.1.3h-.3zm1.7-.1l-.1.3h-.3v.1h.3v.4h.1v-.4l.4.1v-.1h-.4l.1-.4zm.6-.9l-.3-.1v-.3h-.1v.3l-.3-.1-.1.1.4.1-.1.3h.1l.1-.3.3.1zM36 37.2h.1l.1-.4.3.1v-.1h-.3l.1-.4h-.1l-.1.3h-.3v.1h.3zm.8-1.7l-.4-.1.1-.3h-.1l-.1.3-.3-.1v.1l.3.1v.3h.1v-.3l.4.1zm12.1-3.2l-.3-.1v-.3h-.1v.3h-.4v.1h.4l-.1.4h.1v-.4l.4.1zm-.2 1.3h-.4l.1-.4h-.1l-.1.4-.3-.1v.1l.3.1v.3h.1v-.3h.3zm.6.2l.3.1-.1.3h.1l.1-.3.3.1v-.1l-.3-.1v-.3l-.1.3-.3-.1zm.5-.9l.1-.3h.3v-.1h-.3l.1-.4h-.1l-.1.4-.3-.1v.1h.3zm-3.8-.6l-.4-.1.1-.3h-.1l-.1.3h-.3v.1h.3v.4h.1v-.4l.3.1zm-.3 1.3h-.3l.1-.4h-.1l-.1.4-.3-.1v.1l.3.1-.1.3h.1l.1-.3h.3zm.6.2l.4.1-.1.3h.1v-.3l.4.1v-.1l-.3-.1v-.3h-.1v.3l-.4-.1zm.5-.9h.1l.1-.3h.3v-.1H47v-.4l-.1.4-.3-.1v.1h.3zm-3.8-.6l-.3-.1.1-.3h-.1l-.1.3h-.3v.1h.3l-.1.4h.1l.1-.4.3.1zm-.2 1.3h-.3v-.4h-.1v.4l-.3-.1-.1.1.4.1-.1.3h.1l.1-.3h.3zm.6.2l.3.1v.3h.1v-.3l.3.1.1-.1-.4-.1.1-.3h-.1l-.1.3-.3-.1zm.5-.9h.1v-.3h.4v-.1h-.3v-.4H44v.4l-.4-.1v.1h.4zm-3.8-.6l-.3-.1v-.3h-.1v.3h-.3l-.1.1h.4l-.1.4h.1l.1-.4.3.1zm-.2 1.3h-.4l.1-.4h-.1v.4l-.4-.1v.1l.3.1v.3h.1v-.3h.4zm.6.2l.3.1-.1.3h.1l.1-.3.3.1v-.1l-.3-.1.1-.3h-.1l-.1.3-.3-.1zm.5-.9h.1v-.3h.3l.1-.1h-.4l.1-.4h-.1l-.1.4-.3-.1v.1h.3zm-3.8-.6l-.4-.1.1-.3h-.1v.3h-.4v.1h.3v.4h.1v-.4l.4.1zm-.3 1.3h-.3l.1-.4h-.1l-.1.4-.3-.1v.1l.3.1-.1.3h.1l.1-.3h.3zm.6.2l.4.1-.1.3h.1l.1-.3.3.1v-.1l-.3-.1v-.3h-.1v.3l-.3-.1zm.5-.9h.1l.1-.3h.3v-.1h-.3l.1-.4h-.1l-.1.4-.3-.1v.1h.3zm12.2-3.2v-.5.1l-.3-.1v.1l.3.1v.3zm-.2 1.4l.1-.4.1.1v-.1l-.1-.1v-.3l-.1.3h-.3v.1h.3l-.1.4zM47.4 29v-.1l-.1.4-.3-.1v.1l.3.1-.1.3h.1l.1-.3h.3l-.3-.1zm-.3 2.1v-.4l.4.1v-.1l-.3-.1v-.3h-.1v.3h-.4v.1h.4l-.1.4zm1-.2h.3v.4l.1-.3h.3v-.1h-.3l.1-.4h-.1l-.1.4-.3-.1zm.6-1.7v.3h-.4l.3.1v.3l.1.1v-.4l.4.1v-.1l-.4-.1.1-.3zm-4.2-.2l-.1-.1v.4l-.4-.1v.1l.4.1-.1.3h.1v-.3h.4l-.3-.1zm-.3 2.1v-.4l.3.1.1-.1-.4-.1.1-.3h-.1l-.1.3h-.3v.1h.3v.4zm1-.2h.3l-.1.4h.1l.1-.3h.3v-.1h-.3v-.4l-.1.4-.3-.1zm.6-1.7l-.1.3h-.3l.3.1v.4l.1-.4.3.1v-.1l-.3-.1.1-.3zm-4.2-.2l-.1-.1-.1.4-.3-.1v.1l.3.1v.3h.1v-.3h.4l-.4-.1zm-.4 2.1l.1-.4.3.1v-.1l-.3-.1.1-.3h-.1l-.1.3h-.3v.1h.3l-.1.4zm1-.2h.4l-.1.4h.1V31h.4v-.1h-.3v-.4h-.1v.4l-.4-.1zm.7-1.7l-.1.3h-.3l.3.1-.1.3.1.1.1-.4.3.1v-.1l-.3-.1v-.3zm-4.2-.2l-.1-.1-.1.4-.3-.1v.1l.3.1-.1.3h.1l.1-.3h.3l-.3-.1zm-.4 2.1l.1-.4.3.1v-.1l-.3-.1v-.3h-.1v.3H38l-.1.1h.4l-.1.4zm1-.2h.3v.4h.1V31h.3l.1-.1h-.4l.1-.4h-.1l-.1.4-.3-.1zm.6-1.7v.3h-.4l.3.1v.3l.1.1v-.4l.4.1v-.1l-.3-.1v-.3zm-4.2.2h.3l-.3-.1V29l-.1-.1v.8zm.1 1.3h-.2v.1h.2zm.6.2h.3l-.1.4h.1l.1-.3h.3v-.1h-.3l.1-.4h-.1l-.1.4-.3-.1zm.6-1.7l-.1.3h-.3l.3.1v.3l.1.1v-.4l.3.1.1-.1-.4-.1.1-.3zM49.1 26v.3h-.4v.1h.3v.4h.1v-.4l.4.1v-.1h-.4l.1-.4zm-.2 1.3l-.1.4-.3-.1v.1l.3.1v.3l.1-.3h.3v-.1h-.3l.1-.3zm1.3.6h-.4l.4.1-.1.3.1.1v-.8zm-.1-1.3h.1v-.1h-.1zm-3.9-.6l-.1.3h-.3v.1h.3v.4l.1-.4.3.1v-.1h-.3l.1-.4zm-.2 1.3l-.1.4-.3-.1v.1l.3.1-.1.3h.1l.1-.3h.3v-.1H46v-.3zm.9.6l.3.1v.3l.1.1V28l.4.1V28l-.4-.1.1-.3h-.1v.3h-.4zm.6-1.7v.4l-.3-.1-.1.1.4.1-.1.3h.1l.1-.3h.3v-.1h-.3v-.4zm-4.2-.2l-.1.3h-.3v.1h.3l-.1.4h.1l.1-.4.3.1v-.1h-.3V26zm-.3 1.3v.4l-.4-.1v.1l.4.1-.1.3h.1v-.3h.4v-.1h-.3v-.3zm1 .6l.3.1-.1.3.1.1.1-.4.3.1V28l-.3-.1.1-.3h-.1l-.1.3H44zm.6-1.7v.4l-.4-.1v.1l.3.1v.3h.1v-.3h.4v-.1h-.4l.1-.4zm-4.3-.2v.3h-.4v.1h.4l-.1.4h.1v-.4l.4.1v-.1h-.3V26zm-.2 1.3l-.1.4-.3-.1v.1l.3.1v.3h.1v-.3h.3l.1-.1h-.4l.1-.3zm1 .6l.3.1-.1.3.1.1.1-.4.3.1V28l-.3-.1v-.3l-.1.3h-.3zm.6-1.7l-.1.4-.3-.1v.1l.3.1-.1.3h.1l.1-.3h.3v-.1h-.3l.1-.4zm-4.3-.2l-.1.3H37v.1h.3v.4h.1v-.4l.3.1.1-.1h-.4l.1-.4zm-.2 1.3l-.1.4-.3-.1v.1l.3.1-.1.3h.1l.1-.3h.3v-.1h-.3l.1-.3zm.9.6l.3.1v.3l.1.1V28l.4.1V28l-.3-.1v-.3h-.1v.3h-.4zm.7-1.7l-.1.4-.3-.1v.1l.3.1-.1.3h.1l.1-.3h.3v-.1h-.3v-.4zm-3.2 1.4v.5-.1l.3.1.1-.1-.4-.1.1-.3zm0-1l.1.1v.3h.1v-.3h.4v-.1h-.3v-.4h-.1v.4l-.2-.1zm13.5 28.9h.1-.1zm-2.9 0h.1-.1zm-2.9 0zm-3 0h.1-.1zm-2.9 0h.1-.1zm12.8-1.3zm-1.9-1.3H48v-.4h-.1v.3h-.3l-.1.1h.4l-.1.4h.1l.1-.4.3.1zm-.6 1.7v-.3h.4l-.4-.1.1-.3-.1-.1v.4l-.4-.1v.1l.3.1v.3zm1.3.3l.1-.4.3.1v-.1l-.3-.1.1-.3h-.1l-.1.3h-.3l.3.1-.1.3zm.7-1.8h-.4l.1-.3-.1-.1-.1.4-.3-.1v.1l.3.1v.3h.1v-.3h.3zm-4.3-.2H45l.1-.4H45v.3h-.4v.1h.3v.4h.1v-.4l.4.1zm-.7 1.7l.1-.3h.3l-.3-.1.1-.3-.1-.1-.1.4-.3-.1v.1l.3.1v.3zm1.4.3l.1-.4.3.1v-.1l-.3-.1v-.3h-.1v.3h-.4l.4.1-.1.3zm.6-1.8h-.3l.1-.3-.1-.1-.1.4-.3-.1v.1l.3.1-.1.3h.1l.1-.3h.3zm-4.3-.2h-.3l.1-.4h-.1l-.1.3h-.3v.1h.3v.4l.1-.4.3.1zm-.6 1.7l.1-.3h.3l-.3-.1v-.4l-.1.4-.3-.1v.1l.3.1-.1.3zm1.4.3v-.4l.4.1v-.1l-.4-.1.1-.3h-.1v.3h-.4l.3.1v.3zm.6-1.8h-.3v-.3l-.1-.1v.4l-.3-.1-.1.1.4.1-.1.3h.1l.1-.3h.3zm-4.3-.2h-.3v-.4l-.1.3h-.3v.1h.3l-.1.4h.1l.1-.4.3.1zm-.6 1.7v-.3h.4l-.3-.1v-.3l-.1-.1v.4l-.4-.1v.1l.4.1-.1.3zm1.3.3l.1-.4.3.1v-.1l-.3-.1.1-.3h-.1l-.1.3h-.3l.3.1-.1.3zm.7-1.8h-.4l.1-.3-.1-.1v.4l-.4-.1v.1l.3.1v.3h.1v-.3h.4zm-4.7.2v-.4l.4.1v-.1h-.3v-.4h-.1v.3h-.4v.1h.4l-.1.4zm-.2 1.3v-.3h.4l-.4-.1.1-.3-.1-.1-.1.4-.3-.1v.1l.3.1v.3zm1.3.3l.1-.4.3.1v-.1l-.3-.1v-.3l-.1.3h-.4l.4.1-.1.3zm.6-1.8h-.3l.1-.3-.1-.1-.1.4-.3-.1v.1l.3.1-.1.3h.1l.1-.3h.3zm11.8-2.8V50l.3.1.1-.1-.4-.1.1-.3h-.1l-.1.3-.3-.1v.1l.3.1v.3zm-.6 1h.3l-.1.4h.1l.1-.4.3.1v-.1h-.3l.1-.4h-.1l-.1.3h-.3zm-2.4-1l.1-.3.3.1V50l-.3-.1.1-.3h-.1l-.1.3-.3-.1v.1l.3.1-.1.3zm-.6 1h.4l-.1.4h.1l.1-.4.3.1v-.1h-.3v-.4h-.1v.3h-.3zm1.8-.2l-.1.4-.3-.1v.1l.3.1v.3h.1v-.3h.3l.1-.1h-.4l.1-.4zm.6-.9l-.3-.1v-.3h-.1v.3h-.4v.1h.4l-.1.4h.1v-.4l.4.1zm-4.7.1l.1-.3.3.1V50l-.3-.1v-.3h-.1v.3l-.3-.1-.1.1.4.1-.1.3zm-.6 1h.3v.4h.1v-.4l.4.1v-.1h-.4l.1-.4h-.1v.3h-.4zm1.8-.2l-.1.4-.3-.1v.1l.3.1-.1.3h.1l.1-.3h.3v-.1H45l.1-.4zm.6-.9l-.4-.1.1-.3h-.1l-.1.3h-.3v.1h.3v.4h.1v-.4l.3.1zm-4.7.1V50l.4.1V50l-.4-.1.1-.3h-.1v.3l-.4-.1v.1l.3.1v.3zm-.6 1h.3v.4l.1-.4.3.1v-.1h-.3l.1-.4h-.1l-.1.3h-.3zm1.7-.2v.4l-.3-.1-.1.1.4.1-.1.3h.1l.1-.3h.3v-.1h-.3v-.4zm.6-.9l-.3-.1.1-.3h-.1l-.1.3h-.3v.1h.3l-.1.4h.1l.1-.4.3.1zm-4.7.1l.1-.3.3.1V50l-.3-.1.1-.3H38l-.1.3-.3-.1v.1l.3.1v.3zm-.5 1h.3l-.1.4h.1l.1-.4.3.1v-.1h-.3v-.4l-.1.3h-.3zm1.7-.2l-.1.4-.3-.1v.1l.3.1v.3h.1v-.3h.4v-.1h-.4l.1-.4zm.6-.9l-.3-.1v-.3h-.1v.3H39l-.1.1h.4l-.1.4h.1l.1-.4.3.1zM36 51.9h.1l.1-.3h.3v-.1h-.3l.1-.4h-.1l-.1.4-.3-.1v.1l.3.1zm.8-1.7l-.4-.1.1-.3h-.1l-.1.3H36v.1h.3v.4h.1v-.4l.4.1zM48.9 47h-.3v-.4h-.1v.4l-.4-.1v.1h.4l-.1.4h.1v-.3h.4zm-.2 1.4l-.4-.1.1-.3h-.1l-.1.3-.3-.1v.1l.3.1v.3h.1v-.3l.3.1zm.6.2h.3l-.1.4h.1l.1-.4.3.1v-.1l-.3-.1v-.3l-.1.3h-.3zm.5-1l.1-.3h.3l-.3-.1.1-.3-.1-.1-.1.4-.3-.1v.1l.3.1zM46 47h-.4l.1-.4h-.1l-.1.4-.3-.1v.1h.3v.4h.1v-.3h.3zm-.3 1.4l-.3-.1.1-.3h-.1l-.1.3-.3-.1v.1l.3.1-.1.3h.1l.1-.3.3.1zm.6.2h.4l-.1.4h.1v-.4l.4.1v-.1l-.3-.1v-.3h-.1v.3h-.4zm.5-1h.1l.1-.3h.3l-.3-.1v-.4l-.1.4-.3-.1v.1l.3.1zM43 47h-.3l.1-.4h-.1l-.1.4-.3-.1v.1h.3l-.1.4h.1l.1-.3h.3zm-.2 1.4l-.3-.1V48h-.1v.3l-.3-.1-.1.1.4.1-.1.3h.1l.1-.3.3.1zm.6.2h.3v.4h.1v-.4l.3.1.1-.1-.4-.1.1-.3h-.1l-.1.3h-.3zm.5-1h.1v-.3h.4l-.3-.1v-.3l-.1-.1v.4l-.4-.1v.1l.4.1zm-3.8-.6h-.3v-.4h-.1v.4l-.3-.1-.1.1h.4l-.1.4h.1l.1-.3h.3zm-.2 1.4l-.4-.1.1-.3h-.1v.3l-.4-.1v.1l.3.1v.3h.1v-.3l.4.1zm.6.2h.3l-.1.4h.1l.1-.4.3.1v-.1l-.3-.1.1-.3h-.1l-.1.3h-.3zm.5-1h.1v-.3h.4l-.4-.1.1-.3-.1-.1-.1.4-.3-.1v.1l.3.1zm-3.8-.6h-.4l.1-.4h-.1v.4l-.4-.1v.1h.3v.4h.1v-.3h.4zm-.3 1.4l-.3-.1.1-.3h-.1l-.1.3-.3-.1v.1l.3.1-.1.3h.1l.1-.3.3.1zm.6.2h.4l-.1.4h.1l.1-.4.3.1v-.1l-.3-.1v-.3h-.1v.3h-.3zm.5-1h.1l.1-.3h.3l-.3-.1.1-.3-.1-.1-.1.4-.3-.1v.1l.3.1zm12.2-3.1v-.6.1h-.3l.3.1v.3zm-.2 1.3l.1-.3h.1v-.1h-.1V45l-.1.3h-.3v.1h.3l-.1.4zm-2.6-2.1l-.1.3H47l.3.1-.1.3.1.1.1-.4.3.1v-.1l-.3-.1zm-.3 2.1v-.3h.4v-.1h-.3V45h-.1v.3h-.4v.1h.4l-.1.4zm1-.2l.3.1v.3l.1-.3h.3l-.3-.1.1-.3-.1-.1-.1.4-.3-.1zm.6-1.7v.3h-.4v.1h.3v.4h.1v-.4l.4.1v-.1h-.4l.1-.4zm-4.2-.2h-.1v.3H44l.4.1-.1.3.1.1v-.4l.4.1v-.1l-.3-.1zm-.3 2.1v-.3h.3l.1-.1h-.4l.1-.4h-.1l-.1.3h-.3v.1h.3v.4zm1-.2l.3.1-.1.3h.1l.1-.3h.3l-.3-.1v-.4l-.1.4-.3-.1zm.6-1.7l-.1.3h-.3v.1h.3v.4l.1-.4.3.1v-.1h-.3l.1-.4zm-4.2-.2h-.1l-.1.3h-.3l.3.1v.3l.1.1v-.4l.3.1.1-.1-.4-.1zm-.4 2.1l.1-.3h.3v-.1h-.3l.1-.4h-.1l-.1.3h-.3v.1h.3l-.1.4zm1-.2l.4.1-.1.3h.1v-.3h.4l-.3-.1v-.3l-.1-.1v.4l-.4-.1zm.7-1.7l-.1.3h-.3v.1h.3l-.1.4h.1l.1-.4.3.1v-.1h-.3v-.4zm-4.2-.2h-.1l-.1.3h-.3l.3.1-.1.3.1.1.1-.4.3.1v-.1l-.3-.1zm-.4 2.1l.1-.3h.3v-.1h-.3V45h-.1v.3H38l-.1.1h.4l-.1.4zm1-.2l.3.1v.3h.1v-.3h.4l-.4-.1.1-.3-.1-.1-.1.4-.3-.1zm.6-1.7v.3h-.4v.1h.3v.4h.1v-.4l.4.1v-.1H40v-.4zm-4.2.2l.3.1v-.1l-.3-.1v-.3h-.1v.8zm.1 1.3h-.2v.1h.2zm.6.2l.3.1-.1.3h.1l.1-.3h.3l-.3-.1.1-.3-.1-.1-.1.4-.3-.1zm.6-1.7l-.1.3h-.3v.1h.3v.4h.1v-.4l.3.1.1-.1H37l.1-.4zm12.1-3.2v.4l-.4-.1v.1l.3.1v.3h.1v-.3h.4v-.1h-.4l.1-.4zm-.2 1.4l-.1.3-.3-.1v.1l.3.1v.4l.1-.4.3.1v-.1l-.3-.1.1-.3zm1.3.5h-.3l-.1.1h.4l-.1.4h.1v-.8zm-.1-1.3l.1.1v-.1l-.1-.1zm-3.9-.6l-.1.4-.3-.1v.1l.3.1v.3l.1-.3h.3v-.1h-.3l.1-.4zm-.2 1.4l-.1.3-.3-.1v.1l.3.1-.1.3.1.1.1-.4.3.1v-.1l-.3-.1v-.3zm.9.6h.3v.4h.1v-.4l.4.1v-.1h-.4l.1-.4h-.1v.3h-.4zm.6-1.7v.3l-.3-.1-.1.1.4.1-.1.3h.1l.1-.3.3.1v-.1l-.3-.1V41zm-4.2-.3l-.1.4-.3-.1v.1l.3.1-.1.3h.1l.1-.3h.3v-.1h-.3v-.4zm-.3 1.4v.3l-.4-.1v.1l.4.1-.1.3.1.1v-.4l.4.1v-.1l-.3-.1v-.3zm1 .6h.3l-.1.4h.1l.1-.4.3.1v-.1h-.3l.1-.4h-.1l-.1.3H44zm.6-1.7v.3l-.4-.1v.1l.3.1v.3h.1v-.3l.4.1v-.1l-.4-.1.1-.3zm-4.3-.3v.4l-.4-.1v.1l.4.1-.1.3h.1v-.3h.4v-.1h-.3v-.4zm-.2 1.4l-.1.3-.3-.1v.1l.3.1v.3l.1.1v-.4l.3.1.1-.1-.4-.1.1-.3zm1 .6h.3l-.1.4h.1l.1-.4.3.1v-.1h-.3v-.4l-.1.3h-.3zm.6-1.7l-.1.3-.3-.1v.1l.3.1-.1.3h.1l.1-.3.3.1v-.1l-.3-.1.1-.3zm-4.3-.3l-.1.4-.3-.1v.1l.3.1v.3h.1v-.3h.3l.1-.1h-.4l.1-.4zm-.2 1.4l-.1.3-.3-.1v.1l.3.1-.1.3.1.1.1-.4.3.1v-.1l-.3-.1.1-.3zm.9.6h.3v.4h.1v-.4l.4.1v-.1h-.3v-.4h-.1v.3h-.4zm.7-1.7l-.1.3-.3-.1v.1l.3.1-.1.3h.1l.1-.3.3.1v-.1l-.3-.1V41zm-3.2 1.3v.5-.1l.3.1.1-.1h-.4l.1-.4zm0-.9h.1v.3h.1v-.3l.4.1v-.1l-.3-.1V41h-.1v.3h-.2zm-1.1-30.1h.1-.1zm-3 0h.1-.1zm-2.9 0h.1-.1zm-2.9 0h.1-.1zm-3 0h.1-.1zM35.6 10zm-1.9-1.3h-.4l.1-.4h-.1l-.1.4-.3-.1v.1l.3.1v.3h.1v-.3h.3zm-.7 1.8l.1-.4.3.1v-.1l-.3-.1.1-.3h-.1l-.1.3-.3-.1v.1l.3.1-.1.3zm1.4.2v-.4l.4.1v-.1h-.3v-.4h-.1v.3H34v.1h.3v.4zM35 9l-.3-.1v-.3l-.1.3-.3-.1-.1.1.4.1-.1.3h.1l.1-.3.3.1zm-4.3-.3h-.3l.1-.4h-.1l-.1.4-.3-.1v.1l.3.1-.1.3h.1l.1-.3h.3zm-.6 1.8l.1-.4.3.1v-.1l-.3-.1v-.3h-.1v.3l-.3-.1-.1.1.4.1-.1.3zm1.4.2v-.4l.3.1.1-.1h-.4l.1-.4h-.1l-.1.3h-.3v.1h.3v.4zm.6-1.7l-.3-.1v-.3h-.1v.3l-.4-.1v.1l.3.1v.3h.1V9l.4.1zm-4.3-.3h-.3v-.4h-.1v.4l-.3-.1-.1.1.4.1-.1.3h.1l.1-.3h.3zm-.6 1.8v-.4l.4.1v-.1l-.4-.1.1-.3h-.1l-.1.3-.3-.1v.1l.3.1v.3zm1.3.2l.1-.4.3.1v-.1h-.3l.1-.4h-.1l-.1.3h-.3v.1h.3l-.1.4zm.7-1.7l-.4-.1.1-.3h-.1l-.1.3-.3-.1v.1l.3.1v.3h.1V9l.3.1zm-4.3-.3h-.4l.1-.4h-.1l-.1.4-.3-.1v.1l.3.1v.3h.1v-.3h.4zm-.7 1.8l.1-.4.3.1v-.1l-.3-.1.1-.3h-.1l-.1.3-.3-.1v.1l.3.1-.1.3zm1.4.2l.1-.4.3.1v-.1h-.3v-.4h-.1v.3h-.4v.1h.4l-.1.4zm.6-1.7l-.3-.1.1-.3h-.1l-.1.3-.3-.1v.1l.3.1-.1.3h.1l.1-.3.3.1zm-4.7.1l.1-.3h.3v-.1h-.3l.1-.4h-.1l-.1.4-.3-.1v.1l.3.1-.1.3zm-.2 1.4l.1-.4.3.1v-.1l-.3-.1v-.3h-.1v.3l-.3-.1v.1l.3.1-.1.3zm1.4.2v-.4l.4.1v-.1h-.4l.1-.4h-.1l-.1.3h-.3v.1h.3v.4zm.6-1.7l-.3-.1v-.3h-.1v.3l-.4-.1v.1l.4.1-.1.3h.1L23 9l.3.1zM35 6.2l.1-.4.3.1v-.1l-.3-.1v-.3l-.1.3h-.3l.3.1-.1.3zm-.6.9h.4l-.1.4h.1v-.3h.4v-.1h-.3v-.4h-.1v.4l-.4-.1zm-2.3-.9v-.4l.4.1v-.1l-.3-.1v-.3h-.1v.3h-.4l.4.1-.1.3zm-.6.9h.3v.4h.1v-.3h.3l.1-.1h-.4l.1-.4h-.1l-.1.4-.3-.1zm1.7-.1v.3l-.3-.1-.1.1.4.1-.1.3h.1l.1-.3h.3l-.3-.1V7zm.6-1h-.3l.1-.4h-.1l-.1.3h-.3V6h.3l-.1.4h.1l.1-.3h.3zm-4.6.2v-.4l.3.1.1-.1-.4-.1.1-.3h-.1l-.1.3h-.3l.3.1v.3zm-.6.9h.3l-.1.4h.1l.1-.3h.3v-.1H29l.1-.4H29l-.1.4-.3-.1zm1.7-.1v.3l-.4-.1v.1l.3.1v.3h.1v-.3h.4l-.3-.1V7zm.6-1h-.3v-.4h-.1v.3h-.3l-.1.1h.4l-.1.4h.1l.1-.3h.3zm-4.7.2l.1-.4.3.1v-.1l-.3-.1.1-.3h-.1l-.1.3h-.3l.3.1-.1.3zm-.6.9h.4l-.1.4h.1l.1-.3h.3v-.1h-.3v-.4H26v.4l-.4-.1zm1.8-.1l-.1.3-.3-.1v.1l.3.1v.3h.1v-.3h.4l-.4-.1.1-.3zm.6-1h-.3v-.4h-.1v.3h-.4V6h.3v.4h.1v-.3h.4zm-4.7.2l.1-.4.3.1v-.1l-.3-.1v-.3h-.1v.3h-.4l.4.1-.1.3zm-.6.9h.3v.4h.1v-.3h.4v-.1h-.4l.1-.4h-.1l-.1.4-.3-.1zm1.8-.1l-.1.3-.3-.1v.1l.3.1-.1.3h.1l.1-.3h.3l-.3-.1.1-.3zm.6-1h-.4l.1-.4h-.1l-.1.3h-.3V6h.3v.4h.1v-.3h.3zm-3.7 1.7h.1l.1-.3h.3l-.3-.1V7h-.1v.3l-.4-.1v.1l.4.1zm.7-1.7h-.3l.1-.4h-.1l-.1.3h-.3V6h.3l-.1.4h.1l.1-.3h.3zm12.1-3.2h-.3l.1-.4h-.1l-.1.4-.3-.1v.1l.3.1-.1.3h.1l.1-.3h.3zM34 4.2l-.3-.1v-.3l-.1.3h-.3l.3.1-.1.3.1.1.1-.4.3.1zm.6.2h.3v.4h.1v-.4l.4.1v-.1H35l.1-.4H35l-.1.3h-.3zm.5-1h.1l.1-.3.3.1v-.1l-.3-.1v-.3h-.1V3l-.3-.1-.1.1.4.1zm-3.8-.6H31v-.4l-.1.4-.3-.1v.1l.3.1-.1.3h.1l.1-.3h.3zm-.2 1.4l-.3-.1v-.3h-.1v.3h-.4l.3.1v.3l.1.1v-.4l.4.1zm.6.2h.3l-.1.4h.1l.1-.4.3.1v-.1h-.3l.1-.4h-.1l-.1.3h-.3zm.5-1h.1v-.3l.4.1v-.1l-.4-.1.1-.3h-.1l-.1.3-.3-.1V3l.3.1zm-3.8-.6h-.3v-.4H28v.4l-.4-.1v.1l.3.1v.3h.1v-.3h.4zm-.2 1.4l-.4-.1.1-.3h-.1l-.1.3h-.3l.3.1v.3l.1.1v-.4l.3.1zm.5.2h.4l-.1.4h.1l.1-.4.3.1v-.1h-.3V4h-.1v.3h-.3zm.5-1h.1l.1-.3.3.1v-.1l-.3-.1.1-.3h-.1l-.1.3-.3-.1V3l.3.1zm-3.7-.6h-.4l.1-.4h-.1l-.1.4-.3-.1v.1l.3.1v.3h.1v-.3h.3zm-.3 1.4l-.3-.1.1-.3h-.1l-.1.3h-.3l.3.1-.1.3.1.1.1-.4.3.1zm.6.2h.3v.4h.1v-.4l.4.1v-.1h-.3V4h-.1v.3h-.4zm.5-1h.1l.1-.3.3.1v-.1l-.3-.1v-.3h-.1V3l-.3-.1-.1.1.4.1zm-3.8-.6h-.3l.1-.4h-.1l-.1.4-.3-.1v.1l.3.1-.1.3h.1l.1-.3h.3zm-.2 1.4l-.3-.1v-.3h-.1v.3h-.4l.4.1-.1.3.1.1.1-.4.3.1zm.6.2h.3v.4h.1v-.4l.3.1.1-.1h-.4l.1-.4h-.1l-.1.3h-.3zm.5-1h.1v-.3l.4.1v-.1l-.3-.1v-.3h-.1V3l-.4-.1V3l.3.1zM35.6.3v-.6.1h-.3l-.1.1h.4l-.1.4zm-.2 1.3v-.3h.2v-.1h-.2l.1-.4h-.1v.4l-.4-.1v.1l.3.1v.3zM32.8-.5h-.1v.3h-.4v.1h.3v.4h.1v-.4l.4.1v-.1l-.4-.1zm-.4 2.1l.1-.3h.3v-.1h-.3l.1-.4h-.1l-.1.4-.3-.1v.1l.3.1-.1.3zm1-.2l.4.1-.1.3h.1l.1-.3.3.1v-.1l-.3-.1v-.3h-.1v.3l-.4-.1zm.7-1.7l-.1.4-.3-.1v.1h.3l-.1.4h.1l.1-.3h.3V.1h-.3l.1-.4zm-4.2-.2h-.1l-.1.3h-.3v.1h.3l-.1.4h.1l.1-.4.3.1v-.1l-.3-.1zm-.4 2.1l.1-.3h.3v-.1h-.3V.8l-.1.4-.3-.1v.1l.3.1-.1.3zm1-.2l.3.1v.3h.1v-.3l.4.1v-.1l-.4-.1.1-.3h-.1l-.1.3-.3-.1zm.6-1.7v.4l-.4-.1v.1h.4l-.1.4h.1l.1-.3h.3V.1h-.3v-.4zm-4.2-.2l-.1.3h-.3v.1h.3l-.1.4h.1l.1-.4.3.1v-.1l-.3-.1zm-.3 2.1v-.3h.4v-.1h-.3V.8h-.1v.4l-.4-.1v.1l.3.1v.3zm1-.2l.3.1-.1.3h.1l.1-.3.3.1v-.1l-.3-.1.1-.3H28l-.1.3-.3-.1zm.6-1.7l-.1.4-.3-.1v.1h.3v.4h.1V.2h.4V.1h-.4l.1-.4zM24-.5h-.1v.3h-.4v.1h.3v.4h.1v-.4l.4.1v-.1L24-.2zm-.3 2.1v-.3h.3l.1-.1h-.4l.1-.4h-.1l-.1.4-.3-.1v.1l.3.1v.3zm.9-.2l.4.1-.1.3h.1l.1-.3.3.1v-.1l-.3-.1v-.3H25v.3l-.3-.1zm.7-1.7l-.1.4-.3-.1v.1h.3l-.1.4h.1l.1-.3h.3V.1h-.3l.1-.4zM21-.1l.3.1.1-.1-.4-.1.1-.3H21v.8zm.1 1.3H21v.1h.1zm.6.2l.3.1v.3h.1v-.3l.4.1v-.1l-.3-.1v-.3h-.1v.3l-.4-.1zm.6-1.7v.4L22 0l-.1.1h.4l-.1.4h.1l.1-.3h.3V.1h-.3v-.4zm12.2-3.1l-.1.3-.3-.1v.1l.3.1-.1.3h.1l.1-.3h.3l-.3-.1.1-.3zm-.3 1.3v.3h-.3l-.1.1h.4l-.1.4h.1l.1-.4.3.1v-.1l-.3-.1v-.3zm1.3.6l-.3-.1v.1h.3v.4h.1v-.8zm-.1-1.4l.2.1v-.1h-.2zm-3.9-.5v.3l-.3-.1-.1.1.4.1-.1.3h.1l.1-.3h.3l-.3-.1v-.3zm-.2 1.3v.3h-.4v.1h.3v.4h.1v-.4l.4.1v-.1l-.4-.1.1-.3zm1 .6h.3l-.1.4h.1l.1-.3h.3v-.1h-.3l.1-.4h-.1l-.1.4-.3-.1zm.6-1.7l-.1.3h-.3l.3.1v.3l.1.1v-.4l.3.1.1-.1-.4-.1.1-.3zm-4.3-.2v.3l-.4-.1v.1l.3.1v.3h.1V-3h.4l-.4-.1.1-.3zm-.2 1.3l-.1.3H28v.1h.3l-.1.4h.1l.1-.4.3.1v-.1l-.3-.1.1-.3zm.9.6h.4l-.1.4h.1l.1-.3h.3v-.1h-.3v-.4h-.1v.4l-.4-.1zm.7-1.7l-.1.3h-.3l.3.1-.1.3.1.1.1-.4.3.1v-.1l-.3-.1.1-.3zm-4.3-.2l-.1.3-.3-.1v.1l.3.1-.1.3h.1l.1-.3h.3l-.3-.1.1-.3zm-.3 1.3v.3h-.3l-.1.1h.4l-.1.4h.1l.1-.4.3.1v-.1l-.3-.1v-.3zm1 .6h.3v.4h.1v-.3h.4v-.1h-.4l.1-.4h-.1l-.1.4-.3-.1zm.6-1.7v.3h-.4l.4.1-.1.3.1.1.1-.4.3.1v-.1l-.3-.1v-.3zm-4.3-.2v.3l-.3-.1-.1.1.4.1-.1.3h.1l.1-.3h.3l-.3-.1v-.3zm-.2 1.3v.3h-.4v.1h.3v.4h.1v-.4l.4.1v-.1l-.3-.1v-.3zm1 .6h.3l-.1.4h.1l.1-.3h.3v-.1h-.3l.1-.4h-.1l-.1.4-.3-.1zm.6-1.7l-.1.3h-.3l.3.1v.3l.1.1v-.4l.4.1v-.1l-.4-.1.1-.3zM21-1.9v.5h.3v-.1H21v-.4zm0-.9h.1l-.1.3.1.1.1-.4.3.1v-.1l-.3-.1.1-.3h-.1l-.1.3H21z"/><path d="M34.5 26h.1-.1zm-3 0h.1-.1zm-2.9 0h.1-.1zm-2.9 0h.1-.1zm-3 0h.1-.1zm12.9-1.3v.1zm-1.9-1.2l-.4-.1.1-.3h-.1l-.1.3-.3-.1v.1l.3.1v.3h.1v-.3h.3zm-.7 1.7l.1-.4.3.1v-.1l-.3-.1.1-.3h-.1l-.1.3h-.3v.1h.3l-.1.4zm1.4.2v-.3h.4V25h-.3v-.4h-.1v.4l-.4-.1v.1l.3.1v.3zm.6-1.7l-.3-.1v-.3l-.1.3h-.3l-.1.1h.4l-.1.4h.1l.1-.4.3.1zm-4.3-.2l-.3-.1.1-.3h-.1l-.1.3-.3-.1v.1l.3.1-.1.3h.1l.1-.3h.3zm-.6 1.7l.1-.4.3.1v-.1l-.3-.1v-.3h-.1v.3h-.3l-.1.1h.4l-.1.4zm1.4.2v-.3h.3l.1-.1h-.4l.1-.4h-.1l-.1.4-.3-.1v.1l.3.1v.3zm.6-1.7l-.3-.1v-.3h-.1v.3h-.4v.1h.3v.4h.1v-.4l.4.1zm-4.3-.2l-.3-.1v-.3h-.1v.3l-.3-.1-.1.1.4.1-.1.3h.1l.1-.3h.3zm-.6 1.7v-.4l.4.1v-.1l-.4-.1.1-.3h-.1l-.1.3h-.3v.1h.3v.4zm1.3.2l.1-.3h.3V25h-.3l.1-.4h-.1l-.1.4-.3-.1v.1l.3.1-.1.3zm.7-1.7l-.4-.1.1-.3h-.1l-.1.3h-.3v.1h.3v.4h.1v-.4l.3.1zm-4.3-.2l-.4-.1.1-.3h-.1l-.1.3-.3-.1v.1l.3.1v.3h.1v-.3h.4zm-.7 1.7l.1-.4.3.1v-.1l-.3-.1.1-.3h-.1l-.1.3h-.3v.1h.3l-.1.4zm1.4.2l.1-.3h.3V25h-.3v-.4h-.1v.4l-.4-.1v.1l.4.1-.1.3zm.6-1.7l-.3-.1.1-.3h-.1l-.1.3h-.3v.1h.3l-.1.4h.1l.1-.4.3.1zm-4.7.1l.1-.3h.3l-.3-.1.1-.3h-.1l-.1.3-.3-.1v.1l.3.1-.1.3zm-.2 1.4l.1-.4.3.1v-.1l-.3-.1v-.3h-.1v.3H21v.1h.3l-.1.4zm1.4.2v-.3h.4V25h-.4l.1-.4h-.1l-.1.4-.3-.1v.1l.3.1v.3zm.6-1.7l-.3-.1v-.3h-.1v.3h-.4v.1h.4l-.1.4h.1l.1-.4.3.1zM35 20.9l.1-.4.3.1v-.1h-.3v-.4l-.1.3h-.3v.1h.3l-.1.4zm-.6.9l.4.1-.1.3h.1v-.3h.4l-.3-.1v-.3l-.1-.1v.4l-.4-.1zm-2.3-.9v-.4l.4.1v-.1h-.3v-.4h-.1v.3h-.4v.1h.4l-.1.4zm-.6.9l.3.1v.3h.1v-.3h.4l-.4-.1.1-.3-.1-.1-.1.4-.3-.1zm1.7-.1v.3h-.4l.4.1-.1.3.1.1.1-.4.3.1v-.1l-.3-.1v-.3zm.6-1h-.3l.1-.3-.1-.1-.1.4-.3-.1v.1l.3.1-.1.3h.1l.1-.3h.3zm-4.6.2v-.4l.3.1.1-.1h-.4l.1-.4h-.1l-.1.3h-.3v.1h.3v.4zm-.6.9l.3.1-.1.3h.1l.1-.3h.3l-.3-.1.1-.3-.1-.1-.1.4-.3-.1zm1.7-.1v.3h-.4l.3.1v.3l.1.1v-.4l.4.1v-.1l-.3-.1v-.3zm.6-1h-.3v-.3l-.1-.1v.4l-.3-.1-.1.1.4.1-.1.3h.1l.1-.3h.3zm-4.7.2l.1-.4.3.1v-.1h-.3l.1-.4h-.1l-.1.3h-.3v.1h.3l-.1.4zm-.6.9l.4.1-.1.3h.1l.1-.3h.3l-.3-.1v-.3l-.1-.1v.4l-.4-.1zm1.8-.1l-.1.3H27l.3.1v.3l.1.1v-.4l.3.1.1-.1-.4-.1.1-.3zm.6-1h-.3v-.3l-.1-.1v.4l-.4-.1v.1l.3.1v.3h.1v-.3h.4zm-4.7.2l.1-.4.3.1v-.1h-.3v-.4h-.1v.3h-.4v.1h.4l-.1.4zm-.6.9l.3.1v.3h.1v-.3h.4l-.4-.1.1-.3-.1-.1-.1.4-.3-.1zm1.8-.1l-.1.3h-.3l.3.1-.1.3.1.1.1-.4.3.1v-.1l-.3-.1.1-.3zm.6-1h-.4l.1-.3-.1-.1-.1.4-.3-.1v.1l.3.1v.3h.1v-.3h.3zm-3.7 1.7l.1.1.1-.4.3.1v-.1l-.3-.1v-.3h-.1v.3h-.4l.4.1zm.7-1.7h-.3l.1-.3-.1-.1-.1.4-.3-.1v.1l.3.1-.1.3h.1l.1-.3h.3zm12.1-3.1l-.3-.1.1-.3h-.1l-.1.3-.3-.1v.1l.3.1-.1.3h.1l.1-.3.3.1zm-.2 1.3h-.3v-.4l-.1.3h-.3v.1h.3l-.1.4h.1l.1-.4.3.1zm.6.2l.3.1v.3h.1v-.3h.4v-.1H35l.1-.4H35l-.1.4-.3-.1zm.5-.9h.1l.1-.4.3.1v-.1l-.3-.1v-.3h-.1v.3h-.3l-.1.1h.4zm-3.8-.6l-.3-.1v-.3l-.1.3-.3-.1v.1l.3.1-.1.3h.1l.1-.3.3.1zm-.2 1.3h-.3v-.4h-.1v.3h-.4v.1h.3v.4h.1v-.4l.4.1zm.6.2l.3.1-.1.3h.1l.1-.3h.3v-.1h-.3l.1-.4h-.1l-.1.4-.3-.1zm.5-.9h.1v-.4l.4.1v-.1l-.4-.1.1-.3h-.1l-.1.3h-.3v.1h.3zm-3.8-.6l-.3-.1v-.3H28v.3l-.4-.1v.1l.3.1v.3h.1v-.3l.4.1zm-.2 1.3h-.4l.1-.4h-.1l-.1.3h-.3v.1h.3v.4h.1v-.4l.3.1zm.5.2l.4.1-.1.3h.1l.1-.3h.3v-.1h-.3v-.4h-.1v.4l-.3-.1zm.5-.9h.1l.1-.4.3.1v-.1l-.3-.1.1-.3h-.1l-.1.3H29v.1h.3zm-3.7-.6l-.4-.1.1-.3h-.1l-.1.3-.3-.1v.1l.3.1v.3h.1v-.3l.3.1zm-.3 1.3h-.3l.1-.4h-.1l-.1.3h-.3v.1h.3l-.1.4h.1l.1-.4.3.1zm.6.2l.3.1v.3h.1v-.3h.4v-.1h-.3v-.4h-.1v.4l-.4-.1zm.5-.9h.1l.1-.4.3.1v-.1l-.3-.1v-.3h-.1v.3h-.3l-.1.1h.4zm-3.8-.6l-.3-.1.1-.3h-.1l-.1.3-.3-.1v.1l.3.1-.1.3h.1l.1-.3.3.1zm-.2 1.3H22v-.4h-.1v.3h-.4v.1h.4l-.1.4h.1l.1-.4.3.1zm.6.2l.3.1v.3h.1v-.3h.3l.1-.1h-.4l.1-.4h-.1l-.1.4-.3-.1zm.5-.9h.1v-.4l.4.1v-.1l-.3-.1v-.3h-.1v.3h-.4v.1h.3zM35.6 15v-.5.1l-.3-.1-.1.1h.4l-.1.4zm-.2 1.3V16h.2v-.1h-.2l.1-.3h-.1v.3l-.4-.1v.1l.3.1v.3zm-2.6-2.1h-.1v.4l-.4-.1v.1h.3v.4h.1v-.3h.4v-.1h-.4zm-.4 2.1l.1-.3.3.1V16l-.3-.1.1-.3h-.1l-.1.3-.3-.1v.1l.3.1-.1.3zm1-.1h.4l-.1.4h.1l.1-.4.3.1v-.1l-.3-.1v-.3h-.1v.3h-.4zm.7-1.8l-.1.4-.3-.1v.1l.3.1-.1.3h.1l.1-.3h.3l-.3-.1.1-.3zm-4.2-.2h-.1l-.1.4-.3-.1v.1h.3l-.1.4h.1l.1-.3h.3v-.1h-.3zm-.4 2.1l.1-.3.3.1V16l-.3-.1v-.3l-.1.3-.3-.1v.1l.3.1-.1.3zm1-.1h.3v.4h.1v-.4l.4.1v-.1l-.4-.1.1-.3h-.1l-.1.3h-.3zm.6-1.8v.4l-.4-.1v.1l.4.1-.1.3h.1l.1-.3h.3l-.3-.1v-.3zm-4.2-.2l-.1.4-.3-.1v.1h.3l-.1.4h.1l.1-.3h.3v-.1h-.3zm-.3 2.1V16l.4.1V16l-.3-.1v-.3h-.1v.3l-.4-.1v.1l.3.1v.3zm1-.1h.3l-.1.4h.1l.1-.4.3.1v-.1l-.3-.1.1-.3H28l-.1.3h-.3zm.6-1.8l-.1.4-.3-.1v.1l.3.1v.3h.1v-.3h.4l-.4-.1.1-.3zm-4.2-.2h-.1v.4l-.4-.1v.1h.3v.4h.1v-.3h.4v-.1H24zm-.3 2.1V16l.3.1.1-.1-.4-.1.1-.3h-.1l-.1.3-.3-.1v.1l.3.1v.3zm.9-.1h.4l-.1.4h.1l.1-.4.3.1v-.1l-.3-.1v-.3H25v.3h-.3zm.7-1.8l-.1.4-.3-.1v.1l.3.1-.1.3h.1l.1-.3h.3l-.3-.1.1-.3zm-4.3.3h.3l.1-.1H21l.1-.4H21v.8zm.1 1.3l-.1-.1v.1l.1.1zm.6.2h.3v.4h.1v-.4l.4.1v-.1l-.3-.1v-.3h-.1v.3h-.4zm.6-1.8v.4l-.3-.1-.1.1.4.1-.1.3h.1l.1-.3h.3l-.3-.1v-.3zm12.2-3.1l-.1.3h-.3l.3.1-.1.3.1.1.1-.4.3.1v-.1l-.3-.1.1-.3zm-.3 1.3v.3h-.3l-.1.1h.4l-.1.4h.1l.1-.3h.3V13h-.3v-.4zm1.3.6l-.3-.1v.1l.3.1v.3h.1v-.8zm-.1-1.3h.2v-.1h-.2zm-3.9-.6v.3h-.4l.4.1-.1.3.1.1.1-.4.3.1v-.1l-.3-.1v-.3zm-.2 1.3v.3h-.4v.1h.3v.4h.1v-.3h.4V13h-.4l.1-.4zm1 .6l.3.1-.1.3h.1l.1-.3h.3l-.3-.1.1-.3-.1-.1-.1.4-.3-.1zm.6-1.7l-.1.3h-.3v.1h.3v.4h.1v-.4l.3.1.1-.1h-.4l.1-.4zm-4.3-.2v.3h-.4l.3.1v.3l.1.1v-.4l.4.1v-.1l-.4-.1.1-.3zm-.2 1.3l-.1.3H28v.1h.3l-.1.4h.1l.1-.3h.3V13h-.3l.1-.4zm.9.6l.4.1-.1.3h.1l.1-.3h.3l-.3-.1v-.3l-.1-.1v.4l-.4-.1zm.7-1.7l-.1.3h-.3v.1h.3l-.1.4h.1l.1-.4.3.1v-.1H30l.1-.4zm-4.3-.2l-.1.3h-.3l.3.1-.1.3.1.1.1-.4.3.1v-.1l-.3-.1.1-.3zm-.3 1.3v.3h-.3l-.1.1h.4l-.1.4h.1l.1-.3h.3V13h-.3v-.4zm1 .6l.3.1v.3h.1v-.3h.4l-.4-.1.1-.3-.1-.1-.1.4-.3-.1zm.6-1.7v.3h-.4v.1h.4l-.1.4h.1l.1-.4.3.1v-.1h-.3v-.4zm-4.3-.2v.3h-.4l.4.1-.1.3.1.1.1-.4.3.1v-.1l-.3-.1v-.3zm-.2 1.3v.3h-.4v.1h.3v.4h.1v-.3h.4V13h-.3v-.4zm1 .6l.3.1-.1.3h.1l.1-.3h.3l-.3-.1.1-.3-.1-.1-.1.4-.3-.1zm.6-1.7l-.1.3h-.3v.1h.3v.4h.1v-.4l.4.1v-.1h-.4l.1-.4zM21 12.8v.6-.1h.3l-.3-.1v-.3zm0-.9h.1l-.1.4h.1l.1-.4.3.1v-.1h-.3l.1-.4h-.1l-.1.3H21zm13.5 28.8h.1-.1zm-3 0h.1-.1zm-2.9 0h.1-.1zm-2.9 0h.1-.1zm-3 0h.1-.1zm12.9-1.2zm-1.9-1.3l-.4-.1.1-.3h-.1l-.1.3h-.3l.3.1v.3l.1.1v-.4l.3.1zm-.7 1.7l.1-.3h.3v-.1h-.3l.1-.4h-.1l-.1.4-.3-.1v.1h.3l-.1.4zm1.4.2v-.3h.4l-.3-.1v-.3h-.1v.3l-.4-.1v.1l.3.1v.3zm.6-1.7h-.3V38l-.1.3h-.3l-.1.1h.4l-.1.4h.1l.1-.3h.3zm-4.3-.2l-.3-.1.1-.3h-.1l-.1.3H30l.3.1-.1.3.1.1.1-.4.3.1zm-.6 1.7l.1-.3h.3v-.1h-.3v-.4h-.1v.4l-.3-.1-.1.1h.4l-.1.4zm1.4.2v-.3h.4l-.4-.1.1-.3h-.1l-.1.3-.3-.1v.1l.3.1v.3zm.6-1.7h-.3V38h-.1v.3h-.4v.1h.3v.4h.1v-.3h.4zm-4.3-.2l-.3-.1v-.3h-.1v.3H27l.4.1-.1.3.1.1.1-.4.3.1zm-.6 1.7v-.3h.4v-.1h-.4l.1-.4h-.1l-.1.4-.3-.1v.1h.3v.4zm1.3.2l.1-.3h.3l-.3-.1.1-.3h-.1l-.1.3-.3-.1v.1l.3.1-.1.3zm.7-1.7h-.4l.1-.4h-.1l-.1.3h-.3v.1h.3v.4h.1v-.3h.3zm-4.3-.2l-.4-.1.1-.3h-.1l-.1.3h-.3l.3.1v.3l.1.1v-.4l.4.1zm-.7 1.7l.1-.3h.3v-.1h-.3l.1-.4h-.1l-.1.4-.3-.1v.1h.3l-.1.4zm1.4.2l.1-.3h.3l-.3-.1v-.3h-.1v.3l-.4-.1v.1l.4.1-.1.3zm.6-1.7h-.3l.1-.4h-.1l-.1.3h-.3v.1h.3l-.1.4h.1l.1-.3h.3zm-4.7.2l.1-.4.3.1v-.1l-.3-.1.1-.3h-.1l-.1.3h-.3l.3.1-.1.3zm-.2 1.3l.1-.3h.3v-.1h-.3v-.4h-.1v.4l-.3-.1v.1h.3l-.1.4zm1.4.2v-.3h.4l-.4-.1.1-.3h-.1l-.1.3-.3-.1v.1l.3.1v.3zm.6-1.7H23V38h-.1v.3h-.4v.1h.4l-.1.4h.1l.1-.3h.3zM35 35.6l.1-.3h.3v-.1h-.3v-.4l-.1.4-.3-.1v.1l.3.1-.1.3zm-.6.9l.4.1-.1.3.1.1v-.4l.4.1v-.1l-.3-.1v-.3h-.1v.3h-.4zm-2.3-.9v-.3h.4v-.1h-.3v-.4h-.1v.4l-.4-.1v.1l.4.1-.1.3zm-.6.9l.3.1v.3l.1.1v-.4l.3.1.1-.1-.4-.1.1-.3h-.1l-.1.3h-.3zm1.7-.1v.3h-.3l-.1.1h.4l-.1.4h.1l.1-.4.3.1v-.1h-.3v-.4zm.6-.9l-.3-.1.1-.3h-.1l-.1.3-.3-.1v.1l.3.1-.1.3h.1l.1-.3.3.1zm-4.6.1v-.3h.3l.1-.1h-.4l.1-.4h-.1l-.1.4-.3-.1v.1l.3.1v.3zm-.6.9l.3.1-.1.3.1.1.1-.4.3.1v-.1l-.3-.1.1-.3H29l-.1.3h-.3zm1.7-.1v.3h-.4v.1h.3v.4h.1v-.4l.4.1v-.1h-.3v-.4zm.6-.9l-.3-.1v-.3h-.1v.3l-.3-.1-.1.1.4.1-.1.3h.1l.1-.3.3.1zm-4.7.1l.1-.3h.3v-.1h-.3l.1-.4h-.1l-.1.4-.3-.1v.1l.3.1-.1.3zm-.6.9l.4.1-.1.3.1.1.1-.4.3.1v-.1l-.3-.1v-.3H26v.3h-.4zm1.8-.1l-.1.3H27v.1h.3v.4h.1v-.4l.3.1.1-.1h-.4l.1-.4zm.6-.9l-.3-.1v-.3h-.1v.3l-.4-.1v.1l.3.1v.3h.1v-.3l.4.1zm-4.7.1l.1-.3h.3v-.1h-.3v-.4h-.1v.4l-.4-.1v.1l.4.1-.1.3zm-.6.9l.3.1v.3l.1.1v-.4l.4.1v-.1l-.4-.1.1-.3h-.1l-.1.3h-.3zm1.8-.1l-.1.3h-.3v.1h.3l-.1.4h.1l.1-.4.3.1v-.1h-.3l.1-.4zm.6-.9l-.4-.1.1-.3h-.1l-.1.3-.3-.1v.1l.3.1v.3h.1v-.3l.3.1zm-3.7 1.7h.1l.1-.4.3.1v-.1h-.3v-.4h-.1v.3h-.4v.1h.4zm.7-1.7l-.3-.1.1-.3h-.1l-.1.3-.3-.1v.1l.3.1-.1.3h.1l.1-.3.3.1zm12.1-3.2l-.3-.1.1-.3h-.1l-.1.3h-.3v.1h.3l-.1.4h.1l.1-.4.3.1zm-.2 1.3h-.3v-.4l-.1.4-.3-.1v.1l.3.1-.1.3h.1l.1-.3h.3zm.6.2l.3.1v.3h.1v-.3l.4.1v-.1l-.4-.1.1-.3H35l-.1.3-.3-.1zm.5-.9h.1l.1-.3h.3v-.1h-.3v-.4h-.1v.4l-.3-.1-.1.1h.4zm-3.8-.6l-.3-.1v-.3l-.1.3h-.3v.1h.3l-.1.4h.1l.1-.4.3.1zm-.2 1.3h-.3v-.4h-.1v.4l-.4-.1v.1l.3.1v.3h.1v-.3h.4zm.6.2l.3.1-.1.3h.1l.1-.3.3.1v-.1l-.3-.1.1-.3h-.1l-.1.3-.3-.1zm.5-.9h.1v-.3h.4v-.1h-.4l.1-.4h-.1l-.1.4-.3-.1v.1h.3zm-3.8-.6l-.3-.1v-.3H28v.3h-.4v.1h.3v.4h.1v-.4l.4.1zm-.2 1.3h-.4l.1-.4h-.1l-.1.4-.3-.1v.1l.3.1v.3h.1v-.3h.3zm.5.2l.4.1-.1.3h.1l.1-.3.3.1v-.1l-.3-.1v-.3h-.1v.3l-.3-.1zm.5-.9h.1l.1-.3h.3v-.1h-.3l.1-.4h-.1l-.1.4-.3-.1v.1h.3zm-3.7-.6l-.4-.1.1-.3h-.1l-.1.3h-.3v.1h.3v.4h.1v-.4l.3.1zm-.3 1.3h-.3l.1-.4h-.1l-.1.4-.3-.1v.1l.3.1-.1.3h.1l.1-.3h.3zm.6.2l.3.1v.3h.1v-.3l.4.1v-.1l-.3-.1v-.3h-.1v.3l-.4-.1zm.5-.9h.1l.1-.3h.3v-.1h-.3v-.4h-.1v.4l-.3-.1-.1.1h.4zm-3.8-.6l-.3-.1.1-.3h-.1l-.1.3h-.3v.1h.3l-.1.4h.1l.1-.4.3.1zm-.2 1.3H22v-.4h-.1v.4l-.4-.1v.1l.4.1-.1.3h.1l.1-.3h.3zm.6.2l.3.1v.3h.1v-.3l.3.1.1-.1-.4-.1.1-.3h-.1l-.1.3-.3-.1zm.5-.9h.1v-.3h.4v-.1h-.3v-.4h-.1v.4l-.4-.1v.1h.3zm12.2-3.2v-.5.1l-.3-.1-.1.1.4.1-.1.3zm-.2 1.4v-.4l.2.1v-.1l-.2-.1.1-.3h-.1v.3H35v.1h.3v.4zM32.8 29l-.1-.1v.4l-.4-.1v.1l.3.1v.3h.1v-.3h.4l-.4-.1zm-.4 2.1l.1-.4.3.1v-.1l-.3-.1.1-.3h-.1l-.1.3h-.3v.1h.3l-.1.4zm1-.2h.4l-.1.4h.1l.1-.3h.3v-.1h-.3v-.4h-.1v.4l-.4-.1zm.7-1.7l-.1.3h-.3l.3.1-.1.3.1.1.1-.4.3.1v-.1l-.3-.1.1-.3zm-4.2-.2l-.1-.1-.1.4-.3-.1v.1l.3.1-.1.3h.1l.1-.3h.3l-.3-.1zm-.4 2.1l.1-.4.3.1v-.1l-.3-.1v-.3l-.1.3h-.3v.1h.3l-.1.4zm1-.2h.3v.4h.1V31h.4v-.1h-.4l.1-.4h-.1l-.1.4-.3-.1zm.6-1.7v.3h-.4l.4.1-.1.3.1.1.1-.4.3.1v-.1l-.3-.1v-.3zm-4.2-.2v-.1l-.1.4-.3-.1v.1l.3.1-.1.3h.1l.1-.3h.3l-.3-.1zm-.3 2.1v-.4l.4.1v-.1l-.3-.1v-.3h-.1v.3h-.4v.1h.3v.4zm1-.2h.3l-.1.4h.1l.1-.3h.3v-.1H28l.1-.4H28l-.1.4-.3-.1zm.6-1.7l-.1.3h-.3l.3.1v.3l.1.1v-.4l.4.1v-.1l-.4-.1.1-.3zM24 29l-.1-.1v.4l-.4-.1v.1l.3.1v.3h.1v-.3h.4l-.3-.1zm-.3 2.1v-.4l.3.1.1-.1-.4-.1.1-.3h-.1l-.1.3h-.3v.1h.3v.4zm.9-.2h.4l-.1.4h.1l.1-.3h.3v-.1h-.3v-.4H25v.4l-.3-.1zm.7-1.7l-.1.3h-.3l.3.1-.1.3.1.1.1-.4.3.1v-.1l-.3-.1.1-.3zm-4.3.2h.4l-.4-.1.1-.3-.1-.1v.8zm.1 1.3H21v.1h.1zm.6.2h.3v.4h.1V31h.4v-.1h-.3v-.4h-.1v.4l-.4-.1zm.6-1.7v.3h-.4l.4.1-.1.3.1.1.1-.4.3.1v-.1l-.3-.1v-.3zM34.5 26l-.1.3h-.3v.1h.3l-.1.4h.1l.1-.4.3.1v-.1h-.3l.1-.4zm-.3 1.3v.4l-.3-.1-.1.1.4.1-.1.3h.1l.1-.3h.3v-.1h-.3v-.3zm1.3.6h-.3l.3.1v.3l.1.1v-.8zm-.1-1.3h.2v-.1h-.2zm-3.9-.6v.3h-.3l-.1.1h.4l-.1.4h.1l.1-.4.3.1v-.1h-.3V26zm-.2 1.3v.4l-.4-.1v.1l.3.1v.3h.1v-.3h.4v-.1h-.4l.1-.3zm1 .6l.3.1-.1.3.1.1.1-.4.3.1V28l-.3-.1.1-.3h-.1l-.1.3h-.3zm.6-1.7l-.1.4-.3-.1v.1l.3.1v.3h.1v-.3h.3l.1-.1h-.4l.1-.4zm-4.3-.2v.3h-.4v.1h.3v.4h.1v-.4l.4.1v-.1h-.4l.1-.4zm-.2 1.3l-.1.4-.3-.1v.1l.3.1-.1.3h.1l.1-.3h.3v-.1h-.3l.1-.3zm.9.6l.4.1-.1.3.1.1.1-.4.3.1V28l-.3-.1v-.3h-.1v.3h-.4zm.7-1.7l-.1.4-.3-.1v.1l.3.1-.1.3h.1l.1-.3h.3v-.1H30l.1-.4zm-4.3-.2l-.1.3h-.3v.1h.3l-.1.4h.1l.1-.4.3.1v-.1h-.3l.1-.4zm-.3 1.3v.4l-.3-.1-.1.1.4.1-.1.3h.1l.1-.3h.3v-.1h-.3v-.3zm1 .6l.3.1v.3l.1.1V28l.4.1V28l-.4-.1.1-.3h-.1l-.1.3h-.3zm.6-1.7v.4l-.4-.1v.1l.4.1-.1.3h.1l.1-.3h.3v-.1h-.3v-.4zm-4.3-.2v.3h-.3l-.1.1h.4l-.1.4h.1l.1-.4.3.1v-.1h-.3V26zm-.2 1.3v.4l-.4-.1v.1l.3.1v.3h.1v-.3h.4v-.1h-.3v-.3zm1 .6l.3.1-.1.3.1.1.1-.4.3.1V28l-.3-.1.1-.3h-.1l-.1.3h-.3zm.6-1.7l-.1.4-.3-.1v.1l.3.1v.3h.1v-.3h.4v-.1h-.4l.1-.4zM21 27.6v.5-.1l.3.1V28l-.3-.1v-.3zm0-1l.1.1-.1.3h.1l.1-.3h.3v-.1h-.3l.1-.4h-.1l-.1.4-.1-.1zm13.5 28.9h.1-.1zm-3 0h.1-.1zm-2.9 0h.1-.1zm-2.9 0h.1-.1zm-3 0h.1-.1zm12.9-1.3zm-1.9-1.3h-.4l.1-.4h-.1l-.1.3h-.3v.1h.3v.4h.1v-.4l.3.1zm-.7 1.7l.1-.3h.3l-.3-.1.1-.3-.1-.1-.1.4-.3-.1v.1l.3.1-.1.3zm1.4.3v-.4l.4.1v-.1l-.3-.1v-.3h-.1v.3H34l.3.1v.3zm.6-1.8h-.3v-.4l-.1.4-.3-.1-.1.1.4.1-.1.3h.1l.1-.3h.3zm-4.3-.2h-.3l.1-.4h-.1l-.1.3H30v.1h.3l-.1.4h.1l.1-.4.3.1zm-.6 1.7l.1-.3h.3l-.3-.1v-.3l-.1-.1v.4l-.3-.1-.1.1.4.1-.1.3zm1.4.3v-.4l.3.1.1-.1-.4-.1.1-.3h-.1l-.1.3h-.3l.3.1v.3zm.6-1.8h-.3v-.3l-.1-.1v.4l-.4-.1v.1l.3.1v.3h.1v-.3h.4zm-4.3-.2h-.3v-.4h-.1v.3h-.3l-.1.1h.4l-.1.4h.1l.1-.4.3.1zm-.6 1.7v-.3h.4l-.4-.1.1-.3-.1-.1-.1.4-.3-.1v.1l.3.1v.3zm1.3.3l.1-.4.3.1v-.1l-.3-.1.1-.3h-.1l-.1.3h-.3l.3.1-.1.3zm.7-1.8h-.4l.1-.3-.1-.1-.1.4-.3-.1v.1l.3.1v.3h.1v-.3h.3zm-4.3-.2h-.4l.1-.4h-.1l-.1.3h-.3v.1h.3v.4h.1v-.4l.4.1zm-.7 1.7l.1-.3h.3l-.3-.1.1-.3-.1-.1-.1.4-.3-.1v.1l.3.1-.1.3zm1.4.3l.1-.4.3.1v-.1l-.3-.1v-.3h-.1v.3h-.4l.4.1-.1.3zm.6-1.8h-.3l.1-.3-.1-.1-.1.4-.3-.1v.1l.3.1-.1.3h.1l.1-.3h.3zm-4.7.2l.1-.4.3.1v-.1h-.3l.1-.4h-.1l-.1.3h-.3v.1h.3l-.1.4zm-.2 1.3l.1-.3h.3l-.3-.1v-.3l-.1-.1v.4l-.3-.1v.1l.3.1-.1.3zm1.4.3v-.4l.4.1v-.1l-.4-.1.1-.3h-.1l-.1.3h-.3l.3.1v.3zm.6-1.8H23v-.3l-.1-.1v.4l-.4-.1v.1l.4.1-.1.3h.1l.1-.3h.3zM35 50.3l.1-.3.3.1V50l-.3-.1v-.3l-.1.3-.3-.1v.1l.3.1-.1.3zm-.6 1h.4l-.1.4h.1v-.4l.4.1v-.1h-.3v-.4h-.1v.3h-.4zm-2.3-1V50l.4.1V50l-.3-.1v-.3h-.1v.3l-.4-.1v.1l.4.1-.1.3zm-.6 1h.3v.4h.1v-.4l.3.1.1-.1h-.4l.1-.4h-.1l-.1.3h-.3zm1.7-.2v.4l-.3-.1-.1.1.4.1-.1.3h.1l.1-.3h.3v-.1h-.3v-.4zm.6-.9l-.3-.1.1-.3h-.1l-.1.3h-.3v.1h.3l-.1.4h.1l.1-.4.3.1zm-4.6.1V50l.3.1.1-.1-.4-.1.1-.3h-.1l-.1.3-.3-.1v.1l.3.1v.3zm-.6 1h.3l-.1.4h.1l.1-.4.3.1v-.1H29l.1-.4H29l-.1.3h-.3zm1.7-.2v.4l-.4-.1v.1l.3.1v.3h.1v-.3h.4v-.1h-.3v-.4zm.6-.9l-.3-.1v-.3h-.1v.3h-.3l-.1.1h.4l-.1.4h.1l.1-.4.3.1zm-4.7.1l.1-.3.3.1V50l-.3-.1.1-.3h-.1l-.1.3-.3-.1v.1l.3.1-.1.3zm-.6 1h.4l-.1.4h.1l.1-.4.3.1v-.1h-.3v-.4H26v.3h-.4zm1.8-.2l-.1.4-.3-.1v.1l.3.1v.3h.1v-.3h.3l.1-.1h-.4l.1-.4zm.6-.9l-.3-.1v-.3h-.1v.3h-.4v.1h.3v.4h.1v-.4l.4.1zm-4.7.1l.1-.3.3.1V50l-.3-.1v-.3h-.1v.3l-.4-.1v.1l.4.1-.1.3zm-.6 1h.3v.4h.1v-.4l.4.1v-.1h-.4l.1-.4h-.1l-.1.3h-.3zm1.8-.2l-.1.4-.3-.1v.1l.3.1-.1.3h.1l.1-.3h.3v-.1h-.3l.1-.4zm.6-.9l-.4-.1.1-.3h-.1l-.1.3h-.3v.1h.3v.4h.1v-.4l.3.1zm-3.7 1.7h.1l.1-.3h.3v-.1h-.3v-.4h-.1v.4l-.4-.1v.1l.4.1zm.7-1.7l-.3-.1.1-.3h-.1l-.1.3h-.3v.1h.3l-.1.4h.1l.1-.4.3.1zM34.2 47h-.3l.1-.4h-.1l-.1.4-.3-.1v.1h.3l-.1.4h.1l.1-.3h.3zm-.2 1.4l-.3-.1V48l-.1.3-.3-.1v.1l.3.1-.1.3h.1l.1-.3.3.1zm.6.2h.3v.4h.1v-.4l.4.1v-.1l-.4-.1.1-.3H35l-.1.3h-.3zm.5-1h.1l.1-.3h.3l-.3-.1v-.3l-.1-.1v.4l-.3-.1-.1.1.4.1zm-3.8-.6H31v-.4l-.1.4-.3-.1v.1h.3l-.1.4h.1l.1-.3h.3zm-.2 1.4l-.3-.1V48h-.1v.3l-.4-.1v.1l.3.1v.3h.1v-.3l.4.1zm.6.2h.3l-.1.4h.1l.1-.4.3.1v-.1l-.3-.1.1-.3h-.1l-.1.3h-.3zm.5-1h.1v-.3h.4l-.4-.1.1-.3-.1-.1-.1.4-.3-.1v.1l.3.1zm-3.8-.6h-.3v-.4H28v.4l-.4-.1v.1h.3v.4h.1v-.3h.4zm-.2 1.4l-.4-.1.1-.3h-.1l-.1.3-.3-.1v.1l.3.1v.3h.1v-.3l.3.1zm.5.2h.4l-.1.4h.1l.1-.4.3.1v-.1l-.3-.1v-.3h-.1v.3h-.3zm.5-1h.1l.1-.3h.3l-.3-.1.1-.3-.1-.1-.1.4-.3-.1v.1l.3.1zm-3.7-.6h-.4l.1-.4h-.1l-.1.4-.3-.1v.1h.3v.4h.1v-.3h.3zm-.3 1.4l-.3-.1.1-.3h-.1l-.1.3-.3-.1v.1l.3.1-.1.3h.1l.1-.3.3.1zm.6.2h.3v.4h.1v-.4l.4.1v-.1l-.3-.1v-.3h-.1v.3h-.4zm.5-1h.1l.1-.3h.3l-.3-.1v-.3l-.1-.1v.4l-.3-.1-.1.1.4.1zm-3.8-.6h-.3l.1-.4h-.1l-.1.4-.3-.1v.1h.3l-.1.4h.1l.1-.3h.3zm-.2 1.4l-.3-.1V48h-.1v.3l-.4-.1v.1l.4.1-.1.3h.1l.1-.3.3.1zm.6.2h.3v.4h.1v-.4l.3.1.1-.1-.4-.1.1-.3h-.1l-.1.3h-.3zm.5-1h.1v-.3h.4l-.3-.1v-.3l-.1-.1v.4l-.4-.1v.1l.3.1zm12.2-3.1v-.6.1h-.4l.4.1-.1.3zm-.2 1.3v-.3h.2v-.1h-.2l.1-.4h-.1v.3H35v.1h.3v.4zm-2.6-2.1h-.1v.3h-.4l.3.1v.3l.1.1v-.4l.4.1v-.1l-.4-.1zm-.4 2.1l.1-.3h.3v-.1h-.3l.1-.4h-.1l-.1.3h-.3v.1h.3l-.1.4zm1-.2l.4.1-.1.3h.1l.1-.3h.3l-.3-.1v-.3l-.1-.1v.4l-.4-.1zm.7-1.7l-.1.3h-.3v.1h.3l-.1.4h.1l.1-.4.3.1v-.1h-.3l.1-.4zm-4.2-.2h-.1l-.1.3h-.3l.3.1-.1.3.1.1.1-.4.3.1v-.1l-.3-.1zm-.4 2.1l.1-.3h.3v-.1h-.3V45l-.1.3h-.3v.1h.3l-.1.4zm1-.2l.3.1v.3h.1v-.3h.4l-.4-.1.1-.3-.1-.1-.1.4-.3-.1zm.6-1.7v.3h-.4v.1h.4l-.1.4h.1l.1-.4.3.1v-.1h-.3v-.4zm-4.2-.2l-.1.3h-.3l.3.1-.1.3.1.1.1-.4.3.1v-.1l-.3-.1zm-.3 2.1v-.3h.4v-.1h-.3V45h-.1v.3h-.4v.1h.3v.4zm1-.2l.3.1-.1.3h.1l.1-.3h.3l-.3-.1.1-.3-.1-.1-.1.4-.3-.1zm.6-1.7l-.1.3h-.3v.1h.3v.4h.1v-.4l.4.1v-.1h-.4l.1-.4zm-4.2-.2h-.1v.3h-.4l.3.1v.3l.1.1v-.4l.4.1v-.1L24 44zm-.3 2.1v-.3h.3l.1-.1h-.4l.1-.4h-.1l-.1.3h-.3v.1h.3v.4zm.9-.2l.4.1-.1.3h.1l.1-.3h.3l-.3-.1v-.3l-.1-.1v.4l-.3-.1zm.7-1.7l-.1.3h-.3v.1h.3l-.1.4h.1l.1-.4.3.1v-.1h-.3l.1-.4zm-4.3.2l.3.1.1-.1-.4-.1.1-.3H21v.8zm.1 1.3H21v.1h.1zm.6.2l.3.1v.3h.1v-.3h.4l-.3-.1v-.3l-.1-.1v.4l-.4-.1zm.6-1.7v.3H22l-.1.1h.4l-.1.4h.1l.1-.4.3.1v-.1h-.3v-.4zm12.2-3.2l-.1.4-.3-.1v.1l.3.1-.1.3h.1l.1-.3h.3v-.1h-.3l.1-.4zm-.3 1.4v.3l-.3-.1-.1.1.4.1-.1.3.1.1.1-.4.3.1v-.1l-.3-.1v-.3zm1.3.5h-.3v.1h.3v.4h.1v-.8zm-.1-1.3l.2.1v-.1l-.2-.1zm-3.9-.6v.4l-.3-.1-.1.1.4.1-.1.3h.1l.1-.3h.3v-.1h-.3v-.4zm-.2 1.4v.3l-.4-.1v.1l.3.1v.3l.1.1v-.4l.4.1v-.1l-.4-.1.1-.3zm1 .6h.3l-.1.4h.1l.1-.4.3.1v-.1h-.3l.1-.4h-.1l-.1.3h-.3zm.6-1.7l-.1.3-.3-.1v.1l.3.1v.3h.1v-.3l.3.1.1-.1-.4-.1.1-.3zm-4.3-.3v.4l-.4-.1v.1l.3.1v.3h.1v-.3h.4v-.1h-.4l.1-.4zm-.2 1.4l-.1.3-.3-.1v.1l.3.1-.1.3.1.1.1-.4.3.1v-.1l-.3-.1.1-.3zm.9.6h.4l-.1.4h.1l.1-.4.3.1v-.1h-.3v-.4h-.1v.3h-.4zM30 41l-.1.3-.3-.1v.1l.3.1-.1.3h.1l.1-.3.3.1v-.1l-.3-.1.1-.3zm-4.3-.3l-.1.4-.3-.1v.1l.3.1-.1.3h.1l.1-.3h.3v-.1h-.3l.1-.4zm-.3 1.4v.3l-.3-.1-.1.1.4.1-.1.3.1.1.1-.4.3.1v-.1l-.3-.1v-.3zm1 .6h.3v.4h.1v-.4l.4.1v-.1h-.4l.1-.4h-.1l-.1.3h-.3zM27 41v.3l-.4-.1v.1l.4.1-.1.3h.1l.1-.3.3.1v-.1l-.3-.1V41zm-4.3-.3v.4l-.3-.1-.1.1.4.1-.1.3h.1l.1-.3h.3v-.1h-.3v-.4zm-.2 1.4v.3l-.4-.1v.1l.3.1v.3l.1.1v-.4l.4.1v-.1l-.3-.1v-.3zm1 .6h.3l-.1.4h.1l.1-.4.3.1v-.1h-.3l.1-.4h-.1l-.1.3h-.3zm.6-1.7l-.1.3-.3-.1v.1l.3.1v.3h.1v-.3l.4.1v-.1l-.4-.1.1-.3zM21 42.3v.5-.1l.3.1v-.1H21v-.4zm0-.9h.1l-.1.3h.1l.1-.3.3.1v-.1l-.3-.1.1-.3h-.1l-.1.3H21zm-1.2-30.1h.1-.1zm-2.9 0h.1-.1zm-2.9 0h.1-.1zm-3 0h.1-.1zm-2.9 0h.1-.1zM21 10h-.1.1zm-2-1.3h-.3v-.4h-.1v.4l-.3-.1-.1.1.4.1-.1.3h.1l.1-.3h.3zm-.6 1.8v-.4l.4.1v-.1l-.3-.1v-.3h-.1v.3l-.4-.1v.1l.3.1v.3zm1.3.2l.1-.4.3.1v-.1h-.3l.1-.4h-.1l-.1.3h-.3v.1h.3l-.1.4zm.7-1.7l-.4-.1.1-.3H20l-.1.3-.3-.1v.1l.3.1v.3h.1V9l.4.1zm-4.3-.3h-.3v-.4h-.1v.4l-.4-.1v.1l.3.1v.3h.1v-.3h.4zm-.6 1.8v-.4l.3.1.1-.1-.4-.1.1-.3h-.1l-.1.3-.3-.1v.1l.3.1v.3zm1.3.2l.1-.4.3.1v-.1h-.3v-.4h-.1v.3h-.3l-.1.1h.4l-.1.4zm.6-1.7l-.3-.1.1-.3h-.1l-.1.3-.3-.1v.1l.3.1-.1.3h.1l.1-.3.3.1zm-4.2-.3h-.4l.1-.4h-.1l-.1.4-.3-.1v.1l.3.1v.3h.1v-.3h.3zm-.7 1.8l.1-.4.3.1v-.1l-.3-.1.1-.3h-.1l-.1.3-.3-.1v.1l.3.1-.1.3zm1.4.2v-.4l.4.1v-.1h-.4l.1-.4h-.1v.3h-.4v.1h.3v.4zm.6-1.7l-.3-.1v-.3h-.1v.3l-.3-.1-.1.1.4.1-.1.3h.1l.1-.3.3.1zm-4.3-.3h-.3l.1-.4h-.1l-.1.4-.3-.1v.1l.3.1-.1.3h.1l.1-.3h.3zm-.6 1.8l.1-.4.3.1v-.1l-.3-.1v-.3h-.1v.3l-.4-.1v.1l.4.1-.1.3zm1.3.2l.1-.4.3.1v-.1H11l.1-.4H11l-.1.3h-.3v.1h.3v.4zm.7-1.7l-.4-.1.1-.3h-.1v.3l-.4-.1v.1l.3.1v.3h.1V9l.4.1zm-4.7.1l.1-.3h.3v-.1H7v-.4h-.1v.4l-.4-.1v.1l.4.1-.1.3zm-.2 1.4v-.4l.3.1.1-.1-.4-.1.1-.3h-.1l-.1.3-.3-.1v.1l.3.1v.3zm1.3.2l.1-.4.3.1v-.1h-.3v-.4l-.1.3h-.3v.1H8l-.1.4zM8.6 9l-.3-.1.1-.3h-.1l-.1.3-.3-.1v.1l.3.1v.3l.1-.3.3.1zm11.8-2.8v-.4l.4.1v-.1l-.4-.1.1-.3h-.1l-.1.3H20l.3.1v.3zm-.6.9h.3l-.1.4h.1l.1-.3h.3v-.1h-.3l.1-.4h-.1l-.1.4-.3-.1zm-2.4-.9l.1-.4.3.1v-.1l-.3-.1.1-.3h-.1l-.1.3h-.3l.3.1-.1.3zm-.6.9h.4l-.1.4h.1l.1-.3h.3v-.1h-.3v-.4h-.1v.4l-.3-.1zm1.8-.1l-.1.3-.3-.1v.1l.3.1v.3h.1v-.3h.4l-.4-.1.1-.3zm.6-1h-.3v-.4h-.1v.3h-.4V6h.4l-.1.4h.1l.1-.3h.3zm-4.7.2l.1-.4.3.1v-.1l-.3-.1v-.3h-.1v.3h-.4l.4.1-.1.3zm-.6.9h.3v.4h.1v-.3h.4v-.1h-.3v-.4h-.1v.4l-.4-.1zm1.8-.1l-.1.3-.3-.1v.1l.3.1-.1.3h.1l.1-.3h.3l-.3-.1.1-.3zm.6-1h-.4l.1-.4h-.1l-.1.3h-.3V6h.3v.4h.1v-.3h.3zm-4.7.2v-.4l.4.1v-.1l-.3-.1v-.3h-.1v.3h-.4l.3.1v.3zm-.6.9h.3v.4l.1-.3h.3l.1-.1h-.4l.1-.4h-.1l-.1.4L11 7zm1.7-.1v.3l-.3-.1-.1.1.4.1-.1.3h.1l.1-.3h.3l-.3-.1V7zm.6-1H13l.1-.4H13l-.1.3h-.3V6h.3l-.1.4h.1l.1-.3h.3zm-4.7.2l.1-.4.3.1.1-.1-.4-.1.1-.3h-.1l-.1.3h-.3l.3.1v.3zm-.5.9h.3l-.1.4h.1l.1-.3h.3v-.1h-.3l.1-.4h-.1l-.1.4-.3-.1zM9.8 7v.3l-.4-.1v.1l.3.1v.3h.1v-.3h.4l-.4-.1.1-.3zm.6-1h-.3v-.4H10v.3h-.3l-.1.1h.4l-.1.4h.1l.1-.3h.3zM6.8 7.7l.1-.3h.3l-.3-.1L7 7h-.1l-.1.3-.3-.1v.1l.3.1zM7.5 6h-.4l.1-.4h-.1v.3h-.4V6H7v.4h.1v-.3h.4zm12.1-3.2h-.3v-.4h-.1v.4l-.4-.1v.1l.4.1-.1.3h.1l.1-.3h.3zm-.2 1.4l-.4-.1.1-.3H19l-.1.3h-.3l.3.1v.3l.1.1v-.4l.4.1zm.6.2h.3l-.1.4h.1l.1-.4.3.1v-.1h-.3l.1-.4h-.1l-.1.3H20zm.5-1h.1v-.3l.3.1.1-.1-.4-.1.1-.3h-.1l-.1.3-.3-.1V3l.3.1zm-3.8-.6h-.4l.1-.4h-.1l-.1.4-.3-.1v.1l.3.1v.3h.1v-.3h.4zm-.3 1.4l-.3-.1.1-.3h-.1l-.1.3h-.3l.3.1-.1.3.1.1.1-.4.3.1zm.6.2h.4l-.1.4h.1l.1-.4.3.1v-.1h-.3V4h-.1v.3H17zm.5-1h.1l.1-.3.3.1v-.1l-.3-.1.1-.3h-.1l-.1.3-.3-.1V3l.3.1zm-3.8-.6h-.3l.1-.4h-.1l-.1.4-.3-.1v.1l.3.1-.1.3h.1l.1-.3h.3zm-.2 1.4l-.3-.1v-.3h-.1v.3h-.4l.4.1-.1.3.1.1.1-.4.3.1zm.6.2h.3v.4h.1v-.4l.3.1.1-.1h-.4l.1-.4h-.1l-.1.3h-.3zm.5-1h.1v-.3l.4.1v-.1l-.3-.1v-.3h-.1V3l-.4-.1V3l.4.1zm-3.8-.6h-.3v-.4h-.1v.4l-.3-.1-.1.1.4.1-.1.3h.1l.1-.3h.3zm-.2 1.4l-.3-.1v-.3h-.1v.3h-.4l.3.1v.3l.1.1v-.4l.4.1zm.6.2h.3l-.1.4h.1l.1-.4.3.1v-.1h-.3l.1-.4h-.1l-.1.3h-.3zm.5-1h.1v-.3l.3.1.1-.1-.4-.1.1-.3h-.1l-.1.3-.3-.1V3l.3.1zm-3.8-.6h-.3v-.4h-.1v.4l-.4-.1v.1l.3.1v.3h.1v-.3h.4zm-.3 1.4l-.3-.1.1-.3h-.1l-.1.3h-.3l.3.1v.4l.1-.4.3.1zm.6.2h.4l-.1.4h.1l.1-.4.3.1v-.1h-.3V4h-.1v.3h-.3zm.5-1h.1l.1-.3.3.1v-.1L8.9 3l.1-.3h-.1l-.1.3-.3-.1V3l.3.1zM21 .3v-.6l-.1.1h-.3v.1h.3v.4zm-.3 1.3l.1-.3h.2v-.1h-.2l.1-.4h-.1l-.1.4-.3-.1v.1l.3.1-.1.3zM18.2-.5h-.1l-.1.3h-.3v.1h.3l-.1.4h.1l.1-.4.3.1v-.1l-.3-.1zm-.4 2.1l.1-.3h.3v-.1h-.3V.8h-.1v.4l-.4-.1v.1l.4.1-.1.3zm1-.2l.3.1v.3l.1-.3.3.1v-.1l-.3-.1.1-.3h-.1l-.1.3-.3-.1zm.6-1.7v.4L19 0v.1h.3v.4h.1V.2h.4V.1h-.3v-.4zm-4.2-.2h-.1v.3h-.4v.1h.4l-.1.4h.1l.1-.4.3.1v-.1l-.3-.1zm-.3 2.1v-.3h.4v-.1h-.4l.1-.4h-.1l-.1.4-.3-.1v.1l.3.1v.3zm1-.2l.3.1-.1.3h.1l.1-.3.3.1v-.1l-.3-.1.1-.3h-.1l-.1.3-.3-.1zm.6-1.7l-.1.4-.3-.1v.1h.3v.4l.1-.3h.3V.1h-.3l.1-.4zm-4.2-.2h-.1l-.1.3h-.3v.1h.3v.4h.1v-.4l.4.1v-.1l-.4-.1zm-.4 2.1l.1-.3h.3v-.1H12l.1-.4H12l-.1.4-.3-.1v.1l.3.1-.1.3zm1-.2l.4.1-.1.3h.1v-.3l.4.1v-.1l-.3-.1v-.3h-.1v.3l-.4-.1zm.7-1.7l-.1.4-.3-.1v.1h.3l-.1.4h.1l.1-.3h.3V.1h-.3l.1-.4zM9.4-.5h-.1l-.1.3h-.3v.1h.3l-.1.4h.1l.1-.4.3.1v-.1l-.3-.1zM9 1.6l.1-.3h.3v-.1h-.3V.8H9v.4l-.3-.1-.1.1.4.1-.1.3zm1-.2l.3.1v.3h.1v-.3l.3.1.1-.1-.4-.1.1-.3h-.1l-.1.3-.3-.1zm.6-1.7v.4l-.4-.1v.1h.4l-.1.4h.1V.2h.4V.1h-.3v-.4zm-4.2.2l.3.1v-.1l-.3-.1v-.3h-.1v.8zm.1 1.3h-.2v.1h.2zm.6.2l.3.1-.1.3h.1l.1-.3.3.1v-.1l-.3-.1.1-.3h-.1l-.1.3-.3-.1zm.6-1.7l-.1.4-.3-.1v.1h.3v.4h.1V.2H8l.1-.1h-.4l.1-.4zm12.1-3.1v.3l-.4-.1v.1l.3.1v.3h.1V-3h.4l-.3-.1v-.3zm-.2 1.3l-.1.3h-.3v.1h.3v.4h.1v-.4l.3.1.1-.1-.4-.1.1-.3zm1.3.6l-.3-.1-.1.1h.4l-.1.4h.1l.1-.3v-.5h-.1zm-.1-1.4l.2.1v-.1h-.2zm-3.9-.5l-.1.3-.3-.1v.1l.3.1v.3h.1V-3h.4l-.4-.1.1-.3zm-.2 1.3l-.1.3h-.3v.1h.3l-.1.4h.1l.1-.4.3.1v-.1l-.3-.1.1-.3zm.9.6h.3v.4h.1v-.3h.4v-.1h-.3v-.4H18v.4l-.4-.1zm.6-1.7v.3h-.4l.4.1-.1.3.1.1.1-.4.3.1v-.1l-.3-.1v-.3zM14-3.4l-.1.3-.3-.1v.1l.3.1-.1.3h.1L14-3h.3l-.3-.1.1-.3zm-.3 1.3v.3h-.4v.1h.4l-.1.4h.1l.1-.4.3.1v-.1l-.3-.1v-.3zm1 .6h.3v.4l.1-.3h.3v-.1h-.3l.1-.4h-.1l-.1.4-.3-.1zm.6-1.7v.3h-.4l.3.1v.3l.1.1v-.4l.4.1v-.1l-.3-.1v-.3zM11-3.4v.3l-.4-.1v.1l.4.1-.1.3h.1l.1-.3h.3l-.3-.1v-.3zm-.2 1.3l-.1.3h-.3v.1h.3v.4h.1v-.4l.3.1.1-.1-.4-.1.1-.3zm1 .6h.3l-.1.4h.1l.1-.3h.3v-.1h-.3l.1-.4h-.1l-.1.4-.3-.1zm.6-1.7l-.1.3H12l.3.1v.4l.1-.4.3.1v-.1l-.3-.1.1-.3zm-4.3-.2l-.1.3-.3-.1v.1L8-3v.3h.1V-3h.4l-.4-.1.1-.3zm-.2 1.3l-.1.3h-.3v.1h.3l-.1.4h.1l.1-.4.3.1v-.1l-.3-.1.1-.3zm.9.6h.4l-.1.4h.1v-.3h.4v-.1h-.3v-.4h-.1v.4l-.4-.1zm.7-1.7l-.1.3h-.3l.3.1-.1.3.1.1.1-.4.3.1v-.1l-.3-.1.1-.3zM6.3-1.9v.5h.3l.1-.1h-.4l.1-.4zm0-.9h.2l-.1.3.1.1v-.4l.4.1v-.1l-.3-.1v-.3h-.1v.3h-.2z"/><path d="M19.8 26h.1-.1zm-2.9 0h.1-.1zM14 26h.1-.1zm-3 0h.1-.1zm-2.9 0h.1-.1zM21 24.7l-.1.1h.1zm-2-1.2l-.3-.1v-.3h-.1v.3l-.3-.1-.1.1.4.1-.1.3h.1l.1-.3h.3zm-.6 1.7v-.4l.4.1v-.1l-.3-.1v-.3h-.1v.3H18v.1h.3v.4zm1.3.2l.1-.3h.3V25h-.3l.1-.4h-.1l-.1.4-.3-.1v.1l.3.1-.1.3zm.7-1.7l-.4-.1.1-.3H20l-.1.3h-.3v.1h.3v.4h.1v-.4l.4.1zm-4.3-.2l-.3-.1v-.3h-.1v.3l-.4-.1v.1l.3.1v.3h.1v-.3h.4zm-.6 1.7v-.4l.3.1.1-.1-.4-.1.1-.3h-.1l-.1.3h-.3v.1h.3v.4zm1.3.2l.1-.3h.3V25h-.3v-.4h-.1v.4l-.3-.1-.1.1.4.1-.1.3zm.6-1.7l-.3-.1.1-.3h-.1l-.1.3h-.3v.1h.3l-.1.4h.1l.1-.4.3.1zm-4.2-.2l-.4-.1.1-.3h-.1l-.1.3-.3-.1v.1l.3.1v.3h.1v-.3h.3zm-.7 1.7l.1-.4.3.1v-.1l-.3-.1.1-.3h-.1l-.1.3h-.3v.1h.3l-.1.4zm1.4.2v-.3h.4V25h-.4l.1-.4h-.1v.4l-.4-.1v.1l.3.1v.3zm.6-1.7l-.3-.1v-.3h-.1v.3h-.3l-.1.1h.4l-.1.4h.1l.1-.4.3.1zm-4.3-.2l-.3-.1.1-.3h-.1l-.1.3-.3-.1v.1l.3.1-.1.3h.1l.1-.3h.3zm-.6 1.7l.1-.4.3.1v-.1l-.3-.1v-.3h-.1v.3h-.4v.1h.4l-.1.4zm1.3.2l.1-.3h.3V25H11l.1-.4H11l-.1.4-.3-.1v.1l.3.1v.3zm.7-1.7l-.4-.1.1-.3h-.1v.3h-.4v.1h.3v.4h.1v-.4l.4.1zm-4.7.1l.1-.3h.3l-.3-.1v-.3h-.1v.3l-.4-.1v.1l.4.1-.1.3zm-.2 1.4v-.4l.3.1.1-.1-.4-.1.1-.3h-.1l-.1.3h-.3v.1h.3v.4zm1.3.2l.1-.3h.3V25h-.3v-.4L8 25l-.3-.1v.1l.3.1-.1.3zm.6-1.7l-.3-.1.1-.3h-.1l-.1.3h-.3v.1h.3v.4l.1-.4.3.1zm11.8-2.8v-.4l.4.1v-.1h-.4l.1-.4h-.1l-.1.3H20v.1h.3v.4zm-.6.9l.3.1-.1.3h.1l.1-.3h.3l-.3-.1.1-.3-.1-.1-.1.4-.3-.1zm-2.4-.9l.1-.4.3.1v-.1h-.3l.1-.4h-.1l-.1.3h-.3v.1h.3l-.1.4zm-.6.9l.4.1-.1.3h.1l.1-.3h.3l-.3-.1v-.3l-.1-.1v.4l-.3-.1zm1.8-.1l-.1.3h-.3l.3.1v.3l.1.1v-.4l.3.1.1-.1-.4-.1.1-.3zm.6-1h-.3v-.3l-.1-.1v.4l-.4-.1v.1l.4.1-.1.3h.1l.1-.3h.3zm-4.7.2l.1-.4.3.1v-.1h-.3v-.4h-.1v.3h-.3l-.1.1h.4l-.1.4zm-.6.9l.3.1v.3h.1v-.3h.4l-.3-.1v-.3l-.1-.1v.4l-.4-.1zm1.8-.1l-.1.3h-.3l.3.1-.1.3.1.1.1-.4.3.1v-.1l-.3-.1.1-.3zm.6-1h-.4l.1-.3-.1-.1-.1.4-.3-.1v.1l.3.1v.3h.1v-.3h.3zm-4.7.2v-.4l.4.1v-.1h-.3v-.4h-.1v.3h-.4v.1h.3v.4zm-.6.9l.3.1v.3l.1-.3h.4l-.4-.1.1-.3-.1-.1-.1.4-.3-.1zm1.7-.1v.3h-.4l.4.1-.1.3.1.1.1-.4.3.1v-.1l-.3-.1v-.3zm.6-1H13l.1-.3-.1-.1-.1.4-.3-.1v.1l.3.1-.1.3h.1l.1-.3h.3zm-4.7.2l.1-.4.3.1.1-.1h-.4l.1-.4h-.1l-.1.3h-.3v.1h.3v.4zm-.5.9l.3.1-.1.3h.1l.1-.3h.3l-.3-.1.1-.3-.1-.1-.1.4-.3-.1zm1.7-.1v.3h-.4l.3.1v.3l.1.1v-.4l.4.1v-.1l-.4-.1.1-.3zm.6-1h-.3v-.3l-.1-.1v.4l-.3-.1-.1.1.4.1-.1.3h.1l.1-.3h.3zm-3.6 1.7v.1l.1-.4.3.1v-.1l-.3-.1.1-.3h-.1l-.1.3h-.3l.3.1zm.7-1.7h-.4l.1-.3-.1-.1v.4l-.4-.1v.1l.3.1v.3h.1v-.3h.4zm12.1-3.1l-.3-.1v-.3h-.1v.3l-.4-.1v.1l.4.1-.1.3h.1l.1-.3.3.1zm-.2 1.3H19l.1-.4H19l-.1.3h-.3v.1h.3v.4h.1v-.4l.4.1zm.6.2l.3.1-.1.3h.1l.1-.3h.3v-.1h-.3l.1-.4h-.1l-.1.4-.3-.1zm.5-.9h.1v-.4l.3.1.1-.1-.4-.1.1-.3h-.1l-.1.3h-.3v.1h.3zm-3.8-.6l-.4-.1.1-.3h-.1l-.1.3-.3-.1v.1l.3.1v.3h.1v-.3l.4.1zm-.3 1.3h-.3l.1-.4h-.1l-.1.3h-.3v.1h.3l-.1.4h.1l.1-.4.3.1zm.6.2l.4.1-.1.3h.1l.1-.3h.3v-.1h-.3v-.4h-.1v.4L17 19zm.5-.9h.1l.1-.4.3.1v-.1l-.3-.1.1-.3h-.1l-.1.3h-.3v.1h.3zm-3.8-.6l-.3-.1.1-.3h-.1l-.1.3-.3-.1v.1l.3.1-.1.3h.1l.1-.3.3.1zm-.2 1.3h-.3v-.4h-.1v.3h-.3l-.1.1h.4l-.1.4h.1l.1-.4.3.1zm.6.2l.3.1v.3h.1v-.3h.3l.1-.1h-.4l.1-.4h-.1l-.1.4-.3-.1zm.5-.9h.1v-.4l.4.1v-.1l-.3-.1v-.3h-.1v.3h-.4v.1h.4zm-3.8-.6l-.3-.1v-.3h-.1v.3l-.3-.1-.1.1.4.1-.1.3h.1l.1-.3.3.1zm-.2 1.3h-.3v-.4h-.1v.3h-.4v.1h.3v.4h.1v-.4l.4.1zm.6.2l.3.1-.1.3h.1l.1-.3h.3v-.1h-.3l.1-.4h-.1l-.1.4-.3-.1zm.5-.9h.1v-.4l.3.1.1-.1-.4-.1.1-.3h-.1l-.1.3h-.3v.1h.3zm-3.8-.6l-.3-.1v-.3h-.1v.3l-.4-.1v.1l.3.1v.3h.1v-.3l.4.1zm-.3 1.3h-.3l.1-.4h-.1l-.1.3h-.3v.1h.3v.4l.1-.4.3.1zm.6.2l.4.1-.1.3h.1l.1-.3H9v-.1h-.3v-.4h-.1v.4l-.3-.1zm.5-.9h.1l.1-.4.3.1v-.1l-.3-.1.1-.3h-.1l-.1.3h-.3v.1h.3zM21 15v-.5l-.1.1-.3-.1v.1h.3v.4zm-.3 1.3l.1-.3h.2v-.1h-.2l.1-.3h-.1l-.1.3-.3-.1v.1l.3.1-.1.3zm-2.5-2.1h-.1l-.1.4-.3-.1v.1h.3l-.1.4h.1l.1-.3h.3v-.1h-.3zm-.4 2.1l.1-.3.3.1V16l-.3-.1v-.3h-.1v.3l-.4-.1v.1l.4.1-.1.3zm1-.1h.3v.4l.1-.4.3.1v-.1l-.3-.1.1-.3h-.1l-.1.3h-.3zm.6-1.8v.4l-.4-.1v.1l.3.1v.3h.1v-.3h.4l-.3-.1v-.3zm-4.2-.2h-.1v.4l-.4-.1v.1h.4l-.1.4h.1l.1-.3h.3v-.1h-.3zm-.3 2.1V16l.4.1V16l-.4-.1.1-.3h-.1l-.1.3-.3-.1v.1l.3.1v.3zm1-.1h.3l-.1.4h.1l.1-.4.3.1v-.1l-.3-.1.1-.3h-.1l-.1.3h-.3zm.6-1.8l-.1.4-.3-.1v.1l.3.1v.3l.1-.3h.3l-.3-.1.1-.3zm-4.2-.2h-.1l-.1.4-.3-.1v.1h.3v.4h.1v-.3h.4v-.1h-.4zm-.4 2.1l.1-.3.3.1V16l-.3-.1.1-.3H12l-.1.3-.3-.1v.1l.3.1-.1.3zm1-.1h.4l-.1.4h.1v-.4l.4.1v-.1l-.3-.1v-.3h-.1v.3h-.4zm.7-1.8l-.1.4-.3-.1v.1l.3.1-.1.3h.1l.1-.3h.3l-.3-.1.1-.3zm-4.2-.2h-.1l-.1.4-.3-.1v.1h.3l-.1.4h.1l.1-.3h.3v-.1h-.3zM9 16.3l.1-.3.3.1V16l-.3-.1v-.3H9v.3l-.3-.1-.1.1.4.1-.1.3zm1-.1h.3v.4h.1v-.4l.3.1.1-.1-.4-.1.1-.3h-.1l-.1.3H10zm.6-1.8v.4l-.4-.1v.1l.4.1-.1.3h.1v-.3h.4l-.3-.1v-.3zm-4.2.3h.3v-.1h-.3v-.4h-.1v.8zm.1 1.3l-.2-.1v.1l.2.1zm.6.2h.3l-.1.4h.1l.1-.4.3.1v-.1l-.3-.1.1-.3h-.1l-.1.3h-.3zm.6-1.8l-.1.4-.3-.1v.1l.3.1v.3h.1v-.3h.4l-.4-.1.1-.3zm12.1-3.1v.3h-.4l.3.1v.3l.1.1v-.4l.4.1v-.1l-.3-.1v-.3zm-.2 1.3l-.1.3h-.3v.1h.3v.4h.1v-.3h.3l.1-.1h-.4l.1-.4zm1.3.6l-.3-.1-.1.1.4.1-.1.3h.1l.1-.2v-.6h-.1zm-.1-1.3h.2v-.1h-.2zm-3.9-.6l-.1.3h-.3l.3.1v.3l.1.1v-.4l.3.1.1-.1-.4-.1.1-.3zm-.2 1.3l-.1.3h-.3v.1h.3l-.1.4h.1l.1-.3h.3V13h-.3l.1-.4zm.9.6l.3.1v.3h.1v-.3h.4l-.3-.1v-.3l-.1-.1v.4l-.4-.1zm.6-1.7v.3h-.3l-.1.1h.4l-.1.4h.1l.1-.4.3.1v-.1h-.3v-.4zm-4.2-.2l-.1.3h-.3l.3.1-.1.3.1.1.1-.4.3.1v-.1l-.3-.1.1-.3zm-.3 1.3v.3h-.4v.1h.4l-.1.4h.1l.1-.3h.3V13h-.3v-.4zm1 .6l.3.1v.3l.1-.3h.3l-.3-.1.1-.3-.1-.1-.1.4-.3-.1zm.6-1.7v.3h-.4v.1h.3v.4h.1v-.4l.4.1v-.1h-.3v-.4zm-4.3-.2v.3h-.4l.4.1-.1.3.1.1.1-.4.3.1v-.1l-.3-.1v-.3zm-.2 1.3l-.1.3h-.3v.1h.3v.4h.1v-.3h.3l.1-.1h-.4l.1-.4zm1 .6l.3.1-.1.3h.1l.1-.3h.3l-.3-.1.1-.3-.1-.1-.1.4-.3-.1zm.6-1.7l-.1.3H12v.1h.3v.4l.1-.4.3.1v-.1h-.3l.1-.4zm-4.3-.2l-.1.3h-.3l.3.1v.3l.1.1v-.4l.3.1.1-.1-.4-.1.1-.3zm-.2 1.3l-.1.3h-.3v.1h.3l-.1.4h.1l.1-.3h.3V13h-.3l.1-.4zm.9.6l.4.1-.1.3h.1v-.3h.4l-.3-.1v-.3l-.1-.1v.4l-.4-.1zm.7-1.7l-.1.3h-.3v.1h.3l-.1.4h.1l.1-.4.3.1v-.1h-.3l.1-.4zm-3.2 1.3v.6-.1h.4l-.4-.1.1-.3zm0-.9h.2l-.1.4h.1v-.4l.4.1v-.1h-.3v-.4h-.1v.3h-.2zm13.5 28.8h.1-.1zm-2.9 0h.1-.1zm-2.9 0h.1-.1zm-3 0h.1-.1zm-2.9 0h.1-.1zM21 39.5h-.1.1zm-2-1.3l-.3-.1v-.3h-.1v.3h-.4l.4.1-.1.3.1.1.1-.4.3.1zm-.6 1.7v-.3h.4v-.1h-.3v-.4h-.1v.4l-.4-.1v.1h.3v.4zm1.3.2l.1-.3h.3l-.3-.1.1-.3h-.1l-.1.3-.3-.1v.1l.3.1-.1.3zm.7-1.7H20l.1-.4H20l-.1.3h-.3v.1h.3v.4h.1v-.3h.4zm-4.3-.2l-.3-.1v-.3h-.1v.3h-.4l.3.1v.3l.1.1v-.4l.4.1zm-.6 1.7v-.3h.3l.1-.1h-.4l.1-.4h-.1l-.1.4-.3-.1v.1h.3v.4zm1.3.2l.1-.3h.3l-.3-.1v-.3h-.1v.3l-.3-.1-.1.1.4.1-.1.3zm.6-1.7h-.3l.1-.4h-.1l-.1.3h-.3v.1h.3l-.1.4h.1l.1-.3h.3zm-4.2-.2l-.4-.1.1-.3h-.1l-.1.3h-.3l.3.1v.3l.1.1v-.4l.3.1zm-.7 1.7l.1-.3h.3v-.1h-.3l.1-.4h-.1l-.1.4-.3-.1v.1h.3l-.1.4zm1.4.2v-.3h.4l-.4-.1.1-.3h-.1v.3l-.4-.1v.1l.3.1v.3zm.6-1.7h-.3V38h-.1v.3h-.3l-.1.1h.4l-.1.4h.1l.1-.3h.3zm-4.3-.2l-.3-.1.1-.3h-.1l-.1.3h-.3l.3.1-.1.3.1.1.1-.4.3.1zm-.6 1.7l.1-.3h.3v-.1h-.3v-.4h-.1v.4l-.4-.1v.1h.4l-.1.4zm1.3.2l.1-.3h.3l-.3-.1.1-.3H11l-.1.3-.3-.1v.1l.3.1v.3zm.7-1.7h-.4l.1-.4h-.1v.3h-.4v.1h.3v.4h.1v-.3h.4zm-4.7.2l.1-.4.3.1v-.1l-.3-.1v-.3h-.1v.3h-.4l.4.1-.1.3zm-.2 1.3v-.3H7l.1-.1h-.4l.1-.4h-.1l-.1.4-.3-.1v.1h.3v.4zm1.3.2l.1-.3h.3l-.3-.1v-.3l-.1.3-.3-.1v.1l.3.1-.1.3zm.6-1.7h-.3l.1-.4h-.1l-.1.3h-.3v.1h.3v.4l.1-.3h.3zm11.8-2.8v-.3h.4v-.1h-.4l.1-.4h-.1l-.1.4-.3-.1v.1l.3.1v.3zm-.6.9l.3.1-.1.3.1.1.1-.4.3.1v-.1l-.3-.1.1-.3h-.1l-.1.3h-.3zm-2.4-.9l.1-.3h.3v-.1h-.3l.1-.4h-.1l-.1.4-.3-.1v.1l.3.1-.1.3zm-.6.9l.4.1-.1.3.1.1.1-.4.3.1v-.1l-.3-.1v-.3h-.1v.3h-.3zm1.8-.1l-.1.3h-.3v.1h.3v.4h.1v-.4l.3.1.1-.1h-.4l.1-.4zm.6-.9l-.3-.1v-.3h-.1v.3l-.4-.1v.1l.4.1-.1.3h.1l.1-.3.3.1zm-4.7.1l.1-.3h.3v-.1h-.3v-.4h-.1v.4l-.3-.1-.1.1.4.1-.1.3zm-.6.9l.3.1v.3l.1.1v-.4l.4.1v-.1l-.3-.1v-.3h-.1v.3h-.4zm1.8-.1l-.1.3h-.3v.1h.3l-.1.4h.1l.1-.4.3.1v-.1h-.3l.1-.4zm.6-.9l-.4-.1.1-.3h-.1l-.1.3-.3-.1v.1l.3.1v.3h.1v-.3l.3.1zm-4.7.1v-.3h.4v-.1h-.3v-.4h-.1v.4l-.4-.1v.1l.3.1v.3zm-.6.9l.3.1v.4l.1-.4.3.1.1-.1-.4-.1.1-.3h-.1l-.1.3H11zm1.7-.1v.3h-.3l-.1.1h.4l-.1.4h.1l.1-.4.3.1v-.1h-.3v-.4zm.6-.9l-.3-.1.1-.3H13l-.1.3-.3-.1v.1l.3.1-.1.3h.1l.1-.3.3.1zm-4.7.1l.1-.3H9l.1-.1h-.4l.1-.4h-.1l-.1.4-.3-.1v.1l.3.1v.3zm-.5.9l.3.1-.1.3.1.1.1-.4.3.1v-.1l-.3-.1.1-.3h-.1l-.1.3h-.3zm1.7-.1v.3h-.4v.1h.3v.4h.1v-.4l.4.1v-.1h-.4l.1-.4zm.6-.9l-.3-.1v-.3H10v.3l-.3-.1-.1.1.4.1-.1.3h.1l.1-.3.3.1zm-3.6 1.7l.1-.4.3.1v-.1h-.3l.1-.4h-.1l-.1.3h-.3v.1h.3zm.7-1.7l-.4-.1.1-.3h-.1v.3l-.4-.1v.1l.3.1v.3h.1v-.3l.4.1zm12.1-3.2l-.3-.1v-.3h-.1v.3h-.4v.1h.4l-.1.4h.1l.1-.4.3.1zm-.2 1.3H19l.1-.4H19l-.1.4-.3-.1v.1l.3.1v.3h.1v-.3h.4zm.6.2l.3.1-.1.3h.1l.1-.3.3.1v-.1l-.3-.1.1-.3h-.1l-.1.3-.3-.1zm.5-.9h.1v-.3h.3l.1-.1h-.4l.1-.4h-.1l-.1.4-.3-.1v.1h.3zm-3.8-.6l-.4-.1.1-.3h-.1l-.1.3h-.3v.1h.3v.4h.1v-.4l.4.1zm-.3 1.3h-.3l.1-.4h-.1l-.1.4-.3-.1v.1l.3.1-.1.3h.1l.1-.3h.3zm.6.2l.4.1-.1.3h.1l.1-.3.3.1v-.1l-.3-.1v-.3h-.1v.3l-.4-.1zm.5-.9h.1l.1-.3h.3v-.1h-.3l.1-.4h-.1l-.1.4-.3-.1v.1h.3zm-3.8-.6l-.3-.1.1-.3h-.1l-.1.3H13v.1h.3l-.1.4h.1l.1-.4.3.1zm-.2 1.3h-.3v-.4h-.1v.4l-.3-.1-.1.1.4.1-.1.3h.1l.1-.3h.3zm.6.2l.3.1v.3h.1v-.3l.3.1.1-.1-.4-.1.1-.3h-.1l-.1.3-.3-.1zm.5-.9h.1v-.3h.4v-.1h-.3v-.4h-.1v.4l-.4-.1v.1h.4zm-3.8-.6l-.3-.1v-.3h-.1v.3h-.3l-.1.1h.4l-.1.4h.1l.1-.4.3.1zm-.2 1.3h-.3v-.4h-.1v.4l-.4-.1v.1l.3.1v.3h.1v-.3h.4zm.6.2l.3.1-.1.3h.1l.1-.3.3.1v-.1l-.3-.1.1-.3h-.1l-.1.3-.3-.1zm.5-.9h.1v-.3h.3l.1-.1h-.4l.1-.4h-.1l-.1.4-.3-.1v.1h.3zm-3.8-.6l-.3-.1v-.3h-.1v.3h-.4v.1h.3v.4h.1v-.4l.4.1zm-.3 1.3h-.3l.1-.4h-.1l-.1.4-.3-.1v.1l.3.1v.3l.1-.3h.3zm.6.2l.4.1-.1.3h.1l.1-.3.3.1v-.1l-.3-.1v-.3h-.1v.3l-.3-.1zm.5-.9h.1l.1-.3h.3v-.1h-.3l.1-.4h-.1l-.1.4-.3-.1v.1h.3zM21 29.7v-.5l-.1.1-.3-.1v.1l.3.1v.3zm-.3 1.4l.1-.4.2.1v-.1l-.2-.1.1-.3h-.1l-.1.3h-.3v.1h.3l-.1.4zM18.2 29l-.1-.1-.1.4-.3-.1v.1l.3.1-.1.3h.1l.1-.3h.3l-.3-.1zm-.4 2.1l.1-.4.3.1v-.1l-.3-.1v-.3h-.1v.3h-.4v.1h.4l-.1.4zm1-.2h.3v.4l.1-.3h.3v-.1h-.3l.1-.4h-.1l-.1.4-.3-.1zm.6-1.7v.3H19l.3.1v.3l.1.1v-.4l.4.1v-.1l-.3-.1v-.3zm-4.2-.2l-.1-.1v.4l-.4-.1v.1l.4.1-.1.3h.1l.1-.3h.3l-.3-.1zm-.3 2.1v-.4l.4.1v-.1l-.4-.1.1-.3h-.1l-.1.3h-.3v.1h.3v.4zm1-.2h.3l-.1.4h.1l.1-.3h.3v-.1h-.3l.1-.4h-.1l-.1.4-.3-.1zm.6-1.7l-.1.3h-.3l.3.1v.4l.1-.4.3.1v-.1l-.3-.1.1-.3zm-4.2-.2l-.1-.1-.1.4-.3-.1v.1l.3.1v.3h.1v-.3h.4l-.4-.1zm-.4 2.1l.1-.4.3.1v-.1l-.3-.1.1-.3H12l-.1.3h-.3v.1h.3l-.1.4zm1-.2h.4l-.1.4h.1V31h.4v-.1h-.3v-.4h-.1v.4l-.4-.1zm.7-1.7l-.1.3h-.3l.3.1-.1.3.1.1.1-.4.3.1v-.1l-.3-.1.1-.3zM9.4 29l-.1-.1-.1.4-.3-.1v.1l.3.1-.1.3h.1l.1-.3h.3l-.3-.1zM9 31.1l.1-.4.3.1v-.1l-.3-.1v-.3H9v.3h-.3l-.1.1H9l-.1.4zm1-.2h.3v.4h.1V31h.3l.1-.1h-.4l.1-.4h-.1l-.1.4-.3-.1zm.6-1.7v.3h-.4l.4.1-.1.3.1.1v-.4l.4.1v-.1l-.3-.1v-.3zm-4.2.2h.3l-.3-.1V29l-.1-.1v.8zm.1 1.3h-.2v.1h.2zm.6.2h.3l-.1.4h.1l.1-.3h.3v-.1h-.3l.1-.4h-.1l-.1.4-.3-.1zm.6-1.7l-.1.3h-.3l.3.1v.3l.1.1v-.4l.3.1.1-.1-.4-.1.1-.3zM19.8 26v.3h-.4v.1h.3v.4h.1v-.4l.4.1v-.1h-.3V26zm-.2 1.3l-.1.4-.3-.1v.1l.3.1v.3h.1v-.3h.3l.1-.1h-.4l.1-.3zm1.3.6h-.4l.4.1-.1.3.1.1.1-.3v-.5h-.1zm-.1-1.3h.2v-.1h-.2zm-3.9-.6l-.1.3h-.3v.1h.3v.4h.1v-.4l.3.1.1-.1h-.4l.1-.4zm-.2 1.3l-.1.4-.3-.1v.1l.3.1-.1.3h.1l.1-.3h.3v-.1h-.3l.1-.3zm.9.6l.3.1v.3l.1.1V28l.4.1V28l-.3-.1v-.3H18v.3h-.4zm.6-1.7v.4l-.3-.1-.1.1.4.1-.1.3h.1l.1-.3h.3v-.1h-.3v-.4zM14 26l-.1.3h-.3v.1h.3l-.1.4h.1l.1-.4.3.1v-.1H14l.1-.4zm-.3 1.3v.4l-.4-.1v.1l.4.1-.1.3h.1l.1-.3h.3v-.1h-.3v-.3zm1 .6l.3.1v.4l.1-.4.3.1V28l-.3-.1.1-.3h-.1l-.1.3h-.3zm.6-1.7v.4l-.4-.1v.1l.3.1v.3h.1v-.3h.4v-.1h-.3v-.4zM11 26v.3h-.4v.1h.4l-.1.4h.1l.1-.4.3.1v-.1h-.3V26zm-.2 1.3l-.1.4-.3-.1v.1l.3.1v.3h.1v-.3h.3l.1-.1h-.4l.1-.3zm1 .6l.3.1-.1.3.1.1.1-.4.3.1V28l-.3-.1.1-.3h-.1l-.1.3h-.3zm.6-1.7l-.1.4-.3-.1v.1l.3.1v.3l.1-.3h.3v-.1h-.3l.1-.4zM8.1 26l-.1.3h-.3v.1H8v.4h.1v-.4l.3.1.1-.1h-.4l.1-.4zm-.2 1.3l-.1.4-.3-.1v.1l.3.1-.1.3h.1l.1-.3h.3v-.1h-.3l.1-.3zm.9.6l.4.1-.1.3.1.1V28l.4.1V28l-.3-.1v-.3h-.1v.3h-.4zm.7-1.7l-.1.4-.3-.1v.1l.3.1-.1.3h.1l.1-.3h.3v-.1h-.3l.1-.4zm-3.2 1.4v.5-.1l.3.1.1-.1-.4-.1.1-.3zm0-1l.2.1-.1.3h.1v-.3h.4v-.1h-.3v-.4h-.1v.4l-.2-.1zm13.5 28.9h.1-.1zm-2.9 0h.1-.1zm-2.9 0h.1-.1zm-3 0h.1-.1zm-2.9 0h.1-.1zM21 54.2h-.1.1zm-2-1.3h-.3v-.4h-.1v.3h-.3l-.1.1h.4l-.1.4h.1l.1-.4.3.1zm-.6 1.7v-.3h.4l-.3-.1v-.3l-.1-.1v.4l-.4-.1v.1l.3.1v.3zm1.3.3l.1-.4.3.1v-.1l-.3-.1.1-.3h-.1l-.1.3h-.3l.3.1-.1.3zm.7-1.8H20l.1-.3-.1-.1-.1.4-.3-.1v.1l.3.1v.3h.1v-.3h.4zm-4.3-.2h-.3v-.4h-.1v.3h-.4v.1h.3v.4h.1v-.4l.4.1zm-.6 1.7v-.3h.4l-.4-.1.1-.3-.1-.1-.1.4-.3-.1v.1l.3.1v.3zm1.3.3l.1-.4.3.1v-.1l-.3-.1v-.3h-.1v.3h-.4l.4.1-.1.3zm.6-1.8h-.3l.1-.3-.1-.1-.1.4-.3-.1v.1l.3.1-.1.3h.1l.1-.3h.3zm-4.2-.2h-.4l.1-.4h-.1l-.1.3h-.3v.1h.3v.4h.1v-.4l.3.1zm-.7 1.7l.1-.3h.3l-.3-.1.1-.3-.1-.1-.1.4-.3-.1v.1l.3.1-.1.3zm1.4.3v-.4l.4.1v-.1l-.4-.1.1-.3h-.1v.3h-.4l.3.1v.3zm.6-1.8h-.3v-.3l-.1-.1v.4l-.3-.1-.1.1.4.1-.1.3h.1l.1-.3h.3zm-4.3-.2h-.3l.1-.4h-.1l-.1.3h-.3v.1h.3l-.1.4h.1l.1-.4.3.1zm-.6 1.7l.1-.3h.3l-.3-.1v-.3l-.1-.1v.4l-.4-.1v.1l.4.1-.1.3zm1.3.3l.1-.4.3.1v-.1l-.3-.1.1-.3H11l-.1.3h-.3l.3.1v.3zm.7-1.8h-.4l.1-.3-.1-.1v.4l-.4-.1v.1l.3.1v.3h.1v-.3h.4zm-4.7.2l.1-.4.3.1v-.1H7v-.4h-.1v.3h-.4v.1h.4l-.1.4zm-.2 1.3v-.3h.4l-.4-.1.1-.3-.1-.1-.1.4-.3-.1v.1l.3.1v.3zm1.3.3l.1-.4.3.1v-.1l-.3-.1v-.3l-.1.3h-.3l.3.1-.1.3zm.6-1.8h-.3l.1-.3-.1-.1-.1.4-.3-.1v.1l.3.1v.3l.1-.3h.3zm11.8-2.8V50l.4.1V50l-.4-.1.1-.3h-.1l-.1.3-.3-.1v.1l.3.1v.3zm-.6 1h.3l-.1.4h.1l.1-.4.3.1v-.1h-.3l.1-.4h-.1l-.1.3h-.3zm-2.4-1l.1-.3.3.1V50l-.3-.1.1-.3h-.1l-.1.3-.3-.1v.1l.3.1-.1.3zm-.6 1h.4l-.1.4h.1l.1-.4.3.1v-.1h-.3v-.4h-.1v.3h-.3zm1.8-.2l-.1.4-.3-.1v.1l.3.1v.3h.1v-.3h.3l.1-.1h-.4l.1-.4zm.6-.9l-.3-.1v-.3h-.1v.3h-.4v.1h.4l-.1.4h.1l.1-.4.3.1zm-4.7.1l.1-.3.3.1V50l-.3-.1v-.3h-.1v.3l-.3-.1-.1.1.4.1-.1.3zm-.6 1h.3v.4h.1v-.4l.4.1v-.1h-.3v-.4h-.1v.3h-.4zm1.8-.2l-.1.4-.3-.1v.1l.3.1-.1.3h.1l.1-.3h.3v-.1h-.3l.1-.4zm.6-.9l-.4-.1.1-.3h-.1l-.1.3h-.3v.1h.3v.4h.1v-.4l.3.1zm-4.7.1V50l.4.1V50l-.3-.1v-.3h-.1v.3l-.4-.1v.1l.3.1v.3zm-.6 1h.3v.4l.1-.4.3.1.1-.1h-.4l.1-.4h-.1l-.1.3H11zm1.7-.2v.4l-.3-.1-.1.1.4.1-.1.3h.1l.1-.3h.3v-.1h-.3v-.4zm.6-.9l-.3-.1.1-.3H13l-.1.3h-.3v.1h.3l-.1.4h.1l.1-.4.3.1zm-4.7.1l.1-.3.3.1.1-.1-.4-.1.1-.3h-.1l-.1.3-.3-.1v.1l.3.1v.3zm-.5 1h.3l-.1.4h.1l.1-.4.3.1v-.1h-.3l.1-.4h-.1l-.1.3h-.3zm1.7-.2v.4l-.4-.1v.1l.3.1v.3h.1v-.3h.4v-.1h-.4l.1-.4zm.6-.9l-.3-.1v-.3H10v.3h-.3l-.1.1h.4l-.1.4h.1l.1-.4.3.1zm-3.6 1.7l.1-.3h.3v-.1h-.3l.1-.4h-.1l-.1.4-.3-.1v.1l.3.1zm.7-1.7l-.4-.1.1-.3h-.1v.3h-.4v.1H7v.4h.1v-.4l.4.1zM19.6 47h-.3v-.4h-.1v.4l-.4-.1v.1h.4l-.1.4h.1l.1-.3h.3zm-.2 1.4l-.4-.1.1-.3H19l-.1.3-.3-.1v.1l.3.1v.3h.1v-.3l.4.1zm.6.2h.3l-.1.4h.1l.1-.4.3.1v-.1l-.3-.1.1-.3h-.1l-.1.3H20zm.5-1h.1v-.3h.4l-.4-.1.1-.3-.1-.1-.1.4-.3-.1v.1l.3.1zm-3.8-.6h-.4l.1-.4h-.1l-.1.4-.3-.1v.1h.3v.4h.1v-.3h.4zm-.3 1.4l-.3-.1.1-.3h-.1l-.1.3-.3-.1v.1l.3.1-.1.3h.1l.1-.3.3.1zm.6.2h.4l-.1.4h.1l.1-.4.3.1v-.1l-.3-.1v-.3h-.1v.3H17zm.5-1h.1l.1-.3h.3l-.3-.1.1-.3-.1-.1-.1.4-.3-.1v.1l.3.1zm-3.8-.6h-.3l.1-.4h-.1l-.1.4-.3-.1v.1h.3l-.1.4h.1l.1-.3h.3zm-.2 1.4l-.3-.1V48h-.1v.3l-.3-.1-.1.1.4.1-.1.3h.1l.1-.3.3.1zm.6.2h.3v.4h.1v-.4l.3.1.1-.1-.4-.1.1-.3h-.1l-.1.3h-.3zm.5-1h.1v-.3h.4l-.3-.1v-.3l-.1-.1v.4l-.4-.1v.1l.4.1zm-3.8-.6h-.3v-.4h-.1v.4l-.3-.1-.1.1h.4l-.1.4h.1l.1-.3h.3zm-.2 1.4l-.3-.1V48h-.1v.3l-.4-.1v.1l.3.1v.3h.1v-.3l.4.1zm.6.2h.3l-.1.4h.1l.1-.4.3.1v-.1l-.3-.1.1-.3h-.1l-.1.3h-.3zm.5-1h.1v-.3h.4l-.4-.1.1-.3-.1-.1-.1.4-.3-.1v.1l.3.1zM7.9 47h-.3v-.4h-.1v.4l-.4-.1v.1h.3v.4h.1v-.3h.4zm-.3 1.4l-.3-.1.1-.3h-.1l-.1.3-.3-.1v.1l.3.1v.3l.1-.3.3.1zm.6.2h.4l-.1.4h.1l.1-.4.3.1v-.1l-.3-.1v-.3h-.1v.3h-.3zm.5-1h.1l.1-.3h.3l-.3-.1.1-.3-.1-.1-.1.4-.3-.1v.1l.3.1zM21 44.5v-.6l-.1.1h-.3l.3.1v.3zm-.3 1.3l.1-.3h.2v-.1h-.2l.1-.4h-.1l-.1.3h-.3v.1h.3l-.1.4zm-2.5-2.1h-.1l-.1.3h-.3l.3.1-.1.3.1.1.1-.4.3.1v-.1l-.3-.1zm-.4 2.1l.1-.3h.3v-.1h-.3V45h-.1v.3h-.4v.1h.4l-.1.4zm1-.2l.3.1v.3l.1-.3h.3l-.3-.1.1-.3-.1-.1-.1.4-.3-.1zm.6-1.7v.3H19v.1h.3v.4h.1v-.4l.4.1v-.1h-.3v-.4zm-4.2-.2h-.1v.3h-.4l.4.1-.1.3.1.1.1-.4.3.1v-.1l-.3-.1zm-.3 2.1v-.3h.4v-.1h-.4l.1-.4h-.1l-.1.3h-.3v.1h.3v.4zm1-.2l.3.1-.1.3h.1l.1-.3h.3l-.3-.1.1-.3-.1-.1-.1.4-.3-.1zm.6-1.7l-.1.3h-.3v.1h.3v.4l.1-.4.3.1v-.1h-.3l.1-.4zm-4.2-.2h-.1l-.1.3h-.3l.3.1v.3l.1.1v-.4l.4.1v-.1l-.4-.1zm-.4 2.1l.1-.3h.3v-.1H12l.1-.4H12l-.1.3h-.3v.1h.3l-.1.4zm1-.2l.4.1-.1.3h.1v-.3h.4l-.3-.1v-.3l-.1-.1v.4l-.4-.1zm.7-1.7l-.1.3h-.3v.1h.3l-.1.4h.1l.1-.4.3.1v-.1h-.3l.1-.4zm-4.2-.2h-.1l-.1.3h-.3l.3.1-.1.3.1.1.1-.4.3.1v-.1l-.3-.1zM9 45.8l.1-.3h.3v-.1h-.3V45H9v.3h-.3l-.1.1H9l-.1.4zm1-.2l.3.1v.3h.1v-.3h.4l-.4-.1.1-.3-.1-.1-.1.4-.3-.1zm.6-1.7v.3h-.4v.1h.4l-.1.4h.1v-.4l.4.1v-.1h-.3v-.4zm-4.2.2l.3.1v-.1l-.3-.1v-.3h-.1v.8zm.1 1.3h-.2v.1h.2zm.6.2l.3.1-.1.3h.1l.1-.3h.3l-.3-.1.1-.3-.1-.1-.1.4-.3-.1zm.6-1.7l-.1.3h-.3v.1h.3v.4h.1v-.4l.3.1.1-.1h-.4l.1-.4zm12.1-3.2v.4l-.4-.1v.1l.3.1v.3h.1v-.3h.4v-.1h-.3v-.4zm-.2 1.4l-.1.3-.3-.1v.1l.3.1v.3l.1.1v-.4l.3.1.1-.1-.4-.1.1-.3zm1.3.5h-.3l-.1.1h.4l-.1.4h.1l.1-.3v-.5h-.1zm-.1-1.3l.2.1v-.1l-.2-.1zm-3.9-.6l-.1.4-.3-.1v.1l.3.1v.3h.1v-.3h.3l.1-.1h-.4l.1-.4zm-.2 1.4l-.1.3-.3-.1v.1l.3.1-.1.3.1.1.1-.4.3.1v-.1l-.3-.1.1-.3zm.9.6h.3v.4h.1v-.4l.4.1v-.1h-.3v-.4H18v.3h-.4zm.6-1.7v.3l-.3-.1-.1.1.4.1-.1.3h.1l.1-.3.3.1v-.1l-.3-.1V41zm-4.2-.3l-.1.4-.3-.1v.1l.3.1-.1.3h.1l.1-.3h.3v-.1H14l.1-.4zm-.3 1.4v.3l-.4-.1v.1l.4.1-.1.3.1.1.1-.4.3.1v-.1l-.3-.1v-.3zm1 .6h.3v.4l.1-.4.3.1v-.1h-.3l.1-.4h-.1l-.1.3h-.3zm.6-1.7v.3l-.4-.1v.1l.3.1v.3h.1v-.3l.4.1v-.1l-.3-.1V41zm-4.3-.3v.4l-.4-.1v.1l.4.1-.1.3h.1l.1-.3h.3v-.1h-.3v-.4zm-.2 1.4l-.1.3-.3-.1v.1l.3.1v.3l.1.1v-.4l.3.1.1-.1-.4-.1.1-.3zm1 .6h.3l-.1.4h.1l.1-.4.3.1v-.1h-.3l.1-.4h-.1l-.1.3h-.3zm.6-1.7l-.1.3-.3-.1v.1l.3.1v.3l.1-.3.3.1v-.1l-.3-.1.1-.3zm-4.3-.3l-.1.4-.3-.1v.1l.3.1v.3h.1v-.3h.3l.1-.1h-.4l.1-.4zm-.2 1.4l-.1.3-.3-.1v.1l.3.1-.1.3.1.1.1-.4.3.1v-.1l-.3-.1.1-.3zm.9.6h.4l-.1.4h.1v-.4l.4.1v-.1h-.3v-.4h-.1v.3h-.4zm.7-1.7l-.1.3-.3-.1v.1l.3.1-.1.3h.1l.1-.3.3.1v-.1l-.3-.1.1-.3zm-3.2 1.3v.5-.1l.3.1.1-.1h-.4l.1-.4zm0-.9h.2l-.1.3h.1v-.3l.4.1v-.1l-.3-.1V41h-.1v.3h-.2zM5.2 11.3h.1-.1zm-3 0h.1-.1zm-2.9 0h.1-.1zm-2.9 0h.1-.1zm-2.9 0zM6.3 10zM4.4 8.7H4l.1-.4H4l-.1.4-.3-.1v.1l.3.1v.3H4v-.3h.3zm-.7 1.8l.1-.4.3.1v-.1l-.3-.1.1-.3h-.1l-.1.3-.3-.1v.1l.3.1-.1.3zm1.4.2v-.4l.4.1v-.1h-.3v-.4h-.1v.3h-.4v.1h.4l-.1.4zM5.7 9l-.3-.1v-.3l-.1.3-.3-.1v.1l.3.1-.1.3h.1l.1-.3.3.1zm-4.3-.3h-.3l.1-.4h-.1l-.1.4-.3-.1v.1l.3.1-.1.3H1l.1-.3h.3zm-.6 1.8l.1-.4.3.1v-.1L.9 10v-.3H.8v.3l-.3-.1-.1.1.4.1-.1.3zm1.4.2v-.4l.3.1.1-.1h-.4l.1-.4h-.1l-.1.3h-.3v.1h.3v.4zM2.8 9l-.3-.1v-.3h-.1v.3L2 8.8v.1l.4.1-.1.3h.1V9l.4.1zm-4.3-.3h-.3v-.4h-.1v.4l-.3-.1-.1.1.4.1-.1.3h.1l.1-.3h.3zm-.6 1.8v-.4l.4.1v-.1l-.4-.1.1-.3h-.1v.3l-.4-.1v.1l.3.1v.3zm1.3.2l.1-.4.3.1v-.1h-.3l.1-.4h-.1l-.1.3h-.3v.1h.3l-.1.4zM-.1 9l-.4-.1.1-.3h-.1l-.1.3-.3-.1v.1l.3.1v.3h.1V9l.3.1zm-4.3-.3h-.4l.1-.4h-.1v.4l-.4-.1v.1l.3.1v.3h.1v-.3h.4zm-.7 1.8l.1-.4.3.1v-.1L-5 10l.1-.3H-5l-.1.3-.3-.1v.1l.3.1v.3zm1.4.2l.1-.4.3.1v-.1h-.3v-.4h-.1v.3H-4l-.1.1h.4l-.1.4zm.6-1.7l-.3-.1.1-.3h-.1l-.1.3-.3-.1v.1l.3.1-.1.3h.1l.1-.3.3.1zm-4.7.1l.1-.3h.3v-.1h-.3l.1-.4h-.1l-.1.4-.3-.1v.1l.3.1v.3zm-.2 1.4l.1-.4.3.1v-.1l-.3-.1v-.3l-.1.3-.3-.1v.1l.3.1-.1.3zm1.4.2v-.4l.4.1v-.1h-.4l.1-.4h-.1v.3H-7v.1h.3v.4zM-6 9l-.3-.1v-.3h-.1v.3l-.3-.1-.1.1.4.1-.1.3h.1l.1-.3.3.1zM5.7 6.2l.1-.4.3.1v-.1l-.3-.1.1-.3h-.1l-.1.3h-.3l.3.1-.1.3zm-.6.9h.4l-.1.4h.1v-.3h.4v-.1h-.3v-.4h-.1v.4L5.1 7zm-2.3-.9v-.4l.4.1v-.1l-.3-.1v-.3h-.1v.3h-.4l.4.1-.1.3zm-.6.9h.3v.4h.1v-.3h.3l.1-.1h-.4l.1-.4h-.1l-.1.4-.3-.1zM4 7l-.1.3-.3-.1v.1l.3.1-.1.3h.1l.1-.3h.3L4 7.3V7zm.5-1h-.3l.1-.4h-.1l-.1.3h-.3V6h.3v.4l.1-.3h.3zm-4.6.2v-.4l.3.1.1-.1-.4-.1.1-.3h-.1l-.1.3h-.3l.3.1v.3zm-.6.9h.3l-.1.4h.1l.1-.3H0v-.1h-.3l.1-.4h-.1l-.1.4-.3-.1zM1 7v.3l-.4-.1v.1l.4.1-.1.3H1v-.3h.4l-.3-.1V7zm.6-1h-.3v-.4l-.1.3H.9V6h.3l-.1.4h.1l.1-.3h.3zm-4.7.2l.1-.4.3.1v-.1l-.3-.1.1-.3H-3l-.1.3h-.3l.3.1-.1.3zm-.6.9h.4l-.1.4h.1l.1-.3h.3v-.1h-.3v-.4h-.1v.4l-.3-.1zm1.8-.1l-.1.3-.3-.1v.1l.3.1v.3h.1v-.3h.4l-.4-.1.1-.3zm.6-1h-.3v-.4h-.1v.3h-.4V6h.4l-.1.4h.1v-.3h.4zm-4.7.2l.1-.4.3.1v-.1l-.3-.1v-.3H-6v.3h-.4l.4.1-.1.3zm-.6.9h.3v.4h.1v-.3h.4v-.1h-.4l.1-.4h-.1v.4l-.4-.1zm1.8-.1l-.1.3-.3-.1v.1l.3.1-.1.3h.1l.1-.3h.3l-.3-.1.1-.3zm.6-1h-.4l.1-.4h-.1l-.1.3H-5V6h.3v.4h.1v-.3h.3zm-3.7 1.7h.1l.1-.3h.3l-.3-.1V7h-.1v.3l-.3-.1-.1.1.4.1zm.7-1.7h-.3l.1-.4h-.1l-.1.3h-.3V6h.3l-.1.4h.1l.1-.3h.3zM4.9 2.8h-.3l.1-.4h-.1l-.1.4-.3-.1v.1l.3.1v.3l.1-.3h.3zm-.2 1.4l-.3-.1.1-.3h-.1l-.1.3H4l.3.1-.1.3.1.1.1-.4.3.1zm.6.2h.3v.4h.1v-.4l.4.1v-.1h-.4l.1-.4h-.1v.3h-.4zm.5-1h.1l.1-.3.3.1v-.1L6 3v-.3h-.1V3l-.3-.1-.1.1.4.1zM2 2.8h-.3l.1-.4h-.1l-.1.4-.3-.1v.1l.3.1-.1.3h.1l.1-.3H2zm-.2 1.4l-.3-.1v-.3h-.1v.3H1l.4.1-.1.3.1.1v-.4l.4.1zm.6.2h.3v.4l.1-.4.3.1v-.1h-.3l.1-.4h-.1l-.1.3h-.3zm.5-1H3v-.3l.4.1v-.1L3 3l.1-.3H3V3l-.4-.1V3l.3.1zm-3.8-.6h-.3v-.4h-.1v.4l-.4-.1v.1l.4.1-.1.3h.1v-.3h.4zm-.2 1.4l-.4-.1.1-.3h-.1l-.1.3h-.3l.3.1v.3l.1.1v-.4l.3.1zm.6.2h.3l-.1.4h.1l.1-.4.3.1v-.1h-.3V4l-.1.3h-.3zm.5-1l.1-.3.3.1v-.1L.1 3l.1-.3H.1L0 3l-.3-.1V3l.3.1zm-3.8-.6h-.4l.1-.4h-.1l-.1.4-.3-.1v.1l.3.1v.3h.1v-.3h.3zm-.3 1.4l-.3-.1.1-.3h-.1l-.1.3h-.3l.3.1-.1.3.1.1.1-.4.3.1zm.6.2h.4l-.1.4h.1v-.4l.4.1v-.1H-3V4h-.1v.3h-.4zm.5-1h.1l.1-.3.3.1v-.1l-.3-.1v-.3l-.1.3-.3-.1V3l.3.1zm-3.8-.6h-.3l.1-.4h-.1l-.1.4-.3-.1v.1l.3.1-.1.3h.1l.1-.3h.3zM-7 4.2l-.3-.1v-.3h-.1v.3h-.4l.4.1-.1.3.1.1.1-.4.3.1zm.6.2h.3v.4h.1v-.4l.3.1.1-.1H-6l.1-.4H-6l-.1.3h-.3zm.5-1h.1v-.3l.4.1v-.1l-.3-.1v-.3h-.1V3l-.4-.1V3l.4.1zM6.3.3v-.6.1H6l-.1.1h.4l-.1.4zm-.2 1.3v-.3h.2v-.1h-.1V.8h-.1v.4l-.4-.1v.1l.3.1v.3zM3.5-.5h-.1v.3H3v.1h.3v.4h.1v-.4l.4.1v-.1l-.3-.1zm-.4 2.1l.1-.3h.3v-.1h-.3l.1-.4h-.1l-.1.4-.3-.1v.1l.3.1v.3zm1-.2l.4.1-.1.3h.1l.1-.3.3.1v-.1l-.3-.1v-.3h-.1v.3l-.3-.1zm.7-1.7l-.1.4-.3-.1v.1h.3l-.1.4h.1l.1-.3h.3V.1h-.3l.1-.4zM.6-.5H.5l-.1.3H.1v.1h.3v.4l.1-.4.3.1v-.1L.5-.2zM.2 1.6l.1-.3h.3v-.1H.3V.8l-.1.4-.3-.1v.1l.3.1-.1.3zm1-.2l.3.1v.3h.1v-.3l.4.1v-.1l-.4-.1.1-.3h-.1v.3l-.4-.1zm.6-1.7v.4L1.5 0l-.1.1h.4l-.1.4h.1l.1-.3h.3V.1h-.3v-.4zm-4.2-.2l-.1.3h-.3v.1h.3l-.1.4h.1l.1-.4.3.1v-.1l-.3-.1zm-.3 2.1v-.3h.4v-.1h-.3V.8h-.1v.4l-.4-.1v.1l.4.1-.1.3zm1-.2l.3.1v.3l.1-.3.3.1v-.1l-.3-.1.1-.3h-.1l-.1.3-.3-.1zm.6-1.7v.4l-.4-.1v.1h.3v.4h.1V.2h.4V.1h-.4l.1-.4zm-4.2-.2h-.1v.3h-.4v.1h.4l-.1.4h.1v-.4l.4.1v-.1l-.3-.1zm-.3 2.1v-.3h.3l.1-.1h-.4l.1-.4h-.1l-.1.4-.3-.1v.1l.3.1v.3zm1-.2l.3.1-.1.3h.1l.1-.3.3.1v-.1l-.3-.1v-.3l-.1.3-.3-.1zM-4-.3l-.1.4-.3-.1v.1h.3v.4l.1-.3h.3V.1H-4l.1-.4zm-4.3.2l.3.1.1-.1-.4-.1.1-.3h-.1v.8zm.1 1.3h-.1v.1h.1zm.6.2l.4.1-.1.3h.1v-.3l.4.1v-.1l-.3-.1v-.3h-.1v.3l-.4-.1zm.7-1.7l-.1.4-.3-.1v.1h.3l-.1.4h.1l.1-.3h.3V.1h-.3v-.4zM5.2-3.4l-.1.3-.3-.1v.1l.3.1-.1.3h.1l.1-.3h.3l-.3-.1.1-.3zm-.3 1.3v.3h-.3l-.1.1h.4l-.1.4h.1l.1-.4.3.1v-.1L5-1.8v-.3zm1.3.6l-.3-.1v.1h.3v.4h.1v-.8zm-.1-1.4l.2.1v-.1h-.2zm-3.9-.5v.3l-.3-.1-.1.1.4.1-.1.3h.1l.1-.3h.3l-.3-.1v-.3zM2-2.1v.3h-.4v.1h.3v.4H2v-.4l.4.1v-.1L2-1.8l.1-.3zm1 .6h.3l-.1.4h.1l.1-.3h.3v-.1h-.3l.1-.4h-.1l-.1.4-.3-.1zm.6-1.7l-.1.3h-.3l.3.1v.3l.1.1v-.4l.3.1.1-.1-.4-.1.1-.3zm-4.3-.2v.3l-.4-.1v.1l.3.1v.3h.1V-3h.4l-.4-.1.1-.3zm-.2 1.3l-.1.3h-.3v.1h.3v.4l.1-.4.3.1v-.1l-.3-.1.1-.3zm.9.6h.4l-.1.4h.1l.1-.3h.3v-.1H.5v-.4H.4v.4l-.3-.1zm.7-1.7l-.1.3H.3l.3.1-.1.3.1.1.1-.4.3.1v-.1l-.3-.1.1-.3zm-4.3-.2l-.1.3-.3-.1v.1l.3.1v.3l.1-.3h.3l-.3-.1.1-.3zm-.2 1.3l-.1.3h-.3v.1h.3l-.1.4h.1l.1-.4.3.1v-.1l-.3-.1v-.3zm.9.6h.3v.4h.1v-.3h.4v-.1h-.4l.1-.4h-.1v.4l-.4-.1zm.6-1.7v.3h-.4l.4.1-.1.3.1.1.1-.4.3.1v-.1l-.3-.1v-.3zm-4.2-.2l-.1.3-.3-.1v.1l.3.1-.1.3h.1l.1-.3h.3l-.3-.1v-.3zm-.3 1.3v.3h-.4v.1h.4l-.1.4h.1v-.4l.4.1v-.1l-.3-.1v-.3zm1 .6h.3l-.1.4h.1l.1-.3h.3v-.1h-.3l.1-.4h-.1l-.1.4-.3-.1zm.6-1.7v.3h-.4l.3.1v.3l.1.1v-.4l.4.1v-.1l-.4-.1.1-.3zm-3.1 1.3v.5h.3v-.1h-.3v-.4zm0-.9h.1l-.1.3.1.1.1-.4.3.1v-.1l-.3-.1.1-.3h-.1l-.1.3h-.1z"/><path d="M5.2 26h.1-.1zm-3 0h.1-.1zm-2.9 0h.1-.1zm-2.9 0h.1-.1zm-2.9 0zm12.8-1.3v.1zm-1.9-1.2l-.4-.1.1-.3H4l-.1.3-.3-.1v.1l.3.1v.3H4v-.3h.3zm-.7 1.7l.1-.4.3.1v-.1l-.3-.1.1-.3h-.1l-.1.3h-.3v.1h.3l-.1.4zm1.4.2v-.3h.4V25h-.3v-.4h-.1v.4l-.4-.1v.1l.4.1-.1.3zm.6-1.7l-.3-.1v-.3l-.1.3H5v.1h.3l-.1.4h.1l.1-.4.3.1zm-4.3-.2l-.3-.1.1-.3h-.1l-.1.3-.3-.1v.1l.3.1-.1.3H1l.1-.3h.3zm-.6 1.7l.1-.4.3.1v-.1l-.3-.1v-.3H.8v.3H.5l-.1.1h.4l-.1.4zm1.4.2v-.3h.3l.1-.1h-.4l.1-.4h-.1l-.1.4-.3-.1v.1l.3.1v.3zm.6-1.7l-.3-.1v-.3h-.1v.3H2v.1h.4l-.1.4h.1v-.4l.4.1zm-4.3-.2l-.3-.1v-.3h-.1v.3l-.3-.1-.1.1.4.1-.1.3h.1l.1-.3h.3zm-.6 1.7v-.4l.4.1v-.1l-.4-.1.1-.3h-.1v.3h-.4v.1h.3v.4zm1.3.2l.1-.3h.3V25h-.3l.1-.4h-.1l-.1.4-.3-.1v.1l.3.1-.1.3zm.7-1.7l-.4-.1.1-.3h-.1l-.1.3h-.3v.1h.3v.4h.1v-.4l.3.1zm-4.3-.2l-.4-.1.1-.3h-.1v.3l-.4-.1v.1l.3.1v.3h.1v-.3h.4zm-.7 1.7l.1-.4.3.1v-.1l-.3-.1.1-.3H-5l-.1.3h-.3v.1h.3v.4zm1.4.2l.1-.3h.3V25h-.3v-.4h-.1v.4l-.3-.1-.1.1.4.1-.1.3zm.6-1.7l-.3-.1.1-.3h-.1l-.1.3h-.3v.1h.3l-.1.4h.1l.1-.4.3.1zm-4.7.1l.1-.3h.3l-.3-.1.1-.3h-.1l-.1.3-.3-.1v.1l.3.1v.3zm-.2 1.4l.1-.4.3.1v-.1l-.3-.1v-.3l-.1.3h-.3v.1h.3l-.1.4zm1.4.2v-.3h.4V25h-.4l.1-.4h-.1v.4l-.4-.1v.1l.3.1v.3zm.6-1.7l-.3-.1v-.3h-.1v.3h-.3l-.1.1h.4l-.1.4h.1l.1-.4.3.1zm11.7-2.8l.1-.4.3.1v-.1h-.3l.1-.4h-.1l-.1.3h-.3v.1h.3l-.1.4zm-.6.9l.4.1-.1.3h.1v-.3h.4l-.3-.1v-.3l-.1-.1v.4l-.4-.1zm-2.3-.9v-.4l.4.1v-.1h-.3v-.4h-.1v.3h-.4v.1h.4l-.1.4zm-.6.9l.3.1v.3h.1v-.3H3l-.4-.1.1-.3-.1-.1-.1.4-.3-.1zm1.8-.1l-.1.3h-.3l.3.1-.1.3.1.1.1-.4.3.1v-.1L4 22v-.3zm.5-1h-.3l.1-.3-.1-.1-.1.4-.3-.1v.1l.3.1v.3l.1-.3h.3zm-4.6.2v-.4l.3.1.1-.1h-.4l.1-.4h-.1l-.1.3h-.3v.1h.3v.4zm-.6.9l.3.1-.1.3h.1l.1-.3H0l-.3-.1.1-.3-.1-.1-.1.4-.3-.1zm1.7-.1v.3H.6l.4.1-.1.3.1.1v-.4l.4.1v-.1l-.3-.1v-.3zm.6-1h-.3v-.4l-.1.4-.3-.1v.1l.3.1-.1.3h.1l.1-.3h.3zm-4.7.2l.1-.4.3.1v-.1H-3l.1-.4H-3l-.1.3h-.3v.1h.3l-.1.4zm-.6.9l.4.1-.1.3h.1l.1-.3h.3l-.3-.1v-.3l-.1-.1v.4l-.3-.1zm1.8-.1l-.1.3h-.3l.3.1v.3l.1.1v-.4l.3.1.1-.1-.4-.1.1-.3zm.6-1h-.3v-.3l-.1-.1v.4l-.4-.1v.1l.4.1-.1.3h.1v-.3h.4zm-4.7.2l.1-.4.3.1v-.1h-.3v-.4H-6v.3h-.3l-.1.1h.4l-.1.4zm-.6.9l.3.1v.3h.1v-.3h.4l-.4-.1.1-.3-.1-.1v.4l-.4-.1zm1.8-.1l-.1.3h-.3l.3.1-.1.3.1.1.1-.4.3.1v-.1l-.3-.1.1-.3zm.6-1h-.4l.1-.3-.1-.1-.1.4-.3-.1v.1l.3.1v.3h.1v-.3h.3zm-3.7 1.7l.1.1.1-.4.3.1v-.1l-.3-.1v-.3h-.1v.3h-.4l.4.1zm.7-1.7h-.3l.1-.3-.1-.1-.1.4-.3-.1v.1l.3.1-.1.3h.1l.1-.3h.3zm12.1-3.1l-.3-.1.1-.3h-.1l-.1.3-.3-.1v.1l.3.1v.3l.1-.3.3.1zm-.2 1.3h-.3l.1-.4h-.1l-.1.3H4v.1h.3l-.1.4h.1l.1-.4.3.1zm.6.2l.3.1v.3h.1v-.3h.4v-.1h-.4l.1-.4h-.1v.4l-.4-.1zm.5-.9h.1l.1-.4.3.1v-.1l-.3-.1v-.3h-.1v.3h-.3l-.1.1h.4zM2 17.6l-.3-.1.1-.3h-.1l-.1.3-.3-.1v.1l.3.1-.1.3h.1l.1-.3.3.1zm-.2 1.3h-.3v-.4h-.1v.3H1v.1h.4l-.1.4h.1v-.4l.4.1zm.6.2l.3.1v.3l.1-.3h.3v-.1h-.3l.1-.4h-.1l-.1.4-.3-.1zm.5-.9H3v-.4l.4.1v-.1l-.4-.1.1-.3H3v.3h-.4v.1h.3zm-3.8-.6l-.3-.1v-.3h-.1v.3l-.4-.1v.1l.4.1-.1.3h.1v-.3l.4.1zm-.2 1.3h-.4l.1-.4h-.1l-.1.3h-.3v.1h.3v.4h.1v-.4l.3.1zm.6.2l.3.1-.1.3h.1l.1-.3h.3v-.1h-.3v-.4l-.1.4-.3-.1zm.5-.9l.1-.4.3.1v-.1l-.3-.1.1-.3H.1l-.1.3h-.3v.1H0zm-3.8-.6l-.4-.1.1-.3h-.1l-.1.3-.3-.1v.1l.3.1v.3h.1v-.3l.3.1zm-.3 1.3h-.3l.1-.4h-.1l-.1.3h-.3v.1h.3l-.1.4h.1l.1-.4.3.1zm.6.2l.4.1-.1.3h.1v-.3h.4v-.1H-3v-.4h-.1v.4l-.4-.1zm.5-.9h.1l.1-.4.3.1v-.1l-.3-.1v-.3l-.1.3h-.3v.1h.3zm-3.8-.6l-.3-.1.1-.3h-.1l-.1.3-.3-.1v.1l.3.1-.1.3h.1l.1-.3.3.1zm-.2 1.3h-.3v-.4h-.1v.3h-.3l-.1.1h.4l-.1.4h.1l.1-.4.3.1zm.6.2l.3.1v.3h.1v-.3h.3l.1-.1H-6l.1-.4H-6l-.1.4-.3-.1zm.5-.9h.1v-.4l.4.1v-.1l-.3-.1v-.3h-.1v.3h-.4v.1h.4zM6.3 15v-.5.1l-.3-.1-.1.1h.4l-.1.4zm-.2 1.3V16h.2v-.1h-.1v-.3h-.1v.3l-.4-.1v.1l.3.1v.3zm-2.6-2.1h-.1v.4l-.4-.1v.1h.3v.4h.1v-.3h.4v-.1h-.3zm-.4 2.1l.1-.3.3.1V16l-.3-.1.1-.3h-.1l-.1.3-.3-.1v.1l.3.1v.3zm1-.1h.4l-.1.4h.1l.1-.4.3.1v-.1l-.3-.1v-.3h-.1v.3h-.3zm.7-1.8l-.1.4-.3-.1v.1l.3.1-.1.3h.1l.1-.3h.3l-.3-.1.1-.3zm-4.2-.2H.5l-.1.4-.3-.1v.1h.3v.4l.1-.3h.3v-.1H.5zm-.4 2.1l.1-.3.3.1V16l-.3-.1v-.3l-.1.3-.3-.1v.1l.3.1-.1.3zm1-.1h.3v.4h.1v-.4l.4.1v-.1l-.4-.1.1-.3h-.1v.3h-.4zm.6-1.8v.4l-.3-.1-.1.1.4.1-.1.3h.1l.1-.3h.3l-.3-.1v-.3zm-4.2-.2l-.1.4-.3-.1v.1h.3l-.1.4h.1l.1-.3h.3v-.1h-.3zm-.3 2.1V16l.4.1V16l-.3-.1v-.3h-.1v.3l-.4-.1v.1l.4.1-.1.3zm1-.1h.3v.4l.1-.4.3.1v-.1l-.3-.1.1-.3h-.1l-.1.3h-.3zm.6-1.8v.4l-.4-.1v.1l.3.1v.3h.1v-.3h.4l-.4-.1.1-.3zm-4.2-.2h-.1v.4l-.4-.1v.1h.4l-.1.4h.1v-.3h.4v-.1h-.3zm-.3 2.1V16l.3.1.1-.1-.4-.1.1-.3h-.1l-.1.3-.3-.1v.1l.3.1v.3zm1-.1h.3l-.1.4h.1l.1-.4.3.1v-.1l-.3-.1v-.3l-.1.3h-.3zm.6-1.8l-.1.4-.3-.1v.1l.3.1v.3l.1-.3h.3l-.3-.1.1-.3zm-4.3.3h.3l.1-.1h-.4l.1-.4h-.1v.8zm.1 1.3l-.1-.1v.1l.1.1zm.6.2h.4l-.1.4h.1v-.4l.4.1v-.1l-.3-.1v-.3h-.1v.3h-.4zm.7-1.8l-.1.4-.3-.1v.1l.3.1-.1.3h.1l.1-.3h.3l-.3-.1v-.3zm12.1-3.1l-.1.3h-.3l.3.1-.1.3.1.1.1-.4.3.1v-.1l-.3-.1.1-.3zm-.3 1.3v.3h-.3l-.1.1h.4l-.1.4h.1l.1-.3h.3V13H5v-.4zm1.3.6l-.3-.1v.1l.3.1v.3h.1v-.8zm-.1-1.3h.2v-.1h-.2zm-3.9-.6v.3h-.4l.4.1-.1.3.1.1.1-.4.3.1v-.1l-.3-.1v-.3zM2 12.6v.3h-.4v.1h.3v.4H2v-.3h.4V13H2l.1-.4zm1 .6l.3.1-.1.3h.1l.1-.3h.3l-.3-.1.1-.3-.1-.1-.1.4-.3-.1zm.6-1.7l-.1.3h-.3v.1h.3v.4h.1v-.4l.3.1.1-.1h-.4l.1-.4zm-4.3-.2v.3h-.4l.3.1v.3l.1.1v-.4l.4.1v-.1l-.4-.1.1-.3zm-.2 1.3l-.1.3h-.3v.1h.3v.4l.1-.3h.3V13h-.3l.1-.4zm.9.6l.4.1-.1.3h.1l.1-.3h.3l-.3-.1v-.3l-.1-.1v.4l-.3-.1zm.7-1.7l-.1.3H.3v.1h.3l-.1.4h.1l.1-.4.3.1v-.1H.7l.1-.4zm-4.3-.2l-.1.3H-4l.3.1v.4l.1-.4.3.1v-.1l-.3-.1.1-.3zm-.2 1.3l-.1.3h-.3v.1h.3l-.1.4h.1l.1-.3h.3V13h-.3v-.4zm.9.6l.3.1v.3h.1v-.3h.4l-.4-.1.1-.3-.1-.1v.4l-.4-.1zm.6-1.7v.3h-.3l-.1.1h.4l-.1.4h.1l.1-.4.3.1v-.1h-.3v-.4zm-4.2-.2l-.1.3h-.3l.3.1-.1.3.1.1.1-.4.3.1v-.1l-.3-.1v-.3zm-.3 1.3v.3h-.4v.1h.4l-.1.4h.1v-.3h.4V13h-.3v-.4zm1 .6l.3.1-.1.3h.1l.1-.3h.3l-.3-.1.1-.3-.1-.1-.1.4-.3-.1zm.6-1.7v.3h-.4v.1h.3v.4h.1v-.4l.4.1v-.1h-.4l.1-.4zm-3.1 1.3v.6-.1h.3l-.3-.1v-.3zm0-.9h.1l-.1.4h.1l.1-.4.3.1v-.1h-.3l.1-.4h-.1l-.1.3h-.1zM5.2 40.7h.1-.1zm-3 0h.1-.1zm-2.9 0h.1-.1zm-2.9 0h.1-.1zm-2.9 0zm12.8-1.2zm-1.9-1.3l-.4-.1.1-.3H4l-.1.3h-.3l.3.1v.3l.1.1v-.4l.3.1zm-.7 1.7l.1-.3h.3v-.1h-.3l.1-.4h-.1l-.1.4-.3-.1v.1h.3l-.1.4zm1.4.2v-.3h.4l-.3-.1v-.3h-.1v.3l-.4-.1v.1l.4.1-.1.3zm.6-1.7h-.3V38l-.1.3H5v.1h.3l-.1.4h.1l.1-.3h.3zm-4.3-.2l-.3-.1.1-.3h-.1l-.1.3H.7l.3.1-.1.3.1.1.1-.4.3.1zm-.6 1.7l.1-.3h.3v-.1H.9v-.4H.8v.4l-.3-.1-.1.1h.4l-.1.4zm1.4.2v-.3h.4l-.4-.1.1-.3h-.1l-.1.3-.3-.1v.1l.3.1v.3zm.6-1.7h-.3V38h-.1v.3H2v.1h.4l-.1.4h.1v-.3h.4zm-4.3-.2l-.3-.1v-.3h-.1v.3h-.4l.4.1-.1.3.1.1.1-.4.3.1zm-.6 1.7v-.3h.4v-.1h-.4l.1-.4h-.1v.4l-.4-.1v.1h.3v.4zm1.3.2l.1-.3h.3l-.3-.1.1-.3h-.1l-.1.3-.3-.1v.1l.3.1-.1.3zm.7-1.7h-.4l.1-.4h-.1l-.1.3h-.3v.1h.3v.4h.1v-.3h.3zm-4.3-.2l-.4-.1.1-.3h-.1v.3h-.4l.3.1v.3l.1.1v-.4l.4.1zm-.7 1.7l.1-.3h.3v-.1H-5l.1-.4H-5l-.1.4-.3-.1v.1h.3v.4zm1.4.2l.1-.3h.3l-.3-.1v-.3h-.1v.3l-.3-.1-.1.1.4.1-.1.3zm.6-1.7h-.3l.1-.4h-.1l-.1.3h-.3v.1h.3l-.1.4h.1l.1-.3h.3zm-4.7.2l.1-.4.3.1v-.1l-.3-.1.1-.3h-.1l-.1.3h-.3l.3.1v.3zm-.2 1.3l.1-.3h.3v-.1h-.3v-.4l-.1.4-.3-.1v.1h.3l-.1.4zm1.4.2v-.3h.4l-.4-.1.1-.3h-.1v.3l-.4-.1v.1l.3.1v.3zm.6-1.7h-.3V38h-.1v.3h-.3l-.1.1h.4l-.1.4h.1l.1-.3h.3zm11.7-2.8l.1-.3h.3v-.1h-.3l.1-.4h-.1l-.1.4-.3-.1v.1l.3.1-.1.3zm-.6.9l.4.1-.1.3.1.1v-.4l.4.1v-.1l-.3-.1v-.3h-.1v.3h-.4zm-2.3-.9v-.3h.4v-.1h-.3v-.4h-.1v.4l-.4-.1v.1l.4.1-.1.3zm-.6.9l.3.1v.3l.1.1v-.4l.3.1.1-.1-.4-.1.1-.3h-.1l-.1.3h-.3zm1.8-.1l-.1.3h-.3v.1h.3l-.1.4h.1l.1-.4.3.1v-.1H4v-.4zm.5-.9l-.3-.1.1-.3h-.1l-.1.3-.3-.1v.1l.3.1v.3l.1-.3.3.1zm-4.6.1v-.3h.3l.1-.1h-.4l.1-.4h-.1l-.1.4-.3-.1v.1l.3.1v.3zm-.6.9l.3.1-.1.3.1.1.1-.4.3.1v-.1l-.3-.1.1-.3h-.1l-.1.3h-.3zm1.7-.1v.3H.6v.1H1l-.1.4H1v-.4l.4.1v-.1h-.3v-.4zm.6-.9l-.3-.1v-.3l-.1.3-.3-.1v.1l.3.1-.1.3h.1l.1-.3.3.1zm-4.7.1l.1-.3h.3v-.1H-3l.1-.4H-3l-.1.4-.3-.1v.1l.3.1-.1.3zm-.6.9l.4.1-.1.3.1.1.1-.4.3.1v-.1l-.3-.1v-.3h-.1v.3h-.3zm1.8-.1l-.1.3h-.3v.1h.3v.4h.1v-.4l.3.1.1-.1h-.4l.1-.4zm.6-.9l-.3-.1v-.3h-.1v.3l-.4-.1v.1l.4.1-.1.3h.1v-.3l.4.1zm-4.7.1l.1-.3h.3v-.1h-.3v-.4H-6v.4l-.3-.1-.1.1.4.1-.1.3zm-.6.9l.3.1v.3l.1.1v-.4l.4.1v-.1l-.4-.1.1-.3h-.1v.3h-.4zm1.8-.1l-.1.3h-.3v.1h.3l-.1.4h.1l.1-.4.3.1v-.1h-.3l.1-.4zm.6-.9l-.4-.1.1-.3h-.1l-.1.3-.3-.1v.1l.3.1v.3h.1v-.3l.3.1zm-3.7 1.7h.1l.1-.4.3.1v-.1h-.3v-.4h-.1v.3h-.3l-.1.1h.4zm.7-1.7l-.3-.1.1-.3h-.1l-.1.3-.3-.1v.1l.3.1-.1.3h.1l.1-.3.3.1zm12.1-3.2l-.3-.1.1-.3h-.1l-.1.3h-.3v.1h.3v.4l.1-.4.3.1zm-.2 1.3h-.3l.1-.4h-.1l-.1.4-.3-.1v.1l.3.1-.1.3h.1l.1-.3h.3zm.6.2l.3.1v.3h.1v-.3l.4.1v-.1l-.4-.1.1-.3h-.1v.3l-.4-.1zm.5-.9h.1l.1-.3h.3v-.1H6v-.4h-.1v.4l-.3-.1-.1.1h.4zM2 32.3l-.3-.1.1-.3h-.1l-.1.3h-.3v.1h.3l-.1.4h.1l.1-.4.3.1zm-.2 1.3h-.3v-.4h-.1v.4l-.4-.1v.1l.4.1-.1.3h.1v-.3h.4zm.6.2l.3.1v.3l.1-.3.3.1v-.1l-.3-.1.1-.3h-.1l-.1.3-.3-.1zm.5-.9H3v-.3h.4v-.1H3l.1-.4H3v.4l-.4-.1v.1h.3zm-3.8-.6l-.3-.1v-.3h-.1v.3h-.4v.1h.4l-.1.4h.1v-.4l.4.1zm-.2 1.3h-.4l.1-.4h-.1l-.1.4-.3-.1v.1l.3.1v.3h.1v-.3h.3zm.6.2l.3.1-.1.3h.1l.1-.3.3.1v-.1l-.3-.1v-.3l-.1.3-.3-.1zm.5-.9l.1-.3h.3v-.1H.1l.1-.4H.1l-.1.4-.3-.1v.1H0zm-3.8-.6l-.4-.1.1-.3h-.1l-.1.3h-.3v.1h.3v.4h.1v-.4l.3.1zm-.3 1.3h-.3l.1-.4h-.1l-.1.4-.3-.1v.1l.3.1-.1.3h.1l.1-.3h.3zm.6.2l.4.1-.1.3h.1v-.3l.4.1v-.1l-.3-.1v-.3h-.1v.3l-.4-.1zm.5-.9h.1l.1-.3h.3v-.1h-.3v-.4l-.1.4-.3-.1v.1h.3zm-3.8-.6l-.3-.1.1-.3h-.1l-.1.3h-.3v.1h.3l-.1.4h.1l.1-.4.3.1zm-.2 1.3h-.3v-.4h-.1v.4l-.3-.1-.1.1.4.1-.1.3h.1l.1-.3h.3zm.6.2l.3.1v.3h.1v-.3l.3.1.1-.1-.4-.1.1-.3H-6l-.1.3-.3-.1zm.5-.9h.1v-.3h.4v-.1h-.3v-.4h-.1v.4l-.4-.1v.1h.4zm12.2-3.2v-.5.1l-.3-.1-.1.1.4.1-.1.3zm-.2 1.4v-.4l.2.1v-.1l-.1-.1v-.3h-.1v.3h-.4v.1H6v.4zM3.5 29l-.1-.1v.4l-.4-.1v.1l.3.1v.3h.1v-.3h.4l-.3-.1zm-.4 2.1l.1-.4.3.1v-.1l-.3-.1.1-.3h-.1l-.1.3h-.3v.1h.3v.4zm1-.2h.4l-.1.4h.1l.1-.3h.3v-.1h-.3v-.4h-.1v.4l-.3-.1zm.7-1.7l-.1.3h-.3l.3.1-.1.3.1.1.1-.4.3.1v-.1l-.3-.1.1-.3zM.6 29l-.1-.1-.1.4-.3-.1v.1l.3.1v.3l.1-.3h.3l-.3-.1zm-.4 2.1l.1-.4.3.1v-.1l-.3-.1v-.3l-.1.3h-.3v.1h.3l-.1.4zm1-.2h.3v.4h.1V31H2v-.1h-.4l.1-.4h-.1v.4l-.4-.1zm.6-1.7v.3h-.4l.4.1-.1.3.1.1.1-.4.3.1v-.1l-.3-.1v-.3zm-4.2-.2v-.1l-.1.4-.3-.1v.1l.3.1-.1.3h.1l.1-.3h.3l-.3-.1zm-.3 2.1v-.4l.4.1v-.1l-.3-.1v-.3h-.1v.3h-.4v.1h.4l-.1.4zm1-.2h.3v.4l.1-.3h.3v-.1h-.3l.1-.4h-.1l-.1.4-.3-.1zm.6-1.7v.3h-.4l.3.1v.3l.1.1v-.4l.4.1v-.1l-.4-.1.1-.3zm-4.2-.2l-.1-.1v.4l-.4-.1v.1l.4.1-.1.3h.1v-.3h.4l-.3-.1zm-.3 2.1v-.4l.3.1.1-.1-.4-.1.1-.3h-.1l-.1.3H-6v.1h.3v.4zm1-.2h.3l-.1.4h.1l.1-.3h.3v-.1h-.3v-.4l-.1.4-.3-.1zm.6-1.7l-.1.3h-.3l.3.1v.4l.1-.4.3.1v-.1l-.3-.1.1-.3zm-4.3.2h.4l-.4-.1.1-.3-.1-.1v.8zm.1 1.3h-.1v.1h.1zm.6.2h.4l-.1.4h.1V31h.4v-.1h-.3v-.4h-.1v.4l-.4-.1zm.7-1.7l-.1.3h-.3l.3.1-.1.3.1.1.1-.4.3.1v-.1l-.3-.1v-.3zM5.2 26l-.1.3h-.3v.1h.3l-.1.4h.1l.1-.4.3.1v-.1h-.3l.1-.4zm-.3 1.3v.4l-.3-.1-.1.1.4.1-.1.3h.1l.1-.3h.3v-.1H5v-.3zm1.3.6h-.3l.3.1v.3l.1.1v-.8zm-.1-1.3h.2v-.1h-.2zM2.2 26v.3h-.3l-.1.1h.4l-.1.4h.1l.1-.4.3.1v-.1h-.3V26zM2 27.3v.4l-.4-.1v.1l.3.1v.3H2v-.3h.4v-.1H2l.1-.3zm1 .6l.3.1-.1.3.1.1.1-.4.3.1V28l-.3-.1.1-.3h-.1l-.1.3H3zm.6-1.7l-.1.4-.3-.1v.1l.3.1v.3h.1v-.3h.3l.1-.1h-.4l.1-.4zM-.7 26v.3h-.4v.1h.3v.4h.1v-.4l.4.1v-.1h-.4l.1-.4zm-.2 1.3l-.1.4-.3-.1v.1l.3.1v.3l.1-.3h.3v-.1h-.3l.1-.3zm.9.6l.4.1-.1.3.1.1.1-.4.3.1V28l-.3-.1v-.3H.4v.3H.1zm.7-1.7l-.1.4-.3-.1v.1l.3.1-.1.3h.1l.1-.3H1v-.1H.7l.1-.4zm-4.3-.2l-.1.3H-4v.1h.3v.4l.1-.4.3.1v-.1h-.3l.1-.4zm-.2 1.3l-.1.4-.3-.1v.1l.3.1-.1.3h.1l.1-.3h.3v-.1h-.3v-.3zm.9.6l.3.1v.3l.1.1V28l.4.1V28l-.4-.1.1-.3h-.1v.3h-.4zm.6-1.7v.4l-.3-.1-.1.1.4.1-.1.3h.1l.1-.3h.3v-.1h-.3v-.4zm-4.2-.2l-.1.3h-.3v.1h.3l-.1.4h.1l.1-.4.3.1v-.1h-.3V26zm-.3 1.3v.4l-.4-.1v.1l.4.1-.1.3h.1v-.3h.4v-.1h-.3v-.3zm1 .6l.3.1-.1.3.1.1.1-.4.3.1V28l-.3-.1.1-.3h-.1l-.1.3h-.3zm.6-1.7v.4l-.4-.1v.1l.3.1v.3h.1v-.3h.4v-.1h-.4l.1-.4zm-3.1 1.4v.5-.1l.3.1V28l-.3-.1v-.3zm0-1l.1.1-.1.3h.1l.1-.3h.3v-.1h-.3l.1-.4h-.1l-.1.4-.1-.1zM5.2 55.5h.1-.1zm-3 0h.1-.1zm-2.9 0h.1-.1zm-2.9 0h.1-.1zm-2.9 0zm12.8-1.3zm-1.9-1.3H4l.1-.4H4l-.1.3h-.3v.1h.3v.4H4v-.4l.3.1zm-.7 1.7l.1-.3h.3l-.3-.1.1-.3-.1-.1-.1.4-.3-.1v.1l.3.1-.1.3zm1.4.3v-.4l.4.1v-.1l-.3-.1v-.3h-.1v.3h-.4l.4.1-.1.3zm.6-1.8h-.3v-.4l-.1.4L5 53v.1l.3.1-.1.3h.1l.1-.3h.3zm-4.3-.2h-.3l.1-.4h-.1l-.1.3H.7v.1H1l-.1.4H1l.1-.4.3.1zm-.6 1.7l.1-.3h.3l-.3-.1v-.3l-.1-.1v.4l-.3-.1-.1.1.4.1-.1.3zm1.4.3v-.4l.3.1.1-.1-.4-.1.1-.3h-.1l-.1.3h-.3l.3.1v.3zm.6-1.8h-.3v-.3l-.1-.1v.4L2 53v.1l.4.1-.1.3h.1v-.3h.4zm-4.3-.2h-.3v-.4h-.1v.3h-.3l-.1.1h.4l-.1.4h.1l.1-.4.3.1zm-.6 1.7v-.3h.4l-.4-.1.1-.3-.1-.1v.4l-.4-.1v.1l.3.1v.3zm1.3.3l.1-.4.3.1v-.1l-.3-.1.1-.3h-.1l-.1.3h-.3l.3.1-.1.3zm.7-1.8h-.4l.1-.3-.1-.1-.1.4-.3-.1v.1l.3.1v.3h.1v-.3h.3zm-4.3-.2h-.4l.1-.4h-.1v.3h-.4v.1h.3v.4h.1v-.4l.4.1zm-.7 1.7l.1-.3h.3l-.3-.1.1-.3-.1-.1-.1.4-.3-.1v.1l.3.1v.3zm1.4.3l.1-.4.3.1v-.1l-.3-.1v-.3h-.1v.3h-.4l.4.1-.1.3zm.6-1.8h-.3l.1-.3-.1-.1-.1.4-.3-.1v.1l.3.1-.1.3h.1l.1-.3h.3zm-4.7.2l.1-.4.3.1v-.1h-.3l.1-.4h-.1l-.1.3h-.3v.1h.3v.4zm-.2 1.3l.1-.3h.3l-.3-.1v-.4l-.1.4-.3-.1v.1l.3.1-.1.3zm1.4.3v-.4l.4.1v-.1l-.4-.1.1-.3h-.1v.3H-7l.3.1v.3zm.6-1.8h-.3v-.3l-.1-.1v.4l-.3-.1-.1.1.4.1-.1.3h.1l.1-.3h.3zm11.7-2.8l.1-.3.3.1V50l-.3-.1.1-.3h-.1l-.1.3-.3-.1v.1l.3.1-.1.3zm-.6 1h.4l-.1.4h.1v-.4l.4.1v-.1h-.3v-.4h-.1v.3h-.4zm-2.3-1V50l.4.1V50l-.3-.1v-.3h-.1v.3l-.4-.1v.1l.4.1-.1.3zm-.6 1h.3v.4h.1v-.4l.3.1.1-.1h-.4l.1-.4h-.1l-.1.3h-.3zm1.8-.2l-.1.4-.3-.1v.1l.3.1-.1.3h.1l.1-.3h.3v-.1H4v-.4zm.5-.9l-.3-.1.1-.3h-.1l-.1.3h-.3v.1h.3v.4l.1-.4.3.1zm-4.6.1V50l.3.1.1-.1-.4-.1.1-.3h-.1l-.1.3-.3-.1v.1l.3.1v.3zm-.6 1h.3l-.1.4h.1l.1-.4.3.1v-.1h-.3l.1-.4h-.1l-.1.3h-.3zm1.7-.2v.4l-.4-.1v.1l.4.1-.1.3H1v-.3h.4v-.1h-.3v-.4zm.6-.9l-.3-.1v-.3l-.1.3H.9v.1h.3l-.1.4h.1l.1-.4.3.1zm-4.7.1l.1-.3.3.1V50l-.3-.1.1-.3H-3l-.1.3-.3-.1v.1l.3.1-.1.3zm-.6 1h.4l-.1.4h.1l.1-.4.3.1v-.1h-.3v-.4h-.1v.3h-.3zm1.8-.2l-.1.4-.3-.1v.1l.3.1v.3h.1v-.3h.3l.1-.1h-.4l.1-.4zm.6-.9l-.3-.1v-.3h-.1v.3h-.4v.1h.4l-.1.4h.1v-.4l.4.1zm-4.7.1l.1-.3.3.1V50l-.3-.1v-.3H-6v.3l-.3-.1-.1.1.4.1-.1.3zm-.6 1h.3v.4h.1v-.4l.4.1v-.1h-.4l.1-.4h-.1v.3h-.4zm1.8-.2l-.1.4-.3-.1v.1l.3.1-.1.3h.1l.1-.3h.3v-.1h-.3l.1-.4zm.6-.9l-.4-.1.1-.3h-.1l-.1.3H-5v.1h.3v.4h.1v-.4l.3.1zm-3.7 1.7h.1l.1-.3h.3v-.1h-.3v-.4h-.1v.4l-.3-.1-.1.1.4.1zm.7-1.7l-.3-.1.1-.3h-.1l-.1.3h-.3v.1h.3l-.1.4h.1l.1-.4.3.1zM4.9 47h-.3l.1-.4h-.1l-.1.4-.3-.1v.1h.3v.4l.1-.3h.3zm-.2 1.4l-.3-.1.1-.3h-.1l-.1.3-.3-.1v.1l.3.1-.1.3h.1l.1-.3.3.1zm.6.2h.3v.4h.1v-.4l.4.1v-.1l-.4-.1.1-.3h-.1v.3h-.4zm.5-1h.1l.1-.3h.3l-.3-.1v-.3l-.1-.1v.4l-.3-.1-.1.1.4.1zM2 47h-.3l.1-.4h-.1l-.1.4-.3-.1v.1h.3l-.1.4h.1l.1-.3H2zm-.2 1.4l-.3-.1V48h-.1v.3l-.4-.1v.1l.4.1-.1.3h.1v-.3l.4.1zm.6.2h.3v.4l.1-.4.3.1v-.1l-.3-.1.1-.3h-.1l-.1.3h-.3zm.5-1H3v-.3h.4l-.4-.1.1-.3-.1-.1v.4l-.4-.1v.1l.3.1zM-.9 47h-.3v-.4h-.1v.4l-.4-.1v.1h.4l-.1.4h.1v-.3h.4zm-.2 1.4l-.4-.1.1-.3h-.1l-.1.3-.3-.1v.1l.3.1v.3h.1v-.3l.3.1zm.6.2h.3l-.1.4h.1l.1-.4.3.1v-.1l-.3-.1v-.3l-.1.3h-.3zm.5-1l.1-.3h.3l-.3-.1.1-.3-.1-.1-.1.4-.3-.1v.1l.3.1zm-3.8-.6h-.4l.1-.4h-.1l-.1.4-.3-.1v.1h.3v.4h.1v-.3h.3zm-.3 1.4l-.3-.1.1-.3h-.1l-.1.3-.3-.1v.1l.3.1-.1.3h.1l.1-.3.3.1zm.6.2h.4l-.1.4h.1v-.4l.4.1v-.1l-.3-.1v-.3h-.1v.3h-.4zm.5-1h.1l.1-.3h.3l-.3-.1v-.4l-.1.4-.3-.1v.1l.3.1zm-3.8-.6h-.3l.1-.4h-.1l-.1.4-.3-.1v.1h.3l-.1.4h.1l.1-.3h.3zm-.2 1.4l-.3-.1V48h-.1v.3l-.3-.1-.1.1.4.1-.1.3h.1l.1-.3.3.1zm.6.2h.3v.4h.1v-.4l.3.1.1-.1-.4-.1.1-.3H-6l-.1.3h-.3zm.5-1h.1v-.3h.4l-.3-.1v-.3l-.1-.1v.4l-.4-.1v.1l.4.1zm12.2-3.1v-.6.1h-.4l.4.1-.1.3zm-.2 1.3v-.3h.2v-.1h-.1V45h-.1v.3h-.4v.1H6v.4zm-2.6-2.1h-.1v.3H3l.3.1v.3l.1.1v-.4l.4.1v-.1l-.3-.1zm-.4 2.1l.1-.3h.3v-.1h-.3l.1-.4h-.1l-.1.3h-.3v.1h.3v.4zm1-.2l.4.1-.1.3h.1l.1-.3h.3l-.3-.1v-.3l-.1-.1v.4l-.3-.1zm.7-1.7l-.1.3h-.3v.1h.3l-.1.4h.1l.1-.4.3.1v-.1h-.3l.1-.4zm-4.2-.2H.5l-.1.3H.1l.3.1v.4l.1-.4.3.1v-.1L.5 44zm-.4 2.1l.1-.3h.3v-.1H.3V45l-.1.3h-.3v.1h.3l-.1.4zm1-.2l.3.1v.3h.1v-.3H2l-.4-.1.1-.3-.1-.1v.4l-.4-.1zm.6-1.7v.3h-.3l-.1.1h.4l-.1.4h.1l.1-.4.3.1v-.1h-.3v-.4zm-4.2-.2l-.1.3h-.3l.3.1-.1.3.1.1.1-.4.3.1v-.1l-.3-.1zm-.3 2.1v-.3h.4v-.1h-.3V45h-.1v.3h-.4v.1h.4l-.1.4zm1-.2l.3.1v.3l.1-.3h.3l-.3-.1.1-.3-.1-.1-.1.4-.3-.1zm.6-1.7v.3h-.4v.1h.3v.4h.1v-.4l.4.1v-.1h-.4l.1-.4zm-4.2-.2h-.1v.3h-.4l.4.1-.1.3.1.1v-.4l.4.1v-.1l-.3-.1zm-.3 2.1v-.3h.3l.1-.1h-.4l.1-.4h-.1l-.1.3H-6v.1h.3v.4zm1-.2l.3.1-.1.3h.1l.1-.3h.3l-.3-.1v-.4l-.1.4-.3-.1zm.6-1.7l-.1.3h-.3v.1h.3v.4l.1-.4.3.1v-.1H-4l.1-.4zm-4.3.2l.3.1.1-.1-.4-.1.1-.3h-.1v.8zm.1 1.3h-.1v.1h.1zm.6.2l.4.1-.1.3h.1v-.3h.4l-.3-.1v-.3l-.1-.1v.4l-.4-.1zm.7-1.7l-.1.3h-.3v.1h.3l-.1.4h.1l.1-.4.3.1v-.1h-.3v-.4zm12.1-3.2l-.1.4-.3-.1v.1l.3.1-.1.3h.1l.1-.3h.3v-.1h-.3l.1-.4zm-.3 1.4v.3l-.3-.1-.1.1.4.1-.1.3.1.1.1-.4.3.1v-.1l-.3-.1v-.3zm1.3.5h-.3v.1h.3v.4h.1v-.8zm-.1-1.3l.2.1v-.1l-.2-.1zm-3.9-.6v.4l-.3-.1-.1.1.4.1-.1.3h.1l.1-.3h.3v-.1h-.3v-.4zM2 42.1v.3l-.4-.1v.1l.3.1v.3l.1.1v-.4l.4.1v-.1l-.4-.1.1-.3zm1 .6h.3l-.1.4h.1l.1-.4.3.1v-.1h-.3l.1-.4h-.1l-.1.3H3zm.6-1.7l-.1.3-.3-.1v.1l.3.1v.3h.1v-.3l.3.1.1-.1-.4-.1.1-.3zm-4.3-.3v.4l-.4-.1v.1l.3.1v.3h.1v-.3h.4v-.1h-.4l.1-.4zm-.2 1.4l-.1.3-.3-.1v.1l.3.1v.4l.1-.4.3.1v-.1l-.3-.1.1-.3zm.9.6h.4l-.1.4h.1l.1-.4.3.1v-.1H.5v-.4H.4v.3H.1zM.7 41l-.1.3-.3-.1v.1l.3.1-.1.3h.1l.1-.3.3.1v-.1l-.3-.1.1-.3zm-4.3-.3l-.1.4-.3-.1v.1l.3.1v.3l.1-.3h.3v-.1h-.3l.1-.4zm-.2 1.4l-.1.3-.3-.1v.1l.3.1-.1.3.1.1.1-.4.3.1v-.1l-.3-.1v-.3zm.9.6h.3v.4h.1v-.4l.4.1v-.1h-.4l.1-.4h-.1v.3h-.4zm.6-1.7v.3l-.3-.1-.1.1.4.1-.1.3h.1l.1-.3.3.1v-.1l-.3-.1V41zm-4.2-.3l-.1.4-.3-.1v.1l.3.1-.1.3h.1l.1-.3h.3v-.1h-.3v-.4zm-.3 1.4v.3l-.4-.1v.1l.4.1-.1.3.1.1v-.4l.4.1v-.1l-.3-.1v-.3zm1 .6h.3l-.1.4h.1l.1-.4.3.1v-.1h-.3l.1-.4h-.1l-.1.3h-.3zm.6-1.7v.3l-.4-.1v.1l.3.1v.3h.1v-.3l.4.1v-.1l-.4-.1.1-.3zm-3.1 1.3v.5-.1l.3.1v-.1h-.3v-.4zm0-.9h.1l-.1.3h.1l.1-.3.3.1v-.1l-.3-.1.1-.3h-.1l-.1.3h-.1z"/><path fill="none" d="M0 0h44.5v44.5H0z"/></svg>