<svg baseProfile="tiny" xmlns="http://www.w3.org/2000/svg" viewBox="0 0 44.5 44.5">
    <path d="M49.1 11.3h.1-.1zM46.2 11.3h.1-.1zM43.3 11.3zM40.3 11.3h.1-.1zM37.4 11.3h.1-.1zM50.2 10zM48.3 8.7H48v-.4h-.1v.4l-.3-.1-.1.1.4.1-.1.3h.1l.1-.3h.3zM47.7 10.5v-.4l.4.1v-.1l-.4-.1.1-.3h-.1v.3l-.4-.1v.1l.3.1v.3zM49 10.7l.1-.4.3.1v-.1h-.3l.1-.4h-.1l-.1.3h-.3v.1h.3l-.1.4zM49.7 9l-.4-.1.1-.3h-.1l-.1.3-.3-.1v.1l.3.1v.3h.1V9l.3.1zM45.4 8.7H45l.1-.4H45v.4l-.4-.1v.1l.3.1v.3h.1v-.3h.4zM44.7 10.5l.1-.4.3.1v-.1l-.3-.1.1-.3h-.1l-.1.3-.3-.1v.1l.3.1v.3zM46.1 10.7l.1-.4.3.1v-.1h-.3v-.4h-.1v.3h-.3l-.1.1h.4l-.1.4zM46.7 9l-.3-.1.1-.3h-.1l-.1.3-.3-.1v.1l.3.1-.1.3h.1l.1-.3.3.1zM42.4 8.7h-.3l.1-.4h-.1l-.1.4-.3-.1v.1l.3.1v.3l.1-.3h.3zM41.8 10.5l.1-.4.3.1v-.1l-.3-.1v-.3l-.1.3-.3-.1v.1l.3.1-.1.3zM43.2 10.7v-.4l.4.1v-.1h-.4l.1-.4h-.1v.3h-.4v.1h.3v.4zM43.8 9l-.3-.1v-.3h-.1v.3l-.3-.1-.1.1.4.1-.1.3h.1l.1-.3.3.1zM39.5 8.7h-.3v-.4l-.1.4-.3-.1v.1l.3.1-.1.3h.1l.1-.3h.3zM38.9 10.5v-.4l.4.1v-.1L39 10v-.3h-.1v.3l-.4-.1v.1l.4.1-.1.3zM40.2 10.7l.1-.4.3.1v-.1h-.3l.1-.4h-.1l-.1.3h-.3v.1h.3l-.1.4zM40.9 9l-.4-.1.1-.3h-.1v.3l-.4-.1v.1l.3.1v.3h.1V9l.4.1zM36.2 9.1v-.3h.4v-.1h-.3v-.4h-.1v.4l-.4-.1v.1l.4.1-.1.3zM36 10.5v-.4l.3.1.1-.1-.4-.1.1-.3H36l-.1.3-.3-.1v.1l.3.1v.3zM37.3 10.7l.1-.4.3.1v-.1h-.3v-.4l-.1.3H37l-.1.1h.4l-.1.4zM37.9 9l-.3-.1.1-.3h-.1l-.1.3-.3-.1v.1l.3.1-.1.3h.1l.1-.3.3.1zM49.7 6.2v-.4l.3.1.1-.1-.4-.1.1-.3h-.1l-.1.3h-.3l.3.1v.3zM49.1 7.1h.3l-.1.4h.1l.1-.3h.3v-.1h-.3l.1-.4h-.1l-.1.4-.3-.1zM46.7 6.2l.1-.4.3.1v-.1l-.3-.1.1-.3h-.1l-.1.3h-.3l.3.1-.1.3zM46.1 7.1h.4l-.1.4h.1l.1-.3h.3v-.1h-.3v-.4h-.1v.4l-.3-.1zM47.9 7l-.1.3-.3-.1v.1l.3.1v.3h.1v-.3h.4l-.4-.1.1-.3zM48.5 6h-.3v-.4h-.1v.3h-.4V6h.4l-.1.4h.1v-.3h.4zM43.8 6.2l.1-.4.3.1v-.1l-.3-.1v-.3h-.1v.3h-.4l.4.1-.1.3zM43.2 7.1h.3v.4h.1v-.3h.4v-.1h-.4l.1-.4h-.1v.4l-.4-.1zM45 7l-.1.3-.3-.1v.1l.3.1-.1.3h.1l.1-.3h.3l-.3-.1.1-.3zM45.6 6h-.4l.1-.4h-.1l-.1.3h-.3V6h.3v.4h.1v-.3h.3zM40.9 6.2v-.4l.4.1v-.1l-.4-.1.1-.3h-.1v.3h-.4l.3.1v.3zM40.3 7.1h.3v.4l.1-.3h.3v-.1h-.3l.1-.4h-.1l-.1.4-.3-.1zM42 7v.3l-.3-.1-.1.1.4.1-.1.3h.1l.1-.3h.3l-.3-.1V7zM42.6 6h-.3l.1-.4h-.1l-.1.3h-.3V6h.3l-.1.4h.1l.1-.3h.3zM37.9 6.2l.1-.4.3.1v-.1l-.3-.1.1-.3H38l-.1.3h-.3l.3.1v.3zM37.4 7.1h.3l-.1.4h.1l.1-.3h.3v-.1h-.3v-.4l-.1.4-.3-.1zM39.1 7l-.1.3-.3-.1v.1l.3.1v.3h.1v-.3h.4l-.4-.1.1-.3zM39.7 6h-.3v-.4h-.1v.3H39l-.1.1h.4l-.1.4h.1l.1-.3h.3zM36 7.7h.1l.1-.3h.3l-.3-.1.1-.3h-.1l-.1.3-.3-.1v.1l.3.1zM36.8 6h-.4l.1-.4h-.1l-.1.3H36V6h.3v.4h.1v-.3h.4zM48.9 2.8h-.3v-.4h-.1v.4l-.4-.1v.1l.4.1-.1.3h.1v-.3h.4zM48.7 4.2l-.4-.1.1-.3h-.1l-.1.3h-.3l.3.1v.3l.1.1v-.4l.3.1zM49.3 4.4h.3l-.1.4h.1l.1-.4.3.1v-.1h-.3V4l-.1.3h-.3zM49.8 3.4l.1-.3.3.1v-.1l-.3-.1.1-.3h-.1l-.1.3-.3-.1V3l.3.1zM46 2.8h-.4l.1-.4h-.1l-.1.4-.3-.1v.1l.3.1v.3h.1v-.3h.3zM45.7 4.2l-.3-.1.1-.3h-.1l-.1.3H45l.3.1-.1.3.1.1.1-.4.3.1zM46.3 4.4h.4l-.1.4h.1v-.4l.4.1v-.1h-.3V4h-.1v.3h-.4zM46.8 3.4h.1l.1-.3.3.1v-.1L47 3v-.3l-.1.3-.3-.1V3l.3.1zM43 2.8h-.3l.1-.4h-.1l-.1.4-.3-.1v.1l.3.1-.1.3h.1l.1-.3h.3zM42.8 4.2l-.3-.1v-.3h-.1v.3H42l.4.1-.1.3.1.1.1-.4.3.1zM43.4 4.4h.3v.4h.1v-.4l.3.1.1-.1h-.4l.1-.4h-.1l-.1.3h-.3zM43.9 3.4h.1v-.3l.4.1v-.1l-.3-.1v-.3H44V3l-.4-.1V3l.4.1zM40.1 2.8h-.3v-.4h-.1v.4l-.3-.1-.1.1.4.1-.1.3h.1l.1-.3h.3zM39.9 4.2l-.4-.1.1-.3h-.1v.3h-.4l.3.1v.3l.1.1v-.4l.4.1zM40.5 4.4h.3l-.1.4h.1l.1-.4.3.1v-.1h-.3L41 4h-.1l-.1.3h-.3zM41 3.4h.1v-.3l.3.1.1-.1-.4-.1.1-.3h-.1L41 3l-.3-.1V3l.3.1zM37.2 2.8h-.4l.1-.4h-.1v.4l-.4-.1v.1l.3.1v.3h.1v-.3h.4zM36.9 4.2l-.3-.1.1-.3h-.1l-.1.3h-.3l.3.1-.1.3.1.1.1-.4.3.1zM37.5 4.4h.4l-.1.4h.1l.1-.4.3.1v-.1H38V4h-.1v.3h-.3zM38 3.4h.1l.1-.3.3.1v-.1l-.3-.1.1-.3h-.1l-.1.3-.3-.1V3l.3.1zM50.2.3v-.6.1h-.3v.1h.3v.4zM50 1.6l.1-.3h.1v-.1h-.1V.8l-.1.4-.3-.1v.1l.3.1-.1.3zM47.4-.5l-.1.3H47v.1h.3l-.1.4h.1l.1-.4.3.1v-.1l-.3-.1zM47.1 1.6v-.3h.4v-.1h-.3V.8h-.1v.4l-.4-.1v.1l.4.1-.1.3zM48.1 1.4l.3.1v.3l.1-.3.3.1v-.1l-.3-.1.1-.3h-.1l-.1.3-.3-.1zM48.7-.3v.4l-.4-.1v.1h.3v.4h.1V.2h.4V.1h-.4l.1-.4zM44.5-.5h-.1v.3H44v.1h.4l-.1.4h.1v-.4l.4.1v-.1l-.3-.1zM44.2 1.6v-.3h.3l.1-.1h-.4l.1-.4h-.1l-.1.4-.3-.1v.1l.3.1v.3zM45.2 1.4l.3.1-.1.3h.1l.1-.3.3.1v-.1l-.3-.1v-.3l-.1.3-.3-.1zM45.8-.3l-.1.4-.3-.1v.1h.3v.4l.1-.3h.3V.1h-.3l.1-.4zM41.6-.5h-.1l-.1.3h-.3v.1h.3v.4h.1v-.4l.3.1.1-.1-.4-.1zM41.2 1.6l.1-.3h.3v-.1h-.3l.1-.4h-.1l-.1.4-.3-.1v.1l.3.1-.1.3zM42.2 1.4l.4.1-.1.3h.1v-.3l.4.1v-.1l-.3-.1v-.3h-.1v.3l-.4-.1zM42.9-.3l-.1.4-.3-.1v.1h.3l-.1.4h.1l.1-.3h.3V.1h-.3v-.4zM38.7-.5h-.1l-.1.3h-.3v.1h.3l-.1.4h.1l.1-.4.3.1v-.1l-.3-.1zM38.3 1.6l.1-.3h.3v-.1h-.3V.8h-.1v.4l-.3-.1-.1.1.4.1-.1.3zM39.3 1.4l.3.1v.3h.1v-.3l.3.1.1-.1-.4-.1.1-.3h-.1l-.1.3-.3-.1zM39.9-.3v.4l-.4-.1v.1h.3v.4h.1V.2h.4V.1H40v-.4zM35.7-.1l.3.1v-.1l-.3-.1v-.3h-.1v.8zM35.8 1.2h-.2v.1h.2zM36.4 1.4l.3.1-.1.3h.1l.1-.3.3.1v-.1l-.3-.1.1-.3h-.1l-.1.3-.3-.1zM37-.3l-.1.4-.3-.1v.1h.3v.4h.1V.2h.3l.1-.1H37l.1-.4zM49.1-3.4v.3l-.4-.1v.1l.3.1v.3h.1V-3h.4l-.4-.1.1-.3zM48.9-2.1l-.1.3h-.3v.1h.3v.4l.1-.4.3.1v-.1l-.3-.1.1-.3zM50.2-1.5l-.3-.1-.1.1h.4l-.1.4h.1v-.8zM50.1-2.9l.1.1v-.1h-.1zM46.2-3.4l-.1.3-.3-.1v.1l.3.1v.3l.1-.3h.3l-.3-.1.1-.3zM46-2.1l-.1.3h-.3v.1h.3l-.1.4h.1l.1-.4.3.1v-.1l-.3-.1v-.3zM46.9-1.5h.3v.4h.1v-.3h.4v-.1h-.4l.1-.4h-.1v.4l-.4-.1zM47.5-3.2v.3h-.4l.4.1-.1.3.1.1.1-.4.3.1v-.1l-.3-.1v-.3zM43.3-3.4l-.1.3-.3-.1v.1l.3.1-.1.3h.1l.1-.3h.3l-.3-.1v-.3zM43-2.1v.3h-.4v.1h.4l-.1.4h.1v-.4l.4.1v-.1l-.3-.1v-.3zM44-1.5h.3l-.1.4h.1l.1-.3h.3v-.1h-.3l.1-.4h-.1l-.1.4-.3-.1zM44.6-3.2v.3h-.4l.3.1v.3l.1.1v-.4l.4.1v-.1l-.4-.1.1-.3zM40.3-3.4v.3l-.4-.1v.1l.4.1-.1.3h.1V-3h.4l-.3-.1v-.3zM40.1-2.1l-.1.3h-.3v.1h.3v.4h.1v-.4l.3.1.1-.1-.4-.1.1-.3zM41.1-1.5h.3l-.1.4h.1l.1-.3h.3v-.1h-.3v-.4l-.1.4-.3-.1zM41.7-3.2l-.1.3h-.3l.3.1-.1.3.1.1.1-.4.3.1v-.1l-.3-.1.1-.3zM37.4-3.4l-.1.3-.3-.1v.1l.3.1v.3h.1V-3h.4l-.4-.1.1-.3zM37.2-2.1l-.1.3h-.3v.1h.3l-.1.4h.1l.1-.4.3.1v-.1l-.3-.1.1-.3zM38.1-1.5h.3v.4h.1v-.3h.4v-.1h-.3v-.4h-.1v.4l-.4-.1zM38.8-3.2l-.1.3h-.3l.3.1-.1.3.1.1.1-.4.3.1v-.1l-.3-.1v-.3zM35.6-1.9v.5h.3l.1-.1h-.4l.1-.4zM35.6-2.8h.1v.3l.1.1v-.4l.4.1v-.1l-.3-.1v-.3h-.1v.3h-.2z"/>
    <g>
        <path d="M49.1 26h.1-.1zM46.2 26h.1-.1zM43.3 26zM40.3 26h.1-.1zM37.4 26h.1-.1zM50.2 24.7v.1zM48.3 23.5l-.3-.1v-.3h-.1v.3l-.3-.1-.1.1.4.1-.1.3h.1l.1-.3h.3zM47.7 25.2v-.4l.4.1v-.1l-.4-.1.1-.3h-.1v.3h-.4v.1h.3v.4zM49 25.4l.1-.3h.3V25h-.3l.1-.4h-.1l-.1.4-.3-.1v.1l.3.1-.1.3zM49.7 23.7l-.4-.1.1-.3h-.1l-.1.3h-.3v.1h.3v.4h.1v-.4l.3.1zM45.4 23.5l-.4-.1.1-.3H45v.3l-.4-.1v.1l.3.1v.3h.1v-.3h.4zM44.7 25.2l.1-.4.3.1v-.1l-.3-.1.1-.3h-.1l-.1.3h-.3v.1h.3v.4zM46.1 25.4l.1-.3h.3V25h-.3v-.4h-.1v.4l-.3-.1-.1.1.4.1-.1.3zM46.7 23.7l-.3-.1.1-.3h-.1l-.1.3H46v.1h.3l-.1.4h.1l.1-.4.3.1zM42.4 23.5l-.3-.1.1-.3h-.1l-.1.3-.3-.1v.1l.3.1v.3l.1-.3h.3zM41.8 25.2l.1-.4.3.1v-.1l-.3-.1v-.3l-.1.3h-.3v.1h.3l-.1.4zM43.2 25.4v-.3h.4V25h-.4l.1-.4h-.1v.4l-.4-.1v.1l.3.1v.3zM43.8 23.7l-.3-.1v-.3h-.1v.3h-.3l-.1.1h.4l-.1.4h.1l.1-.4.3.1zM39.5 23.5l-.3-.1v-.3l-.1.3-.3-.1v.1l.3.1-.1.3h.1l.1-.3h.3zM38.9 25.2v-.4l.4.1v-.1l-.3-.1v-.3h-.1v.3h-.4v.1h.4l-.1.4zM40.2 25.4l.1-.3h.3V25h-.3l.1-.4h-.1l-.1.4-.3-.1v.1l.3.1-.1.3zM40.9 23.7l-.4-.1.1-.3h-.1v.3h-.4v.1h.3v.4h.1v-.4l.4.1zM36.2 23.8v-.3h.4l-.3-.1v-.3h-.1v.3l-.4-.1v.1l.4.1-.1.3zM36 25.2v-.4l.3.1.1-.1-.4-.1.1-.3H36l-.1.3h-.3v.1h.3v.4zM37.3 25.4l.1-.3h.3V25h-.3v-.4l-.1.4-.3-.1-.1.1.4.1-.1.3zM37.9 23.7l-.3-.1.1-.3h-.1l-.1.3h-.3v.1h.3l-.1.4h.1l.1-.4.3.1zM49.7 20.9v-.4l.3.1.1-.1h-.4l.1-.4h-.1l-.1.3h-.3v.1h.3v.4zM49.1 21.8l.3.1-.1.3h.1l.1-.3h.3l-.3-.1.1-.3-.1-.1-.1.4-.3-.1zM46.7 20.9l.1-.4.3.1v-.1h-.3l.1-.4h-.1l-.1.3h-.3v.1h.3l-.1.4zM46.1 21.8l.4.1-.1.3h.1l.1-.3h.3l-.3-.1v-.3l-.1-.1v.4l-.3-.1zM47.9 21.7l-.1.3h-.3l.3.1v.3l.1.1v-.4l.3.1.1-.1-.4-.1.1-.3zM48.5 20.7h-.3v-.3l-.1-.1v.4l-.4-.1v.1l.4.1-.1.3h.1v-.3h.4zM43.8 20.9l.1-.4.3.1v-.1h-.3v-.4h-.1v.3h-.3l-.1.1h.4l-.1.4zM43.2 21.8l.3.1v.3h.1v-.3h.4l-.4-.1.1-.3-.1-.1v.4l-.4-.1zM45 21.7l-.1.3h-.3l.3.1-.1.3.1.1.1-.4.3.1v-.1L45 22l.1-.3zM45.6 20.7h-.4l.1-.3-.1-.1-.1.4-.3-.1v.1l.3.1v.3h.1v-.3h.3zM40.9 20.9v-.4l.4.1v-.1h-.4l.1-.4h-.1v.3h-.4v.1h.3v.4zM40.3 21.8l.3.1v.3l.1-.3h.3l-.3-.1.1-.3-.1-.1-.1.4-.3-.1zM42 21.7v.3h-.4l.4.1-.1.3.1.1.1-.4.3.1v-.1l-.3-.1v-.3zM42.6 20.7h-.3l.1-.3-.1-.1-.1.4-.3-.1v.1l.3.1-.1.3h.1l.1-.3h.3zM37.9 20.9l.1-.4.3.1v-.1H38l.1-.4H38l-.1.3h-.3v.1h.3v.4zM37.4 21.8l.3.1-.1.3h.1l.1-.3h.3l-.3-.1v-.4l-.1.4-.3-.1zM39.1 21.7l-.1.3h-.3l.3.1v.3l.1.1v-.4l.4.1v-.1l-.4-.1.1-.3zM39.7 20.7h-.3v-.3l-.1-.1v.4l-.3-.1-.1.1.4.1-.1.3h.1l.1-.3h.3zM36 22.4l.1.1.1-.4.3.1v-.1l-.3-.1.1-.3h-.1l-.1.3h-.3l.3.1zM36.8 20.7h-.4l.1-.3-.1-.1-.1.4-.3-.1v.1l.3.1v.3h.1v-.3h.4zM48.9 17.6l-.3-.1v-.3h-.1v.3l-.4-.1v.1l.4.1-.1.3h.1v-.3l.4.1zM48.7 18.9h-.4l.1-.4h-.1l-.1.3h-.3v.1h.3v.4h.1v-.4l.3.1zM49.3 19.1l.3.1-.1.3h.1l.1-.3h.3v-.1h-.3v-.4l-.1.4-.3-.1zM49.8 18.2l.1-.4.3.1v-.1l-.3-.1.1-.3h-.1l-.1.3h-.3v.1h.3zM46 17.6l-.4-.1.1-.3h-.1l-.1.3-.3-.1v.1l.3.1v.3h.1v-.3l.3.1zM45.7 18.9h-.3l.1-.4h-.1l-.1.3H45v.1h.3l-.1.4h.1l.1-.4.3.1zM46.3 19.1l.4.1-.1.3h.1v-.3h.4v-.1h-.3v-.4h-.1v.4l-.4-.1zM46.8 18.2h.1l.1-.4.3.1v-.1l-.3-.1v-.3l-.1.3h-.3v.1h.3zM43 17.6l-.3-.1.1-.3h-.1l-.1.3-.3-.1v.1l.3.1-.1.3h.1l.1-.3.3.1zM42.8 18.9h-.3v-.4h-.1v.3h-.3l-.1.1h.4l-.1.4h.1l.1-.4.3.1zM43.4 19.1l.3.1v.3h.1v-.3h.3l.1-.1h-.4l.1-.4h-.1l-.1.4-.3-.1zM43.9 18.2h.1v-.4l.4.1v-.1l-.3-.1v-.3H44v.3h-.4v.1h.4zM40.1 17.6l-.3-.1v-.3h-.1v.3l-.3-.1-.1.1.4.1-.1.3h.1l.1-.3.3.1zM39.9 18.9h-.4l.1-.4h-.1v.3h-.4v.1h.3v.4h.1v-.4l.4.1zM40.5 19.1l.3.1-.1.3h.1l.1-.3h.3v-.1h-.3l.1-.4h-.1l-.1.4-.3-.1zM41 18.2h.1v-.4l.3.1.1-.1-.4-.1.1-.3h-.1l-.1.3h-.3v.1h.3zM37.2 17.6l-.4-.1.1-.3h-.1v.3l-.4-.1v.1l.3.1v.3h.1v-.3l.4.1zM36.9 18.9h-.3l.1-.4h-.1l-.1.3h-.3v.1h.3l-.1.4h.1l.1-.4.3.1zM37.5 19.1l.4.1-.1.3h.1l.1-.3h.3v-.1H38v-.4h-.1v.4l-.3-.1zM38 18.2h.1l.1-.4.3.1v-.1l-.3-.1.1-.3h-.1l-.1.3h-.3v.1h.3zM50.2 15v-.5.1l-.3-.1v.1h.3v.4zM50 16.3l.1-.3h.1v-.1h-.1v-.3l-.1.3-.3-.1v.1l.3.1-.1.3zM47.4 14.2l-.1.4-.3-.1v.1h.3l-.1.4h.1l.1-.3h.3v-.1h-.3zM47.1 16.3V16l.4.1V16l-.3-.1v-.3h-.1v.3l-.4-.1v.1l.4.1-.1.3zM48.1 16.2h.3v.4l.1-.4.3.1v-.1l-.3-.1.1-.3h-.1l-.1.3h-.3zM48.7 14.4v.4l-.4-.1v.1l.3.1v.3h.1v-.3h.4l-.4-.1.1-.3zM44.5 14.2h-.1v.4l-.4-.1v.1h.4l-.1.4h.1v-.3h.4v-.1h-.3zM44.2 16.3V16l.3.1.1-.1-.4-.1.1-.3h-.1l-.1.3-.3-.1v.1l.3.1v.3zM45.2 16.2h.3l-.1.4h.1l.1-.4.3.1v-.1l-.3-.1v-.3l-.1.3h-.3zM45.8 14.4l-.1.4-.3-.1v.1l.3.1v.3l.1-.3h.3l-.3-.1.1-.3zM41.6 14.2h-.1l-.1.4-.3-.1v.1h.3v.4h.1v-.3h.3l.1-.1h-.4zM41.2 16.3l.1-.3.3.1V16l-.3-.1.1-.3h-.1l-.1.3-.3-.1v.1l.3.1-.1.3zM42.2 16.2h.4l-.1.4h.1v-.4l.4.1v-.1l-.3-.1v-.3h-.1v.3h-.4zM42.9 14.4l-.1.4-.3-.1v.1l.3.1-.1.3h.1l.1-.3h.3l-.3-.1v-.3zM38.7 14.2h-.1l-.1.4-.3-.1v.1h.3l-.1.4h.1l.1-.3h.3v-.1h-.3zM38.3 16.3l.1-.3.3.1V16l-.3-.1v-.3h-.1v.3l-.3-.1-.1.1.4.1-.1.3zM39.3 16.2h.3v.4h.1v-.4l.3.1.1-.1-.4-.1.1-.3h-.1l-.1.3h-.3zM39.9 14.4v.4l-.4-.1v.1l.3.1v.3h.1v-.3h.4l-.3-.1v-.3zM35.7 14.7h.3v-.1h-.3v-.4h-.1v.8zM35.8 16l-.2-.1v.1l.2.1zM36.4 16.2h.3l-.1.4h.1l.1-.4.3.1v-.1l-.3-.1.1-.3h-.1l-.1.3h-.3zM37 14.4l-.1.4-.3-.1v.1l.3.1v.3h.1v-.3h.4l-.4-.1.1-.3zM49.1 11.3v.3h-.4l.3.1v.3l.1.1v-.4l.4.1v-.1l-.4-.1.1-.3zM48.9 12.6l-.1.3h-.3v.1h.3v.4l.1-.3h.3V13h-.3l.1-.4zM50.2 13.2l-.3-.1-.1.1.4.1-.1.3h.1v-.8zM50.1 11.9h.1v-.1h-.1zM46.2 11.3l-.1.3h-.3l.3.1v.4l.1-.4.3.1v-.1l-.3-.1.1-.3zM46 12.6l-.1.3h-.3v.1h.3l-.1.4h.1l.1-.3h.3V13H46v-.4zM46.9 13.2l.3.1v.3h.1v-.3h.4l-.4-.1.1-.3-.1-.1v.4l-.4-.1zM47.5 11.5v.3h-.3l-.1.1h.4l-.1.4h.1l.1-.4.3.1v-.1h-.3v-.4zM43.3 11.3l-.1.3h-.3l.3.1-.1.3.1.1.1-.4.3.1v-.1l-.3-.1v-.3zM43 12.6v.3h-.4v.1h.4l-.1.4h.1v-.3h.4V13h-.3v-.4zM44 13.2l.3.1-.1.3h.1l.1-.3h.3l-.3-.1.1-.3-.1-.1-.1.4-.3-.1zM44.6 11.5v.3h-.4v.1h.3v.4h.1v-.4l.4.1v-.1h-.4l.1-.4zM40.3 11.3v.3h-.4l.4.1-.1.3.1.1v-.4l.4.1v-.1l-.3-.1v-.3zM40.1 12.6l-.1.3h-.3v.1h.3v.4h.1v-.3h.3l.1-.1h-.4l.1-.4zM41.1 13.2l.3.1-.1.3h.1l.1-.3h.3l-.3-.1v-.4l-.1.4-.3-.1zM41.7 11.5l-.1.3h-.3v.1h.3l-.1.4h.1l.1-.4.3.1v-.1h-.3l.1-.4zM37.4 11.3l-.1.3H37l.3.1v.3l.1.1v-.4l.3.1.1-.1-.4-.1.1-.3zM37.2 12.6l-.1.3h-.3v.1h.3l-.1.4h.1l.1-.3h.3V13h-.3l.1-.4zM38.1 13.2l.3.1v.3h.1v-.3h.4l-.3-.1v-.3l-.1-.1v.4l-.4-.1zM38.8 11.5l-.1.3h-.3v.1h.3l-.1.4h.1l.1-.4.3.1v-.1h-.3v-.4zM35.6 12.8v.6-.1h.4l-.4-.1.1-.3zM35.6 11.9h.1v.4h.1v-.4l.4.1v-.1h-.3v-.4h-.1v.3h-.2z"/>
    </g>
    <g>
        <path d="M49.1 40.7h.1-.1zM46.2 40.7h.1-.1zM43.3 40.7zM40.3 40.7h.1-.1zM37.4 40.7h.1-.1zM50.2 39.5zM48.3 38.2l-.3-.1v-.3h-.1v.3h-.4l.4.1-.1.3.1.1.1-.4.3.1zM47.7 39.9v-.3h.4v-.1h-.4l.1-.4h-.1v.4l-.4-.1v.1h.3v.4zM49 40.1l.1-.3h.3l-.3-.1.1-.3h-.1l-.1.3-.3-.1v.1l.3.1-.1.3zM49.7 38.4h-.4l.1-.4h-.1l-.1.3h-.3v.1h.3v.4h.1v-.3h.3zM45.4 38.2l-.4-.1.1-.3H45v.3h-.4l.3.1v.3l.1.1v-.4l.4.1zM44.7 39.9l.1-.3h.3v-.1h-.3l.1-.4h-.1l-.1.4-.3-.1v.1h.3v.4zM46.1 40.1l.1-.3h.3l-.3-.1v-.3h-.1v.3l-.3-.1-.1.1.4.1-.1.3zM46.7 38.4h-.3l.1-.4h-.1l-.1.3H46v.1h.3l-.1.4h.1l.1-.3h.3zM42.4 38.2l-.3-.1.1-.3h-.1l-.1.3h-.3l.3.1v.4l.1-.4.3.1zM41.8 39.9l.1-.3h.3v-.1h-.3v-.4l-.1.4-.3-.1v.1h.3l-.1.4zM43.2 40.1v-.3h.4l-.4-.1.1-.3h-.1v.3l-.4-.1v.1l.3.1v.3zM43.8 38.4h-.3V38h-.1v.3h-.3l-.1.1h.4l-.1.4h.1l.1-.3h.3zM39.5 38.2l-.3-.1v-.3l-.1.3h-.3l.3.1-.1.3.1.1.1-.4.3.1zM38.9 39.9v-.3h.4v-.1H39v-.4h-.1v.4l-.4-.1v.1h.4l-.1.4zM40.2 40.1l.1-.3h.3l-.3-.1.1-.3h-.1l-.1.3-.3-.1v.1l.3.1-.1.3zM40.9 38.4h-.4l.1-.4h-.1v.3h-.4v.1h.3v.4h.1v-.3h.4zM36.2 38.6v-.4l.4.1v-.1l-.3-.1v-.3h-.1v.3h-.4l.4.1-.1.3zM36 39.9v-.3h.3l.1-.1H36l.1-.4H36l-.1.4-.3-.1v.1h.3v.4zM37.3 40.1l.1-.3h.3l-.3-.1v-.3l-.1.3-.3-.1-.1.1.4.1-.1.3zM37.9 38.4h-.3l.1-.4h-.1l-.1.3h-.3v.1h.3l-.1.4h.1l.1-.3h.3zM49.7 35.6v-.3h.3l.1-.1h-.4l.1-.4h-.1l-.1.4-.3-.1v.1l.3.1v.3zM49.1 36.5l.3.1-.1.3.1.1.1-.4.3.1v-.1l-.3-.1.1-.3h-.1l-.1.3h-.3zM46.7 35.6l.1-.3h.3v-.1h-.3l.1-.4h-.1l-.1.4-.3-.1v.1l.3.1-.1.3zM46.1 36.5l.4.1-.1.3.1.1.1-.4.3.1v-.1l-.3-.1v-.3h-.1v.3h-.3zM47.9 36.4l-.1.3h-.3v.1h.3v.4h.1v-.4l.3.1.1-.1h-.4l.1-.4zM48.5 35.5l-.3-.1v-.3h-.1v.3l-.4-.1v.1l.4.1-.1.3h.1v-.3l.4.1zM43.8 35.6l.1-.3h.3v-.1h-.3v-.4h-.1v.4l-.3-.1-.1.1.4.1-.1.3zM43.2 36.5l.3.1v.3l.1.1v-.4l.4.1v-.1l-.4-.1.1-.3h-.1v.3h-.4zM45 36.4l-.1.3h-.3v.1h.3l-.1.4h.1l.1-.4.3.1v-.1H45l.1-.4zM45.6 35.5l-.4-.1.1-.3h-.1l-.1.3-.3-.1v.1l.3.1v.3h.1v-.3l.3.1zM40.9 35.6v-.3h.4v-.1h-.4l.1-.4h-.1v.4l-.4-.1v.1l.3.1v.3zM40.3 36.5l.3.1v.4l.1-.4.3.1v-.1l-.3-.1.1-.3h-.1l-.1.3h-.3zM42 36.4v.3h-.3l-.1.1h.4l-.1.4h.1l.1-.4.3.1v-.1h-.3v-.4zM42.6 35.5l-.3-.1.1-.3h-.1l-.1.3-.3-.1v.1l.3.1-.1.3h.1l.1-.3.3.1zM37.9 35.6l.1-.3h.3v-.1H38l.1-.4H38l-.1.4-.3-.1v.1l.3.1v.3zM37.4 36.5l.3.1-.1.3.1.1.1-.4.3.1v-.1l-.3-.1v-.3l-.1.3h-.3zM39.1 36.4l-.1.3h-.3v.1h.3v.4h.1v-.4l.4.1v-.1h-.4l.1-.4zM39.7 35.5l-.3-.1v-.3h-.1v.3l-.3-.1-.1.1.4.1-.1.3h.1l.1-.3.3.1zM36 37.2h.1l.1-.4.3.1v-.1h-.3l.1-.4h-.1l-.1.3h-.3v.1h.3zM36.8 35.5l-.4-.1.1-.3h-.1l-.1.3-.3-.1v.1l.3.1v.3h.1v-.3l.4.1zM48.9 32.3l-.3-.1v-.3h-.1v.3h-.4v.1h.4l-.1.4h.1v-.4l.4.1zM48.7 33.6h-.4l.1-.4h-.1l-.1.4-.3-.1v.1l.3.1v.3h.1v-.3h.3zM49.3 33.8l.3.1-.1.3h.1l.1-.3.3.1v-.1l-.3-.1v-.3l-.1.3-.3-.1zM49.8 32.9l.1-.3h.3v-.1h-.3l.1-.4h-.1l-.1.4-.3-.1v.1h.3zM46 32.3l-.4-.1.1-.3h-.1l-.1.3h-.3v.1h.3v.4h.1v-.4l.3.1zM45.7 33.6h-.3l.1-.4h-.1l-.1.4-.3-.1v.1l.3.1-.1.3h.1l.1-.3h.3zM46.3 33.8l.4.1-.1.3h.1v-.3l.4.1v-.1l-.3-.1v-.3h-.1v.3l-.4-.1zM46.8 32.9h.1l.1-.3h.3v-.1H47v-.4l-.1.4-.3-.1v.1h.3zM43 32.3l-.3-.1.1-.3h-.1l-.1.3h-.3v.1h.3l-.1.4h.1l.1-.4.3.1zM42.8 33.6h-.3v-.4h-.1v.4l-.3-.1-.1.1.4.1-.1.3h.1l.1-.3h.3zM43.4 33.8l.3.1v.3h.1v-.3l.3.1.1-.1-.4-.1.1-.3h-.1l-.1.3-.3-.1zM43.9 32.9h.1v-.3h.4v-.1h-.3v-.4H44v.4l-.4-.1v.1h.4zM40.1 32.3l-.3-.1v-.3h-.1v.3h-.3l-.1.1h.4l-.1.4h.1l.1-.4.3.1zM39.9 33.6h-.4l.1-.4h-.1v.4l-.4-.1v.1l.3.1v.3h.1v-.3h.4zM40.5 33.8l.3.1-.1.3h.1l.1-.3.3.1v-.1l-.3-.1.1-.3h-.1l-.1.3-.3-.1zM41 32.9h.1v-.3h.3l.1-.1h-.4l.1-.4h-.1l-.1.4-.3-.1v.1h.3zM37.2 32.3l-.4-.1.1-.3h-.1v.3h-.4v.1h.3v.4h.1v-.4l.4.1zM36.9 33.6h-.3l.1-.4h-.1l-.1.4-.3-.1v.1l.3.1-.1.3h.1l.1-.3h.3zM37.5 33.8l.4.1-.1.3h.1l.1-.3.3.1v-.1l-.3-.1v-.3h-.1v.3l-.3-.1zM38 32.9h.1l.1-.3h.3v-.1h-.3l.1-.4h-.1l-.1.4-.3-.1v.1h.3zM50.2 29.7v-.5.1l-.3-.1v.1l.3.1v.3zM50 31.1l.1-.4.1.1v-.1l-.1-.1v-.3l-.1.3h-.3v.1h.3l-.1.4zM47.4 29v-.1l-.1.4-.3-.1v.1l.3.1-.1.3h.1l.1-.3h.3l-.3-.1zM47.1 31.1v-.4l.4.1v-.1l-.3-.1v-.3h-.1v.3h-.4v.1h.4l-.1.4zM48.1 30.9h.3v.4l.1-.3h.3v-.1h-.3l.1-.4h-.1l-.1.4-.3-.1zM48.7 29.2v.3h-.4l.3.1v.3l.1.1v-.4l.4.1v-.1l-.4-.1.1-.3zM44.5 29l-.1-.1v.4l-.4-.1v.1l.4.1-.1.3h.1v-.3h.4l-.3-.1zM44.2 31.1v-.4l.3.1.1-.1-.4-.1.1-.3h-.1l-.1.3h-.3v.1h.3v.4zM45.2 30.9h.3l-.1.4h.1l.1-.3h.3v-.1h-.3v-.4l-.1.4-.3-.1zM45.8 29.2l-.1.3h-.3l.3.1v.4l.1-.4.3.1v-.1l-.3-.1.1-.3zM41.6 29l-.1-.1-.1.4-.3-.1v.1l.3.1v.3h.1v-.3h.4l-.4-.1zM41.2 31.1l.1-.4.3.1v-.1l-.3-.1.1-.3h-.1l-.1.3h-.3v.1h.3l-.1.4zM42.2 30.9h.4l-.1.4h.1V31h.4v-.1h-.3v-.4h-.1v.4l-.4-.1zM42.9 29.2l-.1.3h-.3l.3.1-.1.3.1.1.1-.4.3.1v-.1l-.3-.1v-.3zM38.7 29l-.1-.1-.1.4-.3-.1v.1l.3.1-.1.3h.1l.1-.3h.3l-.3-.1zM38.3 31.1l.1-.4.3.1v-.1l-.3-.1v-.3h-.1v.3H38l-.1.1h.4l-.1.4zM39.3 30.9h.3v.4h.1V31h.3l.1-.1h-.4l.1-.4h-.1l-.1.4-.3-.1zM39.9 29.2v.3h-.4l.3.1v.3l.1.1v-.4l.4.1v-.1l-.3-.1v-.3zM35.7 29.4h.3l-.3-.1V29l-.1-.1v.8zM35.8 30.7h-.2v.1h.2zM36.4 30.9h.3l-.1.4h.1l.1-.3h.3v-.1h-.3l.1-.4h-.1l-.1.4-.3-.1zM37 29.2l-.1.3h-.3l.3.1v.3l.1.1v-.4l.3.1.1-.1-.4-.1.1-.3zM49.1 26v.3h-.4v.1h.3v.4h.1v-.4l.4.1v-.1h-.4l.1-.4zM48.9 27.3l-.1.4-.3-.1v.1l.3.1v.3l.1-.3h.3v-.1h-.3l.1-.3zM50.2 27.9h-.4l.4.1-.1.3.1.1v-.8zM50.1 26.6h.1v-.1h-.1zM46.2 26l-.1.3h-.3v.1h.3v.4l.1-.4.3.1v-.1h-.3l.1-.4zM46 27.3l-.1.4-.3-.1v.1l.3.1-.1.3h.1l.1-.3h.3v-.1H46v-.3zM46.9 27.9l.3.1v.3l.1.1V28l.4.1V28l-.4-.1.1-.3h-.1v.3h-.4zM47.5 26.2v.4l-.3-.1-.1.1.4.1-.1.3h.1l.1-.3h.3v-.1h-.3v-.4zM43.3 26l-.1.3h-.3v.1h.3l-.1.4h.1l.1-.4.3.1v-.1h-.3V26zM43 27.3v.4l-.4-.1v.1l.4.1-.1.3h.1v-.3h.4v-.1h-.3v-.3zM44 27.9l.3.1-.1.3.1.1.1-.4.3.1V28l-.3-.1.1-.3h-.1l-.1.3H44zM44.6 26.2v.4l-.4-.1v.1l.3.1v.3h.1v-.3h.4v-.1h-.4l.1-.4zM40.3 26v.3h-.4v.1h.4l-.1.4h.1v-.4l.4.1v-.1h-.3V26zM40.1 27.3l-.1.4-.3-.1v.1l.3.1v.3h.1v-.3h.3l.1-.1h-.4l.1-.3zM41.1 27.9l.3.1-.1.3.1.1.1-.4.3.1V28l-.3-.1v-.3l-.1.3h-.3zM41.7 26.2l-.1.4-.3-.1v.1l.3.1-.1.3h.1l.1-.3h.3v-.1h-.3l.1-.4zM37.4 26l-.1.3H37v.1h.3v.4h.1v-.4l.3.1.1-.1h-.4l.1-.4zM37.2 27.3l-.1.4-.3-.1v.1l.3.1-.1.3h.1l.1-.3h.3v-.1h-.3l.1-.3zM38.1 27.9l.3.1v.3l.1.1V28l.4.1V28l-.3-.1v-.3h-.1v.3h-.4zM38.8 26.2l-.1.4-.3-.1v.1l.3.1-.1.3h.1l.1-.3h.3v-.1h-.3v-.4zM35.6 27.6v.5-.1l.3.1.1-.1-.4-.1.1-.3zM35.6 26.6l.1.1v.3h.1v-.3h.4v-.1h-.3v-.4h-.1v.4l-.2-.1z"/>
    </g>
    <g>
        <path d="M49.1 55.5h.1-.1zM46.2 55.5h.1-.1zM43.3 55.5zM40.3 55.5h.1-.1zM37.4 55.5h.1-.1zM50.2 54.2zM48.3 52.9H48v-.4h-.1v.3h-.3l-.1.1h.4l-.1.4h.1l.1-.4.3.1zM47.7 54.6v-.3h.4l-.4-.1.1-.3-.1-.1v.4l-.4-.1v.1l.3.1v.3zM49 54.9l.1-.4.3.1v-.1l-.3-.1.1-.3h-.1l-.1.3h-.3l.3.1-.1.3zM49.7 53.1h-.4l.1-.3-.1-.1-.1.4-.3-.1v.1l.3.1v.3h.1v-.3h.3zM45.4 52.9H45l.1-.4H45v.3h-.4v.1h.3v.4h.1v-.4l.4.1zM44.7 54.6l.1-.3h.3l-.3-.1.1-.3-.1-.1-.1.4-.3-.1v.1l.3.1v.3zM46.1 54.9l.1-.4.3.1v-.1l-.3-.1v-.3h-.1v.3h-.4l.4.1-.1.3zM46.7 53.1h-.3l.1-.3-.1-.1-.1.4-.3-.1v.1l.3.1-.1.3h.1l.1-.3h.3zM42.4 52.9h-.3l.1-.4h-.1l-.1.3h-.3v.1h.3v.4l.1-.4.3.1zM41.8 54.6l.1-.3h.3l-.3-.1v-.4l-.1.4-.3-.1v.1l.3.1-.1.3zM43.2 54.9v-.4l.4.1v-.1l-.4-.1.1-.3h-.1v.3h-.4l.3.1v.3zM43.8 53.1h-.3v-.3l-.1-.1v.4l-.3-.1-.1.1.4.1-.1.3h.1l.1-.3h.3zM39.5 52.9h-.3v-.4l-.1.3h-.3v.1h.3l-.1.4h.1l.1-.4.3.1zM38.9 54.6v-.3h.4l-.3-.1v-.3l-.1-.1v.4l-.4-.1v.1l.4.1-.1.3zM40.2 54.9l.1-.4.3.1v-.1l-.3-.1.1-.3h-.1l-.1.3h-.3l.3.1-.1.3zM40.9 53.1h-.4l.1-.3-.1-.1v.4l-.4-.1v.1l.3.1v.3h.1v-.3h.4zM36.2 53.3v-.4l.4.1v-.1h-.3v-.4h-.1v.3h-.4v.1h.4l-.1.4zM36 54.6v-.3h.4l-.4-.1.1-.3-.1-.1-.1.4-.3-.1v.1l.3.1v.3zM37.3 54.9l.1-.4.3.1v-.1l-.3-.1v-.3l-.1.3h-.4l.4.1-.1.3zM37.9 53.1h-.3l.1-.3-.1-.1-.1.4-.3-.1v.1l.3.1-.1.3h.1l.1-.3h.3zM49.7 50.3V50l.3.1.1-.1-.4-.1.1-.3h-.1l-.1.3-.3-.1v.1l.3.1v.3zM49.1 51.3h.3l-.1.4h.1l.1-.4.3.1v-.1h-.3l.1-.4h-.1l-.1.3h-.3zM46.7 50.3l.1-.3.3.1V50l-.3-.1.1-.3h-.1l-.1.3-.3-.1v.1l.3.1-.1.3zM46.1 51.3h.4l-.1.4h.1l.1-.4.3.1v-.1h-.3v-.4h-.1v.3h-.3zM47.9 51.1l-.1.4-.3-.1v.1l.3.1v.3h.1v-.3h.3l.1-.1h-.4l.1-.4zM48.5 50.2l-.3-.1v-.3h-.1v.3h-.4v.1h.4l-.1.4h.1v-.4l.4.1zM43.8 50.3l.1-.3.3.1V50l-.3-.1v-.3h-.1v.3l-.3-.1-.1.1.4.1-.1.3zM43.2 51.3h.3v.4h.1v-.4l.4.1v-.1h-.4l.1-.4h-.1v.3h-.4zM45 51.1l-.1.4-.3-.1v.1l.3.1-.1.3h.1l.1-.3h.3v-.1H45l.1-.4zM45.6 50.2l-.4-.1.1-.3h-.1l-.1.3h-.3v.1h.3v.4h.1v-.4l.3.1zM40.9 50.3V50l.4.1V50l-.4-.1.1-.3h-.1v.3l-.4-.1v.1l.3.1v.3zM40.3 51.3h.3v.4l.1-.4.3.1v-.1h-.3l.1-.4h-.1l-.1.3h-.3zM42 51.1v.4l-.3-.1-.1.1.4.1-.1.3h.1l.1-.3h.3v-.1h-.3v-.4zM42.6 50.2l-.3-.1.1-.3h-.1l-.1.3h-.3v.1h.3l-.1.4h.1l.1-.4.3.1zM37.9 50.3l.1-.3.3.1V50l-.3-.1.1-.3H38l-.1.3-.3-.1v.1l.3.1v.3zM37.4 51.3h.3l-.1.4h.1l.1-.4.3.1v-.1h-.3v-.4l-.1.3h-.3zM39.1 51.1l-.1.4-.3-.1v.1l.3.1v.3h.1v-.3h.4v-.1h-.4l.1-.4zM39.7 50.2l-.3-.1v-.3h-.1v.3H39l-.1.1h.4l-.1.4h.1l.1-.4.3.1zM36 51.9h.1l.1-.3h.3v-.1h-.3l.1-.4h-.1l-.1.4-.3-.1v.1l.3.1zM36.8 50.2l-.4-.1.1-.3h-.1l-.1.3H36v.1h.3v.4h.1v-.4l.4.1zM48.9 47h-.3v-.4h-.1v.4l-.4-.1v.1h.4l-.1.4h.1v-.3h.4zM48.7 48.4l-.4-.1.1-.3h-.1l-.1.3-.3-.1v.1l.3.1v.3h.1v-.3l.3.1zM49.3 48.6h.3l-.1.4h.1l.1-.4.3.1v-.1l-.3-.1v-.3l-.1.3h-.3zM49.8 47.6l.1-.3h.3l-.3-.1.1-.3-.1-.1-.1.4-.3-.1v.1l.3.1zM46 47h-.4l.1-.4h-.1l-.1.4-.3-.1v.1h.3v.4h.1v-.3h.3zM45.7 48.4l-.3-.1.1-.3h-.1l-.1.3-.3-.1v.1l.3.1-.1.3h.1l.1-.3.3.1zM46.3 48.6h.4l-.1.4h.1v-.4l.4.1v-.1l-.3-.1v-.3h-.1v.3h-.4zM46.8 47.6h.1l.1-.3h.3l-.3-.1v-.4l-.1.4-.3-.1v.1l.3.1zM43 47h-.3l.1-.4h-.1l-.1.4-.3-.1v.1h.3l-.1.4h.1l.1-.3h.3zM42.8 48.4l-.3-.1V48h-.1v.3l-.3-.1-.1.1.4.1-.1.3h.1l.1-.3.3.1zM43.4 48.6h.3v.4h.1v-.4l.3.1.1-.1-.4-.1.1-.3h-.1l-.1.3h-.3zM43.9 47.6h.1v-.3h.4l-.3-.1v-.3l-.1-.1v.4l-.4-.1v.1l.4.1zM40.1 47h-.3v-.4h-.1v.4l-.3-.1-.1.1h.4l-.1.4h.1l.1-.3h.3zM39.9 48.4l-.4-.1.1-.3h-.1v.3l-.4-.1v.1l.3.1v.3h.1v-.3l.4.1zM40.5 48.6h.3l-.1.4h.1l.1-.4.3.1v-.1l-.3-.1.1-.3h-.1l-.1.3h-.3zM41 47.6h.1v-.3h.4l-.4-.1.1-.3-.1-.1-.1.4-.3-.1v.1l.3.1zM37.2 47h-.4l.1-.4h-.1v.4l-.4-.1v.1h.3v.4h.1v-.3h.4zM36.9 48.4l-.3-.1.1-.3h-.1l-.1.3-.3-.1v.1l.3.1-.1.3h.1l.1-.3.3.1zM37.5 48.6h.4l-.1.4h.1l.1-.4.3.1v-.1l-.3-.1v-.3h-.1v.3h-.3zM38 47.6h.1l.1-.3h.3l-.3-.1.1-.3-.1-.1-.1.4-.3-.1v.1l.3.1zM50.2 44.5v-.6.1h-.3l.3.1v.3zM50 45.8l.1-.3h.1v-.1h-.1V45l-.1.3h-.3v.1h.3l-.1.4zM47.4 43.7l-.1.3H47l.3.1-.1.3.1.1.1-.4.3.1v-.1l-.3-.1zM47.1 45.8v-.3h.4v-.1h-.3V45h-.1v.3h-.4v.1h.4l-.1.4zM48.1 45.6l.3.1v.3l.1-.3h.3l-.3-.1.1-.3-.1-.1-.1.4-.3-.1zM48.7 43.9v.3h-.4v.1h.3v.4h.1v-.4l.4.1v-.1h-.4l.1-.4zM44.5 43.7h-.1v.3H44l.4.1-.1.3.1.1v-.4l.4.1v-.1l-.3-.1zM44.2 45.8v-.3h.3l.1-.1h-.4l.1-.4h-.1l-.1.3h-.3v.1h.3v.4zM45.2 45.6l.3.1-.1.3h.1l.1-.3h.3l-.3-.1v-.4l-.1.4-.3-.1zM45.8 43.9l-.1.3h-.3v.1h.3v.4l.1-.4.3.1v-.1h-.3l.1-.4zM41.6 43.7h-.1l-.1.3h-.3l.3.1v.3l.1.1v-.4l.3.1.1-.1-.4-.1zM41.2 45.8l.1-.3h.3v-.1h-.3l.1-.4h-.1l-.1.3h-.3v.1h.3l-.1.4zM42.2 45.6l.4.1-.1.3h.1v-.3h.4l-.3-.1v-.3l-.1-.1v.4l-.4-.1zM42.9 43.9l-.1.3h-.3v.1h.3l-.1.4h.1l.1-.4.3.1v-.1h-.3v-.4zM38.7 43.7h-.1l-.1.3h-.3l.3.1-.1.3.1.1.1-.4.3.1v-.1l-.3-.1zM38.3 45.8l.1-.3h.3v-.1h-.3V45h-.1v.3H38l-.1.1h.4l-.1.4zM39.3 45.6l.3.1v.3h.1v-.3h.4l-.4-.1.1-.3-.1-.1-.1.4-.3-.1zM39.9 43.9v.3h-.4v.1h.3v.4h.1v-.4l.4.1v-.1H40v-.4zM35.7 44.1l.3.1v-.1l-.3-.1v-.3h-.1v.8zM35.8 45.4h-.2v.1h.2zM36.4 45.6l.3.1-.1.3h.1l.1-.3h.3l-.3-.1.1-.3-.1-.1-.1.4-.3-.1zM37 43.9l-.1.3h-.3v.1h.3v.4h.1v-.4l.3.1.1-.1H37l.1-.4zM49.1 40.7v.4l-.4-.1v.1l.3.1v.3h.1v-.3h.4v-.1h-.4l.1-.4zM48.9 42.1l-.1.3-.3-.1v.1l.3.1v.4l.1-.4.3.1v-.1l-.3-.1.1-.3zM50.2 42.6h-.3l-.1.1h.4l-.1.4h.1v-.8zM50.1 41.3l.1.1v-.1l-.1-.1zM46.2 40.7l-.1.4-.3-.1v.1l.3.1v.3l.1-.3h.3v-.1h-.3l.1-.4zM46 42.1l-.1.3-.3-.1v.1l.3.1-.1.3.1.1.1-.4.3.1v-.1l-.3-.1v-.3zM46.9 42.7h.3v.4h.1v-.4l.4.1v-.1h-.4l.1-.4h-.1v.3h-.4zM47.5 41v.3l-.3-.1-.1.1.4.1-.1.3h.1l.1-.3.3.1v-.1l-.3-.1V41zM43.3 40.7l-.1.4-.3-.1v.1l.3.1-.1.3h.1l.1-.3h.3v-.1h-.3v-.4zM43 42.1v.3l-.4-.1v.1l.4.1-.1.3.1.1v-.4l.4.1v-.1l-.3-.1v-.3zM44 42.7h.3l-.1.4h.1l.1-.4.3.1v-.1h-.3l.1-.4h-.1l-.1.3H44zM44.6 41v.3l-.4-.1v.1l.3.1v.3h.1v-.3l.4.1v-.1l-.4-.1.1-.3zM40.3 40.7v.4l-.4-.1v.1l.4.1-.1.3h.1v-.3h.4v-.1h-.3v-.4zM40.1 42.1l-.1.3-.3-.1v.1l.3.1v.3l.1.1v-.4l.3.1.1-.1-.4-.1.1-.3zM41.1 42.7h.3l-.1.4h.1l.1-.4.3.1v-.1h-.3v-.4l-.1.3h-.3zM41.7 41l-.1.3-.3-.1v.1l.3.1-.1.3h.1l.1-.3.3.1v-.1l-.3-.1.1-.3zM37.4 40.7l-.1.4-.3-.1v.1l.3.1v.3h.1v-.3h.3l.1-.1h-.4l.1-.4zM37.2 42.1l-.1.3-.3-.1v.1l.3.1-.1.3.1.1.1-.4.3.1v-.1l-.3-.1.1-.3zM38.1 42.7h.3v.4h.1v-.4l.4.1v-.1h-.3v-.4h-.1v.3h-.4zM38.8 41l-.1.3-.3-.1v.1l.3.1-.1.3h.1l.1-.3.3.1v-.1l-.3-.1V41zM35.6 42.3v.5-.1l.3.1.1-.1h-.4l.1-.4zM35.6 41.4h.1v.3h.1v-.3l.4.1v-.1l-.3-.1V41h-.1v.3h-.2z"/>
    </g>
    <g>
        <path d="M34.5 11.3h.1-.1zM31.5 11.3h.1-.1zM28.6 11.3h.1-.1zM25.7 11.3h.1-.1zM22.7 11.3h.1-.1zM35.6 10zM33.7 8.7h-.4l.1-.4h-.1l-.1.4-.3-.1v.1l.3.1v.3h.1v-.3h.3zM33 10.5l.1-.4.3.1v-.1l-.3-.1.1-.3h-.1l-.1.3-.3-.1v.1l.3.1-.1.3zM34.4 10.7v-.4l.4.1v-.1h-.3v-.4h-.1v.3H34v.1h.3v.4zM35 9l-.3-.1v-.3l-.1.3-.3-.1-.1.1.4.1-.1.3h.1l.1-.3.3.1zM30.7 8.7h-.3l.1-.4h-.1l-.1.4-.3-.1v.1l.3.1-.1.3h.1l.1-.3h.3zM30.1 10.5l.1-.4.3.1v-.1l-.3-.1v-.3h-.1v.3l-.3-.1-.1.1.4.1-.1.3zM31.5 10.7v-.4l.3.1.1-.1h-.4l.1-.4h-.1l-.1.3h-.3v.1h.3v.4zM32.1 9l-.3-.1v-.3h-.1v.3l-.4-.1v.1l.3.1v.3h.1V9l.4.1zM27.8 8.7h-.3v-.4h-.1v.4l-.3-.1-.1.1.4.1-.1.3h.1l.1-.3h.3zM27.2 10.5v-.4l.4.1v-.1l-.4-.1.1-.3h-.1l-.1.3-.3-.1v.1l.3.1v.3zM28.5 10.7l.1-.4.3.1v-.1h-.3l.1-.4h-.1l-.1.3h-.3v.1h.3l-.1.4zM29.2 9l-.4-.1.1-.3h-.1l-.1.3-.3-.1v.1l.3.1v.3h.1V9l.3.1zM24.9 8.7h-.4l.1-.4h-.1l-.1.4-.3-.1v.1l.3.1v.3h.1v-.3h.4zM24.2 10.5l.1-.4.3.1v-.1l-.3-.1.1-.3h-.1l-.1.3-.3-.1v.1l.3.1-.1.3zM25.6 10.7l.1-.4.3.1v-.1h-.3v-.4h-.1v.3h-.4v.1h.4l-.1.4zM26.2 9l-.3-.1.1-.3h-.1l-.1.3-.3-.1v.1l.3.1-.1.3h.1l.1-.3.3.1zM21.5 9.1l.1-.3h.3v-.1h-.3l.1-.4h-.1l-.1.4-.3-.1v.1l.3.1-.1.3zM21.3 10.5l.1-.4.3.1v-.1l-.3-.1v-.3h-.1v.3l-.3-.1v.1l.3.1-.1.3zM22.7 10.7v-.4l.4.1v-.1h-.4l.1-.4h-.1l-.1.3h-.3v.1h.3v.4zM23.3 9l-.3-.1v-.3h-.1v.3l-.4-.1v.1l.4.1-.1.3h.1L23 9l.3.1zM35 6.2l.1-.4.3.1v-.1l-.3-.1v-.3l-.1.3h-.3l.3.1-.1.3zM34.4 7.1h.4l-.1.4h.1v-.3h.4v-.1h-.3v-.4h-.1v.4l-.4-.1zM32.1 6.2v-.4l.4.1v-.1l-.3-.1v-.3h-.1v.3h-.4l.4.1-.1.3zM31.5 7.1h.3v.4h.1v-.3h.3l.1-.1h-.4l.1-.4h-.1l-.1.4-.3-.1zM33.2 7v.3l-.3-.1-.1.1.4.1-.1.3h.1l.1-.3h.3l-.3-.1V7zM33.8 6h-.3l.1-.4h-.1l-.1.3h-.3V6h.3l-.1.4h.1l.1-.3h.3zM29.2 6.2v-.4l.3.1.1-.1-.4-.1.1-.3h-.1l-.1.3h-.3l.3.1v.3zM28.6 7.1h.3l-.1.4h.1l.1-.3h.3v-.1H29l.1-.4H29l-.1.4-.3-.1zM30.3 7v.3l-.4-.1v.1l.3.1v.3h.1v-.3h.4l-.3-.1V7zM30.9 6h-.3v-.4h-.1v.3h-.3l-.1.1h.4l-.1.4h.1l.1-.3h.3zM26.2 6.2l.1-.4.3.1v-.1l-.3-.1.1-.3h-.1l-.1.3h-.3l.3.1-.1.3zM25.6 7.1h.4l-.1.4h.1l.1-.3h.3v-.1h-.3v-.4H26v.4l-.4-.1zM27.4 7l-.1.3-.3-.1v.1l.3.1v.3h.1v-.3h.4l-.4-.1.1-.3zM28 6h-.3v-.4h-.1v.3h-.4V6h.3v.4h.1v-.3h.4zM23.3 6.2l.1-.4.3.1v-.1l-.3-.1v-.3h-.1v.3h-.4l.4.1-.1.3zM22.7 7.1h.3v.4h.1v-.3h.4v-.1h-.4l.1-.4h-.1l-.1.4-.3-.1zM24.5 7l-.1.3-.3-.1v.1l.3.1-.1.3h.1l.1-.3h.3l-.3-.1.1-.3zM25.1 6h-.4l.1-.4h-.1l-.1.3h-.3V6h.3v.4h.1v-.3h.3zM21.4 7.7h.1l.1-.3h.3l-.3-.1V7h-.1v.3l-.4-.1v.1l.4.1zM22.1 6h-.3l.1-.4h-.1l-.1.3h-.3V6h.3l-.1.4h.1l.1-.3h.3zM34.2 2.8h-.3l.1-.4h-.1l-.1.4-.3-.1v.1l.3.1-.1.3h.1l.1-.3h.3zM34 4.2l-.3-.1v-.3l-.1.3h-.3l.3.1-.1.3.1.1.1-.4.3.1zM34.6 4.4h.3v.4h.1v-.4l.4.1v-.1H35l.1-.4H35l-.1.3h-.3zM35.1 3.4h.1l.1-.3.3.1v-.1l-.3-.1v-.3h-.1V3l-.3-.1-.1.1.4.1zM31.3 2.8H31v-.4l-.1.4-.3-.1v.1l.3.1-.1.3h.1l.1-.3h.3zM31.1 4.2l-.3-.1v-.3h-.1v.3h-.4l.3.1v.3l.1.1v-.4l.4.1zM31.7 4.4h.3l-.1.4h.1l.1-.4.3.1v-.1h-.3l.1-.4h-.1l-.1.3h-.3zM32.2 3.4h.1v-.3l.4.1v-.1l-.4-.1.1-.3h-.1l-.1.3-.3-.1V3l.3.1zM28.4 2.8h-.3v-.4H28v.4l-.4-.1v.1l.3.1v.3h.1v-.3h.4zM28.2 4.2l-.4-.1.1-.3h-.1l-.1.3h-.3l.3.1v.3l.1.1v-.4l.3.1zM28.7 4.4h.4l-.1.4h.1l.1-.4.3.1v-.1h-.3V4h-.1v.3h-.3zM29.2 3.4h.1l.1-.3.3.1v-.1l-.3-.1.1-.3h-.1l-.1.3-.3-.1V3l.3.1zM25.5 2.8h-.4l.1-.4h-.1l-.1.4-.3-.1v.1l.3.1v.3h.1v-.3h.3zM25.2 4.2l-.3-.1.1-.3h-.1l-.1.3h-.3l.3.1-.1.3.1.1.1-.4.3.1zM25.8 4.4h.3v.4h.1v-.4l.4.1v-.1h-.3V4h-.1v.3h-.4zM26.3 3.4h.1l.1-.3.3.1v-.1l-.3-.1v-.3h-.1V3l-.3-.1-.1.1.4.1zM22.5 2.8h-.3l.1-.4h-.1l-.1.4-.3-.1v.1l.3.1-.1.3h.1l.1-.3h.3zM22.3 4.2l-.3-.1v-.3h-.1v.3h-.4l.4.1-.1.3.1.1.1-.4.3.1zM22.9 4.4h.3v.4h.1v-.4l.3.1.1-.1h-.4l.1-.4h-.1l-.1.3h-.3zM23.4 3.4h.1v-.3l.4.1v-.1l-.3-.1v-.3h-.1V3l-.4-.1V3l.3.1zM35.6.3v-.6.1h-.3l-.1.1h.4l-.1.4zM35.4 1.6v-.3h.2v-.1h-.2l.1-.4h-.1v.4l-.4-.1v.1l.3.1v.3zM32.8-.5h-.1v.3h-.4v.1h.3v.4h.1v-.4l.4.1v-.1l-.4-.1zM32.4 1.6l.1-.3h.3v-.1h-.3l.1-.4h-.1l-.1.4-.3-.1v.1l.3.1-.1.3zM33.4 1.4l.4.1-.1.3h.1l.1-.3.3.1v-.1l-.3-.1v-.3h-.1v.3l-.4-.1zM34.1-.3l-.1.4-.3-.1v.1h.3l-.1.4h.1l.1-.3h.3V.1h-.3l.1-.4zM29.9-.5h-.1l-.1.3h-.3v.1h.3l-.1.4h.1l.1-.4.3.1v-.1l-.3-.1zM29.5 1.6l.1-.3h.3v-.1h-.3V.8l-.1.4-.3-.1v.1l.3.1-.1.3zM30.5 1.4l.3.1v.3h.1v-.3l.4.1v-.1l-.4-.1.1-.3h-.1l-.1.3-.3-.1zM31.1-.3v.4l-.4-.1v.1h.4l-.1.4h.1l.1-.3h.3V.1h-.3v-.4zM26.9-.5l-.1.3h-.3v.1h.3l-.1.4h.1l.1-.4.3.1v-.1l-.3-.1zM26.6 1.6v-.3h.4v-.1h-.3V.8h-.1v.4l-.4-.1v.1l.3.1v.3zM27.6 1.4l.3.1-.1.3h.1l.1-.3.3.1v-.1l-.3-.1.1-.3H28l-.1.3-.3-.1zM28.2-.3l-.1.4-.3-.1v.1h.3v.4h.1V.2h.4V.1h-.4l.1-.4zM24-.5h-.1v.3h-.4v.1h.3v.4h.1v-.4l.4.1v-.1L24-.2zM23.7 1.6v-.3h.3l.1-.1h-.4l.1-.4h-.1l-.1.4-.3-.1v.1l.3.1v.3zM24.6 1.4l.4.1-.1.3h.1l.1-.3.3.1v-.1l-.3-.1v-.3H25v.3l-.3-.1zM25.3-.3l-.1.4-.3-.1v.1h.3l-.1.4h.1l.1-.3h.3V.1h-.3l.1-.4zM21-.1l.3.1.1-.1-.4-.1.1-.3H21v.8zM21.1 1.2H21v.1h.1zM21.7 1.4l.3.1v.3h.1v-.3l.4.1v-.1l-.3-.1v-.3h-.1v.3l-.4-.1zM22.3-.3v.4L22 0l-.1.1h.4l-.1.4h.1l.1-.3h.3V.1h-.3v-.4zM34.5-3.4l-.1.3-.3-.1v.1l.3.1-.1.3h.1l.1-.3h.3l-.3-.1.1-.3zM34.2-2.1v.3h-.3l-.1.1h.4l-.1.4h.1l.1-.4.3.1v-.1l-.3-.1v-.3zM35.5-1.5l-.3-.1v.1h.3v.4h.1v-.8zM35.4-2.9l.2.1v-.1h-.2zM31.5-3.4v.3l-.3-.1-.1.1.4.1-.1.3h.1l.1-.3h.3l-.3-.1v-.3zM31.3-2.1v.3h-.4v.1h.3v.4h.1v-.4l.4.1v-.1l-.4-.1.1-.3zM32.3-1.5h.3l-.1.4h.1l.1-.3h.3v-.1h-.3l.1-.4h-.1l-.1.4-.3-.1zM32.9-3.2l-.1.3h-.3l.3.1v.3l.1.1v-.4l.3.1.1-.1-.4-.1.1-.3zM28.6-3.4v.3l-.4-.1v.1l.3.1v.3h.1V-3h.4l-.4-.1.1-.3zM28.4-2.1l-.1.3H28v.1h.3l-.1.4h.1l.1-.4.3.1v-.1l-.3-.1.1-.3zM29.3-1.5h.4l-.1.4h.1l.1-.3h.3v-.1h-.3v-.4h-.1v.4l-.4-.1zM30-3.2l-.1.3h-.3l.3.1-.1.3.1.1.1-.4.3.1v-.1l-.3-.1.1-.3zM25.7-3.4l-.1.3-.3-.1v.1l.3.1-.1.3h.1l.1-.3h.3l-.3-.1.1-.3zM25.4-2.1v.3h-.3l-.1.1h.4l-.1.4h.1l.1-.4.3.1v-.1l-.3-.1v-.3zM26.4-1.5h.3v.4h.1v-.3h.4v-.1h-.4l.1-.4h-.1l-.1.4-.3-.1zM27-3.2v.3h-.4l.4.1-.1.3.1.1.1-.4.3.1v-.1l-.3-.1v-.3zM22.7-3.4v.3l-.3-.1-.1.1.4.1-.1.3h.1l.1-.3h.3l-.3-.1v-.3zM22.5-2.1v.3h-.4v.1h.3v.4h.1v-.4l.4.1v-.1l-.3-.1v-.3zM23.5-1.5h.3l-.1.4h.1l.1-.3h.3v-.1h-.3l.1-.4h-.1l-.1.4-.3-.1zM24.1-3.2l-.1.3h-.3l.3.1v.3l.1.1v-.4l.4.1v-.1l-.4-.1.1-.3zM21-1.9v.5h.3v-.1H21v-.4zM21-2.8h.1l-.1.3.1.1.1-.4.3.1v-.1l-.3-.1.1-.3h-.1l-.1.3H21z"/>
    </g>
    <g>
        <path d="M34.5 26h.1-.1zM31.5 26h.1-.1zM28.6 26h.1-.1zM25.7 26h.1-.1zM22.7 26h.1-.1zM35.6 24.7v.1zM33.7 23.5l-.4-.1.1-.3h-.1l-.1.3-.3-.1v.1l.3.1v.3h.1v-.3h.3zM33 25.2l.1-.4.3.1v-.1l-.3-.1.1-.3h-.1l-.1.3h-.3v.1h.3l-.1.4zM34.4 25.4v-.3h.4V25h-.3v-.4h-.1v.4l-.4-.1v.1l.3.1v.3zM35 23.7l-.3-.1v-.3l-.1.3h-.3l-.1.1h.4l-.1.4h.1l.1-.4.3.1zM30.7 23.5l-.3-.1.1-.3h-.1l-.1.3-.3-.1v.1l.3.1-.1.3h.1l.1-.3h.3zM30.1 25.2l.1-.4.3.1v-.1l-.3-.1v-.3h-.1v.3h-.3l-.1.1h.4l-.1.4zM31.5 25.4v-.3h.3l.1-.1h-.4l.1-.4h-.1l-.1.4-.3-.1v.1l.3.1v.3zM32.1 23.7l-.3-.1v-.3h-.1v.3h-.4v.1h.3v.4h.1v-.4l.4.1zM27.8 23.5l-.3-.1v-.3h-.1v.3l-.3-.1-.1.1.4.1-.1.3h.1l.1-.3h.3zM27.2 25.2v-.4l.4.1v-.1l-.4-.1.1-.3h-.1l-.1.3h-.3v.1h.3v.4zM28.5 25.4l.1-.3h.3V25h-.3l.1-.4h-.1l-.1.4-.3-.1v.1l.3.1-.1.3zM29.2 23.7l-.4-.1.1-.3h-.1l-.1.3h-.3v.1h.3v.4h.1v-.4l.3.1zM24.9 23.5l-.4-.1.1-.3h-.1l-.1.3-.3-.1v.1l.3.1v.3h.1v-.3h.4zM24.2 25.2l.1-.4.3.1v-.1l-.3-.1.1-.3h-.1l-.1.3h-.3v.1h.3l-.1.4zM25.6 25.4l.1-.3h.3V25h-.3v-.4h-.1v.4l-.4-.1v.1l.4.1-.1.3zM26.2 23.7l-.3-.1.1-.3h-.1l-.1.3h-.3v.1h.3l-.1.4h.1l.1-.4.3.1zM21.5 23.8l.1-.3h.3l-.3-.1.1-.3h-.1l-.1.3-.3-.1v.1l.3.1-.1.3zM21.3 25.2l.1-.4.3.1v-.1l-.3-.1v-.3h-.1v.3H21v.1h.3l-.1.4zM22.7 25.4v-.3h.4V25h-.4l.1-.4h-.1l-.1.4-.3-.1v.1l.3.1v.3zM23.3 23.7l-.3-.1v-.3h-.1v.3h-.4v.1h.4l-.1.4h.1l.1-.4.3.1zM35 20.9l.1-.4.3.1v-.1h-.3v-.4l-.1.3h-.3v.1h.3l-.1.4zM34.4 21.8l.4.1-.1.3h.1v-.3h.4l-.3-.1v-.3l-.1-.1v.4l-.4-.1zM32.1 20.9v-.4l.4.1v-.1h-.3v-.4h-.1v.3h-.4v.1h.4l-.1.4zM31.5 21.8l.3.1v.3h.1v-.3h.4l-.4-.1.1-.3-.1-.1-.1.4-.3-.1zM33.2 21.7v.3h-.4l.4.1-.1.3.1.1.1-.4.3.1v-.1l-.3-.1v-.3zM33.8 20.7h-.3l.1-.3-.1-.1-.1.4-.3-.1v.1l.3.1-.1.3h.1l.1-.3h.3zM29.2 20.9v-.4l.3.1.1-.1h-.4l.1-.4h-.1l-.1.3h-.3v.1h.3v.4zM28.6 21.8l.3.1-.1.3h.1l.1-.3h.3l-.3-.1.1-.3-.1-.1-.1.4-.3-.1zM30.3 21.7v.3h-.4l.3.1v.3l.1.1v-.4l.4.1v-.1l-.3-.1v-.3zM30.9 20.7h-.3v-.3l-.1-.1v.4l-.3-.1-.1.1.4.1-.1.3h.1l.1-.3h.3zM26.2 20.9l.1-.4.3.1v-.1h-.3l.1-.4h-.1l-.1.3h-.3v.1h.3l-.1.4zM25.6 21.8l.4.1-.1.3h.1l.1-.3h.3l-.3-.1v-.3l-.1-.1v.4l-.4-.1zM27.4 21.7l-.1.3H27l.3.1v.3l.1.1v-.4l.3.1.1-.1-.4-.1.1-.3zM28 20.7h-.3v-.3l-.1-.1v.4l-.4-.1v.1l.3.1v.3h.1v-.3h.4zM23.3 20.9l.1-.4.3.1v-.1h-.3v-.4h-.1v.3h-.4v.1h.4l-.1.4zM22.7 21.8l.3.1v.3h.1v-.3h.4l-.4-.1.1-.3-.1-.1-.1.4-.3-.1zM24.5 21.7l-.1.3h-.3l.3.1-.1.3.1.1.1-.4.3.1v-.1l-.3-.1.1-.3zM25.1 20.7h-.4l.1-.3-.1-.1-.1.4-.3-.1v.1l.3.1v.3h.1v-.3h.3zM21.4 22.4l.1.1.1-.4.3.1v-.1l-.3-.1v-.3h-.1v.3h-.4l.4.1zM22.1 20.7h-.3l.1-.3-.1-.1-.1.4-.3-.1v.1l.3.1-.1.3h.1l.1-.3h.3zM34.2 17.6l-.3-.1.1-.3h-.1l-.1.3-.3-.1v.1l.3.1-.1.3h.1l.1-.3.3.1zM34 18.9h-.3v-.4l-.1.3h-.3v.1h.3l-.1.4h.1l.1-.4.3.1zM34.6 19.1l.3.1v.3h.1v-.3h.4v-.1H35l.1-.4H35l-.1.4-.3-.1zM35.1 18.2h.1l.1-.4.3.1v-.1l-.3-.1v-.3h-.1v.3h-.3l-.1.1h.4zM31.3 17.6l-.3-.1v-.3l-.1.3-.3-.1v.1l.3.1-.1.3h.1l.1-.3.3.1zM31.1 18.9h-.3v-.4h-.1v.3h-.4v.1h.3v.4h.1v-.4l.4.1zM31.7 19.1l.3.1-.1.3h.1l.1-.3h.3v-.1h-.3l.1-.4h-.1l-.1.4-.3-.1zM32.2 18.2h.1v-.4l.4.1v-.1l-.4-.1.1-.3h-.1l-.1.3h-.3v.1h.3zM28.4 17.6l-.3-.1v-.3H28v.3l-.4-.1v.1l.3.1v.3h.1v-.3l.4.1zM28.2 18.9h-.4l.1-.4h-.1l-.1.3h-.3v.1h.3v.4h.1v-.4l.3.1zM28.7 19.1l.4.1-.1.3h.1l.1-.3h.3v-.1h-.3v-.4h-.1v.4l-.3-.1zM29.2 18.2h.1l.1-.4.3.1v-.1l-.3-.1.1-.3h-.1l-.1.3H29v.1h.3zM25.5 17.6l-.4-.1.1-.3h-.1l-.1.3-.3-.1v.1l.3.1v.3h.1v-.3l.3.1zM25.2 18.9h-.3l.1-.4h-.1l-.1.3h-.3v.1h.3l-.1.4h.1l.1-.4.3.1zM25.8 19.1l.3.1v.3h.1v-.3h.4v-.1h-.3v-.4h-.1v.4l-.4-.1zM26.3 18.2h.1l.1-.4.3.1v-.1l-.3-.1v-.3h-.1v.3h-.3l-.1.1h.4zM22.5 17.6l-.3-.1.1-.3h-.1l-.1.3-.3-.1v.1l.3.1-.1.3h.1l.1-.3.3.1zM22.3 18.9H22v-.4h-.1v.3h-.4v.1h.4l-.1.4h.1l.1-.4.3.1zM22.9 19.1l.3.1v.3h.1v-.3h.3l.1-.1h-.4l.1-.4h-.1l-.1.4-.3-.1zM23.4 18.2h.1v-.4l.4.1v-.1l-.3-.1v-.3h-.1v.3h-.4v.1h.3zM35.6 15v-.5.1l-.3-.1-.1.1h.4l-.1.4zM35.4 16.3V16h.2v-.1h-.2l.1-.3h-.1v.3l-.4-.1v.1l.3.1v.3zM32.8 14.2h-.1v.4l-.4-.1v.1h.3v.4h.1v-.3h.4v-.1h-.4zM32.4 16.3l.1-.3.3.1V16l-.3-.1.1-.3h-.1l-.1.3-.3-.1v.1l.3.1-.1.3zM33.4 16.2h.4l-.1.4h.1l.1-.4.3.1v-.1l-.3-.1v-.3h-.1v.3h-.4zM34.1 14.4l-.1.4-.3-.1v.1l.3.1-.1.3h.1l.1-.3h.3l-.3-.1.1-.3zM29.9 14.2h-.1l-.1.4-.3-.1v.1h.3l-.1.4h.1l.1-.3h.3v-.1h-.3zM29.5 16.3l.1-.3.3.1V16l-.3-.1v-.3l-.1.3-.3-.1v.1l.3.1-.1.3zM30.5 16.2h.3v.4h.1v-.4l.4.1v-.1l-.4-.1.1-.3h-.1l-.1.3h-.3zM31.1 14.4v.4l-.4-.1v.1l.4.1-.1.3h.1l.1-.3h.3l-.3-.1v-.3zM26.9 14.2l-.1.4-.3-.1v.1h.3l-.1.4h.1l.1-.3h.3v-.1h-.3zM26.6 16.3V16l.4.1V16l-.3-.1v-.3h-.1v.3l-.4-.1v.1l.3.1v.3zM27.6 16.2h.3l-.1.4h.1l.1-.4.3.1v-.1l-.3-.1.1-.3H28l-.1.3h-.3zM28.2 14.4l-.1.4-.3-.1v.1l.3.1v.3h.1v-.3h.4l-.4-.1.1-.3zM24 14.2h-.1v.4l-.4-.1v.1h.3v.4h.1v-.3h.4v-.1H24zM23.7 16.3V16l.3.1.1-.1-.4-.1.1-.3h-.1l-.1.3-.3-.1v.1l.3.1v.3zM24.6 16.2h.4l-.1.4h.1l.1-.4.3.1v-.1l-.3-.1v-.3H25v.3h-.3zM25.3 14.4l-.1.4-.3-.1v.1l.3.1-.1.3h.1l.1-.3h.3l-.3-.1.1-.3zM21 14.7h.3l.1-.1H21l.1-.4H21v.8zM21.1 16l-.1-.1v.1l.1.1zM21.7 16.2h.3v.4h.1v-.4l.4.1v-.1l-.3-.1v-.3h-.1v.3h-.4zM22.3 14.4v.4l-.3-.1-.1.1.4.1-.1.3h.1l.1-.3h.3l-.3-.1v-.3zM34.5 11.3l-.1.3h-.3l.3.1-.1.3.1.1.1-.4.3.1v-.1l-.3-.1.1-.3zM34.2 12.6v.3h-.3l-.1.1h.4l-.1.4h.1l.1-.3h.3V13h-.3v-.4zM35.5 13.2l-.3-.1v.1l.3.1v.3h.1v-.8zM35.4 11.9h.2v-.1h-.2zM31.5 11.3v.3h-.4l.4.1-.1.3.1.1.1-.4.3.1v-.1l-.3-.1v-.3zM31.3 12.6v.3h-.4v.1h.3v.4h.1v-.3h.4V13h-.4l.1-.4zM32.3 13.2l.3.1-.1.3h.1l.1-.3h.3l-.3-.1.1-.3-.1-.1-.1.4-.3-.1zM32.9 11.5l-.1.3h-.3v.1h.3v.4h.1v-.4l.3.1.1-.1h-.4l.1-.4zM28.6 11.3v.3h-.4l.3.1v.3l.1.1v-.4l.4.1v-.1l-.4-.1.1-.3zM28.4 12.6l-.1.3H28v.1h.3l-.1.4h.1l.1-.3h.3V13h-.3l.1-.4zM29.3 13.2l.4.1-.1.3h.1l.1-.3h.3l-.3-.1v-.3l-.1-.1v.4l-.4-.1zM30 11.5l-.1.3h-.3v.1h.3l-.1.4h.1l.1-.4.3.1v-.1H30l.1-.4zM25.7 11.3l-.1.3h-.3l.3.1-.1.3.1.1.1-.4.3.1v-.1l-.3-.1.1-.3zM25.4 12.6v.3h-.3l-.1.1h.4l-.1.4h.1l.1-.3h.3V13h-.3v-.4zM26.4 13.2l.3.1v.3h.1v-.3h.4l-.4-.1.1-.3-.1-.1-.1.4-.3-.1zM27 11.5v.3h-.4v.1h.4l-.1.4h.1l.1-.4.3.1v-.1h-.3v-.4zM22.7 11.3v.3h-.4l.4.1-.1.3.1.1.1-.4.3.1v-.1l-.3-.1v-.3zM22.5 12.6v.3h-.4v.1h.3v.4h.1v-.3h.4V13h-.3v-.4zM23.5 13.2l.3.1-.1.3h.1l.1-.3h.3l-.3-.1.1-.3-.1-.1-.1.4-.3-.1zM24.1 11.5l-.1.3h-.3v.1h.3v.4h.1v-.4l.4.1v-.1h-.4l.1-.4zM21 12.8v.6-.1h.3l-.3-.1v-.3zM21 11.9h.1l-.1.4h.1l.1-.4.3.1v-.1h-.3l.1-.4h-.1l-.1.3H21z"/>
    </g>
    <g>
        <path d="M34.5 40.7h.1-.1zM31.5 40.7h.1-.1zM28.6 40.7h.1-.1zM25.7 40.7h.1-.1zM22.7 40.7h.1-.1zM35.6 39.5zM33.7 38.2l-.4-.1.1-.3h-.1l-.1.3h-.3l.3.1v.3l.1.1v-.4l.3.1zM33 39.9l.1-.3h.3v-.1h-.3l.1-.4h-.1l-.1.4-.3-.1v.1h.3l-.1.4zM34.4 40.1v-.3h.4l-.3-.1v-.3h-.1v.3l-.4-.1v.1l.3.1v.3zM35 38.4h-.3V38l-.1.3h-.3l-.1.1h.4l-.1.4h.1l.1-.3h.3zM30.7 38.2l-.3-.1.1-.3h-.1l-.1.3H30l.3.1-.1.3.1.1.1-.4.3.1zM30.1 39.9l.1-.3h.3v-.1h-.3v-.4h-.1v.4l-.3-.1-.1.1h.4l-.1.4zM31.5 40.1v-.3h.4l-.4-.1.1-.3h-.1l-.1.3-.3-.1v.1l.3.1v.3zM32.1 38.4h-.3V38h-.1v.3h-.4v.1h.3v.4h.1v-.3h.4zM27.8 38.2l-.3-.1v-.3h-.1v.3H27l.4.1-.1.3.1.1.1-.4.3.1zM27.2 39.9v-.3h.4v-.1h-.4l.1-.4h-.1l-.1.4-.3-.1v.1h.3v.4zM28.5 40.1l.1-.3h.3l-.3-.1.1-.3h-.1l-.1.3-.3-.1v.1l.3.1-.1.3zM29.2 38.4h-.4l.1-.4h-.1l-.1.3h-.3v.1h.3v.4h.1v-.3h.3zM24.9 38.2l-.4-.1.1-.3h-.1l-.1.3h-.3l.3.1v.3l.1.1v-.4l.4.1zM24.2 39.9l.1-.3h.3v-.1h-.3l.1-.4h-.1l-.1.4-.3-.1v.1h.3l-.1.4zM25.6 40.1l.1-.3h.3l-.3-.1v-.3h-.1v.3l-.4-.1v.1l.4.1-.1.3zM26.2 38.4h-.3l.1-.4h-.1l-.1.3h-.3v.1h.3l-.1.4h.1l.1-.3h.3zM21.5 38.6l.1-.4.3.1v-.1l-.3-.1.1-.3h-.1l-.1.3h-.3l.3.1-.1.3zM21.3 39.9l.1-.3h.3v-.1h-.3v-.4h-.1v.4l-.3-.1v.1h.3l-.1.4zM22.7 40.1v-.3h.4l-.4-.1.1-.3h-.1l-.1.3-.3-.1v.1l.3.1v.3zM23.3 38.4H23V38h-.1v.3h-.4v.1h.4l-.1.4h.1l.1-.3h.3zM35 35.6l.1-.3h.3v-.1h-.3v-.4l-.1.4-.3-.1v.1l.3.1-.1.3zM34.4 36.5l.4.1-.1.3.1.1v-.4l.4.1v-.1l-.3-.1v-.3h-.1v.3h-.4zM32.1 35.6v-.3h.4v-.1h-.3v-.4h-.1v.4l-.4-.1v.1l.4.1-.1.3zM31.5 36.5l.3.1v.3l.1.1v-.4l.3.1.1-.1-.4-.1.1-.3h-.1l-.1.3h-.3zM33.2 36.4v.3h-.3l-.1.1h.4l-.1.4h.1l.1-.4.3.1v-.1h-.3v-.4zM33.8 35.5l-.3-.1.1-.3h-.1l-.1.3-.3-.1v.1l.3.1-.1.3h.1l.1-.3.3.1zM29.2 35.6v-.3h.3l.1-.1h-.4l.1-.4h-.1l-.1.4-.3-.1v.1l.3.1v.3zM28.6 36.5l.3.1-.1.3.1.1.1-.4.3.1v-.1l-.3-.1.1-.3H29l-.1.3h-.3zM30.3 36.4v.3h-.4v.1h.3v.4h.1v-.4l.4.1v-.1h-.3v-.4zM30.9 35.5l-.3-.1v-.3h-.1v.3l-.3-.1-.1.1.4.1-.1.3h.1l.1-.3.3.1zM26.2 35.6l.1-.3h.3v-.1h-.3l.1-.4h-.1l-.1.4-.3-.1v.1l.3.1-.1.3zM25.6 36.5l.4.1-.1.3.1.1.1-.4.3.1v-.1l-.3-.1v-.3H26v.3h-.4zM27.4 36.4l-.1.3H27v.1h.3v.4h.1v-.4l.3.1.1-.1h-.4l.1-.4zM28 35.5l-.3-.1v-.3h-.1v.3l-.4-.1v.1l.3.1v.3h.1v-.3l.4.1zM23.3 35.6l.1-.3h.3v-.1h-.3v-.4h-.1v.4l-.4-.1v.1l.4.1-.1.3zM22.7 36.5l.3.1v.3l.1.1v-.4l.4.1v-.1l-.4-.1.1-.3h-.1l-.1.3h-.3zM24.5 36.4l-.1.3h-.3v.1h.3l-.1.4h.1l.1-.4.3.1v-.1h-.3l.1-.4zM25.1 35.5l-.4-.1.1-.3h-.1l-.1.3-.3-.1v.1l.3.1v.3h.1v-.3l.3.1zM21.4 37.2h.1l.1-.4.3.1v-.1h-.3v-.4h-.1v.3h-.4v.1h.4zM22.1 35.5l-.3-.1.1-.3h-.1l-.1.3-.3-.1v.1l.3.1-.1.3h.1l.1-.3.3.1zM34.2 32.3l-.3-.1.1-.3h-.1l-.1.3h-.3v.1h.3l-.1.4h.1l.1-.4.3.1zM34 33.6h-.3v-.4l-.1.4-.3-.1v.1l.3.1-.1.3h.1l.1-.3h.3zM34.6 33.8l.3.1v.3h.1v-.3l.4.1v-.1l-.4-.1.1-.3H35l-.1.3-.3-.1zM35.1 32.9h.1l.1-.3h.3v-.1h-.3v-.4h-.1v.4l-.3-.1-.1.1h.4zM31.3 32.3l-.3-.1v-.3l-.1.3h-.3v.1h.3l-.1.4h.1l.1-.4.3.1zM31.1 33.6h-.3v-.4h-.1v.4l-.4-.1v.1l.3.1v.3h.1v-.3h.4zM31.7 33.8l.3.1-.1.3h.1l.1-.3.3.1v-.1l-.3-.1.1-.3h-.1l-.1.3-.3-.1zM32.2 32.9h.1v-.3h.4v-.1h-.4l.1-.4h-.1l-.1.4-.3-.1v.1h.3zM28.4 32.3l-.3-.1v-.3H28v.3h-.4v.1h.3v.4h.1v-.4l.4.1zM28.2 33.6h-.4l.1-.4h-.1l-.1.4-.3-.1v.1l.3.1v.3h.1v-.3h.3zM28.7 33.8l.4.1-.1.3h.1l.1-.3.3.1v-.1l-.3-.1v-.3h-.1v.3l-.3-.1zM29.2 32.9h.1l.1-.3h.3v-.1h-.3l.1-.4h-.1l-.1.4-.3-.1v.1h.3zM25.5 32.3l-.4-.1.1-.3h-.1l-.1.3h-.3v.1h.3v.4h.1v-.4l.3.1zM25.2 33.6h-.3l.1-.4h-.1l-.1.4-.3-.1v.1l.3.1-.1.3h.1l.1-.3h.3zM25.8 33.8l.3.1v.3h.1v-.3l.4.1v-.1l-.3-.1v-.3h-.1v.3l-.4-.1zM26.3 32.9h.1l.1-.3h.3v-.1h-.3v-.4h-.1v.4l-.3-.1-.1.1h.4zM22.5 32.3l-.3-.1.1-.3h-.1l-.1.3h-.3v.1h.3l-.1.4h.1l.1-.4.3.1zM22.3 33.6H22v-.4h-.1v.4l-.4-.1v.1l.4.1-.1.3h.1l.1-.3h.3zM22.9 33.8l.3.1v.3h.1v-.3l.3.1.1-.1-.4-.1.1-.3h-.1l-.1.3-.3-.1zM23.4 32.9h.1v-.3h.4v-.1h-.3v-.4h-.1v.4l-.4-.1v.1h.3zM35.6 29.7v-.5.1l-.3-.1-.1.1.4.1-.1.3zM35.4 31.1v-.4l.2.1v-.1l-.2-.1.1-.3h-.1v.3H35v.1h.3v.4zM32.8 29l-.1-.1v.4l-.4-.1v.1l.3.1v.3h.1v-.3h.4l-.4-.1zM32.4 31.1l.1-.4.3.1v-.1l-.3-.1.1-.3h-.1l-.1.3h-.3v.1h.3l-.1.4zM33.4 30.9h.4l-.1.4h.1l.1-.3h.3v-.1h-.3v-.4h-.1v.4l-.4-.1zM34.1 29.2l-.1.3h-.3l.3.1-.1.3.1.1.1-.4.3.1v-.1l-.3-.1.1-.3zM29.9 29l-.1-.1-.1.4-.3-.1v.1l.3.1-.1.3h.1l.1-.3h.3l-.3-.1zM29.5 31.1l.1-.4.3.1v-.1l-.3-.1v-.3l-.1.3h-.3v.1h.3l-.1.4zM30.5 30.9h.3v.4h.1V31h.4v-.1h-.4l.1-.4h-.1l-.1.4-.3-.1zM31.1 29.2v.3h-.4l.4.1-.1.3.1.1.1-.4.3.1v-.1l-.3-.1v-.3zM26.9 29v-.1l-.1.4-.3-.1v.1l.3.1-.1.3h.1l.1-.3h.3l-.3-.1zM26.6 31.1v-.4l.4.1v-.1l-.3-.1v-.3h-.1v.3h-.4v.1h.3v.4zM27.6 30.9h.3l-.1.4h.1l.1-.3h.3v-.1H28l.1-.4H28l-.1.4-.3-.1zM28.2 29.2l-.1.3h-.3l.3.1v.3l.1.1v-.4l.4.1v-.1l-.4-.1.1-.3zM24 29l-.1-.1v.4l-.4-.1v.1l.3.1v.3h.1v-.3h.4l-.3-.1zM23.7 31.1v-.4l.3.1.1-.1-.4-.1.1-.3h-.1l-.1.3h-.3v.1h.3v.4zM24.6 30.9h.4l-.1.4h.1l.1-.3h.3v-.1h-.3v-.4H25v.4l-.3-.1zM25.3 29.2l-.1.3h-.3l.3.1-.1.3.1.1.1-.4.3.1v-.1l-.3-.1.1-.3zM21 29.4h.4l-.4-.1.1-.3-.1-.1v.8zM21.1 30.7H21v.1h.1zM21.7 30.9h.3v.4h.1V31h.4v-.1h-.3v-.4h-.1v.4l-.4-.1zM22.3 29.2v.3h-.4l.4.1-.1.3.1.1.1-.4.3.1v-.1l-.3-.1v-.3zM34.5 26l-.1.3h-.3v.1h.3l-.1.4h.1l.1-.4.3.1v-.1h-.3l.1-.4zM34.2 27.3v.4l-.3-.1-.1.1.4.1-.1.3h.1l.1-.3h.3v-.1h-.3v-.3zM35.5 27.9h-.3l.3.1v.3l.1.1v-.8zM35.4 26.6h.2v-.1h-.2zM31.5 26v.3h-.3l-.1.1h.4l-.1.4h.1l.1-.4.3.1v-.1h-.3V26zM31.3 27.3v.4l-.4-.1v.1l.3.1v.3h.1v-.3h.4v-.1h-.4l.1-.3zM32.3 27.9l.3.1-.1.3.1.1.1-.4.3.1V28l-.3-.1.1-.3h-.1l-.1.3h-.3zM32.9 26.2l-.1.4-.3-.1v.1l.3.1v.3h.1v-.3h.3l.1-.1h-.4l.1-.4zM28.6 26v.3h-.4v.1h.3v.4h.1v-.4l.4.1v-.1h-.4l.1-.4zM28.4 27.3l-.1.4-.3-.1v.1l.3.1-.1.3h.1l.1-.3h.3v-.1h-.3l.1-.3zM29.3 27.9l.4.1-.1.3.1.1.1-.4.3.1V28l-.3-.1v-.3h-.1v.3h-.4zM30 26.2l-.1.4-.3-.1v.1l.3.1-.1.3h.1l.1-.3h.3v-.1H30l.1-.4zM25.7 26l-.1.3h-.3v.1h.3l-.1.4h.1l.1-.4.3.1v-.1h-.3l.1-.4zM25.4 27.3v.4l-.3-.1-.1.1.4.1-.1.3h.1l.1-.3h.3v-.1h-.3v-.3zM26.4 27.9l.3.1v.3l.1.1V28l.4.1V28l-.4-.1.1-.3h-.1l-.1.3h-.3zM27 26.2v.4l-.4-.1v.1l.4.1-.1.3h.1l.1-.3h.3v-.1h-.3v-.4zM22.7 26v.3h-.3l-.1.1h.4l-.1.4h.1l.1-.4.3.1v-.1h-.3V26zM22.5 27.3v.4l-.4-.1v.1l.3.1v.3h.1v-.3h.4v-.1h-.3v-.3zM23.5 27.9l.3.1-.1.3.1.1.1-.4.3.1V28l-.3-.1.1-.3h-.1l-.1.3h-.3zM24.1 26.2l-.1.4-.3-.1v.1l.3.1v.3h.1v-.3h.4v-.1h-.4l.1-.4zM21 27.6v.5-.1l.3.1V28l-.3-.1v-.3zM21 26.6l.1.1-.1.3h.1l.1-.3h.3v-.1h-.3l.1-.4h-.1l-.1.4-.1-.1z"/>
    </g>
    <g>
        <path d="M34.5 55.5h.1-.1zM31.5 55.5h.1-.1zM28.6 55.5h.1-.1zM25.7 55.5h.1-.1zM22.7 55.5h.1-.1zM35.6 54.2zM33.7 52.9h-.4l.1-.4h-.1l-.1.3h-.3v.1h.3v.4h.1v-.4l.3.1zM33 54.6l.1-.3h.3l-.3-.1.1-.3-.1-.1-.1.4-.3-.1v.1l.3.1-.1.3zM34.4 54.9v-.4l.4.1v-.1l-.3-.1v-.3h-.1v.3H34l.3.1v.3zM35 53.1h-.3v-.4l-.1.4-.3-.1-.1.1.4.1-.1.3h.1l.1-.3h.3zM30.7 52.9h-.3l.1-.4h-.1l-.1.3H30v.1h.3l-.1.4h.1l.1-.4.3.1zM30.1 54.6l.1-.3h.3l-.3-.1v-.3l-.1-.1v.4l-.3-.1-.1.1.4.1-.1.3zM31.5 54.9v-.4l.3.1.1-.1-.4-.1.1-.3h-.1l-.1.3h-.3l.3.1v.3zM32.1 53.1h-.3v-.3l-.1-.1v.4l-.4-.1v.1l.3.1v.3h.1v-.3h.4zM27.8 52.9h-.3v-.4h-.1v.3h-.3l-.1.1h.4l-.1.4h.1l.1-.4.3.1zM27.2 54.6v-.3h.4l-.4-.1.1-.3-.1-.1-.1.4-.3-.1v.1l.3.1v.3zM28.5 54.9l.1-.4.3.1v-.1l-.3-.1.1-.3h-.1l-.1.3h-.3l.3.1-.1.3zM29.2 53.1h-.4l.1-.3-.1-.1-.1.4-.3-.1v.1l.3.1v.3h.1v-.3h.3zM24.9 52.9h-.4l.1-.4h-.1l-.1.3h-.3v.1h.3v.4h.1v-.4l.4.1zM24.2 54.6l.1-.3h.3l-.3-.1.1-.3-.1-.1-.1.4-.3-.1v.1l.3.1-.1.3zM25.6 54.9l.1-.4.3.1v-.1l-.3-.1v-.3h-.1v.3h-.4l.4.1-.1.3zM26.2 53.1h-.3l.1-.3-.1-.1-.1.4-.3-.1v.1l.3.1-.1.3h.1l.1-.3h.3zM21.5 53.3l.1-.4.3.1v-.1h-.3l.1-.4h-.1l-.1.3h-.3v.1h.3l-.1.4zM21.3 54.6l.1-.3h.3l-.3-.1v-.3l-.1-.1v.4l-.3-.1v.1l.3.1-.1.3zM22.7 54.9v-.4l.4.1v-.1l-.4-.1.1-.3h-.1l-.1.3h-.3l.3.1v.3zM23.3 53.1H23v-.3l-.1-.1v.4l-.4-.1v.1l.4.1-.1.3h.1l.1-.3h.3zM35 50.3l.1-.3.3.1V50l-.3-.1v-.3l-.1.3-.3-.1v.1l.3.1-.1.3zM34.4 51.3h.4l-.1.4h.1v-.4l.4.1v-.1h-.3v-.4h-.1v.3h-.4zM32.1 50.3V50l.4.1V50l-.3-.1v-.3h-.1v.3l-.4-.1v.1l.4.1-.1.3zM31.5 51.3h.3v.4h.1v-.4l.3.1.1-.1h-.4l.1-.4h-.1l-.1.3h-.3zM33.2 51.1v.4l-.3-.1-.1.1.4.1-.1.3h.1l.1-.3h.3v-.1h-.3v-.4zM33.8 50.2l-.3-.1.1-.3h-.1l-.1.3h-.3v.1h.3l-.1.4h.1l.1-.4.3.1zM29.2 50.3V50l.3.1.1-.1-.4-.1.1-.3h-.1l-.1.3-.3-.1v.1l.3.1v.3zM28.6 51.3h.3l-.1.4h.1l.1-.4.3.1v-.1H29l.1-.4H29l-.1.3h-.3zM30.3 51.1v.4l-.4-.1v.1l.3.1v.3h.1v-.3h.4v-.1h-.3v-.4zM30.9 50.2l-.3-.1v-.3h-.1v.3h-.3l-.1.1h.4l-.1.4h.1l.1-.4.3.1zM26.2 50.3l.1-.3.3.1V50l-.3-.1.1-.3h-.1l-.1.3-.3-.1v.1l.3.1-.1.3zM25.6 51.3h.4l-.1.4h.1l.1-.4.3.1v-.1h-.3v-.4H26v.3h-.4zM27.4 51.1l-.1.4-.3-.1v.1l.3.1v.3h.1v-.3h.3l.1-.1h-.4l.1-.4zM28 50.2l-.3-.1v-.3h-.1v.3h-.4v.1h.3v.4h.1v-.4l.4.1zM23.3 50.3l.1-.3.3.1V50l-.3-.1v-.3h-.1v.3l-.4-.1v.1l.4.1-.1.3zM22.7 51.3h.3v.4h.1v-.4l.4.1v-.1h-.4l.1-.4h-.1l-.1.3h-.3zM24.5 51.1l-.1.4-.3-.1v.1l.3.1-.1.3h.1l.1-.3h.3v-.1h-.3l.1-.4zM25.1 50.2l-.4-.1.1-.3h-.1l-.1.3h-.3v.1h.3v.4h.1v-.4l.3.1zM21.4 51.9h.1l.1-.3h.3v-.1h-.3v-.4h-.1v.4l-.4-.1v.1l.4.1zM22.1 50.2l-.3-.1.1-.3h-.1l-.1.3h-.3v.1h.3l-.1.4h.1l.1-.4.3.1zM34.2 47h-.3l.1-.4h-.1l-.1.4-.3-.1v.1h.3l-.1.4h.1l.1-.3h.3zM34 48.4l-.3-.1V48l-.1.3-.3-.1v.1l.3.1-.1.3h.1l.1-.3.3.1zM34.6 48.6h.3v.4h.1v-.4l.4.1v-.1l-.4-.1.1-.3H35l-.1.3h-.3zM35.1 47.6h.1l.1-.3h.3l-.3-.1v-.3l-.1-.1v.4l-.3-.1-.1.1.4.1zM31.3 47H31v-.4l-.1.4-.3-.1v.1h.3l-.1.4h.1l.1-.3h.3zM31.1 48.4l-.3-.1V48h-.1v.3l-.4-.1v.1l.3.1v.3h.1v-.3l.4.1zM31.7 48.6h.3l-.1.4h.1l.1-.4.3.1v-.1l-.3-.1.1-.3h-.1l-.1.3h-.3zM32.2 47.6h.1v-.3h.4l-.4-.1.1-.3-.1-.1-.1.4-.3-.1v.1l.3.1zM28.4 47h-.3v-.4H28v.4l-.4-.1v.1h.3v.4h.1v-.3h.4zM28.2 48.4l-.4-.1.1-.3h-.1l-.1.3-.3-.1v.1l.3.1v.3h.1v-.3l.3.1zM28.7 48.6h.4l-.1.4h.1l.1-.4.3.1v-.1l-.3-.1v-.3h-.1v.3h-.3zM29.2 47.6h.1l.1-.3h.3l-.3-.1.1-.3-.1-.1-.1.4-.3-.1v.1l.3.1zM25.5 47h-.4l.1-.4h-.1l-.1.4-.3-.1v.1h.3v.4h.1v-.3h.3zM25.2 48.4l-.3-.1.1-.3h-.1l-.1.3-.3-.1v.1l.3.1-.1.3h.1l.1-.3.3.1zM25.8 48.6h.3v.4h.1v-.4l.4.1v-.1l-.3-.1v-.3h-.1v.3h-.4zM26.3 47.6h.1l.1-.3h.3l-.3-.1v-.3l-.1-.1v.4l-.3-.1-.1.1.4.1zM22.5 47h-.3l.1-.4h-.1l-.1.4-.3-.1v.1h.3l-.1.4h.1l.1-.3h.3zM22.3 48.4l-.3-.1V48h-.1v.3l-.4-.1v.1l.4.1-.1.3h.1l.1-.3.3.1zM22.9 48.6h.3v.4h.1v-.4l.3.1.1-.1-.4-.1.1-.3h-.1l-.1.3h-.3zM23.4 47.6h.1v-.3h.4l-.3-.1v-.3l-.1-.1v.4l-.4-.1v.1l.3.1zM35.6 44.5v-.6.1h-.4l.4.1-.1.3zM35.4 45.8v-.3h.2v-.1h-.2l.1-.4h-.1v.3H35v.1h.3v.4zM32.8 43.7h-.1v.3h-.4l.3.1v.3l.1.1v-.4l.4.1v-.1l-.4-.1zM32.4 45.8l.1-.3h.3v-.1h-.3l.1-.4h-.1l-.1.3h-.3v.1h.3l-.1.4zM33.4 45.6l.4.1-.1.3h.1l.1-.3h.3l-.3-.1v-.3l-.1-.1v.4l-.4-.1zM34.1 43.9l-.1.3h-.3v.1h.3l-.1.4h.1l.1-.4.3.1v-.1h-.3l.1-.4zM29.9 43.7h-.1l-.1.3h-.3l.3.1-.1.3.1.1.1-.4.3.1v-.1l-.3-.1zM29.5 45.8l.1-.3h.3v-.1h-.3V45l-.1.3h-.3v.1h.3l-.1.4zM30.5 45.6l.3.1v.3h.1v-.3h.4l-.4-.1.1-.3-.1-.1-.1.4-.3-.1zM31.1 43.9v.3h-.4v.1h.4l-.1.4h.1l.1-.4.3.1v-.1h-.3v-.4zM26.9 43.7l-.1.3h-.3l.3.1-.1.3.1.1.1-.4.3.1v-.1l-.3-.1zM26.6 45.8v-.3h.4v-.1h-.3V45h-.1v.3h-.4v.1h.3v.4zM27.6 45.6l.3.1-.1.3h.1l.1-.3h.3l-.3-.1.1-.3-.1-.1-.1.4-.3-.1zM28.2 43.9l-.1.3h-.3v.1h.3v.4h.1v-.4l.4.1v-.1h-.4l.1-.4zM24 43.7h-.1v.3h-.4l.3.1v.3l.1.1v-.4l.4.1v-.1L24 44zM23.7 45.8v-.3h.3l.1-.1h-.4l.1-.4h-.1l-.1.3h-.3v.1h.3v.4zM24.6 45.6l.4.1-.1.3h.1l.1-.3h.3l-.3-.1v-.3l-.1-.1v.4l-.3-.1zM25.3 43.9l-.1.3h-.3v.1h.3l-.1.4h.1l.1-.4.3.1v-.1h-.3l.1-.4zM21 44.1l.3.1.1-.1-.4-.1.1-.3H21v.8zM21.1 45.4H21v.1h.1zM21.7 45.6l.3.1v.3h.1v-.3h.4l-.3-.1v-.3l-.1-.1v.4l-.4-.1zM22.3 43.9v.3H22l-.1.1h.4l-.1.4h.1l.1-.4.3.1v-.1h-.3v-.4zM34.5 40.7l-.1.4-.3-.1v.1l.3.1-.1.3h.1l.1-.3h.3v-.1h-.3l.1-.4zM34.2 42.1v.3l-.3-.1-.1.1.4.1-.1.3.1.1.1-.4.3.1v-.1l-.3-.1v-.3zM35.5 42.6h-.3v.1h.3v.4h.1v-.8zM35.4 41.3l.2.1v-.1l-.2-.1zM31.5 40.7v.4l-.3-.1-.1.1.4.1-.1.3h.1l.1-.3h.3v-.1h-.3v-.4zM31.3 42.1v.3l-.4-.1v.1l.3.1v.3l.1.1v-.4l.4.1v-.1l-.4-.1.1-.3zM32.3 42.7h.3l-.1.4h.1l.1-.4.3.1v-.1h-.3l.1-.4h-.1l-.1.3h-.3zM32.9 41l-.1.3-.3-.1v.1l.3.1v.3h.1v-.3l.3.1.1-.1-.4-.1.1-.3zM28.6 40.7v.4l-.4-.1v.1l.3.1v.3h.1v-.3h.4v-.1h-.4l.1-.4zM28.4 42.1l-.1.3-.3-.1v.1l.3.1-.1.3.1.1.1-.4.3.1v-.1l-.3-.1.1-.3zM29.3 42.7h.4l-.1.4h.1l.1-.4.3.1v-.1h-.3v-.4h-.1v.3h-.4zM30 41l-.1.3-.3-.1v.1l.3.1-.1.3h.1l.1-.3.3.1v-.1l-.3-.1.1-.3zM25.7 40.7l-.1.4-.3-.1v.1l.3.1-.1.3h.1l.1-.3h.3v-.1h-.3l.1-.4zM25.4 42.1v.3l-.3-.1-.1.1.4.1-.1.3.1.1.1-.4.3.1v-.1l-.3-.1v-.3zM26.4 42.7h.3v.4h.1v-.4l.4.1v-.1h-.4l.1-.4h-.1l-.1.3h-.3zM27 41v.3l-.4-.1v.1l.4.1-.1.3h.1l.1-.3.3.1v-.1l-.3-.1V41zM22.7 40.7v.4l-.3-.1-.1.1.4.1-.1.3h.1l.1-.3h.3v-.1h-.3v-.4zM22.5 42.1v.3l-.4-.1v.1l.3.1v.3l.1.1v-.4l.4.1v-.1l-.3-.1v-.3zM23.5 42.7h.3l-.1.4h.1l.1-.4.3.1v-.1h-.3l.1-.4h-.1l-.1.3h-.3zM24.1 41l-.1.3-.3-.1v.1l.3.1v.3h.1v-.3l.4.1v-.1l-.4-.1.1-.3zM21 42.3v.5-.1l.3.1v-.1H21v-.4zM21 41.4h.1l-.1.3h.1l.1-.3.3.1v-.1l-.3-.1.1-.3h-.1l-.1.3H21z"/>
    </g>
    <g>
        <path d="M19.8 11.3h.1-.1zM16.9 11.3h.1-.1zM14 11.3h.1-.1zM11 11.3h.1-.1zM8.1 11.3h.1-.1zM21 10h-.1.1zM19 8.7h-.3v-.4h-.1v.4l-.3-.1-.1.1.4.1-.1.3h.1l.1-.3h.3zM18.4 10.5v-.4l.4.1v-.1l-.3-.1v-.3h-.1v.3l-.4-.1v.1l.3.1v.3zM19.7 10.7l.1-.4.3.1v-.1h-.3l.1-.4h-.1l-.1.3h-.3v.1h.3l-.1.4zM20.4 9l-.4-.1.1-.3H20l-.1.3-.3-.1v.1l.3.1v.3h.1V9l.4.1zM16.1 8.7h-.3v-.4h-.1v.4l-.4-.1v.1l.3.1v.3h.1v-.3h.4zM15.5 10.5v-.4l.3.1.1-.1-.4-.1.1-.3h-.1l-.1.3-.3-.1v.1l.3.1v.3zM16.8 10.7l.1-.4.3.1v-.1h-.3v-.4h-.1v.3h-.3l-.1.1h.4l-.1.4zM17.4 9l-.3-.1.1-.3h-.1l-.1.3-.3-.1v.1l.3.1-.1.3h.1l.1-.3.3.1zM13.2 8.7h-.4l.1-.4h-.1l-.1.4-.3-.1v.1l.3.1v.3h.1v-.3h.3zM12.5 10.5l.1-.4.3.1v-.1l-.3-.1.1-.3h-.1l-.1.3-.3-.1v.1l.3.1-.1.3zM13.9 10.7v-.4l.4.1v-.1h-.4l.1-.4h-.1v.3h-.4v.1h.3v.4zM14.5 9l-.3-.1v-.3h-.1v.3l-.3-.1-.1.1.4.1-.1.3h.1l.1-.3.3.1zM10.2 8.7h-.3l.1-.4h-.1l-.1.4-.3-.1v.1l.3.1-.1.3h.1l.1-.3h.3zM9.6 10.5l.1-.4.3.1v-.1l-.3-.1v-.3h-.1v.3l-.4-.1v.1l.4.1-.1.3zM10.9 10.7l.1-.4.3.1v-.1H11l.1-.4H11l-.1.3h-.3v.1h.3v.4zM11.6 9l-.4-.1.1-.3h-.1v.3l-.4-.1v.1l.3.1v.3h.1V9l.4.1zM6.9 9.1l.1-.3h.3v-.1H7v-.4h-.1v.4l-.4-.1v.1l.4.1-.1.3zM6.7 10.5v-.4l.3.1.1-.1-.4-.1.1-.3h-.1l-.1.3-.3-.1v.1l.3.1v.3zM8 10.7l.1-.4.3.1v-.1h-.3v-.4l-.1.3h-.3v.1H8l-.1.4zM8.6 9l-.3-.1.1-.3h-.1l-.1.3-.3-.1v.1l.3.1v.3l.1-.3.3.1zM20.4 6.2v-.4l.4.1v-.1l-.4-.1.1-.3h-.1l-.1.3H20l.3.1v.3zM19.8 7.1h.3l-.1.4h.1l.1-.3h.3v-.1h-.3l.1-.4h-.1l-.1.4-.3-.1zM17.4 6.2l.1-.4.3.1v-.1l-.3-.1.1-.3h-.1l-.1.3h-.3l.3.1-.1.3zM16.8 7.1h.4l-.1.4h.1l.1-.3h.3v-.1h-.3v-.4h-.1v.4l-.3-.1zM18.6 7l-.1.3-.3-.1v.1l.3.1v.3h.1v-.3h.4l-.4-.1.1-.3zM19.2 6h-.3v-.4h-.1v.3h-.4V6h.4l-.1.4h.1l.1-.3h.3zM14.5 6.2l.1-.4.3.1v-.1l-.3-.1v-.3h-.1v.3h-.4l.4.1-.1.3zM13.9 7.1h.3v.4h.1v-.3h.4v-.1h-.3v-.4h-.1v.4l-.4-.1zM15.7 7l-.1.3-.3-.1v.1l.3.1-.1.3h.1l.1-.3h.3l-.3-.1.1-.3zM16.3 6h-.4l.1-.4h-.1l-.1.3h-.3V6h.3v.4h.1v-.3h.3zM11.6 6.2v-.4l.4.1v-.1l-.3-.1v-.3h-.1v.3h-.4l.3.1v.3zM11 7.1h.3v.4l.1-.3h.3l.1-.1h-.4l.1-.4h-.1l-.1.4L11 7zM12.7 7v.3l-.3-.1-.1.1.4.1-.1.3h.1l.1-.3h.3l-.3-.1V7zM13.3 6H13l.1-.4H13l-.1.3h-.3V6h.3l-.1.4h.1l.1-.3h.3zM8.6 6.2l.1-.4.3.1.1-.1-.4-.1.1-.3h-.1l-.1.3h-.3l.3.1v.3zM8.1 7.1h.3l-.1.4h.1l.1-.3h.3v-.1h-.3l.1-.4h-.1l-.1.4-.3-.1zM9.8 7v.3l-.4-.1v.1l.3.1v.3h.1v-.3h.4l-.4-.1.1-.3zM10.4 6h-.3v-.4H10v.3h-.3l-.1.1h.4l-.1.4h.1l.1-.3h.3zM6.8 7.7l.1-.3h.3l-.3-.1L7 7h-.1l-.1.3-.3-.1v.1l.3.1zM7.5 6h-.4l.1-.4h-.1v.3h-.4V6H7v.4h.1v-.3h.4zM19.6 2.8h-.3v-.4h-.1v.4l-.4-.1v.1l.4.1-.1.3h.1l.1-.3h.3zM19.4 4.2l-.4-.1.1-.3H19l-.1.3h-.3l.3.1v.3l.1.1v-.4l.4.1zM20 4.4h.3l-.1.4h.1l.1-.4.3.1v-.1h-.3l.1-.4h-.1l-.1.3H20zM20.5 3.4h.1v-.3l.3.1.1-.1-.4-.1.1-.3h-.1l-.1.3-.3-.1V3l.3.1zM16.7 2.8h-.4l.1-.4h-.1l-.1.4-.3-.1v.1l.3.1v.3h.1v-.3h.4zM16.4 4.2l-.3-.1.1-.3h-.1l-.1.3h-.3l.3.1-.1.3.1.1.1-.4.3.1zM17 4.4h.4l-.1.4h.1l.1-.4.3.1v-.1h-.3V4h-.1v.3H17zM17.5 3.4h.1l.1-.3.3.1v-.1l-.3-.1.1-.3h-.1l-.1.3-.3-.1V3l.3.1zM13.7 2.8h-.3l.1-.4h-.1l-.1.4-.3-.1v.1l.3.1-.1.3h.1l.1-.3h.3zM13.5 4.2l-.3-.1v-.3h-.1v.3h-.4l.4.1-.1.3.1.1.1-.4.3.1zM14.1 4.4h.3v.4h.1v-.4l.3.1.1-.1h-.4l.1-.4h-.1l-.1.3h-.3zM14.6 3.4h.1v-.3l.4.1v-.1l-.3-.1v-.3h-.1V3l-.4-.1V3l.4.1zM10.8 2.8h-.3v-.4h-.1v.4l-.3-.1-.1.1.4.1-.1.3h.1l.1-.3h.3zM10.6 4.2l-.3-.1v-.3h-.1v.3h-.4l.3.1v.3l.1.1v-.4l.4.1zM11.2 4.4h.3l-.1.4h.1l.1-.4.3.1v-.1h-.3l.1-.4h-.1l-.1.3h-.3zM11.7 3.4h.1v-.3l.3.1.1-.1-.4-.1.1-.3h-.1l-.1.3-.3-.1V3l.3.1zM7.9 2.8h-.3v-.4h-.1v.4l-.4-.1v.1l.3.1v.3h.1v-.3h.4zM7.6 4.2l-.3-.1.1-.3h-.1l-.1.3h-.3l.3.1v.4l.1-.4.3.1zM8.2 4.4h.4l-.1.4h.1l.1-.4.3.1v-.1h-.3V4h-.1v.3h-.3zM8.7 3.4h.1l.1-.3.3.1v-.1L8.9 3l.1-.3h-.1l-.1.3-.3-.1V3l.3.1zM21 .3v-.6l-.1.1h-.3v.1h.3v.4zM20.7 1.6l.1-.3h.2v-.1h-.2l.1-.4h-.1l-.1.4-.3-.1v.1l.3.1-.1.3zM18.2-.5h-.1l-.1.3h-.3v.1h.3l-.1.4h.1l.1-.4.3.1v-.1l-.3-.1zM17.8 1.6l.1-.3h.3v-.1h-.3V.8h-.1v.4l-.4-.1v.1l.4.1-.1.3zM18.8 1.4l.3.1v.3l.1-.3.3.1v-.1l-.3-.1.1-.3h-.1l-.1.3-.3-.1zM19.4-.3v.4L19 0v.1h.3v.4h.1V.2h.4V.1h-.3v-.4zM15.2-.5h-.1v.3h-.4v.1h.4l-.1.4h.1l.1-.4.3.1v-.1l-.3-.1zM14.9 1.6v-.3h.4v-.1h-.4l.1-.4h-.1l-.1.4-.3-.1v.1l.3.1v.3zM15.9 1.4l.3.1-.1.3h.1l.1-.3.3.1v-.1l-.3-.1.1-.3h-.1l-.1.3-.3-.1zM16.5-.3l-.1.4-.3-.1v.1h.3v.4l.1-.3h.3V.1h-.3l.1-.4zM12.3-.5h-.1l-.1.3h-.3v.1h.3v.4h.1v-.4l.4.1v-.1l-.4-.1zM11.9 1.6l.1-.3h.3v-.1H12l.1-.4H12l-.1.4-.3-.1v.1l.3.1-.1.3zM12.9 1.4l.4.1-.1.3h.1v-.3l.4.1v-.1l-.3-.1v-.3h-.1v.3l-.4-.1zM13.6-.3l-.1.4-.3-.1v.1h.3l-.1.4h.1l.1-.3h.3V.1h-.3l.1-.4zM9.4-.5h-.1l-.1.3h-.3v.1h.3l-.1.4h.1l.1-.4.3.1v-.1l-.3-.1zM9 1.6l.1-.3h.3v-.1h-.3V.8H9v.4l-.3-.1-.1.1.4.1-.1.3zM10 1.4l.3.1v.3h.1v-.3l.3.1.1-.1-.4-.1.1-.3h-.1l-.1.3-.3-.1zM10.6-.3v.4l-.4-.1v.1h.4l-.1.4h.1V.2h.4V.1h-.3v-.4zM6.4-.1l.3.1v-.1l-.3-.1v-.3h-.1v.8zM6.5 1.2h-.2v.1h.2zM7.1 1.4l.3.1-.1.3h.1l.1-.3.3.1v-.1l-.3-.1.1-.3h-.1l-.1.3-.3-.1zM7.7-.3l-.1.4-.3-.1v.1h.3v.4h.1V.2H8l.1-.1h-.4l.1-.4zM19.8-3.4v.3l-.4-.1v.1l.3.1v.3h.1V-3h.4l-.3-.1v-.3zM19.6-2.1l-.1.3h-.3v.1h.3v.4h.1v-.4l.3.1.1-.1-.4-.1.1-.3zM20.9-1.5l-.3-.1-.1.1h.4l-.1.4h.1l.1-.3v-.5h-.1zM20.8-2.9l.2.1v-.1h-.2zM16.9-3.4l-.1.3-.3-.1v.1l.3.1v.3h.1V-3h.4l-.4-.1.1-.3zM16.7-2.1l-.1.3h-.3v.1h.3l-.1.4h.1l.1-.4.3.1v-.1l-.3-.1.1-.3zM17.6-1.5h.3v.4h.1v-.3h.4v-.1h-.3v-.4H18v.4l-.4-.1zM18.2-3.2v.3h-.4l.4.1-.1.3.1.1.1-.4.3.1v-.1l-.3-.1v-.3zM14-3.4l-.1.3-.3-.1v.1l.3.1-.1.3h.1L14-3h.3l-.3-.1.1-.3zM13.7-2.1v.3h-.4v.1h.4l-.1.4h.1l.1-.4.3.1v-.1l-.3-.1v-.3zM14.7-1.5h.3v.4l.1-.3h.3v-.1h-.3l.1-.4h-.1l-.1.4-.3-.1zM15.3-3.2v.3h-.4l.3.1v.3l.1.1v-.4l.4.1v-.1l-.3-.1v-.3zM11-3.4v.3l-.4-.1v.1l.4.1-.1.3h.1l.1-.3h.3l-.3-.1v-.3zM10.8-2.1l-.1.3h-.3v.1h.3v.4h.1v-.4l.3.1.1-.1-.4-.1.1-.3zM11.8-1.5h.3l-.1.4h.1l.1-.3h.3v-.1h-.3l.1-.4h-.1l-.1.4-.3-.1zM12.4-3.2l-.1.3H12l.3.1v.4l.1-.4.3.1v-.1l-.3-.1.1-.3zM8.1-3.4l-.1.3-.3-.1v.1L8-3v.3h.1V-3h.4l-.4-.1.1-.3zM7.9-2.1l-.1.3h-.3v.1h.3l-.1.4h.1l.1-.4.3.1v-.1l-.3-.1.1-.3zM8.8-1.5h.4l-.1.4h.1v-.3h.4v-.1h-.3v-.4h-.1v.4l-.4-.1zM9.5-3.2l-.1.3h-.3l.3.1-.1.3.1.1.1-.4.3.1v-.1l-.3-.1.1-.3zM6.3-1.9v.5h.3l.1-.1h-.4l.1-.4zM6.3-2.8h.2l-.1.3.1.1v-.4l.4.1v-.1l-.3-.1v-.3h-.1v.3h-.2z"/>
    </g>
    <g>
        <path d="M19.8 26h.1-.1zM16.9 26h.1-.1zM14 26h.1-.1zM11 26h.1-.1zM8.1 26h.1-.1zM21 24.7l-.1.1h.1zM19 23.5l-.3-.1v-.3h-.1v.3l-.3-.1-.1.1.4.1-.1.3h.1l.1-.3h.3zM18.4 25.2v-.4l.4.1v-.1l-.3-.1v-.3h-.1v.3H18v.1h.3v.4zM19.7 25.4l.1-.3h.3V25h-.3l.1-.4h-.1l-.1.4-.3-.1v.1l.3.1-.1.3zM20.4 23.7l-.4-.1.1-.3H20l-.1.3h-.3v.1h.3v.4h.1v-.4l.4.1zM16.1 23.5l-.3-.1v-.3h-.1v.3l-.4-.1v.1l.3.1v.3h.1v-.3h.4zM15.5 25.2v-.4l.3.1.1-.1-.4-.1.1-.3h-.1l-.1.3h-.3v.1h.3v.4zM16.8 25.4l.1-.3h.3V25h-.3v-.4h-.1v.4l-.3-.1-.1.1.4.1-.1.3zM17.4 23.7l-.3-.1.1-.3h-.1l-.1.3h-.3v.1h.3l-.1.4h.1l.1-.4.3.1zM13.2 23.5l-.4-.1.1-.3h-.1l-.1.3-.3-.1v.1l.3.1v.3h.1v-.3h.3zM12.5 25.2l.1-.4.3.1v-.1l-.3-.1.1-.3h-.1l-.1.3h-.3v.1h.3l-.1.4zM13.9 25.4v-.3h.4V25h-.4l.1-.4h-.1v.4l-.4-.1v.1l.3.1v.3zM14.5 23.7l-.3-.1v-.3h-.1v.3h-.3l-.1.1h.4l-.1.4h.1l.1-.4.3.1zM10.2 23.5l-.3-.1.1-.3h-.1l-.1.3-.3-.1v.1l.3.1-.1.3h.1l.1-.3h.3zM9.6 25.2l.1-.4.3.1v-.1l-.3-.1v-.3h-.1v.3h-.4v.1h.4l-.1.4zM10.9 25.4l.1-.3h.3V25H11l.1-.4H11l-.1.4-.3-.1v.1l.3.1v.3zM11.6 23.7l-.4-.1.1-.3h-.1v.3h-.4v.1h.3v.4h.1v-.4l.4.1zM6.9 23.8l.1-.3h.3l-.3-.1v-.3h-.1v.3l-.4-.1v.1l.4.1-.1.3zM6.7 25.2v-.4l.3.1.1-.1-.4-.1.1-.3h-.1l-.1.3h-.3v.1h.3v.4zM8 25.4l.1-.3h.3V25h-.3v-.4L8 25l-.3-.1v.1l.3.1-.1.3zM8.6 23.7l-.3-.1.1-.3h-.1l-.1.3h-.3v.1h.3v.4l.1-.4.3.1zM20.4 20.9v-.4l.4.1v-.1h-.4l.1-.4h-.1l-.1.3H20v.1h.3v.4zM19.8 21.8l.3.1-.1.3h.1l.1-.3h.3l-.3-.1.1-.3-.1-.1-.1.4-.3-.1zM17.4 20.9l.1-.4.3.1v-.1h-.3l.1-.4h-.1l-.1.3h-.3v.1h.3l-.1.4zM16.8 21.8l.4.1-.1.3h.1l.1-.3h.3l-.3-.1v-.3l-.1-.1v.4l-.3-.1zM18.6 21.7l-.1.3h-.3l.3.1v.3l.1.1v-.4l.3.1.1-.1-.4-.1.1-.3zM19.2 20.7h-.3v-.3l-.1-.1v.4l-.4-.1v.1l.4.1-.1.3h.1l.1-.3h.3zM14.5 20.9l.1-.4.3.1v-.1h-.3v-.4h-.1v.3h-.3l-.1.1h.4l-.1.4zM13.9 21.8l.3.1v.3h.1v-.3h.4l-.3-.1v-.3l-.1-.1v.4l-.4-.1zM15.7 21.7l-.1.3h-.3l.3.1-.1.3.1.1.1-.4.3.1v-.1l-.3-.1.1-.3zM16.3 20.7h-.4l.1-.3-.1-.1-.1.4-.3-.1v.1l.3.1v.3h.1v-.3h.3zM11.6 20.9v-.4l.4.1v-.1h-.3v-.4h-.1v.3h-.4v.1h.3v.4zM11 21.8l.3.1v.3l.1-.3h.4l-.4-.1.1-.3-.1-.1-.1.4-.3-.1zM12.7 21.7v.3h-.4l.4.1-.1.3.1.1.1-.4.3.1v-.1l-.3-.1v-.3zM13.3 20.7H13l.1-.3-.1-.1-.1.4-.3-.1v.1l.3.1-.1.3h.1l.1-.3h.3zM8.6 20.9l.1-.4.3.1.1-.1h-.4l.1-.4h-.1l-.1.3h-.3v.1h.3v.4zM8.1 21.8l.3.1-.1.3h.1l.1-.3h.3l-.3-.1.1-.3-.1-.1-.1.4-.3-.1zM9.8 21.7v.3h-.4l.3.1v.3l.1.1v-.4l.4.1v-.1l-.4-.1.1-.3zM10.4 20.7h-.3v-.3l-.1-.1v.4l-.3-.1-.1.1.4.1-.1.3h.1l.1-.3h.3zM6.8 22.4v.1l.1-.4.3.1v-.1l-.3-.1.1-.3h-.1l-.1.3h-.3l.3.1zM7.5 20.7h-.4l.1-.3-.1-.1v.4l-.4-.1v.1l.3.1v.3h.1v-.3h.4zM19.6 17.6l-.3-.1v-.3h-.1v.3l-.4-.1v.1l.4.1-.1.3h.1l.1-.3.3.1zM19.4 18.9H19l.1-.4H19l-.1.3h-.3v.1h.3v.4h.1v-.4l.4.1zM20 19.1l.3.1-.1.3h.1l.1-.3h.3v-.1h-.3l.1-.4h-.1l-.1.4-.3-.1zM20.5 18.2h.1v-.4l.3.1.1-.1-.4-.1.1-.3h-.1l-.1.3h-.3v.1h.3zM16.7 17.6l-.4-.1.1-.3h-.1l-.1.3-.3-.1v.1l.3.1v.3h.1v-.3l.4.1zM16.4 18.9h-.3l.1-.4h-.1l-.1.3h-.3v.1h.3l-.1.4h.1l.1-.4.3.1zM17 19.1l.4.1-.1.3h.1l.1-.3h.3v-.1h-.3v-.4h-.1v.4L17 19zM17.5 18.2h.1l.1-.4.3.1v-.1l-.3-.1.1-.3h-.1l-.1.3h-.3v.1h.3zM13.7 17.6l-.3-.1.1-.3h-.1l-.1.3-.3-.1v.1l.3.1-.1.3h.1l.1-.3.3.1zM13.5 18.9h-.3v-.4h-.1v.3h-.3l-.1.1h.4l-.1.4h.1l.1-.4.3.1zM14.1 19.1l.3.1v.3h.1v-.3h.3l.1-.1h-.4l.1-.4h-.1l-.1.4-.3-.1zM14.6 18.2h.1v-.4l.4.1v-.1l-.3-.1v-.3h-.1v.3h-.4v.1h.4zM10.8 17.6l-.3-.1v-.3h-.1v.3l-.3-.1-.1.1.4.1-.1.3h.1l.1-.3.3.1zM10.6 18.9h-.3v-.4h-.1v.3h-.4v.1h.3v.4h.1v-.4l.4.1zM11.2 19.1l.3.1-.1.3h.1l.1-.3h.3v-.1h-.3l.1-.4h-.1l-.1.4-.3-.1zM11.7 18.2h.1v-.4l.3.1.1-.1-.4-.1.1-.3h-.1l-.1.3h-.3v.1h.3zM7.9 17.6l-.3-.1v-.3h-.1v.3l-.4-.1v.1l.3.1v.3h.1v-.3l.4.1zM7.6 18.9h-.3l.1-.4h-.1l-.1.3h-.3v.1h.3v.4l.1-.4.3.1zM8.2 19.1l.4.1-.1.3h.1l.1-.3H9v-.1h-.3v-.4h-.1v.4l-.3-.1zM8.7 18.2h.1l.1-.4.3.1v-.1l-.3-.1.1-.3h-.1l-.1.3h-.3v.1h.3zM21 15v-.5l-.1.1-.3-.1v.1h.3v.4zM20.7 16.3l.1-.3h.2v-.1h-.2l.1-.3h-.1l-.1.3-.3-.1v.1l.3.1-.1.3zM18.2 14.2h-.1l-.1.4-.3-.1v.1h.3l-.1.4h.1l.1-.3h.3v-.1h-.3zM17.8 16.3l.1-.3.3.1V16l-.3-.1v-.3h-.1v.3l-.4-.1v.1l.4.1-.1.3zM18.8 16.2h.3v.4l.1-.4.3.1v-.1l-.3-.1.1-.3h-.1l-.1.3h-.3zM19.4 14.4v.4l-.4-.1v.1l.3.1v.3h.1v-.3h.4l-.3-.1v-.3zM15.2 14.2h-.1v.4l-.4-.1v.1h.4l-.1.4h.1l.1-.3h.3v-.1h-.3zM14.9 16.3V16l.4.1V16l-.4-.1.1-.3h-.1l-.1.3-.3-.1v.1l.3.1v.3zM15.9 16.2h.3l-.1.4h.1l.1-.4.3.1v-.1l-.3-.1.1-.3h-.1l-.1.3h-.3zM16.5 14.4l-.1.4-.3-.1v.1l.3.1v.3l.1-.3h.3l-.3-.1.1-.3zM12.3 14.2h-.1l-.1.4-.3-.1v.1h.3v.4h.1v-.3h.4v-.1h-.4zM11.9 16.3l.1-.3.3.1V16l-.3-.1.1-.3H12l-.1.3-.3-.1v.1l.3.1-.1.3zM12.9 16.2h.4l-.1.4h.1v-.4l.4.1v-.1l-.3-.1v-.3h-.1v.3h-.4zM13.6 14.4l-.1.4-.3-.1v.1l.3.1-.1.3h.1l.1-.3h.3l-.3-.1.1-.3zM9.4 14.2h-.1l-.1.4-.3-.1v.1h.3l-.1.4h.1l.1-.3h.3v-.1h-.3zM9 16.3l.1-.3.3.1V16l-.3-.1v-.3H9v.3l-.3-.1-.1.1.4.1-.1.3zM10 16.2h.3v.4h.1v-.4l.3.1.1-.1-.4-.1.1-.3h-.1l-.1.3H10zM10.6 14.4v.4l-.4-.1v.1l.4.1-.1.3h.1v-.3h.4l-.3-.1v-.3zM6.4 14.7h.3v-.1h-.3v-.4h-.1v.8zM6.5 16l-.2-.1v.1l.2.1zM7.1 16.2h.3l-.1.4h.1l.1-.4.3.1v-.1l-.3-.1.1-.3h-.1l-.1.3h-.3zM7.7 14.4l-.1.4-.3-.1v.1l.3.1v.3h.1v-.3h.4l-.4-.1.1-.3zM19.8 11.3v.3h-.4l.3.1v.3l.1.1v-.4l.4.1v-.1l-.3-.1v-.3zM19.6 12.6l-.1.3h-.3v.1h.3v.4h.1v-.3h.3l.1-.1h-.4l.1-.4zM20.9 13.2l-.3-.1-.1.1.4.1-.1.3h.1l.1-.2v-.6h-.1zM20.8 11.9h.2v-.1h-.2zM16.9 11.3l-.1.3h-.3l.3.1v.3l.1.1v-.4l.3.1.1-.1-.4-.1.1-.3zM16.7 12.6l-.1.3h-.3v.1h.3l-.1.4h.1l.1-.3h.3V13h-.3l.1-.4zM17.6 13.2l.3.1v.3h.1v-.3h.4l-.3-.1v-.3l-.1-.1v.4l-.4-.1zM18.2 11.5v.3h-.3l-.1.1h.4l-.1.4h.1l.1-.4.3.1v-.1h-.3v-.4zM14 11.3l-.1.3h-.3l.3.1-.1.3.1.1.1-.4.3.1v-.1l-.3-.1.1-.3zM13.7 12.6v.3h-.4v.1h.4l-.1.4h.1l.1-.3h.3V13h-.3v-.4zM14.7 13.2l.3.1v.3l.1-.3h.3l-.3-.1.1-.3-.1-.1-.1.4-.3-.1zM15.3 11.5v.3h-.4v.1h.3v.4h.1v-.4l.4.1v-.1h-.3v-.4zM11 11.3v.3h-.4l.4.1-.1.3.1.1.1-.4.3.1v-.1l-.3-.1v-.3zM10.8 12.6l-.1.3h-.3v.1h.3v.4h.1v-.3h.3l.1-.1h-.4l.1-.4zM11.8 13.2l.3.1-.1.3h.1l.1-.3h.3l-.3-.1.1-.3-.1-.1-.1.4-.3-.1zM12.4 11.5l-.1.3H12v.1h.3v.4l.1-.4.3.1v-.1h-.3l.1-.4zM8.1 11.3l-.1.3h-.3l.3.1v.3l.1.1v-.4l.3.1.1-.1-.4-.1.1-.3zM7.9 12.6l-.1.3h-.3v.1h.3l-.1.4h.1l.1-.3h.3V13h-.3l.1-.4zM8.8 13.2l.4.1-.1.3h.1v-.3h.4l-.3-.1v-.3l-.1-.1v.4l-.4-.1zM9.5 11.5l-.1.3h-.3v.1h.3l-.1.4h.1l.1-.4.3.1v-.1h-.3l.1-.4zM6.3 12.8v.6-.1h.4l-.4-.1.1-.3zM6.3 11.9h.2l-.1.4h.1v-.4l.4.1v-.1h-.3v-.4h-.1v.3h-.2z"/>
    </g>
    <g>
        <path d="M19.8 40.7h.1-.1zM16.9 40.7h.1-.1zM14 40.7h.1-.1zM11 40.7h.1-.1zM8.1 40.7h.1-.1zM21 39.5h-.1.1zM19 38.2l-.3-.1v-.3h-.1v.3h-.4l.4.1-.1.3.1.1.1-.4.3.1zM18.4 39.9v-.3h.4v-.1h-.3v-.4h-.1v.4l-.4-.1v.1h.3v.4zM19.7 40.1l.1-.3h.3l-.3-.1.1-.3h-.1l-.1.3-.3-.1v.1l.3.1-.1.3zM20.4 38.4H20l.1-.4H20l-.1.3h-.3v.1h.3v.4h.1v-.3h.4zM16.1 38.2l-.3-.1v-.3h-.1v.3h-.4l.3.1v.3l.1.1v-.4l.4.1zM15.5 39.9v-.3h.3l.1-.1h-.4l.1-.4h-.1l-.1.4-.3-.1v.1h.3v.4zM16.8 40.1l.1-.3h.3l-.3-.1v-.3h-.1v.3l-.3-.1-.1.1.4.1-.1.3zM17.4 38.4h-.3l.1-.4h-.1l-.1.3h-.3v.1h.3l-.1.4h.1l.1-.3h.3zM13.2 38.2l-.4-.1.1-.3h-.1l-.1.3h-.3l.3.1v.3l.1.1v-.4l.3.1zM12.5 39.9l.1-.3h.3v-.1h-.3l.1-.4h-.1l-.1.4-.3-.1v.1h.3l-.1.4zM13.9 40.1v-.3h.4l-.4-.1.1-.3h-.1v.3l-.4-.1v.1l.3.1v.3zM14.5 38.4h-.3V38h-.1v.3h-.3l-.1.1h.4l-.1.4h.1l.1-.3h.3zM10.2 38.2l-.3-.1.1-.3h-.1l-.1.3h-.3l.3.1-.1.3.1.1.1-.4.3.1zM9.6 39.9l.1-.3h.3v-.1h-.3v-.4h-.1v.4l-.4-.1v.1h.4l-.1.4zM10.9 40.1l.1-.3h.3l-.3-.1.1-.3H11l-.1.3-.3-.1v.1l.3.1v.3zM11.6 38.4h-.4l.1-.4h-.1v.3h-.4v.1h.3v.4h.1v-.3h.4zM6.9 38.6l.1-.4.3.1v-.1l-.3-.1v-.3h-.1v.3h-.4l.4.1-.1.3zM6.7 39.9v-.3H7l.1-.1h-.4l.1-.4h-.1l-.1.4-.3-.1v.1h.3v.4zM8 40.1l.1-.3h.3l-.3-.1v-.3l-.1.3-.3-.1v.1l.3.1-.1.3zM8.6 38.4h-.3l.1-.4h-.1l-.1.3h-.3v.1h.3v.4l.1-.3h.3zM20.4 35.6v-.3h.4v-.1h-.4l.1-.4h-.1l-.1.4-.3-.1v.1l.3.1v.3zM19.8 36.5l.3.1-.1.3.1.1.1-.4.3.1v-.1l-.3-.1.1-.3h-.1l-.1.3h-.3zM17.4 35.6l.1-.3h.3v-.1h-.3l.1-.4h-.1l-.1.4-.3-.1v.1l.3.1-.1.3zM16.8 36.5l.4.1-.1.3.1.1.1-.4.3.1v-.1l-.3-.1v-.3h-.1v.3h-.3zM18.6 36.4l-.1.3h-.3v.1h.3v.4h.1v-.4l.3.1.1-.1h-.4l.1-.4zM19.2 35.5l-.3-.1v-.3h-.1v.3l-.4-.1v.1l.4.1-.1.3h.1l.1-.3.3.1zM14.5 35.6l.1-.3h.3v-.1h-.3v-.4h-.1v.4l-.3-.1-.1.1.4.1-.1.3zM13.9 36.5l.3.1v.3l.1.1v-.4l.4.1v-.1l-.3-.1v-.3h-.1v.3h-.4zM15.7 36.4l-.1.3h-.3v.1h.3l-.1.4h.1l.1-.4.3.1v-.1h-.3l.1-.4zM16.3 35.5l-.4-.1.1-.3h-.1l-.1.3-.3-.1v.1l.3.1v.3h.1v-.3l.3.1zM11.6 35.6v-.3h.4v-.1h-.3v-.4h-.1v.4l-.4-.1v.1l.3.1v.3zM11 36.5l.3.1v.4l.1-.4.3.1.1-.1-.4-.1.1-.3h-.1l-.1.3H11zM12.7 36.4v.3h-.3l-.1.1h.4l-.1.4h.1l.1-.4.3.1v-.1h-.3v-.4zM13.3 35.5l-.3-.1.1-.3H13l-.1.3-.3-.1v.1l.3.1-.1.3h.1l.1-.3.3.1zM8.6 35.6l.1-.3H9l.1-.1h-.4l.1-.4h-.1l-.1.4-.3-.1v.1l.3.1v.3zM8.1 36.5l.3.1-.1.3.1.1.1-.4.3.1v-.1l-.3-.1.1-.3h-.1l-.1.3h-.3zM9.8 36.4v.3h-.4v.1h.3v.4h.1v-.4l.4.1v-.1h-.4l.1-.4zM10.4 35.5l-.3-.1v-.3H10v.3l-.3-.1-.1.1.4.1-.1.3h.1l.1-.3.3.1zM6.8 37.2l.1-.4.3.1v-.1h-.3l.1-.4h-.1l-.1.3h-.3v.1h.3zM7.5 35.5l-.4-.1.1-.3h-.1v.3l-.4-.1v.1l.3.1v.3h.1v-.3l.4.1zM19.6 32.3l-.3-.1v-.3h-.1v.3h-.4v.1h.4l-.1.4h.1l.1-.4.3.1zM19.4 33.6H19l.1-.4H19l-.1.4-.3-.1v.1l.3.1v.3h.1v-.3h.4zM20 33.8l.3.1-.1.3h.1l.1-.3.3.1v-.1l-.3-.1.1-.3h-.1l-.1.3-.3-.1zM20.5 32.9h.1v-.3h.3l.1-.1h-.4l.1-.4h-.1l-.1.4-.3-.1v.1h.3zM16.7 32.3l-.4-.1.1-.3h-.1l-.1.3h-.3v.1h.3v.4h.1v-.4l.4.1zM16.4 33.6h-.3l.1-.4h-.1l-.1.4-.3-.1v.1l.3.1-.1.3h.1l.1-.3h.3zM17 33.8l.4.1-.1.3h.1l.1-.3.3.1v-.1l-.3-.1v-.3h-.1v.3l-.4-.1zM17.5 32.9h.1l.1-.3h.3v-.1h-.3l.1-.4h-.1l-.1.4-.3-.1v.1h.3zM13.7 32.3l-.3-.1.1-.3h-.1l-.1.3H13v.1h.3l-.1.4h.1l.1-.4.3.1zM13.5 33.6h-.3v-.4h-.1v.4l-.3-.1-.1.1.4.1-.1.3h.1l.1-.3h.3zM14.1 33.8l.3.1v.3h.1v-.3l.3.1.1-.1-.4-.1.1-.3h-.1l-.1.3-.3-.1zM14.6 32.9h.1v-.3h.4v-.1h-.3v-.4h-.1v.4l-.4-.1v.1h.4zM10.8 32.3l-.3-.1v-.3h-.1v.3h-.3l-.1.1h.4l-.1.4h.1l.1-.4.3.1zM10.6 33.6h-.3v-.4h-.1v.4l-.4-.1v.1l.3.1v.3h.1v-.3h.4zM11.2 33.8l.3.1-.1.3h.1l.1-.3.3.1v-.1l-.3-.1.1-.3h-.1l-.1.3-.3-.1zM11.7 32.9h.1v-.3h.3l.1-.1h-.4l.1-.4h-.1l-.1.4-.3-.1v.1h.3zM7.9 32.3l-.3-.1v-.3h-.1v.3h-.4v.1h.3v.4h.1v-.4l.4.1zM7.6 33.6h-.3l.1-.4h-.1l-.1.4-.3-.1v.1l.3.1v.3l.1-.3h.3zM8.2 33.8l.4.1-.1.3h.1l.1-.3.3.1v-.1l-.3-.1v-.3h-.1v.3l-.3-.1zM8.7 32.9h.1l.1-.3h.3v-.1h-.3l.1-.4h-.1l-.1.4-.3-.1v.1h.3zM21 29.7v-.5l-.1.1-.3-.1v.1l.3.1v.3zM20.7 31.1l.1-.4.2.1v-.1l-.2-.1.1-.3h-.1l-.1.3h-.3v.1h.3l-.1.4zM18.2 29l-.1-.1-.1.4-.3-.1v.1l.3.1-.1.3h.1l.1-.3h.3l-.3-.1zM17.8 31.1l.1-.4.3.1v-.1l-.3-.1v-.3h-.1v.3h-.4v.1h.4l-.1.4zM18.8 30.9h.3v.4l.1-.3h.3v-.1h-.3l.1-.4h-.1l-.1.4-.3-.1zM19.4 29.2v.3H19l.3.1v.3l.1.1v-.4l.4.1v-.1l-.3-.1v-.3zM15.2 29l-.1-.1v.4l-.4-.1v.1l.4.1-.1.3h.1l.1-.3h.3l-.3-.1zM14.9 31.1v-.4l.4.1v-.1l-.4-.1.1-.3h-.1l-.1.3h-.3v.1h.3v.4zM15.9 30.9h.3l-.1.4h.1l.1-.3h.3v-.1h-.3l.1-.4h-.1l-.1.4-.3-.1zM16.5 29.2l-.1.3h-.3l.3.1v.4l.1-.4.3.1v-.1l-.3-.1.1-.3zM12.3 29l-.1-.1-.1.4-.3-.1v.1l.3.1v.3h.1v-.3h.4l-.4-.1zM11.9 31.1l.1-.4.3.1v-.1l-.3-.1.1-.3H12l-.1.3h-.3v.1h.3l-.1.4zM12.9 30.9h.4l-.1.4h.1V31h.4v-.1h-.3v-.4h-.1v.4l-.4-.1zM13.6 29.2l-.1.3h-.3l.3.1-.1.3.1.1.1-.4.3.1v-.1l-.3-.1.1-.3zM9.4 29l-.1-.1-.1.4-.3-.1v.1l.3.1-.1.3h.1l.1-.3h.3l-.3-.1zM9 31.1l.1-.4.3.1v-.1l-.3-.1v-.3H9v.3h-.3l-.1.1H9l-.1.4zM10 30.9h.3v.4h.1V31h.3l.1-.1h-.4l.1-.4h-.1l-.1.4-.3-.1zM10.6 29.2v.3h-.4l.4.1-.1.3.1.1v-.4l.4.1v-.1l-.3-.1v-.3zM6.4 29.4h.3l-.3-.1V29l-.1-.1v.8zM6.5 30.7h-.2v.1h.2zM7.1 30.9h.3l-.1.4h.1l.1-.3h.3v-.1h-.3l.1-.4h-.1l-.1.4-.3-.1zM7.7 29.2l-.1.3h-.3l.3.1v.3l.1.1v-.4l.3.1.1-.1-.4-.1.1-.3zM19.8 26v.3h-.4v.1h.3v.4h.1v-.4l.4.1v-.1h-.3V26zM19.6 27.3l-.1.4-.3-.1v.1l.3.1v.3h.1v-.3h.3l.1-.1h-.4l.1-.3zM20.9 27.9h-.4l.4.1-.1.3.1.1.1-.3v-.5h-.1zM20.8 26.6h.2v-.1h-.2zM16.9 26l-.1.3h-.3v.1h.3v.4h.1v-.4l.3.1.1-.1h-.4l.1-.4zM16.7 27.3l-.1.4-.3-.1v.1l.3.1-.1.3h.1l.1-.3h.3v-.1h-.3l.1-.3zM17.6 27.9l.3.1v.3l.1.1V28l.4.1V28l-.3-.1v-.3H18v.3h-.4zM18.2 26.2v.4l-.3-.1-.1.1.4.1-.1.3h.1l.1-.3h.3v-.1h-.3v-.4zM14 26l-.1.3h-.3v.1h.3l-.1.4h.1l.1-.4.3.1v-.1H14l.1-.4zM13.7 27.3v.4l-.4-.1v.1l.4.1-.1.3h.1l.1-.3h.3v-.1h-.3v-.3zM14.7 27.9l.3.1v.4l.1-.4.3.1V28l-.3-.1.1-.3h-.1l-.1.3h-.3zM15.3 26.2v.4l-.4-.1v.1l.3.1v.3h.1v-.3h.4v-.1h-.3v-.4zM11 26v.3h-.4v.1h.4l-.1.4h.1l.1-.4.3.1v-.1h-.3V26zM10.8 27.3l-.1.4-.3-.1v.1l.3.1v.3h.1v-.3h.3l.1-.1h-.4l.1-.3zM11.8 27.9l.3.1-.1.3.1.1.1-.4.3.1V28l-.3-.1.1-.3h-.1l-.1.3h-.3zM12.4 26.2l-.1.4-.3-.1v.1l.3.1v.3l.1-.3h.3v-.1h-.3l.1-.4zM8.1 26l-.1.3h-.3v.1H8v.4h.1v-.4l.3.1.1-.1h-.4l.1-.4zM7.9 27.3l-.1.4-.3-.1v.1l.3.1-.1.3h.1l.1-.3h.3v-.1h-.3l.1-.3zM8.8 27.9l.4.1-.1.3.1.1V28l.4.1V28l-.3-.1v-.3h-.1v.3h-.4zM9.5 26.2l-.1.4-.3-.1v.1l.3.1-.1.3h.1l.1-.3h.3v-.1h-.3l.1-.4zM6.3 27.6v.5-.1l.3.1.1-.1-.4-.1.1-.3zM6.3 26.6l.2.1-.1.3h.1v-.3h.4v-.1h-.3v-.4h-.1v.4l-.2-.1z"/>
    </g>
    <g>
        <path d="M19.8 55.5h.1-.1zM16.9 55.5h.1-.1zM14 55.5h.1-.1zM11 55.5h.1-.1zM8.1 55.5h.1-.1zM21 54.2h-.1.1zM19 52.9h-.3v-.4h-.1v.3h-.3l-.1.1h.4l-.1.4h.1l.1-.4.3.1zM18.4 54.6v-.3h.4l-.3-.1v-.3l-.1-.1v.4l-.4-.1v.1l.3.1v.3zM19.7 54.9l.1-.4.3.1v-.1l-.3-.1.1-.3h-.1l-.1.3h-.3l.3.1-.1.3zM20.4 53.1H20l.1-.3-.1-.1-.1.4-.3-.1v.1l.3.1v.3h.1v-.3h.4zM16.1 52.9h-.3v-.4h-.1v.3h-.4v.1h.3v.4h.1v-.4l.4.1zM15.5 54.6v-.3h.4l-.4-.1.1-.3-.1-.1-.1.4-.3-.1v.1l.3.1v.3zM16.8 54.9l.1-.4.3.1v-.1l-.3-.1v-.3h-.1v.3h-.4l.4.1-.1.3zM17.4 53.1h-.3l.1-.3-.1-.1-.1.4-.3-.1v.1l.3.1-.1.3h.1l.1-.3h.3zM13.2 52.9h-.4l.1-.4h-.1l-.1.3h-.3v.1h.3v.4h.1v-.4l.3.1zM12.5 54.6l.1-.3h.3l-.3-.1.1-.3-.1-.1-.1.4-.3-.1v.1l.3.1-.1.3zM13.9 54.9v-.4l.4.1v-.1l-.4-.1.1-.3h-.1v.3h-.4l.3.1v.3zM14.5 53.1h-.3v-.3l-.1-.1v.4l-.3-.1-.1.1.4.1-.1.3h.1l.1-.3h.3zM10.2 52.9h-.3l.1-.4h-.1l-.1.3h-.3v.1h.3l-.1.4h.1l.1-.4.3.1zM9.6 54.6l.1-.3h.3l-.3-.1v-.3l-.1-.1v.4l-.4-.1v.1l.4.1-.1.3zM10.9 54.9l.1-.4.3.1v-.1l-.3-.1.1-.3H11l-.1.3h-.3l.3.1v.3zM11.6 53.1h-.4l.1-.3-.1-.1v.4l-.4-.1v.1l.3.1v.3h.1v-.3h.4zM6.9 53.3l.1-.4.3.1v-.1H7v-.4h-.1v.3h-.4v.1h.4l-.1.4zM6.7 54.6v-.3h.4l-.4-.1.1-.3-.1-.1-.1.4-.3-.1v.1l.3.1v.3zM8 54.9l.1-.4.3.1v-.1l-.3-.1v-.3l-.1.3h-.3l.3.1-.1.3zM8.6 53.1h-.3l.1-.3-.1-.1-.1.4-.3-.1v.1l.3.1v.3l.1-.3h.3zM20.4 50.3V50l.4.1V50l-.4-.1.1-.3h-.1l-.1.3-.3-.1v.1l.3.1v.3zM19.8 51.3h.3l-.1.4h.1l.1-.4.3.1v-.1h-.3l.1-.4h-.1l-.1.3h-.3zM17.4 50.3l.1-.3.3.1V50l-.3-.1.1-.3h-.1l-.1.3-.3-.1v.1l.3.1-.1.3zM16.8 51.3h.4l-.1.4h.1l.1-.4.3.1v-.1h-.3v-.4h-.1v.3h-.3zM18.6 51.1l-.1.4-.3-.1v.1l.3.1v.3h.1v-.3h.3l.1-.1h-.4l.1-.4zM19.2 50.2l-.3-.1v-.3h-.1v.3h-.4v.1h.4l-.1.4h.1l.1-.4.3.1zM14.5 50.3l.1-.3.3.1V50l-.3-.1v-.3h-.1v.3l-.3-.1-.1.1.4.1-.1.3zM13.9 51.3h.3v.4h.1v-.4l.4.1v-.1h-.3v-.4h-.1v.3h-.4zM15.7 51.1l-.1.4-.3-.1v.1l.3.1-.1.3h.1l.1-.3h.3v-.1h-.3l.1-.4zM16.3 50.2l-.4-.1.1-.3h-.1l-.1.3h-.3v.1h.3v.4h.1v-.4l.3.1zM11.6 50.3V50l.4.1V50l-.3-.1v-.3h-.1v.3l-.4-.1v.1l.3.1v.3zM11 51.3h.3v.4l.1-.4.3.1.1-.1h-.4l.1-.4h-.1l-.1.3H11zM12.7 51.1v.4l-.3-.1-.1.1.4.1-.1.3h.1l.1-.3h.3v-.1h-.3v-.4zM13.3 50.2l-.3-.1.1-.3H13l-.1.3h-.3v.1h.3l-.1.4h.1l.1-.4.3.1zM8.6 50.3l.1-.3.3.1.1-.1-.4-.1.1-.3h-.1l-.1.3-.3-.1v.1l.3.1v.3zM8.1 51.3h.3l-.1.4h.1l.1-.4.3.1v-.1h-.3l.1-.4h-.1l-.1.3h-.3zM9.8 51.1v.4l-.4-.1v.1l.3.1v.3h.1v-.3h.4v-.1h-.4l.1-.4zM10.4 50.2l-.3-.1v-.3H10v.3h-.3l-.1.1h.4l-.1.4h.1l.1-.4.3.1zM6.8 51.9l.1-.3h.3v-.1h-.3l.1-.4h-.1l-.1.4-.3-.1v.1l.3.1zM7.5 50.2l-.4-.1.1-.3h-.1v.3h-.4v.1H7v.4h.1v-.4l.4.1zM19.6 47h-.3v-.4h-.1v.4l-.4-.1v.1h.4l-.1.4h.1l.1-.3h.3zM19.4 48.4l-.4-.1.1-.3H19l-.1.3-.3-.1v.1l.3.1v.3h.1v-.3l.4.1zM20 48.6h.3l-.1.4h.1l.1-.4.3.1v-.1l-.3-.1.1-.3h-.1l-.1.3H20zM20.5 47.6h.1v-.3h.4l-.4-.1.1-.3-.1-.1-.1.4-.3-.1v.1l.3.1zM16.7 47h-.4l.1-.4h-.1l-.1.4-.3-.1v.1h.3v.4h.1v-.3h.4zM16.4 48.4l-.3-.1.1-.3h-.1l-.1.3-.3-.1v.1l.3.1-.1.3h.1l.1-.3.3.1zM17 48.6h.4l-.1.4h.1l.1-.4.3.1v-.1l-.3-.1v-.3h-.1v.3H17zM17.5 47.6h.1l.1-.3h.3l-.3-.1.1-.3-.1-.1-.1.4-.3-.1v.1l.3.1zM13.7 47h-.3l.1-.4h-.1l-.1.4-.3-.1v.1h.3l-.1.4h.1l.1-.3h.3zM13.5 48.4l-.3-.1V48h-.1v.3l-.3-.1-.1.1.4.1-.1.3h.1l.1-.3.3.1zM14.1 48.6h.3v.4h.1v-.4l.3.1.1-.1-.4-.1.1-.3h-.1l-.1.3h-.3zM14.6 47.6h.1v-.3h.4l-.3-.1v-.3l-.1-.1v.4l-.4-.1v.1l.4.1zM10.8 47h-.3v-.4h-.1v.4l-.3-.1-.1.1h.4l-.1.4h.1l.1-.3h.3zM10.6 48.4l-.3-.1V48h-.1v.3l-.4-.1v.1l.3.1v.3h.1v-.3l.4.1zM11.2 48.6h.3l-.1.4h.1l.1-.4.3.1v-.1l-.3-.1.1-.3h-.1l-.1.3h-.3zM11.7 47.6h.1v-.3h.4l-.4-.1.1-.3-.1-.1-.1.4-.3-.1v.1l.3.1zM7.9 47h-.3v-.4h-.1v.4l-.4-.1v.1h.3v.4h.1v-.3h.4zM7.6 48.4l-.3-.1.1-.3h-.1l-.1.3-.3-.1v.1l.3.1v.3l.1-.3.3.1zM8.2 48.6h.4l-.1.4h.1l.1-.4.3.1v-.1l-.3-.1v-.3h-.1v.3h-.3zM8.7 47.6h.1l.1-.3h.3l-.3-.1.1-.3-.1-.1-.1.4-.3-.1v.1l.3.1zM21 44.5v-.6l-.1.1h-.3l.3.1v.3zM20.7 45.8l.1-.3h.2v-.1h-.2l.1-.4h-.1l-.1.3h-.3v.1h.3l-.1.4zM18.2 43.7h-.1l-.1.3h-.3l.3.1-.1.3.1.1.1-.4.3.1v-.1l-.3-.1zM17.8 45.8l.1-.3h.3v-.1h-.3V45h-.1v.3h-.4v.1h.4l-.1.4zM18.8 45.6l.3.1v.3l.1-.3h.3l-.3-.1.1-.3-.1-.1-.1.4-.3-.1zM19.4 43.9v.3H19v.1h.3v.4h.1v-.4l.4.1v-.1h-.3v-.4zM15.2 43.7h-.1v.3h-.4l.4.1-.1.3.1.1.1-.4.3.1v-.1l-.3-.1zM14.9 45.8v-.3h.4v-.1h-.4l.1-.4h-.1l-.1.3h-.3v.1h.3v.4zM15.9 45.6l.3.1-.1.3h.1l.1-.3h.3l-.3-.1.1-.3-.1-.1-.1.4-.3-.1zM16.5 43.9l-.1.3h-.3v.1h.3v.4l.1-.4.3.1v-.1h-.3l.1-.4zM12.3 43.7h-.1l-.1.3h-.3l.3.1v.3l.1.1v-.4l.4.1v-.1l-.4-.1zM11.9 45.8l.1-.3h.3v-.1H12l.1-.4H12l-.1.3h-.3v.1h.3l-.1.4zM12.9 45.6l.4.1-.1.3h.1v-.3h.4l-.3-.1v-.3l-.1-.1v.4l-.4-.1zM13.6 43.9l-.1.3h-.3v.1h.3l-.1.4h.1l.1-.4.3.1v-.1h-.3l.1-.4zM9.4 43.7h-.1l-.1.3h-.3l.3.1-.1.3.1.1.1-.4.3.1v-.1l-.3-.1zM9 45.8l.1-.3h.3v-.1h-.3V45H9v.3h-.3l-.1.1H9l-.1.4zM10 45.6l.3.1v.3h.1v-.3h.4l-.4-.1.1-.3-.1-.1-.1.4-.3-.1zM10.6 43.9v.3h-.4v.1h.4l-.1.4h.1v-.4l.4.1v-.1h-.3v-.4zM6.4 44.1l.3.1v-.1l-.3-.1v-.3h-.1v.8zM6.5 45.4h-.2v.1h.2zM7.1 45.6l.3.1-.1.3h.1l.1-.3h.3l-.3-.1.1-.3-.1-.1-.1.4-.3-.1zM7.7 43.9l-.1.3h-.3v.1h.3v.4h.1v-.4l.3.1.1-.1h-.4l.1-.4zM19.8 40.7v.4l-.4-.1v.1l.3.1v.3h.1v-.3h.4v-.1h-.3v-.4zM19.6 42.1l-.1.3-.3-.1v.1l.3.1v.3l.1.1v-.4l.3.1.1-.1-.4-.1.1-.3zM20.9 42.6h-.3l-.1.1h.4l-.1.4h.1l.1-.3v-.5h-.1zM20.8 41.3l.2.1v-.1l-.2-.1zM16.9 40.7l-.1.4-.3-.1v.1l.3.1v.3h.1v-.3h.3l.1-.1h-.4l.1-.4zM16.7 42.1l-.1.3-.3-.1v.1l.3.1-.1.3.1.1.1-.4.3.1v-.1l-.3-.1.1-.3zM17.6 42.7h.3v.4h.1v-.4l.4.1v-.1h-.3v-.4H18v.3h-.4zM18.2 41v.3l-.3-.1-.1.1.4.1-.1.3h.1l.1-.3.3.1v-.1l-.3-.1V41zM14 40.7l-.1.4-.3-.1v.1l.3.1-.1.3h.1l.1-.3h.3v-.1H14l.1-.4zM13.7 42.1v.3l-.4-.1v.1l.4.1-.1.3.1.1.1-.4.3.1v-.1l-.3-.1v-.3zM14.7 42.7h.3v.4l.1-.4.3.1v-.1h-.3l.1-.4h-.1l-.1.3h-.3zM15.3 41v.3l-.4-.1v.1l.3.1v.3h.1v-.3l.4.1v-.1l-.3-.1V41zM11 40.7v.4l-.4-.1v.1l.4.1-.1.3h.1l.1-.3h.3v-.1h-.3v-.4zM10.8 42.1l-.1.3-.3-.1v.1l.3.1v.3l.1.1v-.4l.3.1.1-.1-.4-.1.1-.3zM11.8 42.7h.3l-.1.4h.1l.1-.4.3.1v-.1h-.3l.1-.4h-.1l-.1.3h-.3zM12.4 41l-.1.3-.3-.1v.1l.3.1v.3l.1-.3.3.1v-.1l-.3-.1.1-.3zM8.1 40.7l-.1.4-.3-.1v.1l.3.1v.3h.1v-.3h.3l.1-.1h-.4l.1-.4zM7.9 42.1l-.1.3-.3-.1v.1l.3.1-.1.3.1.1.1-.4.3.1v-.1l-.3-.1.1-.3zM8.8 42.7h.4l-.1.4h.1v-.4l.4.1v-.1h-.3v-.4h-.1v.3h-.4zM9.5 41l-.1.3-.3-.1v.1l.3.1-.1.3h.1l.1-.3.3.1v-.1l-.3-.1.1-.3zM6.3 42.3v.5-.1l.3.1.1-.1h-.4l.1-.4zM6.3 41.4h.2l-.1.3h.1v-.3l.4.1v-.1l-.3-.1V41h-.1v.3h-.2z"/>
    </g>
    <g>
        <path d="M5.2 11.3h.1-.1zM2.2 11.3h.1-.1zM-.7 11.3h.1-.1zM-3.6 11.3h.1-.1zM-6.5 11.3zM6.3 10zM4.4 8.7H4l.1-.4H4l-.1.4-.3-.1v.1l.3.1v.3H4v-.3h.3zM3.7 10.5l.1-.4.3.1v-.1l-.3-.1.1-.3h-.1l-.1.3-.3-.1v.1l.3.1-.1.3zM5.1 10.7v-.4l.4.1v-.1h-.3v-.4h-.1v.3h-.4v.1h.4l-.1.4zM5.7 9l-.3-.1v-.3l-.1.3-.3-.1v.1l.3.1-.1.3h.1l.1-.3.3.1zM1.4 8.7h-.3l.1-.4h-.1l-.1.4-.3-.1v.1l.3.1-.1.3H1l.1-.3h.3zM.8 10.5l.1-.4.3.1v-.1L.9 10v-.3H.8v.3l-.3-.1-.1.1.4.1-.1.3zM2.2 10.7v-.4l.3.1.1-.1h-.4l.1-.4h-.1l-.1.3h-.3v.1h.3v.4zM2.8 9l-.3-.1v-.3h-.1v.3L2 8.8v.1l.4.1-.1.3h.1V9l.4.1zM-1.5 8.7h-.3v-.4h-.1v.4l-.3-.1-.1.1.4.1-.1.3h.1l.1-.3h.3zM-2.1 10.5v-.4l.4.1v-.1l-.4-.1.1-.3h-.1v.3l-.4-.1v.1l.3.1v.3zM-.8 10.7l.1-.4.3.1v-.1h-.3l.1-.4h-.1l-.1.3h-.3v.1h.3l-.1.4zM-.1 9l-.4-.1.1-.3h-.1l-.1.3-.3-.1v.1l.3.1v.3h.1V9l.3.1zM-4.4 8.7h-.4l.1-.4h-.1v.4l-.4-.1v.1l.3.1v.3h.1v-.3h.4zM-5.1 10.5l.1-.4.3.1v-.1L-5 10l.1-.3H-5l-.1.3-.3-.1v.1l.3.1v.3zM-3.7 10.7l.1-.4.3.1v-.1h-.3v-.4h-.1v.3H-4l-.1.1h.4l-.1.4zM-3.1 9l-.3-.1.1-.3h-.1l-.1.3-.3-.1v.1l.3.1-.1.3h.1l.1-.3.3.1zM-7.8 9.1l.1-.3h.3v-.1h-.3l.1-.4h-.1l-.1.4-.3-.1v.1l.3.1v.3zM-8 10.5l.1-.4.3.1v-.1l-.3-.1v-.3l-.1.3-.3-.1v.1l.3.1-.1.3zM-6.6 10.7v-.4l.4.1v-.1h-.4l.1-.4h-.1v.3H-7v.1h.3v.4zM-6 9l-.3-.1v-.3h-.1v.3l-.3-.1-.1.1.4.1-.1.3h.1l.1-.3.3.1zM5.7 6.2l.1-.4.3.1v-.1l-.3-.1.1-.3h-.1l-.1.3h-.3l.3.1-.1.3zM5.1 7.1h.4l-.1.4h.1v-.3h.4v-.1h-.3v-.4h-.1v.4L5.1 7zM2.8 6.2v-.4l.4.1v-.1l-.3-.1v-.3h-.1v.3h-.4l.4.1-.1.3zM2.2 7.1h.3v.4h.1v-.3h.3l.1-.1h-.4l.1-.4h-.1l-.1.4-.3-.1zM4 7l-.1.3-.3-.1v.1l.3.1-.1.3h.1l.1-.3h.3L4 7.3V7zM4.5 6h-.3l.1-.4h-.1l-.1.3h-.3V6h.3v.4l.1-.3h.3zM-.1 6.2v-.4l.3.1.1-.1-.4-.1.1-.3h-.1l-.1.3h-.3l.3.1v.3zM-.7 7.1h.3l-.1.4h.1l.1-.3H0v-.1h-.3l.1-.4h-.1l-.1.4-.3-.1zM1 7v.3l-.4-.1v.1l.4.1-.1.3H1v-.3h.4l-.3-.1V7zM1.6 6h-.3v-.4l-.1.3H.9V6h.3l-.1.4h.1l.1-.3h.3zM-3.1 6.2l.1-.4.3.1v-.1l-.3-.1.1-.3H-3l-.1.3h-.3l.3.1-.1.3zM-3.7 7.1h.4l-.1.4h.1l.1-.3h.3v-.1h-.3v-.4h-.1v.4l-.3-.1zM-1.9 7l-.1.3-.3-.1v.1l.3.1v.3h.1v-.3h.4l-.4-.1.1-.3zM-1.3 6h-.3v-.4h-.1v.3h-.4V6h.4l-.1.4h.1v-.3h.4zM-6 6.2l.1-.4.3.1v-.1l-.3-.1v-.3H-6v.3h-.4l.4.1-.1.3zM-6.6 7.1h.3v.4h.1v-.3h.4v-.1h-.4l.1-.4h-.1v.4l-.4-.1zM-4.8 7l-.1.3-.3-.1v.1l.3.1-.1.3h.1l.1-.3h.3l-.3-.1.1-.3zM-4.2 6h-.4l.1-.4h-.1l-.1.3H-5V6h.3v.4h.1v-.3h.3zM-7.9 7.7h.1l.1-.3h.3l-.3-.1V7h-.1v.3l-.3-.1-.1.1.4.1zM-7.2 6h-.3l.1-.4h-.1l-.1.3h-.3V6h.3l-.1.4h.1l.1-.3h.3zM4.9 2.8h-.3l.1-.4h-.1l-.1.4-.3-.1v.1l.3.1v.3l.1-.3h.3zM4.7 4.2l-.3-.1.1-.3h-.1l-.1.3H4l.3.1-.1.3.1.1.1-.4.3.1zM5.3 4.4h.3v.4h.1v-.4l.4.1v-.1h-.4l.1-.4h-.1v.3h-.4zM5.8 3.4h.1l.1-.3.3.1v-.1L6 3v-.3h-.1V3l-.3-.1-.1.1.4.1zM2 2.8h-.3l.1-.4h-.1l-.1.4-.3-.1v.1l.3.1-.1.3h.1l.1-.3H2zM1.8 4.2l-.3-.1v-.3h-.1v.3H1l.4.1-.1.3.1.1v-.4l.4.1zM2.4 4.4h.3v.4l.1-.4.3.1v-.1h-.3l.1-.4h-.1l-.1.3h-.3zM2.9 3.4H3v-.3l.4.1v-.1L3 3l.1-.3H3V3l-.4-.1V3l.3.1zM-.9 2.8h-.3v-.4h-.1v.4l-.4-.1v.1l.4.1-.1.3h.1v-.3h.4zM-1.1 4.2l-.4-.1.1-.3h-.1l-.1.3h-.3l.3.1v.3l.1.1v-.4l.3.1zM-.5 4.4h.3l-.1.4h.1l.1-.4.3.1v-.1h-.3V4l-.1.3h-.3zM0 3.4l.1-.3.3.1v-.1L.1 3l.1-.3H.1L0 3l-.3-.1V3l.3.1zM-3.8 2.8h-.4l.1-.4h-.1l-.1.4-.3-.1v.1l.3.1v.3h.1v-.3h.3zM-4.1 4.2l-.3-.1.1-.3h-.1l-.1.3h-.3l.3.1-.1.3.1.1.1-.4.3.1zM-3.5 4.4h.4l-.1.4h.1v-.4l.4.1v-.1H-3V4h-.1v.3h-.4zM-3 3.4h.1l.1-.3.3.1v-.1l-.3-.1v-.3l-.1.3-.3-.1V3l.3.1zM-6.8 2.8h-.3l.1-.4h-.1l-.1.4-.3-.1v.1l.3.1-.1.3h.1l.1-.3h.3zM-7 4.2l-.3-.1v-.3h-.1v.3h-.4l.4.1-.1.3.1.1.1-.4.3.1zM-6.4 4.4h.3v.4h.1v-.4l.3.1.1-.1H-6l.1-.4H-6l-.1.3h-.3zM-5.9 3.4h.1v-.3l.4.1v-.1l-.3-.1v-.3h-.1V3l-.4-.1V3l.4.1zM6.3.3v-.6.1H6l-.1.1h.4l-.1.4zM6.1 1.6v-.3h.2v-.1h-.1V.8h-.1v.4l-.4-.1v.1l.3.1v.3zM3.5-.5h-.1v.3H3v.1h.3v.4h.1v-.4l.4.1v-.1l-.3-.1zM3.1 1.6l.1-.3h.3v-.1h-.3l.1-.4h-.1l-.1.4-.3-.1v.1l.3.1v.3zM4.1 1.4l.4.1-.1.3h.1l.1-.3.3.1v-.1l-.3-.1v-.3h-.1v.3l-.3-.1zM4.8-.3l-.1.4-.3-.1v.1h.3l-.1.4h.1l.1-.3h.3V.1h-.3l.1-.4zM.6-.5H.5l-.1.3H.1v.1h.3v.4l.1-.4.3.1v-.1L.5-.2zM.2 1.6l.1-.3h.3v-.1H.3V.8l-.1.4-.3-.1v.1l.3.1-.1.3zM1.2 1.4l.3.1v.3h.1v-.3l.4.1v-.1l-.4-.1.1-.3h-.1v.3l-.4-.1zM1.8-.3v.4L1.5 0l-.1.1h.4l-.1.4h.1l.1-.3h.3V.1h-.3v-.4zM-2.4-.5l-.1.3h-.3v.1h.3l-.1.4h.1l.1-.4.3.1v-.1l-.3-.1zM-2.7 1.6v-.3h.4v-.1h-.3V.8h-.1v.4l-.4-.1v.1l.4.1-.1.3zM-1.7 1.4l.3.1v.3l.1-.3.3.1v-.1l-.3-.1.1-.3h-.1l-.1.3-.3-.1zM-1.1-.3v.4l-.4-.1v.1h.3v.4h.1V.2h.4V.1h-.4l.1-.4zM-5.3-.5h-.1v.3h-.4v.1h.4l-.1.4h.1v-.4l.4.1v-.1l-.3-.1zM-5.6 1.6v-.3h.3l.1-.1h-.4l.1-.4h-.1l-.1.4-.3-.1v.1l.3.1v.3zM-4.6 1.4l.3.1-.1.3h.1l.1-.3.3.1v-.1l-.3-.1v-.3l-.1.3-.3-.1zM-4-.3l-.1.4-.3-.1v.1h.3v.4l.1-.3h.3V.1H-4l.1-.4zM-8.3-.1l.3.1.1-.1-.4-.1.1-.3h-.1v.8zM-8.2 1.2h-.1v.1h.1zM-7.6 1.4l.4.1-.1.3h.1v-.3l.4.1v-.1l-.3-.1v-.3h-.1v.3l-.4-.1zM-6.9-.3l-.1.4-.3-.1v.1h.3l-.1.4h.1l.1-.3h.3V.1h-.3v-.4zM5.2-3.4l-.1.3-.3-.1v.1l.3.1-.1.3h.1l.1-.3h.3l-.3-.1.1-.3zM4.9-2.1v.3h-.3l-.1.1h.4l-.1.4h.1l.1-.4.3.1v-.1L5-1.8v-.3zM6.2-1.5l-.3-.1v.1h.3v.4h.1v-.8zM6.1-2.9l.2.1v-.1h-.2zM2.2-3.4v.3l-.3-.1-.1.1.4.1-.1.3h.1l.1-.3h.3l-.3-.1v-.3zM2-2.1v.3h-.4v.1h.3v.4H2v-.4l.4.1v-.1L2-1.8l.1-.3zM3-1.5h.3l-.1.4h.1l.1-.3h.3v-.1h-.3l.1-.4h-.1l-.1.4-.3-.1zM3.6-3.2l-.1.3h-.3l.3.1v.3l.1.1v-.4l.3.1.1-.1-.4-.1.1-.3zM-.7-3.4v.3l-.4-.1v.1l.3.1v.3h.1V-3h.4l-.4-.1.1-.3zM-.9-2.1l-.1.3h-.3v.1h.3v.4l.1-.4.3.1v-.1l-.3-.1.1-.3zM0-1.5h.4l-.1.4h.1l.1-.3h.3v-.1H.5v-.4H.4v.4l-.3-.1zM.7-3.2l-.1.3H.3l.3.1-.1.3.1.1.1-.4.3.1v-.1l-.3-.1.1-.3zM-3.6-3.4l-.1.3-.3-.1v.1l.3.1v.3l.1-.3h.3l-.3-.1.1-.3zM-3.8-2.1l-.1.3h-.3v.1h.3l-.1.4h.1l.1-.4.3.1v-.1l-.3-.1v-.3zM-2.9-1.5h.3v.4h.1v-.3h.4v-.1h-.4l.1-.4h-.1v.4l-.4-.1zM-2.3-3.2v.3h-.4l.4.1-.1.3.1.1.1-.4.3.1v-.1l-.3-.1v-.3zM-6.5-3.4l-.1.3-.3-.1v.1l.3.1-.1.3h.1l.1-.3h.3l-.3-.1v-.3zM-6.8-2.1v.3h-.4v.1h.4l-.1.4h.1v-.4l.4.1v-.1l-.3-.1v-.3zM-5.8-1.5h.3l-.1.4h.1l.1-.3h.3v-.1h-.3l.1-.4h-.1l-.1.4-.3-.1zM-5.2-3.2v.3h-.4l.3.1v.3l.1.1v-.4l.4.1v-.1l-.4-.1.1-.3zM-8.3-1.9v.5h.3v-.1h-.3v-.4zM-8.3-2.8h.1l-.1.3.1.1.1-.4.3.1v-.1l-.3-.1.1-.3h-.1l-.1.3h-.1z"/>
    </g>
    <g>
        <path d="M5.2 26h.1-.1zM2.2 26h.1-.1zM-.7 26h.1-.1zM-3.6 26h.1-.1zM-6.5 26zM6.3 24.7v.1zM4.4 23.5l-.4-.1.1-.3H4l-.1.3-.3-.1v.1l.3.1v.3H4v-.3h.3zM3.7 25.2l.1-.4.3.1v-.1l-.3-.1.1-.3h-.1l-.1.3h-.3v.1h.3l-.1.4zM5.1 25.4v-.3h.4V25h-.3v-.4h-.1v.4l-.4-.1v.1l.4.1-.1.3zM5.7 23.7l-.3-.1v-.3l-.1.3H5v.1h.3l-.1.4h.1l.1-.4.3.1zM1.4 23.5l-.3-.1.1-.3h-.1l-.1.3-.3-.1v.1l.3.1-.1.3H1l.1-.3h.3zM.8 25.2l.1-.4.3.1v-.1l-.3-.1v-.3H.8v.3H.5l-.1.1h.4l-.1.4zM2.2 25.4v-.3h.3l.1-.1h-.4l.1-.4h-.1l-.1.4-.3-.1v.1l.3.1v.3zM2.8 23.7l-.3-.1v-.3h-.1v.3H2v.1h.4l-.1.4h.1v-.4l.4.1zM-1.5 23.5l-.3-.1v-.3h-.1v.3l-.3-.1-.1.1.4.1-.1.3h.1l.1-.3h.3zM-2.1 25.2v-.4l.4.1v-.1l-.4-.1.1-.3h-.1v.3h-.4v.1h.3v.4zM-.8 25.4l.1-.3h.3V25h-.3l.1-.4h-.1l-.1.4-.3-.1v.1l.3.1-.1.3zM-.1 23.7l-.4-.1.1-.3h-.1l-.1.3h-.3v.1h.3v.4h.1v-.4l.3.1zM-4.4 23.5l-.4-.1.1-.3h-.1v.3l-.4-.1v.1l.3.1v.3h.1v-.3h.4zM-5.1 25.2l.1-.4.3.1v-.1l-.3-.1.1-.3H-5l-.1.3h-.3v.1h.3v.4zM-3.7 25.4l.1-.3h.3V25h-.3v-.4h-.1v.4l-.3-.1-.1.1.4.1-.1.3zM-3.1 23.7l-.3-.1.1-.3h-.1l-.1.3h-.3v.1h.3l-.1.4h.1l.1-.4.3.1zM-7.8 23.8l.1-.3h.3l-.3-.1.1-.3h-.1l-.1.3-.3-.1v.1l.3.1v.3zM-8 25.2l.1-.4.3.1v-.1l-.3-.1v-.3l-.1.3h-.3v.1h.3l-.1.4zM-6.6 25.4v-.3h.4V25h-.4l.1-.4h-.1v.4l-.4-.1v.1l.3.1v.3zM-6 23.7l-.3-.1v-.3h-.1v.3h-.3l-.1.1h.4l-.1.4h.1l.1-.4.3.1zM5.7 20.9l.1-.4.3.1v-.1h-.3l.1-.4h-.1l-.1.3h-.3v.1h.3l-.1.4zM5.1 21.8l.4.1-.1.3h.1v-.3h.4l-.3-.1v-.3l-.1-.1v.4l-.4-.1zM2.8 20.9v-.4l.4.1v-.1h-.3v-.4h-.1v.3h-.4v.1h.4l-.1.4zM2.2 21.8l.3.1v.3h.1v-.3H3l-.4-.1.1-.3-.1-.1-.1.4-.3-.1zM4 21.7l-.1.3h-.3l.3.1-.1.3.1.1.1-.4.3.1v-.1L4 22v-.3zM4.5 20.7h-.3l.1-.3-.1-.1-.1.4-.3-.1v.1l.3.1v.3l.1-.3h.3zM-.1 20.9v-.4l.3.1.1-.1h-.4l.1-.4h-.1l-.1.3h-.3v.1h.3v.4zM-.7 21.8l.3.1-.1.3h.1l.1-.3H0l-.3-.1.1-.3-.1-.1-.1.4-.3-.1zM1 21.7v.3H.6l.4.1-.1.3.1.1v-.4l.4.1v-.1l-.3-.1v-.3zM1.6 20.7h-.3v-.4l-.1.4-.3-.1v.1l.3.1-.1.3h.1l.1-.3h.3zM-3.1 20.9l.1-.4.3.1v-.1H-3l.1-.4H-3l-.1.3h-.3v.1h.3l-.1.4zM-3.7 21.8l.4.1-.1.3h.1l.1-.3h.3l-.3-.1v-.3l-.1-.1v.4l-.3-.1zM-1.9 21.7l-.1.3h-.3l.3.1v.3l.1.1v-.4l.3.1.1-.1-.4-.1.1-.3zM-1.3 20.7h-.3v-.3l-.1-.1v.4l-.4-.1v.1l.4.1-.1.3h.1v-.3h.4zM-6 20.9l.1-.4.3.1v-.1h-.3v-.4H-6v.3h-.3l-.1.1h.4l-.1.4zM-6.6 21.8l.3.1v.3h.1v-.3h.4l-.4-.1.1-.3-.1-.1v.4l-.4-.1zM-4.8 21.7l-.1.3h-.3l.3.1-.1.3.1.1.1-.4.3.1v-.1l-.3-.1.1-.3zM-4.2 20.7h-.4l.1-.3-.1-.1-.1.4-.3-.1v.1l.3.1v.3h.1v-.3h.3zM-7.9 22.4l.1.1.1-.4.3.1v-.1l-.3-.1v-.3h-.1v.3h-.4l.4.1zM-7.2 20.7h-.3l.1-.3-.1-.1-.1.4-.3-.1v.1l.3.1-.1.3h.1l.1-.3h.3zM4.9 17.6l-.3-.1.1-.3h-.1l-.1.3-.3-.1v.1l.3.1v.3l.1-.3.3.1zM4.7 18.9h-.3l.1-.4h-.1l-.1.3H4v.1h.3l-.1.4h.1l.1-.4.3.1zM5.3 19.1l.3.1v.3h.1v-.3h.4v-.1h-.4l.1-.4h-.1v.4l-.4-.1zM5.8 18.2h.1l.1-.4.3.1v-.1l-.3-.1v-.3h-.1v.3h-.3l-.1.1h.4zM2 17.6l-.3-.1.1-.3h-.1l-.1.3-.3-.1v.1l.3.1-.1.3h.1l.1-.3.3.1zM1.8 18.9h-.3v-.4h-.1v.3H1v.1h.4l-.1.4h.1v-.4l.4.1zM2.4 19.1l.3.1v.3l.1-.3h.3v-.1h-.3l.1-.4h-.1l-.1.4-.3-.1zM2.9 18.2H3v-.4l.4.1v-.1l-.4-.1.1-.3H3v.3h-.4v.1h.3zM-.9 17.6l-.3-.1v-.3h-.1v.3l-.4-.1v.1l.4.1-.1.3h.1v-.3l.4.1zM-1.1 18.9h-.4l.1-.4h-.1l-.1.3h-.3v.1h.3v.4h.1v-.4l.3.1zM-.5 19.1l.3.1-.1.3h.1l.1-.3h.3v-.1h-.3v-.4l-.1.4-.3-.1zM0 18.2l.1-.4.3.1v-.1l-.3-.1.1-.3H.1l-.1.3h-.3v.1H0zM-3.8 17.6l-.4-.1.1-.3h-.1l-.1.3-.3-.1v.1l.3.1v.3h.1v-.3l.3.1zM-4.1 18.9h-.3l.1-.4h-.1l-.1.3h-.3v.1h.3l-.1.4h.1l.1-.4.3.1zM-3.5 19.1l.4.1-.1.3h.1v-.3h.4v-.1H-3v-.4h-.1v.4l-.4-.1zM-3 18.2h.1l.1-.4.3.1v-.1l-.3-.1v-.3l-.1.3h-.3v.1h.3zM-6.8 17.6l-.3-.1.1-.3h-.1l-.1.3-.3-.1v.1l.3.1-.1.3h.1l.1-.3.3.1zM-7 18.9h-.3v-.4h-.1v.3h-.3l-.1.1h.4l-.1.4h.1l.1-.4.3.1zM-6.4 19.1l.3.1v.3h.1v-.3h.3l.1-.1H-6l.1-.4H-6l-.1.4-.3-.1zM-5.9 18.2h.1v-.4l.4.1v-.1l-.3-.1v-.3h-.1v.3h-.4v.1h.4zM6.3 15v-.5.1l-.3-.1-.1.1h.4l-.1.4zM6.1 16.3V16h.2v-.1h-.1v-.3h-.1v.3l-.4-.1v.1l.3.1v.3zM3.5 14.2h-.1v.4l-.4-.1v.1h.3v.4h.1v-.3h.4v-.1h-.3zM3.1 16.3l.1-.3.3.1V16l-.3-.1.1-.3h-.1l-.1.3-.3-.1v.1l.3.1v.3zM4.1 16.2h.4l-.1.4h.1l.1-.4.3.1v-.1l-.3-.1v-.3h-.1v.3h-.3zM4.8 14.4l-.1.4-.3-.1v.1l.3.1-.1.3h.1l.1-.3h.3l-.3-.1.1-.3zM.6 14.2H.5l-.1.4-.3-.1v.1h.3v.4l.1-.3h.3v-.1H.5zM.2 16.3l.1-.3.3.1V16l-.3-.1v-.3l-.1.3-.3-.1v.1l.3.1-.1.3zM1.2 16.2h.3v.4h.1v-.4l.4.1v-.1l-.4-.1.1-.3h-.1v.3h-.4zM1.8 14.4v.4l-.3-.1-.1.1.4.1-.1.3h.1l.1-.3h.3l-.3-.1v-.3zM-2.4 14.2l-.1.4-.3-.1v.1h.3l-.1.4h.1l.1-.3h.3v-.1h-.3zM-2.7 16.3V16l.4.1V16l-.3-.1v-.3h-.1v.3l-.4-.1v.1l.4.1-.1.3zM-1.7 16.2h.3v.4l.1-.4.3.1v-.1l-.3-.1.1-.3h-.1l-.1.3h-.3zM-1.1 14.4v.4l-.4-.1v.1l.3.1v.3h.1v-.3h.4l-.4-.1.1-.3zM-5.3 14.2h-.1v.4l-.4-.1v.1h.4l-.1.4h.1v-.3h.4v-.1h-.3zM-5.6 16.3V16l.3.1.1-.1-.4-.1.1-.3h-.1l-.1.3-.3-.1v.1l.3.1v.3zM-4.6 16.2h.3l-.1.4h.1l.1-.4.3.1v-.1l-.3-.1v-.3l-.1.3h-.3zM-4 14.4l-.1.4-.3-.1v.1l.3.1v.3l.1-.3h.3l-.3-.1.1-.3zM-8.3 14.7h.3l.1-.1h-.4l.1-.4h-.1v.8zM-8.2 16l-.1-.1v.1l.1.1zM-7.6 16.2h.4l-.1.4h.1v-.4l.4.1v-.1l-.3-.1v-.3h-.1v.3h-.4zM-6.9 14.4l-.1.4-.3-.1v.1l.3.1-.1.3h.1l.1-.3h.3l-.3-.1v-.3zM5.2 11.3l-.1.3h-.3l.3.1-.1.3.1.1.1-.4.3.1v-.1l-.3-.1.1-.3zM4.9 12.6v.3h-.3l-.1.1h.4l-.1.4h.1l.1-.3h.3V13H5v-.4zM6.2 13.2l-.3-.1v.1l.3.1v.3h.1v-.8zM6.1 11.9h.2v-.1h-.2zM2.2 11.3v.3h-.4l.4.1-.1.3.1.1.1-.4.3.1v-.1l-.3-.1v-.3zM2 12.6v.3h-.4v.1h.3v.4H2v-.3h.4V13H2l.1-.4zM3 13.2l.3.1-.1.3h.1l.1-.3h.3l-.3-.1.1-.3-.1-.1-.1.4-.3-.1zM3.6 11.5l-.1.3h-.3v.1h.3v.4h.1v-.4l.3.1.1-.1h-.4l.1-.4zM-.7 11.3v.3h-.4l.3.1v.3l.1.1v-.4l.4.1v-.1l-.4-.1.1-.3zM-.9 12.6l-.1.3h-.3v.1h.3v.4l.1-.3h.3V13h-.3l.1-.4zM0 13.2l.4.1-.1.3h.1l.1-.3h.3l-.3-.1v-.3l-.1-.1v.4l-.3-.1zM.7 11.5l-.1.3H.3v.1h.3l-.1.4h.1l.1-.4.3.1v-.1H.7l.1-.4zM-3.6 11.3l-.1.3H-4l.3.1v.4l.1-.4.3.1v-.1l-.3-.1.1-.3zM-3.8 12.6l-.1.3h-.3v.1h.3l-.1.4h.1l.1-.3h.3V13h-.3v-.4zM-2.9 13.2l.3.1v.3h.1v-.3h.4l-.4-.1.1-.3-.1-.1v.4l-.4-.1zM-2.3 11.5v.3h-.3l-.1.1h.4l-.1.4h.1l.1-.4.3.1v-.1h-.3v-.4zM-6.5 11.3l-.1.3h-.3l.3.1-.1.3.1.1.1-.4.3.1v-.1l-.3-.1v-.3zM-6.8 12.6v.3h-.4v.1h.4l-.1.4h.1v-.3h.4V13h-.3v-.4zM-5.8 13.2l.3.1-.1.3h.1l.1-.3h.3l-.3-.1.1-.3-.1-.1-.1.4-.3-.1zM-5.2 11.5v.3h-.4v.1h.3v.4h.1v-.4l.4.1v-.1h-.4l.1-.4zM-8.3 12.8v.6-.1h.3l-.3-.1v-.3zM-8.3 11.9h.1l-.1.4h.1l.1-.4.3.1v-.1h-.3l.1-.4h-.1l-.1.3h-.1z"/>
    </g>
    <g>
        <path d="M5.2 40.7h.1-.1zM2.2 40.7h.1-.1zM-.7 40.7h.1-.1zM-3.6 40.7h.1-.1zM-6.5 40.7zM6.3 39.5zM4.4 38.2l-.4-.1.1-.3H4l-.1.3h-.3l.3.1v.3l.1.1v-.4l.3.1zM3.7 39.9l.1-.3h.3v-.1h-.3l.1-.4h-.1l-.1.4-.3-.1v.1h.3l-.1.4zM5.1 40.1v-.3h.4l-.3-.1v-.3h-.1v.3l-.4-.1v.1l.4.1-.1.3zM5.7 38.4h-.3V38l-.1.3H5v.1h.3l-.1.4h.1l.1-.3h.3zM1.4 38.2l-.3-.1.1-.3h-.1l-.1.3H.7l.3.1-.1.3.1.1.1-.4.3.1zM.8 39.9l.1-.3h.3v-.1H.9v-.4H.8v.4l-.3-.1-.1.1h.4l-.1.4zM2.2 40.1v-.3h.4l-.4-.1.1-.3h-.1l-.1.3-.3-.1v.1l.3.1v.3zM2.8 38.4h-.3V38h-.1v.3H2v.1h.4l-.1.4h.1v-.3h.4zM-1.5 38.2l-.3-.1v-.3h-.1v.3h-.4l.4.1-.1.3.1.1.1-.4.3.1zM-2.1 39.9v-.3h.4v-.1h-.4l.1-.4h-.1v.4l-.4-.1v.1h.3v.4zM-.8 40.1l.1-.3h.3l-.3-.1.1-.3h-.1l-.1.3-.3-.1v.1l.3.1-.1.3zM-.1 38.4h-.4l.1-.4h-.1l-.1.3h-.3v.1h.3v.4h.1v-.3h.3zM-4.4 38.2l-.4-.1.1-.3h-.1v.3h-.4l.3.1v.3l.1.1v-.4l.4.1zM-5.1 39.9l.1-.3h.3v-.1H-5l.1-.4H-5l-.1.4-.3-.1v.1h.3v.4zM-3.7 40.1l.1-.3h.3l-.3-.1v-.3h-.1v.3l-.3-.1-.1.1.4.1-.1.3zM-3.1 38.4h-.3l.1-.4h-.1l-.1.3h-.3v.1h.3l-.1.4h.1l.1-.3h.3zM-7.8 38.6l.1-.4.3.1v-.1l-.3-.1.1-.3h-.1l-.1.3h-.3l.3.1v.3zM-8 39.9l.1-.3h.3v-.1h-.3v-.4l-.1.4-.3-.1v.1h.3l-.1.4zM-6.6 40.1v-.3h.4l-.4-.1.1-.3h-.1v.3l-.4-.1v.1l.3.1v.3zM-6 38.4h-.3V38h-.1v.3h-.3l-.1.1h.4l-.1.4h.1l.1-.3h.3zM5.7 35.6l.1-.3h.3v-.1h-.3l.1-.4h-.1l-.1.4-.3-.1v.1l.3.1-.1.3zM5.1 36.5l.4.1-.1.3.1.1v-.4l.4.1v-.1l-.3-.1v-.3h-.1v.3h-.4zM2.8 35.6v-.3h.4v-.1h-.3v-.4h-.1v.4l-.4-.1v.1l.4.1-.1.3zM2.2 36.5l.3.1v.3l.1.1v-.4l.3.1.1-.1-.4-.1.1-.3h-.1l-.1.3h-.3zM4 36.4l-.1.3h-.3v.1h.3l-.1.4h.1l.1-.4.3.1v-.1H4v-.4zM4.5 35.5l-.3-.1.1-.3h-.1l-.1.3-.3-.1v.1l.3.1v.3l.1-.3.3.1zM-.1 35.6v-.3h.3l.1-.1h-.4l.1-.4h-.1l-.1.4-.3-.1v.1l.3.1v.3zM-.7 36.5l.3.1-.1.3.1.1.1-.4.3.1v-.1l-.3-.1.1-.3h-.1l-.1.3h-.3zM1 36.4v.3H.6v.1H1l-.1.4H1v-.4l.4.1v-.1h-.3v-.4zM1.6 35.5l-.3-.1v-.3l-.1.3-.3-.1v.1l.3.1-.1.3h.1l.1-.3.3.1zM-3.1 35.6l.1-.3h.3v-.1H-3l.1-.4H-3l-.1.4-.3-.1v.1l.3.1-.1.3zM-3.7 36.5l.4.1-.1.3.1.1.1-.4.3.1v-.1l-.3-.1v-.3h-.1v.3h-.3zM-1.9 36.4l-.1.3h-.3v.1h.3v.4h.1v-.4l.3.1.1-.1h-.4l.1-.4zM-1.3 35.5l-.3-.1v-.3h-.1v.3l-.4-.1v.1l.4.1-.1.3h.1v-.3l.4.1zM-6 35.6l.1-.3h.3v-.1h-.3v-.4H-6v.4l-.3-.1-.1.1.4.1-.1.3zM-6.6 36.5l.3.1v.3l.1.1v-.4l.4.1v-.1l-.4-.1.1-.3h-.1v.3h-.4zM-4.8 36.4l-.1.3h-.3v.1h.3l-.1.4h.1l.1-.4.3.1v-.1h-.3l.1-.4zM-4.2 35.5l-.4-.1.1-.3h-.1l-.1.3-.3-.1v.1l.3.1v.3h.1v-.3l.3.1zM-7.9 37.2h.1l.1-.4.3.1v-.1h-.3v-.4h-.1v.3h-.3l-.1.1h.4zM-7.2 35.5l-.3-.1.1-.3h-.1l-.1.3-.3-.1v.1l.3.1-.1.3h.1l.1-.3.3.1zM4.9 32.3l-.3-.1.1-.3h-.1l-.1.3h-.3v.1h.3v.4l.1-.4.3.1zM4.7 33.6h-.3l.1-.4h-.1l-.1.4-.3-.1v.1l.3.1-.1.3h.1l.1-.3h.3zM5.3 33.8l.3.1v.3h.1v-.3l.4.1v-.1l-.4-.1.1-.3h-.1v.3l-.4-.1zM5.8 32.9h.1l.1-.3h.3v-.1H6v-.4h-.1v.4l-.3-.1-.1.1h.4zM2 32.3l-.3-.1.1-.3h-.1l-.1.3h-.3v.1h.3l-.1.4h.1l.1-.4.3.1zM1.8 33.6h-.3v-.4h-.1v.4l-.4-.1v.1l.4.1-.1.3h.1v-.3h.4zM2.4 33.8l.3.1v.3l.1-.3.3.1v-.1l-.3-.1.1-.3h-.1l-.1.3-.3-.1zM2.9 32.9H3v-.3h.4v-.1H3l.1-.4H3v.4l-.4-.1v.1h.3zM-.9 32.3l-.3-.1v-.3h-.1v.3h-.4v.1h.4l-.1.4h.1v-.4l.4.1zM-1.1 33.6h-.4l.1-.4h-.1l-.1.4-.3-.1v.1l.3.1v.3h.1v-.3h.3zM-.5 33.8l.3.1-.1.3h.1l.1-.3.3.1v-.1l-.3-.1v-.3l-.1.3-.3-.1zM0 32.9l.1-.3h.3v-.1H.1l.1-.4H.1l-.1.4-.3-.1v.1H0zM-3.8 32.3l-.4-.1.1-.3h-.1l-.1.3h-.3v.1h.3v.4h.1v-.4l.3.1zM-4.1 33.6h-.3l.1-.4h-.1l-.1.4-.3-.1v.1l.3.1-.1.3h.1l.1-.3h.3zM-3.5 33.8l.4.1-.1.3h.1v-.3l.4.1v-.1l-.3-.1v-.3h-.1v.3l-.4-.1zM-3 32.9h.1l.1-.3h.3v-.1h-.3v-.4l-.1.4-.3-.1v.1h.3zM-6.8 32.3l-.3-.1.1-.3h-.1l-.1.3h-.3v.1h.3l-.1.4h.1l.1-.4.3.1zM-7 33.6h-.3v-.4h-.1v.4l-.3-.1-.1.1.4.1-.1.3h.1l.1-.3h.3zM-6.4 33.8l.3.1v.3h.1v-.3l.3.1.1-.1-.4-.1.1-.3H-6l-.1.3-.3-.1zM-5.9 32.9h.1v-.3h.4v-.1h-.3v-.4h-.1v.4l-.4-.1v.1h.4zM6.3 29.7v-.5.1l-.3-.1-.1.1.4.1-.1.3zM6.1 31.1v-.4l.2.1v-.1l-.1-.1v-.3h-.1v.3h-.4v.1H6v.4zM3.5 29l-.1-.1v.4l-.4-.1v.1l.3.1v.3h.1v-.3h.4l-.3-.1zM3.1 31.1l.1-.4.3.1v-.1l-.3-.1.1-.3h-.1l-.1.3h-.3v.1h.3v.4zM4.1 30.9h.4l-.1.4h.1l.1-.3h.3v-.1h-.3v-.4h-.1v.4l-.3-.1zM4.8 29.2l-.1.3h-.3l.3.1-.1.3.1.1.1-.4.3.1v-.1l-.3-.1.1-.3zM.6 29l-.1-.1-.1.4-.3-.1v.1l.3.1v.3l.1-.3h.3l-.3-.1zM.2 31.1l.1-.4.3.1v-.1l-.3-.1v-.3l-.1.3h-.3v.1h.3l-.1.4zM1.2 30.9h.3v.4h.1V31H2v-.1h-.4l.1-.4h-.1v.4l-.4-.1zM1.8 29.2v.3h-.4l.4.1-.1.3.1.1.1-.4.3.1v-.1l-.3-.1v-.3zM-2.4 29v-.1l-.1.4-.3-.1v.1l.3.1-.1.3h.1l.1-.3h.3l-.3-.1zM-2.7 31.1v-.4l.4.1v-.1l-.3-.1v-.3h-.1v.3h-.4v.1h.4l-.1.4zM-1.7 30.9h.3v.4l.1-.3h.3v-.1h-.3l.1-.4h-.1l-.1.4-.3-.1zM-1.1 29.2v.3h-.4l.3.1v.3l.1.1v-.4l.4.1v-.1l-.4-.1.1-.3zM-5.3 29l-.1-.1v.4l-.4-.1v.1l.4.1-.1.3h.1v-.3h.4l-.3-.1zM-5.6 31.1v-.4l.3.1.1-.1-.4-.1.1-.3h-.1l-.1.3H-6v.1h.3v.4zM-4.6 30.9h.3l-.1.4h.1l.1-.3h.3v-.1h-.3v-.4l-.1.4-.3-.1zM-4 29.2l-.1.3h-.3l.3.1v.4l.1-.4.3.1v-.1l-.3-.1.1-.3zM-8.3 29.4h.4l-.4-.1.1-.3-.1-.1v.8zM-8.2 30.7h-.1v.1h.1zM-7.6 30.9h.4l-.1.4h.1V31h.4v-.1h-.3v-.4h-.1v.4l-.4-.1zM-6.9 29.2l-.1.3h-.3l.3.1-.1.3.1.1.1-.4.3.1v-.1l-.3-.1v-.3zM5.2 26l-.1.3h-.3v.1h.3l-.1.4h.1l.1-.4.3.1v-.1h-.3l.1-.4zM4.9 27.3v.4l-.3-.1-.1.1.4.1-.1.3h.1l.1-.3h.3v-.1H5v-.3zM6.2 27.9h-.3l.3.1v.3l.1.1v-.8zM6.1 26.6h.2v-.1h-.2zM2.2 26v.3h-.3l-.1.1h.4l-.1.4h.1l.1-.4.3.1v-.1h-.3V26zM2 27.3v.4l-.4-.1v.1l.3.1v.3H2v-.3h.4v-.1H2l.1-.3zM3 27.9l.3.1-.1.3.1.1.1-.4.3.1V28l-.3-.1.1-.3h-.1l-.1.3H3zM3.6 26.2l-.1.4-.3-.1v.1l.3.1v.3h.1v-.3h.3l.1-.1h-.4l.1-.4zM-.7 26v.3h-.4v.1h.3v.4h.1v-.4l.4.1v-.1h-.4l.1-.4zM-.9 27.3l-.1.4-.3-.1v.1l.3.1v.3l.1-.3h.3v-.1h-.3l.1-.3zM0 27.9l.4.1-.1.3.1.1.1-.4.3.1V28l-.3-.1v-.3H.4v.3H.1zM.7 26.2l-.1.4-.3-.1v.1l.3.1-.1.3h.1l.1-.3H1v-.1H.7l.1-.4zM-3.6 26l-.1.3H-4v.1h.3v.4l.1-.4.3.1v-.1h-.3l.1-.4zM-3.8 27.3l-.1.4-.3-.1v.1l.3.1-.1.3h.1l.1-.3h.3v-.1h-.3v-.3zM-2.9 27.9l.3.1v.3l.1.1V28l.4.1V28l-.4-.1.1-.3h-.1v.3h-.4zM-2.3 26.2v.4l-.3-.1-.1.1.4.1-.1.3h.1l.1-.3h.3v-.1h-.3v-.4zM-6.5 26l-.1.3h-.3v.1h.3l-.1.4h.1l.1-.4.3.1v-.1h-.3V26zM-6.8 27.3v.4l-.4-.1v.1l.4.1-.1.3h.1v-.3h.4v-.1h-.3v-.3zM-5.8 27.9l.3.1-.1.3.1.1.1-.4.3.1V28l-.3-.1.1-.3h-.1l-.1.3h-.3zM-5.2 26.2v.4l-.4-.1v.1l.3.1v.3h.1v-.3h.4v-.1h-.4l.1-.4zM-8.3 27.6v.5-.1l.3.1V28l-.3-.1v-.3zM-8.3 26.6l.1.1-.1.3h.1l.1-.3h.3v-.1h-.3l.1-.4h-.1l-.1.4-.1-.1z"/>
    </g>
    <g>
        <path d="M5.2 55.5h.1-.1zM2.2 55.5h.1-.1zM-.7 55.5h.1-.1zM-3.6 55.5h.1-.1zM-6.5 55.5zM6.3 54.2zM4.4 52.9H4l.1-.4H4l-.1.3h-.3v.1h.3v.4H4v-.4l.3.1zM3.7 54.6l.1-.3h.3l-.3-.1.1-.3-.1-.1-.1.4-.3-.1v.1l.3.1-.1.3zM5.1 54.9v-.4l.4.1v-.1l-.3-.1v-.3h-.1v.3h-.4l.4.1-.1.3zM5.7 53.1h-.3v-.4l-.1.4L5 53v.1l.3.1-.1.3h.1l.1-.3h.3zM1.4 52.9h-.3l.1-.4h-.1l-.1.3H.7v.1H1l-.1.4H1l.1-.4.3.1zM.8 54.6l.1-.3h.3l-.3-.1v-.3l-.1-.1v.4l-.3-.1-.1.1.4.1-.1.3zM2.2 54.9v-.4l.3.1.1-.1-.4-.1.1-.3h-.1l-.1.3h-.3l.3.1v.3zM2.8 53.1h-.3v-.3l-.1-.1v.4L2 53v.1l.4.1-.1.3h.1v-.3h.4zM-1.5 52.9h-.3v-.4h-.1v.3h-.3l-.1.1h.4l-.1.4h.1l.1-.4.3.1zM-2.1 54.6v-.3h.4l-.4-.1.1-.3-.1-.1v.4l-.4-.1v.1l.3.1v.3zM-.8 54.9l.1-.4.3.1v-.1l-.3-.1.1-.3h-.1l-.1.3h-.3l.3.1-.1.3zM-.1 53.1h-.4l.1-.3-.1-.1-.1.4-.3-.1v.1l.3.1v.3h.1v-.3h.3zM-4.4 52.9h-.4l.1-.4h-.1v.3h-.4v.1h.3v.4h.1v-.4l.4.1zM-5.1 54.6l.1-.3h.3l-.3-.1.1-.3-.1-.1-.1.4-.3-.1v.1l.3.1v.3zM-3.7 54.9l.1-.4.3.1v-.1l-.3-.1v-.3h-.1v.3h-.4l.4.1-.1.3zM-3.1 53.1h-.3l.1-.3-.1-.1-.1.4-.3-.1v.1l.3.1-.1.3h.1l.1-.3h.3zM-7.8 53.3l.1-.4.3.1v-.1h-.3l.1-.4h-.1l-.1.3h-.3v.1h.3v.4zM-8 54.6l.1-.3h.3l-.3-.1v-.4l-.1.4-.3-.1v.1l.3.1-.1.3zM-6.6 54.9v-.4l.4.1v-.1l-.4-.1.1-.3h-.1v.3H-7l.3.1v.3zM-6 53.1h-.3v-.3l-.1-.1v.4l-.3-.1-.1.1.4.1-.1.3h.1l.1-.3h.3zM5.7 50.3l.1-.3.3.1V50l-.3-.1.1-.3h-.1l-.1.3-.3-.1v.1l.3.1-.1.3zM5.1 51.3h.4l-.1.4h.1v-.4l.4.1v-.1h-.3v-.4h-.1v.3h-.4zM2.8 50.3V50l.4.1V50l-.3-.1v-.3h-.1v.3l-.4-.1v.1l.4.1-.1.3zM2.2 51.3h.3v.4h.1v-.4l.3.1.1-.1h-.4l.1-.4h-.1l-.1.3h-.3zM4 51.1l-.1.4-.3-.1v.1l.3.1-.1.3h.1l.1-.3h.3v-.1H4v-.4zM4.5 50.2l-.3-.1.1-.3h-.1l-.1.3h-.3v.1h.3v.4l.1-.4.3.1zM-.1 50.3V50l.3.1.1-.1-.4-.1.1-.3h-.1l-.1.3-.3-.1v.1l.3.1v.3zM-.7 51.3h.3l-.1.4h.1l.1-.4.3.1v-.1h-.3l.1-.4h-.1l-.1.3h-.3zM1 51.1v.4l-.4-.1v.1l.4.1-.1.3H1v-.3h.4v-.1h-.3v-.4zM1.6 50.2l-.3-.1v-.3l-.1.3H.9v.1h.3l-.1.4h.1l.1-.4.3.1zM-3.1 50.3l.1-.3.3.1V50l-.3-.1.1-.3H-3l-.1.3-.3-.1v.1l.3.1-.1.3zM-3.7 51.3h.4l-.1.4h.1l.1-.4.3.1v-.1h-.3v-.4h-.1v.3h-.3zM-1.9 51.1l-.1.4-.3-.1v.1l.3.1v.3h.1v-.3h.3l.1-.1h-.4l.1-.4zM-1.3 50.2l-.3-.1v-.3h-.1v.3h-.4v.1h.4l-.1.4h.1v-.4l.4.1zM-6 50.3l.1-.3.3.1V50l-.3-.1v-.3H-6v.3l-.3-.1-.1.1.4.1-.1.3zM-6.6 51.3h.3v.4h.1v-.4l.4.1v-.1h-.4l.1-.4h-.1v.3h-.4zM-4.8 51.1l-.1.4-.3-.1v.1l.3.1-.1.3h.1l.1-.3h.3v-.1h-.3l.1-.4zM-4.2 50.2l-.4-.1.1-.3h-.1l-.1.3H-5v.1h.3v.4h.1v-.4l.3.1zM-7.9 51.9h.1l.1-.3h.3v-.1h-.3v-.4h-.1v.4l-.3-.1-.1.1.4.1zM-7.2 50.2l-.3-.1.1-.3h-.1l-.1.3h-.3v.1h.3l-.1.4h.1l.1-.4.3.1zM4.9 47h-.3l.1-.4h-.1l-.1.4-.3-.1v.1h.3v.4l.1-.3h.3zM4.7 48.4l-.3-.1.1-.3h-.1l-.1.3-.3-.1v.1l.3.1-.1.3h.1l.1-.3.3.1zM5.3 48.6h.3v.4h.1v-.4l.4.1v-.1l-.4-.1.1-.3h-.1v.3h-.4zM5.8 47.6h.1l.1-.3h.3l-.3-.1v-.3l-.1-.1v.4l-.3-.1-.1.1.4.1zM2 47h-.3l.1-.4h-.1l-.1.4-.3-.1v.1h.3l-.1.4h.1l.1-.3H2zM1.8 48.4l-.3-.1V48h-.1v.3l-.4-.1v.1l.4.1-.1.3h.1v-.3l.4.1zM2.4 48.6h.3v.4l.1-.4.3.1v-.1l-.3-.1.1-.3h-.1l-.1.3h-.3zM2.9 47.6H3v-.3h.4l-.4-.1.1-.3-.1-.1v.4l-.4-.1v.1l.3.1zM-.9 47h-.3v-.4h-.1v.4l-.4-.1v.1h.4l-.1.4h.1v-.3h.4zM-1.1 48.4l-.4-.1.1-.3h-.1l-.1.3-.3-.1v.1l.3.1v.3h.1v-.3l.3.1zM-.5 48.6h.3l-.1.4h.1l.1-.4.3.1v-.1l-.3-.1v-.3l-.1.3h-.3zM0 47.6l.1-.3h.3l-.3-.1.1-.3-.1-.1-.1.4-.3-.1v.1l.3.1zM-3.8 47h-.4l.1-.4h-.1l-.1.4-.3-.1v.1h.3v.4h.1v-.3h.3zM-4.1 48.4l-.3-.1.1-.3h-.1l-.1.3-.3-.1v.1l.3.1-.1.3h.1l.1-.3.3.1zM-3.5 48.6h.4l-.1.4h.1v-.4l.4.1v-.1l-.3-.1v-.3h-.1v.3h-.4zM-3 47.6h.1l.1-.3h.3l-.3-.1v-.4l-.1.4-.3-.1v.1l.3.1zM-6.8 47h-.3l.1-.4h-.1l-.1.4-.3-.1v.1h.3l-.1.4h.1l.1-.3h.3zM-7 48.4l-.3-.1V48h-.1v.3l-.3-.1-.1.1.4.1-.1.3h.1l.1-.3.3.1zM-6.4 48.6h.3v.4h.1v-.4l.3.1.1-.1-.4-.1.1-.3H-6l-.1.3h-.3zM-5.9 47.6h.1v-.3h.4l-.3-.1v-.3l-.1-.1v.4l-.4-.1v.1l.4.1zM6.3 44.5v-.6.1h-.4l.4.1-.1.3zM6.1 45.8v-.3h.2v-.1h-.1V45h-.1v.3h-.4v.1H6v.4zM3.5 43.7h-.1v.3H3l.3.1v.3l.1.1v-.4l.4.1v-.1l-.3-.1zM3.1 45.8l.1-.3h.3v-.1h-.3l.1-.4h-.1l-.1.3h-.3v.1h.3v.4zM4.1 45.6l.4.1-.1.3h.1l.1-.3h.3l-.3-.1v-.3l-.1-.1v.4l-.3-.1zM4.8 43.9l-.1.3h-.3v.1h.3l-.1.4h.1l.1-.4.3.1v-.1h-.3l.1-.4zM.6 43.7H.5l-.1.3H.1l.3.1v.4l.1-.4.3.1v-.1L.5 44zM.2 45.8l.1-.3h.3v-.1H.3V45l-.1.3h-.3v.1h.3l-.1.4zM1.2 45.6l.3.1v.3h.1v-.3H2l-.4-.1.1-.3-.1-.1v.4l-.4-.1zM1.8 43.9v.3h-.3l-.1.1h.4l-.1.4h.1l.1-.4.3.1v-.1h-.3v-.4zM-2.4 43.7l-.1.3h-.3l.3.1-.1.3.1.1.1-.4.3.1v-.1l-.3-.1zM-2.7 45.8v-.3h.4v-.1h-.3V45h-.1v.3h-.4v.1h.4l-.1.4zM-1.7 45.6l.3.1v.3l.1-.3h.3l-.3-.1.1-.3-.1-.1-.1.4-.3-.1zM-1.1 43.9v.3h-.4v.1h.3v.4h.1v-.4l.4.1v-.1h-.4l.1-.4zM-5.3 43.7h-.1v.3h-.4l.4.1-.1.3.1.1v-.4l.4.1v-.1l-.3-.1zM-5.6 45.8v-.3h.3l.1-.1h-.4l.1-.4h-.1l-.1.3H-6v.1h.3v.4zM-4.6 45.6l.3.1-.1.3h.1l.1-.3h.3l-.3-.1v-.4l-.1.4-.3-.1zM-4 43.9l-.1.3h-.3v.1h.3v.4l.1-.4.3.1v-.1H-4l.1-.4zM-8.3 44.1l.3.1.1-.1-.4-.1.1-.3h-.1v.8zM-8.2 45.4h-.1v.1h.1zM-7.6 45.6l.4.1-.1.3h.1v-.3h.4l-.3-.1v-.3l-.1-.1v.4l-.4-.1zM-6.9 43.9l-.1.3h-.3v.1h.3l-.1.4h.1l.1-.4.3.1v-.1h-.3v-.4zM5.2 40.7l-.1.4-.3-.1v.1l.3.1-.1.3h.1l.1-.3h.3v-.1h-.3l.1-.4zM4.9 42.1v.3l-.3-.1-.1.1.4.1-.1.3.1.1.1-.4.3.1v-.1l-.3-.1v-.3zM6.2 42.6h-.3v.1h.3v.4h.1v-.8zM6.1 41.3l.2.1v-.1l-.2-.1zM2.2 40.7v.4l-.3-.1-.1.1.4.1-.1.3h.1l.1-.3h.3v-.1h-.3v-.4zM2 42.1v.3l-.4-.1v.1l.3.1v.3l.1.1v-.4l.4.1v-.1l-.4-.1.1-.3zM3 42.7h.3l-.1.4h.1l.1-.4.3.1v-.1h-.3l.1-.4h-.1l-.1.3H3zM3.6 41l-.1.3-.3-.1v.1l.3.1v.3h.1v-.3l.3.1.1-.1-.4-.1.1-.3zM-.7 40.7v.4l-.4-.1v.1l.3.1v.3h.1v-.3h.4v-.1h-.4l.1-.4zM-.9 42.1l-.1.3-.3-.1v.1l.3.1v.4l.1-.4.3.1v-.1l-.3-.1.1-.3zM0 42.7h.4l-.1.4h.1l.1-.4.3.1v-.1H.5v-.4H.4v.3H.1zM.7 41l-.1.3-.3-.1v.1l.3.1-.1.3h.1l.1-.3.3.1v-.1l-.3-.1.1-.3zM-3.6 40.7l-.1.4-.3-.1v.1l.3.1v.3l.1-.3h.3v-.1h-.3l.1-.4zM-3.8 42.1l-.1.3-.3-.1v.1l.3.1-.1.3.1.1.1-.4.3.1v-.1l-.3-.1v-.3zM-2.9 42.7h.3v.4h.1v-.4l.4.1v-.1h-.4l.1-.4h-.1v.3h-.4zM-2.3 41v.3l-.3-.1-.1.1.4.1-.1.3h.1l.1-.3.3.1v-.1l-.3-.1V41zM-6.5 40.7l-.1.4-.3-.1v.1l.3.1-.1.3h.1l.1-.3h.3v-.1h-.3v-.4zM-6.8 42.1v.3l-.4-.1v.1l.4.1-.1.3.1.1v-.4l.4.1v-.1l-.3-.1v-.3zM-5.8 42.7h.3l-.1.4h.1l.1-.4.3.1v-.1h-.3l.1-.4h-.1l-.1.3h-.3zM-5.2 41v.3l-.4-.1v.1l.3.1v.3h.1v-.3l.4.1v-.1l-.4-.1.1-.3zM-8.3 42.3v.5-.1l.3.1v-.1h-.3v-.4zM-8.3 41.4h.1l-.1.3h.1l.1-.3.3.1v-.1l-.3-.1.1-.3h-.1l-.1.3h-.1z"/>
    </g>
    <path fill="none" d="M0 0h44.5v44.5H0z"/>
</svg>
