<?xml version="1.0" encoding="utf-8"?>
<!-- Generator: Adobe Illustrator 19.0.0, SVG Export Plug-In . SVG Version: 6.00 Build 0)  -->
<svg version="1.1" baseProfile="tiny" id="cartoon" xmlns="http://www.w3.org/2000/svg" xmlns:xlink="http://www.w3.org/1999/xlink"
	 x="0px" y="0px" viewBox="0 0 235.6 277" xml:space="preserve">
<rect y="0" fill="#FFFFFF" width="235.6" height="277"/>
<g>
	<path d="M202.3,110.3c1.7,0.5,3,1,4.2,1.4c0.2,0.4,0.5,0.8,0.7,1.2c-1.6,1.1-3.2,2.1-5.2,3.5c1.2,1.9,2.3,3.7,3.4,5.5
		c2.5-0.3,4.4-0.7,6.4-0.9c4.2-0.4,6.7,1,7.7,5.1c0.8,3.1,2.7,4.7,4.9,6.7c3.6,3.2,7.4,6.9,9.3,11.1c1.8,4.2,1.5,9.5,1.8,14.3
		c0.1,2.1-0.5,4.3-0.9,6.4c-1.1,6.5-4.3,11.5-11,13.8c-0.2,1.8-0.4,3.3-0.5,4.9c-1,25.8-27.5,39.2-46.4,35c-5.3-1.2-9-4.4-10.2-10.1
		c-0.1-0.5-0.2-1.1-0.3-1.6c0-0.1-0.3-0.2-0.7-0.7c-1.2,5.7-2.4,11.2-3.7,17.4c-1,1.5-2.7,3.8-4.5,6.3c1.2,0.8,2,1.3,3.4,2.2
		c-1.9,0.7-3.5,1.3-4.5,1.6c-3.8,4.1-7.2,7.8-11.2,12.2c-0.4,3-2.4,5.9-5.2,8.8c-2.1,2-2.9,5.3-4.8,8.8c-1.4,0.5-3.6,1.4-5.8,2.1
		c-4.3,1.4-8.8,2.4-12.8,4.3c-10.7,5.2-21.9,7.3-33.7,7.2c-1.6,0-3.5-0.2-4.6-1.1c-4-3.2-7.8-6.7-11.9-10.3
		c-0.8,0.6-1.8,1.4-3.7,2.8c0.6-2.2,1-3.5,1.4-5.3c-3.5-2.3-7.1-4.7-10.5-7c-1.1-1.9-2.1-3.6-3.2-5.6c-1.2,1.1-1.8,1.7-2.5,2.3
		c-0.9-2.2-1.7-4.4-2.8-7.1c-1.5,1.4-2.4,2.3-3.9,3.6c0.2-2.1,0.4-3.6,0.6-5.4c-0.8-0.5-1.8-1.2-2.5-1.6c-1.3-2.8-2.4-5.2-3.7-8
		c-1.1,0.8-1.9,1.4-3.5,2.6c0.4-2.6,0.6-4.4,0.9-6.3c-0.2,0-0.4,0-0.6,0.1c-1.2-10.9-2.3-21.8-3.5-33.2c-1.9,0.9-3.7,1.8-5.2,2.6
		c-5.1-7.6-10.1-14.6-14.7-22c-4.4-7.1-6.7-15.1-7.9-23.4c-1.2-8.8-1.7-17.6-0.3-26.5c0.6-3.6,2-6.7,4.2-9.2c4.2-4.8,4.6-9.5,1-14.7
		c-1-1.5-1.9-3.1-2.5-4.8c-2.2-5.9-2.5-11.5,1.8-16.9c4.1-5.2,4.7-11.6,4.4-18.2c2.3-3.9,4.5-7.9,7-11.6c2.2-3.1,2.4-6.2,1.5-9.8
		c-2.2-8.6,0-13.1,8.1-16.9c2-0.9,4.1-1.6,6-2.6c3.9-2.1,7.9-2.6,12.1-1.1c0.8,0.3,1.7,0.2,2.5,0.3c6.9-9.1,15.9-12,24.2-7.6
		c0.5-1.1,1.3-2,1.5-3.2c2-9.1,16-13.8,23.1-11.7c3.4,1,6.3,2.9,8.2,5.9c2.8,4.4,5.4,8.9,8.1,13.4c2.6-2.6,4.9-5.5,7.7-7.8
		c6-4.8,11.7-2.9,14.2,4.5c1.1,3.2,1.9,6.6,2.9,9.9c0.4,1.5,1,2.9,1.7,4.9c2.5-0.8,4.6-1.4,6.6-2.2c9.3-3.9,17.7,0.1,20.4,9.7
		c1.2,4.2,1.7,8.5,0.9,12.9c-0.5,2.8-0.7,5.8-0.4,8.6c0.5,5.7,3.9,9.1,9.6,10.1c6,1.1,7,3.1,6.1,8.9c-1,5.9-1.2,11.8-1.7,17.2
		c2.2,3.5,5.2,2.6,7.8,2.8c3.6,0.3,7.2,0.5,10.7,1c1.1,0.2,2.1,1.2,3.3,1.8C202,104.9,202.1,107.4,202.3,110.3z M154.6,137.8
		c-2.7-3.7-2.8-7.5-1.3-11.8c1.7-4.6,2.8-9.3,4.1-14.1c0.5-2,0.6-4.1,0.9-5.9c-5.1-2.9-10-2.6-14.9-2.7c-2.9,0-5.8,0.3-8.1-2.6
		c0.6-2.2,1.2-4.6,2-7.7c-3.1,0.2-5.4,0.3-7.7,0.5c-3.6-1.1-4.7-4.1-5.5-7.3c-0.8-2.9-1.8-5.5-4.5-6.6c-4.2,1.2-7.9,2.7-11.8,3.3
		c-5.6,0.9-8.2-2.8-5.8-8c1-2.1,2.2-4.1,3.2-6c-1.7-7.2-3.7-9.1-10.4-9c-7.6,0.1-15,1.2-22.4,3.6c-7.4,2.4-15.1,3.3-22.8-0.9
		c-1.6,5.9-5.5,10-10.8,12.8c-1.4,0.8-2.9,1.5-4.4,2c-3.5,1.1-4.8,3.7-4.8,7c0,1.4,0.3,2.9,0.4,4.5c-2.5,5.2-5.1,10.5-7.7,15.9
		c1.3,3.9,2.6,7.8,3.8,11.6c-2.5,3.2-2.6,6.9-2.4,10.4c0.5,6.9,1.2,13.7,1.9,20.5c0.5,5.1,1.1,10.2-1.4,16.3
		c-0.9-1.9-1.4-2.7-1.6-3.6c-1.4-5.8-2.5-11.7-4-17.4c-0.7-2.6-1.7-5.1-3-7.4c-2-3.3-3.5-6.7-3.1-10.1c-1.8-2.1-3.2-3.7-4.7-5.5
		c-3.9,3.4-4.5,7.7-5,12.3c-1.9,16.6,0.5,32.4,8.9,47c1.7,3,3.9,5.6,5.8,8.4c2.3,3.4,4.6,6.9,6.9,10.2c4.3-1.3,1.9-6.1,4.7-8.4
		c1.1,0.8,2.3,1.5,3.4,2.3c0.4,6.4,0.6,12.6,1.2,18.7c0.7,7.1,1.6,14.2,2.8,21.3c0.3,1.8,1.9,3.5,3.1,5.5c1.3-2.1,2.1-3.4,2.9-4.7
		c-0.5,7.3-0.5,7.3,0.9,9.3c1-0.8,1.9-1.6,3.6-3c-0.5,2.6-0.8,4.2-1.1,6.2c1-0.3,1.5-0.4,1.9-0.7c0.5-0.3,0.9-0.8,1.6-1.4
		c0.8,5.1,0.8,5.1,3.9,7.4c0.7-0.2,1.4-0.4,2.2-0.6c0.2,1.3,0.5,2.5,0.6,3.2c3.4,3.1,6.4,5.8,9.5,8.5c1.4-1.2,2.5-2.2,3.6-3.2
		c0.2,0.1,0.5,0.3,0.7,0.4c-0.7,1.5-1.3,3.1-2,4.6c0.7,0.5,1.1,0.8,1.9,1.4c1.8-2.6,3.6-5.1,6-8.5c1.4,6.8,2.5,12.5,3.5,17.7
		c3.1,0,5.8-0.3,8.4,0.1c5.3,0.8,10.5,0.7,15.5-1c7.3-2.6,14.5-5.6,21.9-8c4.8-1.5,8.1-4.4,10.7-8.3c-2.3-2.4-4-4.8-4-8.2
		c1.1,1.3,2.3,2.5,3.7,4.2c1.7-2,3.3-3.8,4.7-5.4c-1.1-3-4.3-3.9-4.9-7.9c2.9,2.4,4.9,4,7,5.7c4.7-3.4,9.1-6.5,11.2-11.7
		c-1.8-1.3-3.2-2.5-4.7-3.6c0.1-0.3,0.3-0.5,0.4-0.8c1.6,0.5,3.2,1,5.4,1.8c1.1-1.6,2.4-3.4,3.8-5.4c-1.9-0.6-3-0.9-5.3-1.6
		c3-0.9,4.8-1.4,6.7-1.9c0.9-2.5,1.7-4.8,2.5-7c-2.1-1.1-3.8-2-5.4-2.8c0.1-0.3,0.3-0.7,0.4-1c1.6,0.4,3.2,0.8,5.5,1.4
		c0.5-3.5,1.9-6.9,1.2-9.8c-1.6-6.5,1.1-11.3,3.9-16.6c2.4-4.5,3.3-9.5,1.2-13.7c-2.4-2.1-5.3-1-7.2-4.6c3.7,1.1,6.4,1.8,8.7,2.5
		c0.8,2.4,1.3,4.1,1.9,5.8c0.3,0,0.6-0.1,0.9-0.1c0.8-3.4,1.7-6.8,2.6-10.5c-1.8-0.3-2.9-0.8-3.9-0.7c-3.8,0.4-7.5,0.9-11.3,1.6
		c-9.7,1.7-15.2-4.3-12.1-13.6C150,147.5,152.4,143,154.6,137.8z M20.8,125c-1.3-2.7-2.3-4.4-2.8-6.2c-1.6-5.4-3.2-10.8-4.2-16.3
		c-0.9-4.7-1.9-9.8-1.1-14.4c1.3-6.8,3.5-13.5,7.5-19.5c6.7-9.8,11.5-20.5,10.4-33c2.8-3,5.9-5.4,9.9-6.4c2.1-0.5,4.2-1.1,4.6-4.1
		c-3.2-1.6-6.3-1.9-9.5-0.7c-3.2,1.3-6.4,2.6-9.4,4.2c-6.4,3.2-8,6.6-6.2,13.7c1.2,4.5,1,8.5-2,12.3c-2,2.6-3.4,5.5-5,8.4
		c-0.7,1.2-1.3,2.7-1.3,4c0.2,7-2.2,13.1-6,18.8c-1.1,1.7-1.9,4.1-1.8,6c0.3,6.3,2.6,11.9,7.4,15.8c0.4,3.3,0.8,6.3,1.3,9.3
		c0.2-0.1,0.4-0.2,0.6-0.3c2.3,4.2,4.6,8.5,7,12.9C20.5,127.9,20.7,126.3,20.8,125z M118,49.2c-0.1,0.4-0.2,0.7-0.3,1.1
		c1.3,0.8,2.8,1.4,3.9,2.4c2,1.7,4.9,3.4,5.5,5.6c1.9,6.7,5.9,12.8,5.9,20.2c0,2.1,0.7,4.2,1.2,6.4c7,2,12.8,8.6,20.6,3
		c4,5.9,4.1,6,8.6,6.9c0-4.9,1.8-9.9-1.6-14.6c-1.9,0.2-3.5,0.3-5.1,0.5c-2.7-1.2-5.4-2-8.2-2.6c-8-1.6-11.6-7.1-9.7-15.1
		c0.3-1.2,0.8-2.4,0.8-3.7c0.3-6.6,2.9-12.2,7.1-17.2c0.6-0.8,1.1-1.7,1.7-2.5c-7.8-5.2-15.9-4.5-21,1.8c2.5,0.5,4.9,1,7.5,1.5
		c0.8,2.2,1.5,4.1,2.1,5.8c-2.3,3.4-5.1,2.6-7.7,2.2C125.6,50.4,121.8,49.8,118,49.2z M124.3,40.7c8.1-8.3,16.8-7.2,25.9-3.1
		c1.6-0.2,3.3-0.3,5.3-0.6c-0.2,2.1-0.4,3.6-0.6,5.1c5.1,7.8,6,16.3,5.2,25c3.6,8.2,11,11.4,18.6,15.5c0.7-2.9,1.3-5.1,2-8
		c-2.1-0.8-3.8-1.9-5.6-2.1c-5.4-0.6-8.4-3.9-10.2-8.5c-1.6-4-1.5-8.2-0.5-12.3c1.2-4.9,0-9.4-1.3-13.9c-1.4-4.8-4.7-7.7-9.9-7.8
		c-2.1-0.1-4.2,0.4-6.3,0.8c-3.1,0.6-5.9,2.7-10.1,1.6c-1.8-6-3.8-12.3-5.7-18.6c-2-1.1-3.7-2-5.4-2.9c-5.2,2.2-9,5.3-11.5,11
		c3.2,0,5.7,0,8.1,0C127.3,27.7,123.9,34,124.3,40.7z M214.5,165.2c2.2,2.4,4.1,4.4,5.5,5.9c-0.3,4.2-0.4,7.5-0.7,10.7
		c-1,8.8-4.5,16.3-11.2,22.2c-4.1,3.6-8.6,5.3-13.9,2.8c-0.6-0.3-1.4-0.4-2.4-0.6c-5.3,3.4-10.8,1.8-15.3-0.4
		c-3,0.8-5.2,1.3-7.9,2.1c0.7,1.5,1,3,1.9,4.2c2.2,2.9,5.2,4,8.8,4.6c17.4,2.9,41-9.9,42-32.8c0.1-2.3,0.5-4.6,0.7-6.6
		c3.3-1.9,6.2-3.6,8.7-5c2.7-8,3.6-15.5,3.1-23.1c-0.3-4.6-2.6-7.8-6.2-11.2C230.8,151.5,226,161.3,214.5,165.2z M113.4,24.9
		c-0.9,4.5-2.1,7.6-6.9,7.9c-1.1-1.2-2.6-2.5-3.7-4.1c-1.1-1.7-1.8-3.8-2.8-5.7c-5.8,1.2-9.7,4.6-13.9,7.8c0.5,1.1,1,2,1.6,3.1
		c-2.6,1.5-5.2,3-7.8,4.4c3.6,5,11.8,7.7,26,8.8c2.7-2.1,5.9-1.9,9.1-1.1c2.5,0.6,4.6,0.5,6.5-2.2c0-6.4,3.6-13.2-0.4-20.4
		C118.4,23.9,116,24.4,113.4,24.9z M74,20.7c-1.9-1.4-3.3-2.4-4.6-3.6c-3.1-2.8-6.5-2.9-10-1.2c-2.7,1.3-5.3,3-8.2,4.6
		c-1.1,2-2.4,4.1-3.7,6.5c4.6,2.2,11.2,0.7,12.7,7.7c-0.9,0.7-1.7,1.4-2.5,2c-1.4,6.4-3.5,12.6-1.2,19.2c1.5,4.3,4.2,6.8,8.7,6.6
		c3.4-0.1,6.8-0.7,9.6-3.3c0-1.9,0-3.8,0-5.7c-3.2-1.2-6-2.2-8.9-3.2c-2.3-0.8-3.5-2.5-3.7-4.8c-0.5-4.9,0.1-9.7,1.8-14.4
		c0.1-0.3,0.9-0.4,1.8-0.7c0.3,1.3,0.7,2.4,0.9,3.6c0.3,1.4,0.5,2.7,0.8,3.9c7.6,0.8,10.2-0.4,12.9-5.8C75.5,29.8,73.1,26.1,74,20.7
		z M177.8,120.9c-0.6-3.6-1.2-6.8-1.7-9.9c-1.9-0.6-3.4-1.1-5.1-1.7c-0.8,1-1.6,1.7-2.1,2.7c-3.3,6.2-6.6,12.4-9.6,18.8
		c-1.1,2.4-1.1,5.3-1.6,8.2c3.3-1.1,4.3-4.9,8.4-4.3c1.7,4.8,1.7,9.5-1.6,14.6c-2.7-0.7-5.1-1.4-7.9-2.2c-0.5,2.3-1.2,4.4-1.2,6.5
		c-0.1,5.1,2.5,7.6,7.6,7.8c4.9,0.1,9.1-1.8,13.1-4.5c1.8-1.2,3.8-2.1,6.1-3.3c-4.5-3.9-8.6-8-8.1-14.9
		C174.6,132.7,172.7,126.3,177.8,120.9z M210.6,162.9c-1.7-6.2-3.3-11.4-4.6-16.6c-2.7-10.6-10.4-16-20.2-19.9
		c-0.4,2.7,1.7,5.8-2,7.4c-3.7-1.7-3.3-6.4-6.1-8.9c-0.5,0.6-0.9,0.9-0.9,1.1c-0.1,5.9-0.6,11.9,0,17.8c0.3,2.4,3,4.6,4.7,7
		c1.5-1.3,2.4-2.1,3.8-3.4c3.6,2.6,7.2,5,10.6,7.7C200,158.3,203.8,162,210.6,162.9z M119.8,77.2c3.5,1.8,4.9,4.5,5.9,7.5
		c0.5,1.4,0.7,2.8,1.4,4.1c1.1,2.1,2.6,3.4,5.2,2c-1-4.6-2.1-9.1-3.1-13.8c-1.9-0.2-3.6-0.4-5.6-0.6c-1.1-0.7-2.2-1.5-3.4-2.3
		c-2.7,0.1-5.3,2.3-8.2-0.1c-1.7-5.8,3.3-10.7,3.2-16.4c-1.8-2.3-3.5-4.6-5.3-6.9c-4.8-0.7-9.4-1.4-14-2.1c0,0.3,0.1,0.6,0.1,0.9
		c-6.1,1.2-12.2,2.5-18.4,3.8c0,2.1,0,4.1,0,6.1c6.4-0.5,12.3-1.1,18.2-1.5c3.6-0.2,7,1,8.9,4.2c1.7,2.9,2.8,6.2,4.1,9.4
		c0.2,0.4-0.3,1-0.5,1.6c-0.6,0.1-1.1,0.1-1.6,0.2c-0.5,0.1-1,0.1-1.5,0.1c-2.3,3.9-2.3,3.9-0.8,7.6C110,82,114.6,78.2,119.8,77.2z
		 M183.3,111.6c-0.9,8.1,0.6,11.1,6.5,14.3c1.9,1,3.7,2.2,5.6,3.2c5.9,3.2,9.6,8.1,11.6,14.4c0.9,2.9,1.9,5.9,2.8,8.8
		c0.4,1.3,0.9,2.6,1.5,4.2c4.7-10.6,3.3-18.7-4.3-26.6c-1.1-1.2-3.1-1.9-2.5-4.7c4.3,0.9,8.4,1.7,12.6,2.6c-0.4-4.1-1.2-4.9-4.7-4.8
		c-2.8,0.1-5.7,0.3-8.6,0.4c-1.5-2.4-2.8-4.3-4.1-6.4C194.5,115.3,189.1,113.5,183.3,111.6z M205.7,164c0,3.6,0,6.1,0,7.9
		c3.2,2,5.9,3.6,8.7,5.3c-0.3,2.1-0.6,3.7-0.9,5.6c-4.5,1-8.8,1.9-11.9,2.6c-2.4,7.2-4.5,13.3-6.6,19.5c3.4,2.2,6.7,1.3,9.8-0.9
		c3.8-2.6,6.5-6.2,8.8-10.2c3.9-6.9,3.6-14.5,4.3-22.8C214.4,168.5,210.6,165.8,205.7,164z M190.2,204.4c-1-0.9-1.5-1.3-2-1.8
		c-4.9-4.1-5.3-8.4-1-13c1.4-1.5,3.4-2.6,5.3-3.6c1.9-1,4-1.6,6.1-2.4c0.4-1.4,0.8-2.7,1.3-4.3c-2.1,0.2-3.8,0.4-5.7,0.6
		c-1.7-6,2.3-10.6,3-15.6c-3-4.3-3-4.3-8.2-6.1c1.3,6.1-1.7,10.6-4.5,15.3c-1.5,2.5-2.5,5.4-3.9,8.7c2.6-1.1,4.4-1.9,6.2-2.7
		c2.9,3.3,3,5,0.5,7.5c-2.9,3-6.3,5.3-10.4,5.8c-1.3,5.7-1.2,6.4,1.3,11.2C181.7,206.3,185.4,207.7,190.2,204.4z M154,91.9
		c-2.2,0-4.5-0.1-6.8,0c-2.2,0.2-4.7-2.6-7.1,0.7c1,1.3,1.9,2.5,3.2,4.2c-1.8-0.2-3.1-0.3-4.7-0.5c-0.3,1.5-0.5,2.8-0.8,4.6
		c7.8,1.1,15.7-0.9,22.9,4.2c-0.5,2.7-0.9,5.3-1.6,7.9c-1.4,5.4-3.1,10.8-4.5,16.2c-0.4,1.6-0.9,3.5,1.1,4.5
		c4.4-8.7,8.7-17.2,12.8-25.4c-1.8-3.5-3.5-6.7-5-9.6C160.4,96.5,157.5,94.4,154,91.9z M199.6,103.2c-0.9-0.4-1.5-1-2.1-1
		c-3.4-0.3-6.8-0.7-10.2-0.7c-8.3,0-12.3-3-14.6-10.9c-0.8-2.9-1.7-5.9-2.9-8.7c-1.1-2.6-3.1-4.3-6.9-3.9c5,5.9,1.7,12.5,2.8,18.3
		c2.3,1.6,4.3,3.1,6.2,4.4c0,2.3,0,4.1,0,6.3c1.1,0.5,2.3,1.1,3.7,1.7c0.8-1.9,1.5-3.4,2.4-5.5c6.3,5.6,13.3,7.8,21.7,7.6
		C199.6,108.1,199.6,105.9,199.6,103.2z M165.2,194c0.8,3.5,1.5,6.5,2.3,10.1c2.5-1.4,4.4-2.4,6.4-3.5c0-1.4-0.2-2.7,0-3.9
		c0.9-4.4,1.3-9,3-13.1c2.3-5.5,5.6-10.5,8.5-15.7c1.4-2.6,2.1-5.4,1.3-8.2c-1.8-2.9-4.4-3-7.2-2.9c-2.2,1.5-4.5,3.1-6.7,4.6
		c4.9,2.3,5.4,3.1,3.9,8.2c-1.9,6-4.1,11.9-6.2,17.9c-0.1-0.1-0.3-0.2-0.4-0.3C168.4,189.6,166.7,191.9,165.2,194z M208.8,128.7
		c11.2,10.9,6.9,22.6,3.1,34.3c8.7-0.5,13.3-5.9,15.5-17.9C225.2,136.1,217.3,128.2,208.8,128.7z M58.4,63c-7.6-9-4.2-18.6-2.7-27.9
		c-1.8-1-3.2-1.7-4.3-2.2c-0.2-1.2-0.3-2-0.4-3.2c-7.2,0.7-14.1,0.9-18.8,7.6c0.4,1.2,0.8,2.5,1.2,3.8c2.5-0.6,4.6-1.1,6.4-1.5
		c3.8,1.8,2.8,5.8,4.3,8.5c3.2-0.9,3.7-3.1,3.5-5.6c-0.1-2.2-0.5-4.4,1.5-7c0.6,4.6,1.3,8.5,1.5,12.3c0.2,2.5-0.2,5-0.3,7.6
		C50,60.8,51.9,62.7,58.4,63z M109,20.4c-1.4-5.3-5.2-11.8-8.5-14.9c-3.1-2.9-7-4.1-11-3.3c-3.6,0.8-7.4,2-10.5,4
		C75.1,8.8,73.5,13,74,18c3-2.3,5.4-4.7,8.3-6.5c6.3-3.8,12.2-2.3,16.4,3.7c1.1,1.6,2.2,3.3,3.4,5c1.9,0.2,3.6,0.4,5.4,0.6
		C108,20.8,108.5,20.5,109,20.4z M99,20.1c-4.6-9.9-10.8-11.3-19-4.7c-2.9,2.3-4.4,5.3-3.9,9c0.5,3.8,3.5,5.1,6.4,6
		C88.1,26.9,93.4,23.6,99,20.1z M130.6,74.2c-1.7-5.2-3.1-10-4.9-14.6c-1.6-4.1-6.8-7.1-11.7-6.9c1.4,1.7,2.6,3.2,3.8,4.6
		c-0.6,5.3-4.3,9.9-4,15.9c2.7-0.4,5-0.7,7-1C125.3,75,125.3,75,130.6,74.2z M157,63.3c1.3-3.3,0.1-5.4-1.4-7.6
		c-2.2-3.2-3.5-6.7-3.5-10.7c0-1.1-0.6-2.3-1.1-4c-4.8,4.3-7.8,8.7-8.6,14c2.1,2,3.9,3.6,5.7,5.3C150.9,61.3,153.8,62.2,157,63.3z
		 M46,49.2c-1.3,1.9-2.5,2.9-2.6,4.1c-0.8,5.5-3.5,9.5-7.6,13.2c-2.7,2.4-4,6-5.5,9.7C42.9,73.3,50.4,66.2,46,49.2z M93.1,47.7
		c-6.6-2.5-12.8-2.8-15.7-8.7c-3.2,0.7-6,1.2-9,1.9c1.7,4.2,4.6,7,8,9.8C81.5,49.7,87,51,93.1,47.7z M36.4,63.1
		c5.9-5.7,5.4-12.3,4.7-19.9c-4.6,3.2-8.9,5.5-10.2,10.5C32.7,56.9,34.4,59.8,36.4,63.1z M197.5,186.7c-7.2,1.6-10.9,4.7-11.2,9
		c-0.2,3.1,1.7,5.1,6.4,6.7C196.8,197.2,198.2,192.7,197.5,186.7z M163.4,75.9c-4.6-6.3-7.3-12.9-15.6-13c-1,6.1,1.9,9.8,6.3,13.5
		C156.7,76.3,159.5,76.1,163.4,75.9z M22.6,96.2c-6.4-4.7-3.6-9.9-0.4-15.4c-1.9,0.1-3.3,0.2-4.6,0.3c-5.2,7-3.7,14.1-1.2,22.5
		c0.5-2.9,0.8-4.5,1.2-6.3c1.3,0.5,2.3,0.8,3.1,1.1c0.5-0.4,0.8-0.5,1-0.8C21.9,97.5,22,97.2,22.6,96.2z M159.7,163.6
		c-9.2-5.2-5.7-13-4.6-20.4c-1.2,1.3-2.1,2.7-2.7,4.1c-1,2.3-1.9,4.7-2.5,7.1C148.1,160.8,152.3,164.9,159.7,163.6z M29.1,78.5
		c-0.5-0.3-0.9-0.5-1.4-0.8c-2.2,3.2-4.9,6.2-6.5,9.6c-1.6,3.2-0.5,4.8,3.2,6.4C30,89.8,25.6,83,29.1,78.5z M195.5,177.5
		c5.7-0.7,5.9-5.4,8.1-8.1c-0.3-3.5-0.9-6.5-4.1-7.6C198.2,167,196.9,172,195.5,177.5z M211.7,181.3c-0.1-4.8-0.7-5.3-7.5-6.7
		c-1.9,2.3-3.1,4.8-2.5,8.3C205.2,182.4,208.3,181.9,211.7,181.3z M140.9,63.3c-1.2,8.7,1.6,12.5,8.1,12.3c-1.5-4-3-8.1-4.7-12.5
		C143.5,63.1,142.3,63.2,140.9,63.3z M165,137.2c-3.6,0.8-5,3.5-6.9,6.5c1.6,1.3,3.2,2.5,4.7,3.7C166.4,144.2,164.9,140.7,165,137.2
		z M123.5,47.8c4.2,0.6,7.4,2.5,11.7,0.7c-0.9-1.6-1.7-3-2.3-4.1C127.1,44,127.1,44,123.5,47.8z M172.5,82c1.5,4.8,1.4,9,4.3,12.7
		C179.1,87,178.5,85,172.5,82z M178.3,190c5.7-1.1,8.5-3.9,7.9-8C182.6,183.8,179.1,185.3,178.3,190z M64.2,46.4
		c2.1,2.3,4.3,3.2,7.7,3.3c-2.7-3.6-4.9-6.5-7.7-10.1C64.2,42.4,64.2,44.3,64.2,46.4z"/>
	<path d="M74.1,169.9c0.1-2.2,0.2-4.4,0.3-6.6c-1-0.9-1.8-1.6-2.2-2c1.4-4.3,2.6-8.2,4-12.7c4.2-3.6,5-9.1,5.2-14.6
		c-3-4.7-5.7-9.2-8.7-13.5c-4.9-7.1-10-8.1-17.1-3.6c-2.1,1.3-4.2,2.8-6.4,4.2c-2.1,1.3-4.3,2.6-6.7,4c-1.1-0.4-2.2-0.9-4.3-1.6
		c8.7-5.1,16.7-9.8,24-14c6.5,0.7,9.7,4.1,12,8.8c1.4,2.9,3.1,5.7,4.6,8.5c1.3,0.1,2.3,0.1,2.9,0.2c3.7,8.2,0.8,15.5-2.4,22.7
		c-3.7,8.4-3.1,16.8-0.2,25.3c0.6,1.7,2.1,3.5,0.5,6.2c-1.3-2-2.4-3.7-4-6.3c-3.6,8.1-9.3,14.4-10.5,23.1c0.7,2.8,2.6,4.9,5.4,6.2
		c8.7,4,17.5,7.9,24.5,14.9c0.9,0.8,2.2,1.2,3.4,1.9c1.8-0.5,3.5-0.9,5.3-1.4c3.9-7.4,8.7-14.2,13.9-20.7c2-2.6,3-6,4.1-8.4
		c-2.2-4.2-4-7.5-5.7-10.8c-0.1-0.2,0.4-0.8,0.7-1.3c7.5,7.7,8.9,14,1.9,22.7c-2.4,2.9-4.6,5.9-6.9,8.8c0.9,1.2,1.4,1.9,1.9,2.6
		c-2.7,6.5-7.8,9.7-15.5,10.4c-6-1.1-9.1-8.2-15.6-10.4c-8.5,0.5-16.8-5.3-19.2-13.7c-0.3-1.2-0.4-2.5-0.2-3.7
		c1.4-8.5,5.6-16,9.4-23.6C72.6,170.6,73.4,170.4,74.1,169.9z"/>
	<path d="M134.4,232c-14.2,1.1-28.8,2.3-43.4,3.5c-7.1,0.6-13.9,2.4-20.5,5c-2.7,1.1-5.4,2.3-8.6,0.3c-1.3-1.7-2.7-3.7-4.3-5.8
		c0.8-0.4,1.2-0.7,1.9-1c1.4,1.9,2.7,3.8,4.4,6c2.1-0.5,4.2-0.8,6.1-1.5c11.7-4.5,23.9-5.7,36.2-6.4c9-0.5,18.1-0.3,27.1-2.8
		c1.5-1.9,3.1-3.9,4.5-5.7c0.6-3.7,1.3-7.2,1.9-11c2.6,0.8,2.3,2.4,1.8,4.5C140.2,222.2,138.4,227,134.4,232z"/>
	<path d="M132.9,112.2c8.3,3.7,10.5,11.2,14.8,17.1c-0.2,0.3-0.5,0.6-0.7,0.9c-0.8-0.4-1.8-0.7-2.4-1.3c-2.9-2.9-5.6-6.1-8.6-9
		c-5-4.8-10.1-4.7-15.4-0.3c-2,1.6-4.4,2.7-7,4.3c-0.2-7.9,6.7-13.9,13.6-12.1C129.1,112.3,131.2,112.1,132.9,112.2z"/>
	<path d="M80.6,264c2.1-3.3,4.2-6.6,6.4-10c0.4,0.2,0.9,0.5,1.3,0.7c-1.5,2.7-3,5.3-4.6,8c1.5,2.9,2.9,5.8,4.4,8.9
		c-2.7,0-2.8-2.1-3.8-3.3C83.3,267.2,82.3,266,80.6,264z"/>
</g>
</svg>
