<?xml version="1.0" encoding="utf-8"?>
<!-- Generator: Adobe Illustrator 19.0.0, SVG Export Plug-In . SVG Version: 6.00 Build 0)  -->
<svg version="1.1" id="Layer_1" xmlns="http://www.w3.org/2000/svg" xmlns:xlink="http://www.w3.org/1999/xlink" x="0px" y="0px"
	 viewBox="-180.7 261.6 485.7 73.7" style="enable-background:new -180.7 261.6 485.7 73.7;" xml:space="preserve">
<style type="text/css">
	.st0{fill:#EEEEEE;}
	.st1{opacity:0.69;}
</style>
<g id="logo">
	<g id="t_18_">
		<path class="st0" d="M-132.1,275.6l-14,0.5c-1.2,0-2.2,1-2.2,2.3c-0.2,7.7-0.7,32.8-0.7,25.1c0-9.1,0.5,28.8,0.5,28.8l-13.7,1
			c0,0-0.6-20.5-0.6-29.7c0-7.1,0.4-19.2,0.6-24.4c0.1-1.3-1-2.4-2.4-2.4l-14.4,0.5l0.6-11.3c0,0,10.5-1.1,18.8-1.4
			c8.3-0.3,28-0.3,28-0.3L-132.1,275.6z"/>
		<g class="st1">
			<path d="M-131.6,264.3l-0.5,11.3l-14,0.5c-1.2,0-2.2,1-2.2,2.3c-0.2,5.8-0.5,21.7-0.6,25.7c0-1.2,0-2-0.1-2c0,0,0,0.4,0,1.4
				c0,1,0,1.5,0,1.5c0,0,0-0.3,0.1-0.9c0.1,6.7,0.4,28.2,0.4,28.2l-13.7,1c0,0-0.6-20.5-0.6-29.7c0-7.1,0.4-19.2,0.6-24.4
				c0.1-1.3-1-2.4-2.4-2.4l-14.4,0.5l0.6-11.3c0,0,10.5-1.1,18.8-1.4S-131.6,264.3-131.6,264.3 M-131.6,263.3c-0.2,0-19.8,0-28,0.3
				c-8.2,0.3-18.8,1.4-18.9,1.4l-0.9,0.9l-0.6,11.3l1,1.1l14.4-0.5c0.4,0,0.8,0.2,1.1,0.5c0.2,0.2,0.3,0.6,0.3,0.9
				c-0.2,5.4-0.6,17.5-0.6,24.5c0,9.1,0.6,29.5,0.6,29.7l1.1,1l13.7-1l0.9-1c0-0.2-0.3-21.6-0.4-28.2c0.1-2.5,0.3-9.8,0.4-16.2
				c0.1-3.8,0.2-7.3,0.2-9.4c0-0.8,0.5-1.3,1.2-1.3l14-0.5l1-1l0.5-11.3L-131.6,263.3L-131.6,263.3z"/>
		</g>
	</g>
	<g id="h_18_">
		<path class="st0" d="M-82.8,329.9l-12.7,0.9c0,0-0.5-2.7-0.5-13.1c0-5.9,0.1-9.4,0.2-11.3c0.1-1.1-0.8-2.1-2-2.2
			c-1.5-0.1-3.9-0.1-7.1,0.1c-3.7,0.2-6.3,0.6-7.8,0.8c-1,0.1-1.7,0.9-1.8,1.8c-0.2,1.6-0.4,4.8-0.4,10.8c0,10.6,0.5,12.2,0.5,12.2
			l-12.7,0.9c0,0-1-16.8-1-31.9s1-29.6,1-29.6l12.7-0.9c0,0-0.7,6.6-0.7,14.7c0,4.4,0.1,7.6,0.1,9.5c0,1.2,1.2,2.2,2.4,2
			c1.5-0.2,3.9-0.5,7-0.7c3.2-0.2,5.6-0.2,7.2-0.2c1.2,0,2.2-0.9,2.2-2.1c0-1.6-0.1-4.4-0.1-8.9c0-9,0.8-13.5,0.8-13.5l12.7-0.8
			c0,0-1,10.1-1,30.1S-82.8,329.9-82.8,329.9z"/>
		<g class="st1">
			<path d="M-82.8,268.4c0,0-1,10.1-1,30.1s1,31.4,1,31.4l-12.7,0.9c0,0-0.5-2.7-0.5-13.1c0-5.9,0.1-9.4,0.2-11.3
				c0.1-1.1-0.8-2.1-2-2.2c-0.6,0-1.4-0.1-2.3-0.1c-1.3,0-2.9,0-4.8,0.2c-3.7,0.2-6.3,0.6-7.8,0.8c-1,0.1-1.7,0.9-1.8,1.8
				c-0.2,1.6-0.4,4.8-0.4,10.8c0,10.6,0.5,12.2,0.5,12.2l-12.7,0.9c0,0-1-16.8-1-31.9s1-29.6,1-29.6l12.7-0.9c0,0-0.7,6.6-0.7,14.7
				c0,4.4,0.1,7.6,0.1,9.5c0,1.1,1,2,2.1,2c0.1,0,0.2,0,0.3,0c1.5-0.2,3.9-0.5,7-0.7c3.2-0.2,5.6-0.2,7.2-0.2c1.2,0,2.2-0.9,2.2-2.1
				c0-1.6-0.1-4.4-0.1-8.9c0-9,0.8-13.5,0.8-13.5L-82.8,268.4 M-82.9,267.4l-12.7,0.8l-0.9,0.8c0,0.2-0.8,4.7-0.8,13.7
				c0,2.8,0,5,0.1,6.6c0,1,0,1.7,0,2.3c0,0.6-0.5,1.1-1.2,1.1c-1.6,0-4,0-7.3,0.2c-3.1,0.2-5.5,0.5-7.1,0.7c-0.1,0-0.1,0-0.2,0
				c-0.6,0-1.1-0.5-1.1-1c0-0.8,0-1.7,0-2.9c0-1.8-0.1-4-0.1-6.6c0-8,0.7-14.5,0.7-14.6l-1.1-1.1l-12.7,0.9l-0.9,0.9
				c0,0.1-1,14.7-1,29.7c0,15,1,31.8,1,32l1.1,0.9l12.7-0.9l0.9-1.3c0,0-0.5-1.9-0.5-11.9c0-6.2,0.2-9.2,0.4-10.7
				c0-0.4,0.3-0.9,0.9-0.9l0.6-0.1c1.6-0.2,3.9-0.5,7.1-0.7c1.7-0.1,3.3-0.2,4.7-0.2c0.9,0,1.6,0,2.3,0.1c0.3,0,0.6,0.2,0.8,0.4
				c0.2,0.2,0.3,0.4,0.2,0.7c-0.1,1.8-0.2,5.2-0.2,11.4c0,10.4,0.5,13.2,0.5,13.3l1.1,0.8l12.7-0.9l0.9-1.1c0-0.1-1-11.6-1-31.3
				c0-19.7,1-29.9,1-30L-82.9,267.4L-82.9,267.4z"/>
		</g>
	</g>
	<g id="o_18_">
		<path class="st0" d="M-33.9,303.4c-0.4,8-4.7,26.5-24.2,26.4l0,0c-19.1-1.4-22.2-20.1-21.9-28c0,0,0-2.6,0.1-3.2
			c0-0.6,0.2-2.8,0.2-2.8c0.4-8.2,5.1-28,24.3-27.2c19.3,1.3,22.1,20.6,21.8,28.8c0,0,0,1.8-0.1,2.7
			C-33.8,301.1-33.9,303.4-33.9,303.4z M-46.5,297.1c0.2-5.4-1.5-18.1-9.4-18.9l0,0c-7.9,0.1-10.8,12.3-11.1,17.5
			c0,0-0.2,2.3-0.3,3.1c0,0.8,0,3.2,0,3.2c-0.2,5.2,2.3,17.4,9.6,18.2l0,0c7.5-0.2,10.7-12,10.9-17c0,0,0.1-2,0.2-3.1
			S-46.5,297.1-46.5,297.1z"/>
		<g class="st1">
			<path d="M-56.5,268.6c0.4,0,0.7,0,1.1,0c19.3,1.3,22.1,20.6,21.8,28.8c0,0,0,1.8-0.1,2.7c-0.1,1-0.2,3.3-0.2,3.3
				c-0.4,8-4.7,26.4-24,26.4c-0.1,0-0.1,0-0.2,0c-19.1-1.4-22.2-20.1-21.9-28c0,0,0-2.6,0.1-3.2c0-0.6,0.2-2.8,0.2-2.8
				C-79.3,287.7-74.8,268.6-56.5,268.6 M-57.7,320.2c7.5-0.2,10.7-12,10.9-17c0,0,0.1-2,0.2-3.1s0.1-3,0.1-3
				c0.2-5.4-1.5-18.1-9.4-18.9c-7.9,0.1-10.8,12.3-11.1,17.5c0,0-0.2,2.3-0.3,3.1c0,0.8,0,3.2,0,3.2
				C-67.5,307.2-65,319.4-57.7,320.2 M-56.5,267.6L-56.5,267.6c-8.2,0-14.8,3.8-19.2,11.1c-3.4,5.6-4.8,12.5-5,17.1
				c0,0.2-0.2,2.1-0.2,2.8c-0.1,0.7-0.1,2.8-0.1,3.3c-0.1,2.1-0.1,9.7,3.8,16.9c3.9,7.3,10.5,11.5,19,12.1l0.1,0l0.2,0
				c8.7,0,15.6-3.7,20-10.7c4.3-6.7,5-14.5,5.1-16.7c0,0,0.1-2.3,0.2-3.3c0.1-0.9,0.1-2.7,0.1-2.8c0.4-10.4-4-28.5-22.7-29.8
				C-55.8,267.6-56.1,267.6-56.5,267.6L-56.5,267.6z M-66.3,298.8c0.1-0.9,0.3-3,0.3-3.1c0.3-5.4,3.2-16.4,10.1-16.6
				c6.9,0.8,8.6,12.3,8.4,17.9c0,0.1,0,1.9-0.1,2.9c-0.1,1.1-0.2,3.1-0.2,3.1c-0.2,4-2.9,15.8-9.9,16c-6.5-0.8-8.8-12.6-8.6-17.2
				L-66.3,298.8L-66.3,298.8z"/>
		</g>
	</g>
	<g id="m_18_">
		<path class="st0" d="M15.9,292.8c0-0.6-1-0.8-1.2-0.2c-2.2,6-6.7,18.2-8.1,22.4c-2,5.6-3.3,9.1-3.3,9.1l-8.7,0.5
			c0,0-1.3-4.2-3.3-9.6c-1.5-4-5.9-16.2-8.1-22.3c-0.2-0.6-1.2-0.5-1.2,0.2c0.1,6.9,0.2,21.3,0.4,25.1c0.3,5,0.7,9.8,0.7,9.8
			l-12.7,0.8c0,0-0.5-11.7-0.5-28.9s0.5-27.5,0.5-27.5L-13,271c0,0,1.7,4,4,12.3c1.9,6.6,5.9,18,7.4,22.2c0.2,0.5,1,0.5,1.2,0
			c1.3-3.5,4.6-12.5,7.2-21.7c3.3-11.9,4.2-11.7,4.2-11.7l16.6-1.1c0,0,0.3,17.6,0.3,28.6s-0.3,28.1-0.3,28.1l-12.8,0.8
			c0,0,0.3-8.9,0.7-15.4C15.8,308.5,15.9,298.3,15.9,292.8z"/>
		<g class="st1">
			<path d="M27.6,271c0,0,0.3,17.6,0.3,28.6s-0.3,28.1-0.3,28.1l-12.8,0.8c0,0,0.3-8.9,0.7-15.4c0.3-4.6,0.4-14.8,0.4-20.3
				c0-0.3-0.3-0.6-0.7-0.6c-0.2,0-0.5,0.1-0.5,0.4c-2.2,6-6.7,18.2-8.1,22.4c-2,5.6-3.3,9.1-3.3,9.1l-8.7,0.5c0,0-1.3-4.2-3.3-9.6
				c-1.5-4-5.9-16.2-8.1-22.3c-0.1-0.3-0.3-0.4-0.6-0.4c-0.3,0-0.6,0.2-0.6,0.6c0.1,6.9,0.2,21.3,0.4,25.1c0.3,5,0.7,9.8,0.7,9.8
				l-12.7,0.8c0,0-0.5-11.7-0.5-28.9c0-17.2,0.5-27.5,0.5-27.5L-13,271c0,0,1.7,4,4,12.3c1.9,6.6,5.9,18,7.4,22.2
				c0.1,0.2,0.4,0.4,0.6,0.4s0.5-0.1,0.6-0.4c1.3-3.5,4.6-12.5,7.2-21.7c3.2-11.5,4.1-11.7,4.2-11.7c0,0,0,0,0,0L27.6,271 M27.5,270
				L11,271.1c-0.8,0-1.7,0.1-5.1,12.4c-1.7,6.1-4,13.1-6.8,20.7c-1.2-3.4-5.2-14.6-7-21.2c-2.3-8.3-4-12.2-4-12.4l-1-0.6l-16.6,1.2
				l-0.9,0.9c0,0.1-0.5,10.5-0.5,27.5c0,17,0.5,28.8,0.5,28.9l1.1,1l12.7-0.8l0.9-1.1c0,0-0.4-4.8-0.7-9.8c-0.1-2.7-0.2-11.2-0.3-18
				c0-1.7,0-3.3-0.1-4.8c2.3,6.4,6,16.6,7.3,20.2c2,5.3,3.3,9.5,3.3,9.5l1,0.7l8.7-0.5l0.9-0.7c0,0,1.3-3.6,3.3-9.1
				c1.2-3.7,4.8-13.4,7.2-19.8l0.2-0.5c0,5.8-0.1,14.1-0.4,18.1c-0.4,6.4-0.7,15.3-0.7,15.4l1.1,1l12.8-0.8l0.9-1
				c0-0.2,0.3-17.2,0.3-28.1c0-10.9-0.3-28.4-0.3-28.6L27.5,270L27.5,270z"/>
		</g>
	</g>
	<g id="a_36_">
		<path class="st0" d="M65.8,318.1c-0.3-1-1.3-1.8-2.5-1.7c-1.6,0-3.9,0.1-6.6,0.3c-2.9,0.2-5.5,0.4-7.1,0.6c-1,0.1-1.8,0.7-2.1,1.5
			l-3.3,9.1l-13.5,0.8l19.8-55.1l11.6-1.1L82,327.7l-13.6,0.8L65.8,318.1z M50.3,306.8c-0.2,0.5,0.3,1,0.9,0.9
			c1.1-0.1,2.7-0.3,4.6-0.4c2-0.1,3.8-0.1,4.8-0.1c0.6,0,0.9-0.5,0.8-0.9L57,290.6c-0.2-0.7-1.4-0.8-1.6,0L50.3,306.8z"/>
		<g class="st1">
			<path d="M62.1,272.5L82,327.7l-13.6,0.8l-2.6-10.4c-0.3-0.9-1.2-1.7-2.3-1.7c-0.1,0-0.1,0-0.2,0c-1.6,0-3.9,0.1-6.6,0.3
				c-2.9,0.2-5.5,0.4-7.1,0.6c-1,0.1-1.8,0.7-2.1,1.5l-3.3,9.1l-13.5,0.8l19.8-55.1L62.1,272.5 M51,307.7c0.1,0,0.1,0,0.2,0
				c1.1-0.1,2.7-0.3,4.6-0.4c2-0.1,3.8-0.1,4.8-0.1c0.6,0,0.9-0.5,0.8-0.9L57,290.6c-0.1-0.4-0.5-0.6-0.8-0.6
				c-0.3,0-0.7,0.2-0.8,0.6l-5.1,16.2C50.1,307.2,50.5,307.7,51,307.7 M62,271.5l-11.6,1.1l-0.8,0.7l-19.8,55.1l1,1.3l13.5-0.8
				l0.9-0.7l3.3-9.1c0.2-0.5,0.7-0.8,1.3-0.8c1.7-0.2,4.7-0.4,7.1-0.6c2.6-0.2,4.9-0.3,6.5-0.3l0.1,0c0,0,0.1,0,0.1,0
				c0.7,0,1.2,0.5,1.3,1l2.6,10.4l1,0.8l13.6-0.8l0.9-1.3L63,272.1L62,271.5L62,271.5z M51.4,306.7l4.8-15.3l4.1,14.8
				c-1,0-2.7,0-4.6,0.1c-1.4,0.1-2.7,0.2-3.7,0.3C51.8,306.6,51.6,306.6,51.4,306.7L51.4,306.7z"/>
		</g>
	</g>
	<g id="a_35_">
		<path class="st0" d="M286.2,319.7c-0.3-1.2-1.4-2.1-2.7-2.1c-1.7,0-4.1,0.1-6.9,0.3c-3.1,0.2-5.8,0.5-7.5,0.7
			c-1,0.1-1.9,0.8-2.2,1.8l-3.5,10.9l-14.1,0.9l20.8-66.2l12.2-1.3l20.9,66.6l-14.3,1L286.2,319.7z M270,306.1
			c-0.2,0.6,0.3,1.2,1,1.1c1.1-0.1,2.8-0.4,4.8-0.5c2.1-0.1,4-0.2,5.1-0.2c0.6,0,1-0.5,0.9-1.1l-4.8-18.8c-0.2-0.9-1.5-0.9-1.7,0
			L270,306.1z"/>
		<g class="st1">
			<path d="M282.3,264.7l20.9,66.6l-14.3,1l-2.7-12.6c-0.3-1.2-1.4-2.1-2.7-2.1c-1.7,0-4.1,0.1-6.9,0.3c-3.1,0.2-5.8,0.5-7.5,0.7
				c-1,0.1-1.9,0.8-2.2,1.8l-3.5,10.9l-14.1,0.9l20.8-66.2L282.3,264.7 M270.8,307.2c0,0,0.1,0,0.2,0c1.1-0.1,2.8-0.4,4.8-0.5
				c2.1-0.1,4-0.2,5.1-0.2c0.6,0,1-0.5,0.9-1.1l-4.8-18.8c-0.1-0.5-0.5-0.7-0.9-0.7s-0.8,0.2-0.9,0.7l-5.3,19.5
				C269.8,306.6,270.2,307.2,270.8,307.2 M282.2,263.7L270,265l-0.8,0.7l-20.8,66.2l1,1.3l14.1-0.9l0.9-0.7l3.5-10.9
				c0.2-0.6,0.7-1,1.3-1.1c1.8-0.2,4.4-0.5,7.5-0.7c2.7-0.2,5.1-0.3,6.8-0.3c0.8,0,1.5,0.6,1.7,1.3l2.7,12.6l1,0.8l14.3-1l0.9-1.3
				l-20.9-66.6L282.2,263.7L282.2,263.7z M271,306.2l5.1-18.9l4.6,18.2c-1,0-2.5,0.1-4.2,0.2l-0.8,0c-1.4,0.1-2.6,0.2-3.6,0.4
				C271.7,306.1,271.4,306.1,271,306.2L271,306.2z"/>
		</g>
	</g>
	<g id="z_18_">
		<path class="st0" d="M101.7,317c-0.7,0.9,0.2,2.1,1.4,2c2.1-0.1,5.1-0.2,9-0.2c7.7-0.1,14.4,0.4,14.4,0.4l-0.7,9.1
			c0,0-9.5-1.1-20.3-1.1s-20.4,1.1-20.4,1.1v-6.6c0,0,12.4-17.6,17.6-25.1c3.6-5.1,6.1-9.6,7.3-11.9c0.4-0.8-0.2-1.8-1.3-1.9
			c-2.6-0.2-7.3-0.5-11.6-0.4c-6.5,0.1-12.7,0.6-12.7,0.6l0.7-9.2c0,0,8.5-1.1,16.8-1.1s23.7,1.1,23.7,1.1v6.5
			c0,0-12.3,18.8-17.2,26.6C105.5,311.5,103.2,315,101.7,317z"/>
		<g class="st1">
			<path d="M101.9,272.7c8.3,0,23.7,1.1,23.7,1.1v6.5c0,0-12.3,18.8-17.2,26.6c-2.9,4.6-5.2,8.1-6.7,10.1c-0.7,0.9,0.1,2,1.3,2
				c0,0,0.1,0,0.1,0c2.1-0.1,5.1-0.2,9-0.2c0.7,0,1.4,0,2.1,0c6.8,0,12.3,0.4,12.3,0.4l-0.7,9.1c0,0-9.5-1.1-20.3-1.1
				s-20.4,1.1-20.4,1.1v-6.6c0,0,12.4-17.6,17.6-25.1c3.6-5.1,6.1-9.6,7.3-11.9c0.4-0.8-0.2-1.8-1.3-1.9c-2.2-0.2-6.1-0.4-9.8-0.4
				c-0.6,0-1.2,0-1.8,0c-6.5,0.1-12.7,0.6-12.7,0.6l0.7-9.2C85.1,273.8,93.6,272.7,101.9,272.7 M101.9,271.7
				c-8.3,0-16.8,1.1-16.9,1.1l-0.9,0.9l-0.7,9.2l1.1,1.1c0.1,0,6.2-0.5,12.6-0.6c0.6,0,1.2,0,1.8,0c3.6,0,7.3,0.2,9.7,0.4
				c0.2,0,0.4,0.1,0.5,0.3c0.1,0.1,0,0.2,0,0.2c-1.1,2.2-3.6,6.7-7.2,11.8c-5.1,7.4-17.5,24.9-17.6,25.1l-0.2,0.6v6.6l1.1,1
				c0.1,0,9.7-1.1,20.3-1.1c10.6,0,20.1,1.1,20.2,1.1l1.1-0.9l0.7-9.1l-0.9-1.1c-0.1,0-5.7-0.4-12.4-0.4c-0.7,0-1.4,0-2.1,0
				c0,0,0,0,0,0c-3.2,0-6.2,0.1-9,0.2l-0.1,0c-0.2,0-0.4-0.1-0.5-0.3c0-0.1,0-0.1,0-0.1c1.4-1.9,3.6-5.2,6.8-10.2
				c4.8-7.7,17.1-26.4,17.2-26.6l0.2-0.5v-6.5l-0.9-1C125.5,272.8,110.1,271.7,101.9,271.7L101.9,271.7z"/>
		</g>
	</g>
	<g id="e_18_">
		<path class="st0" d="M162.9,303.9c-0.1,0.1,0.4-0.4-7.9-0.4c-5.2,0-8.4,0.2-10.2,0.3c-0.8,0.1-1.5,0.7-1.5,1.4v12.2
			c0,0.8,0.7,1.5,1.6,1.5c1.5,0.1,4.1,0.2,7.4,0.3c5.6,0.1,15-1.3,15-1.3l-0.7,9.4c0,0-6.9,1.6-13,1.6s-10.3-0.7-10.3-0.7l-12.6-0.9
			c0,0-0.5-11.1-0.5-27.1s0.5-28,0.5-28s11.3-0.4,23-0.4s13.6,0.5,13.6,0.5l-0.7,9.4c0,0-4.4-0.5-12.5-0.4c-4.7,0-7.5,0.2-9,0.3
			c-0.9,0.1-1.6,0.7-1.6,1.5v10.1c0,0.9,0.9,1.6,1.9,1.5c1-0.1,2.5-0.1,4.9-0.2c6.7-0.2,13.5,0.5,13.5,0.5S163,303.8,162.9,303.9z"
			/>
		<g class="st1">
			<path d="M153.7,271.8c11.7,0,13.6,0.5,13.6,0.5l-0.7,9.4c0,0-3.6-0.4-10.4-0.4c-0.7,0-1.4,0-2.1,0c-4.7,0-7.5,0.2-9,0.3
				c-0.9,0.1-1.6,0.7-1.6,1.5v10.1c0,0.8,0.8,1.5,1.7,1.5c0.1,0,0.1,0,0.2,0c1-0.1,2.5-0.1,4.9-0.2c0.8,0,1.7,0,2.5,0
				c5.8,0,11,0.5,11,0.5s-0.8,8.8-0.9,8.9c0,0,0,0,0,0c-0.1,0-0.3-0.4-7.9-0.4c-5.2,0-8.4,0.2-10.2,0.3c-0.8,0.1-1.5,0.7-1.5,1.4
				v12.2c0,0.8,0.7,1.5,1.6,1.5c1.5,0.1,4.1,0.2,7.4,0.3c0.2,0,0.4,0,0.6,0c5.6,0,14.4-1.3,14.4-1.3l-0.7,9.4c0,0-6.9,1.6-13,1.6
				s-10.3-0.7-10.3-0.7l-12.6-0.9c0,0-0.5-11.1-0.5-27.1s0.5-28,0.5-28S142,271.8,153.7,271.8 M153.7,270.8c-11.6,0-22.9,0.4-23,0.4
				l-1,1c0,0.1-0.5,12.2-0.5,28c0,15.8,0.5,27,0.5,27.1l0.9,1l12.6,0.9c0.5,0.1,4.6,0.7,10.4,0.7c6.1,0,12.9-1.6,13.2-1.6l0.8-0.9
				l0.7-9.4l-1.1-1.1c-0.1,0-8.8,1.3-14.3,1.3c-0.2,0-0.4,0-0.6,0c-3.6-0.1-6-0.2-7.4-0.3l-0.1,0c-0.4,0-0.6-0.3-0.6-0.5v-12.2
				c0-0.1,0.2-0.3,0.6-0.4l0.3,0c1.8-0.1,4.9-0.3,9.8-0.3c6.4,0,7.4,0.3,7.5,0.3c0.1,0,0.2,0.1,0.4,0.1l0.6-0.2
				c0.5-0.4,0.5-0.4,1.3-9.6l-0.9-1.1c-0.1,0-5.3-0.5-11.1-0.5c-0.9,0-1.7,0-2.5,0c-0.9,0-1.7,0.1-2.4,0.1c-1.1,0-1.9,0.1-2.6,0.1
				c0,0-0.1,0-0.1,0c-0.4,0-0.7-0.2-0.7-0.5v-10.1c0-0.3,0.4-0.5,0.7-0.5l0.1,0c1.5-0.1,4.3-0.3,8.8-0.3c0.7,0,1.4,0,2.1,0
				c6.6,0,10.2,0.4,10.3,0.4l1.1-0.9l0.7-9.4l-0.7-1C167.3,271.3,165.2,270.8,153.7,270.8L153.7,270.8z"/>
		</g>
	</g>
	<g id="l_36_">
		<path class="st0" d="M184.3,317.3c0.1,1.2,1.1,2.2,2.4,2.3c1.6,0.1,4,0.3,6.6,0.3c4.9,0,13.9-0.9,13.9-0.9l-0.7,9.8
			c0,0-6.6,1.2-12.3,1.2c-5.7,0-9.9-0.7-9.9-0.7l-12.7-0.9c0,0-0.8-4-0.8-27.9s0.8-29.2,0.8-29.2l12.7-0.8c0,0-0.7,7.2-0.7,25.4
			C183.7,307.8,184.1,314.3,184.3,317.3z"/>
		<g class="st1">
			<path d="M184.3,270.5c0,0-0.7,7.2-0.7,25.4c0.1,11.9,0.5,18.4,0.7,21.4c0.1,1.2,1.1,2.2,2.4,2.3c1.6,0.1,4,0.3,6.6,0.3
				c4.9,0,13.9-0.9,13.9-0.9l-0.7,9.8c0,0-6.6,1.2-12.3,1.2c-5.7,0-9.9-0.7-9.9-0.7l-12.7-0.9c0,0-0.8-4-0.8-27.9s0.8-29.2,0.8-29.2
				L184.3,270.5 M184.2,269.5l-12.7,0.8l-0.9,0.8c0,0.2-0.8,5.6-0.8,29.3c0,23.7,0.8,27.9,0.8,28.1l0.9,0.8l12.7,0.9
				c0.5,0.1,4.6,0.7,10,0.7c5.7,0,12.2-1.2,12.5-1.2l0.8-0.9l0.7-9.8l-1.1-1.1c-0.1,0-9,0.9-13.8,0.9c-2.1,0-4-0.1-5.6-0.2l-0.9-0.1
				c-0.8-0.1-1.4-0.7-1.5-1.4c-0.3-3.8-0.6-10.2-0.7-21.3c0-17.9,0.7-25.2,0.7-25.3L184.2,269.5L184.2,269.5z"/>
		</g>
	</g>
	<g id="l_35_">
		<path class="st0" d="M224,317.9c0.1,1.3,1.1,2.3,2.4,2.4c1.6,0.1,4,0.3,6.6,0.3c4.9,0,13.9-1,13.9-1l-0.7,10.2
			c0,0-6.6,1.2-12.3,1.2c-5.7,0-9.9-0.7-9.9-0.7l-12.7-1c0,0-0.8-4.2-0.8-29.3s0.8-30.6,0.8-30.6l12.9-0.7c0,0-0.7,7.5-0.7,26.6
			C223.4,308,223.8,314.8,224,317.9z"/>
		<g class="st1">
			<path d="M224.2,268.7c0,0-0.7,7.5-0.7,26.6c-0.1,12.7,0.3,19.5,0.5,22.6c0.1,1.3,1.1,2.3,2.4,2.4c1.6,0.1,4,0.3,6.6,0.3
				c4.9,0,13.9-1,13.9-1l-0.7,10.2c0,0-6.6,1.2-12.3,1.2c-5.7,0-9.9-0.7-9.9-0.7l-12.7-1c0,0-0.8-4.2-0.8-29.3s0.8-30.6,0.8-30.6
				L224.2,268.7 M224.1,267.7l-12.9,0.7l-0.9,0.9c0,0.2-0.8,5.9-0.8,30.7c0,24.9,0.8,29.3,0.8,29.5l0.9,0.8l12.7,1
				c0.5,0.1,4.5,0.7,10,0.7c5.7,0,12.2-1.2,12.5-1.2l0.8-0.9l0.7-10.2l-1.1-1.1c-0.1,0-9,1-13.8,1c-2.1,0-4-0.1-5.6-0.2l-0.9-0.1
				c-0.8-0.1-1.4-0.7-1.5-1.5c-0.3-4-0.6-10.7-0.5-22.5c0-18.8,0.7-26.4,0.7-26.5L224.1,267.7L224.1,267.7z"/>
		</g>
	</g>
</g>
</svg>
