<svg id="Layer_1" xmlns="http://www.w3.org/2000/svg" viewBox="-180.7 261.6 485.7 73.7">
    <style>
        .st0{fill:#000}.st1{opacity:0}
    </style>
    <g id="logo">
        <g id="t_18_">
            <path class="st0" d="M-132.1 275.6l-14 .5c-1.2 0-2.2 1-2.2 2.3-.2 7.7-.7 32.8-.7 25.1 0-9.1.5 28.8.5 28.8l-13.7 1s-.6-20.5-.6-29.7c0-7.1.4-19.2.6-24.4.1-1.3-1-2.4-2.4-2.4l-14.4.5.6-11.3s10.5-1.1 18.8-1.4c8.3-.3 28-.3 28-.3l-.5 11.3z"/>
            <path d="M-131.6 264.3l-.5 11.3-14 .5c-1.2 0-2.2 1-2.2 2.3-.2 5.8-.5 21.7-.6 25.7 0-1.2 0-2-.1-2v2.9s0-.3.1-.9c.1 6.7.4 28.2.4 28.2l-13.7 1s-.6-20.5-.6-29.7c0-7.1.4-19.2.6-24.4.1-1.3-1-2.4-2.4-2.4l-14.4.5.6-11.3s10.5-1.1 18.8-1.4 28-.3 28-.3m0-1c-.2 0-19.8 0-28 .3s-18.8 1.4-18.9 1.4l-.9.9-.6 11.3 1 1.1 14.4-.5c.4 0 .8.2 1.1.5.2.2.3.6.3.9-.2 5.4-.6 17.5-.6 24.5 0 9.1.6 29.5.6 29.7l1.1 1 13.7-1 .9-1c0-.2-.3-21.6-.4-28.2.1-2.5.3-9.8.4-16.2.1-3.8.2-7.3.2-9.4 0-.8.5-1.3 1.2-1.3l14-.5 1-1 .5-11.3-1-1.2z"/>
        </g>
        <g id="h_18_">
            <path class="st0" d="M-82.8 329.9l-12.7.9s-.5-2.7-.5-13.1c0-5.9.1-9.4.2-11.3.1-1.1-.8-2.1-2-2.2-1.5-.1-3.9-.1-7.1.1-3.7.2-6.3.6-7.8.8-1 .1-1.7.9-1.8 1.8-.2 1.6-.4 4.8-.4 10.8 0 10.6.5 12.2.5 12.2l-12.7.9s-1-16.8-1-31.9 1-29.6 1-29.6l12.7-.9s-.7 6.6-.7 14.7c0 4.4.1 7.6.1 9.5 0 1.2 1.2 2.2 2.4 2 1.5-.2 3.9-.5 7-.7 3.2-.2 5.6-.2 7.2-.2 1.2 0 2.2-.9 2.2-2.1 0-1.6-.1-4.4-.1-8.9 0-9 .8-13.5.8-13.5l12.7-.8s-1 10.1-1 30.1 1 31.4 1 31.4z"/>
            <path d="M-82.8 268.4s-1 10.1-1 30.1 1 31.4 1 31.4l-12.7.9s-.5-2.7-.5-13.1c0-5.9.1-9.4.2-11.3.1-1.1-.8-2.1-2-2.2-.6 0-1.4-.1-2.3-.1-1.3 0-2.9 0-4.8.2-3.7.2-6.3.6-7.8.8-1 .1-1.7.9-1.8 1.8-.2 1.6-.4 4.8-.4 10.8 0 10.6.5 12.2.5 12.2l-12.7.9s-1-16.8-1-31.9 1-29.6 1-29.6l12.7-.9s-.7 6.6-.7 14.7c0 4.4.1 7.6.1 9.5 0 1.1 1 2 2.1 2h.3c1.5-.2 3.9-.5 7-.7 3.2-.2 5.6-.2 7.2-.2 1.2 0 2.2-.9 2.2-2.1 0-1.6-.1-4.4-.1-8.9 0-9 .8-13.5.8-13.5l12.7-.8m-.1-1l-12.7.8-.9.8c0 .2-.8 4.7-.8 13.7 0 2.8 0 5 .1 6.6v2.3c0 .6-.5 1.1-1.2 1.1-1.6 0-4 0-7.3.2-3.1.2-5.5.5-7.1.7h-.2c-.6 0-1.1-.5-1.1-1v-2.9c0-1.8-.1-4-.1-6.6 0-8 .7-14.5.7-14.6l-1.1-1.1-12.7.9-.9.9c0 .1-1 14.7-1 29.7s1 31.8 1 32l1.1.9 12.7-.9.9-1.3s-.5-1.9-.5-11.9c0-6.2.2-9.2.4-10.7 0-.4.3-.9.9-.9l.6-.1c1.6-.2 3.9-.5 7.1-.7 1.7-.1 3.3-.2 4.7-.2.9 0 1.6 0 2.3.1.3 0 .6.2.8.4.2.2.3.4.2.7-.1 1.8-.2 5.2-.2 11.4 0 10.4.5 13.2.5 13.3l1.1.8 12.7-.9.9-1.1c0-.1-1-11.6-1-31.3 0-19.7 1-29.9 1-30l-.9-1.1z"/>
        </g>
        <g id="o_18_">
            <path class="st0" d="M-33.9 303.4c-.4 8-4.7 26.5-24.2 26.4-19.1-1.4-22.2-20.1-21.9-28 0 0 0-2.6.1-3.2 0-.6.2-2.8.2-2.8.4-8.2 5.1-28 24.3-27.2 19.3 1.3 22.1 20.6 21.8 28.8 0 0 0 1.8-.1 2.7-.1 1-.2 3.3-.2 3.3zm-12.6-6.3c.2-5.4-1.5-18.1-9.4-18.9-7.9.1-10.8 12.3-11.1 17.5 0 0-.2 2.3-.3 3.1v3.2c-.2 5.2 2.3 17.4 9.6 18.2 7.5-.2 10.7-12 10.9-17 0 0 .1-2 .2-3.1s.1-3 .1-3z"/>
            <path d="M-56.5 268.6h1.1c19.3 1.3 22.1 20.6 21.8 28.8 0 0 0 1.8-.1 2.7-.1 1-.2 3.3-.2 3.3-.4 8-4.7 26.4-24 26.4h-.2c-19.1-1.4-22.2-20.1-21.9-28 0 0 0-2.6.1-3.2 0-.6.2-2.8.2-2.8.4-8.1 4.9-27.2 23.2-27.2m-1.2 51.6c7.5-.2 10.7-12 10.9-17 0 0 .1-2 .2-3.1s.1-3 .1-3c.2-5.4-1.5-18.1-9.4-18.9-7.9.1-10.8 12.3-11.1 17.5 0 0-.2 2.3-.3 3.1v3.2c-.2 5.2 2.3 17.4 9.6 18.2m1.2-52.6c-8.2 0-14.8 3.8-19.2 11.1-3.4 5.6-4.8 12.5-5 17.1 0 .2-.2 2.1-.2 2.8-.1.7-.1 2.8-.1 3.3-.1 2.1-.1 9.7 3.8 16.9 3.9 7.3 10.5 11.5 19 12.1H-57.9c8.7 0 15.6-3.7 20-10.7 4.3-6.7 5-14.5 5.1-16.7 0 0 .1-2.3.2-3.3.1-.9.1-2.7.1-2.8.4-10.4-4-28.5-22.7-29.8h-1.3zm-9.8 31.2c.1-.9.3-3 .3-3.1.3-5.4 3.2-16.4 10.1-16.6 6.9.8 8.6 12.3 8.4 17.9 0 .1 0 1.9-.1 2.9-.1 1.1-.2 3.1-.2 3.1-.2 4-2.9 15.8-9.9 16-6.5-.8-8.8-12.6-8.6-17.2v-3z"/>
        </g>
        <g id="m_18_">
            <path class="st0" d="M15.9 292.8c0-.6-1-.8-1.2-.2-2.2 6-6.7 18.2-8.1 22.4-2 5.6-3.3 9.1-3.3 9.1l-8.7.5s-1.3-4.2-3.3-9.6c-1.5-4-5.9-16.2-8.1-22.3-.2-.6-1.2-.5-1.2.2.1 6.9.2 21.3.4 25.1.3 5 .7 9.8.7 9.8l-12.7.8s-.5-11.7-.5-28.9.5-27.5.5-27.5L-13 271s1.7 4 4 12.3c1.9 6.6 5.9 18 7.4 22.2.2.5 1 .5 1.2 0C.9 302 4.2 293 6.8 283.8c3.3-11.9 4.2-11.7 4.2-11.7l16.6-1.1s.3 17.6.3 28.6-.3 28.1-.3 28.1l-12.8.8s.3-8.9.7-15.4c.3-4.6.4-14.8.4-20.3z"/>
            <path d="M27.6 271s.3 17.6.3 28.6-.3 28.1-.3 28.1l-12.8.8s.3-8.9.7-15.4c.3-4.6.4-14.8.4-20.3 0-.3-.3-.6-.7-.6-.2 0-.5.1-.5.4-2.2 6-6.7 18.2-8.1 22.4-2 5.6-3.3 9.1-3.3 9.1l-8.7.5s-1.3-4.2-3.3-9.6c-1.5-4-5.9-16.2-8.1-22.3-.1-.3-.3-.4-.6-.4s-.6.2-.6.6c.1 6.9.2 21.3.4 25.1.3 5 .7 9.8.7 9.8l-12.7.8s-.5-11.7-.5-28.9.5-27.5.5-27.5L-13 271s1.7 4 4 12.3c1.9 6.6 5.9 18 7.4 22.2.1.2.4.4.6.4s.5-.1.6-.4C.9 302 4.2 293 6.8 283.8c3.2-11.5 4.1-11.7 4.2-11.7l16.6-1.1m-.1-1L11 271.1c-.8 0-1.7.1-5.1 12.4-1.7 6.1-4 13.1-6.8 20.7-1.2-3.4-5.2-14.6-7-21.2-2.3-8.3-4-12.2-4-12.4l-1-.6-16.6 1.2-.9.9c0 .1-.5 10.5-.5 27.5s.5 28.8.5 28.9l1.1 1 12.7-.8.9-1.1s-.4-4.8-.7-9.8c-.1-2.7-.2-11.2-.3-18 0-1.7 0-3.3-.1-4.8 2.3 6.4 6 16.6 7.3 20.2 2 5.3 3.3 9.5 3.3 9.5l1 .7 8.7-.5.9-.7s1.3-3.6 3.3-9.1c1.2-3.7 4.8-13.4 7.2-19.8l.2-.5c0 5.8-.1 14.1-.4 18.1-.4 6.4-.7 15.3-.7 15.4l1.1 1 12.8-.8.9-1c0-.2.3-17.2.3-28.1 0-10.9-.3-28.4-.3-28.6l-1.3-.8z"/>
        </g>
        <g id="a_36_">
            <path class="st0" d="M65.8 318.1c-.3-1-1.3-1.8-2.5-1.7-1.6 0-3.9.1-6.6.3-2.9.2-5.5.4-7.1.6-1 .1-1.8.7-2.1 1.5l-3.3 9.1-13.5.8 19.8-55.1 11.6-1.1L82 327.7l-13.6.8-2.6-10.4zm-15.5-11.3c-.2.5.3 1 .9.9 1.1-.1 2.7-.3 4.6-.4 2-.1 3.8-.1 4.8-.1.6 0 .9-.5.8-.9L57 290.6c-.2-.7-1.4-.8-1.6 0l-5.1 16.2z"/>
            <path d="M62.1 272.5L82 327.7l-13.6.8-2.6-10.4c-.3-.9-1.2-1.7-2.3-1.7h-.2c-1.6 0-3.9.1-6.6.3-2.9.2-5.5.4-7.1.6-1 .1-1.8.7-2.1 1.5l-3.3 9.1-13.5.8 19.8-55.1 11.6-1.1M51 307.7h.2c1.1-.1 2.7-.3 4.6-.4 2-.1 3.8-.1 4.8-.1.6 0 .9-.5.8-.9L57 290.6c-.1-.4-.5-.6-.8-.6-.3 0-.7.2-.8.6l-5.1 16.2c-.2.4.2.9.7.9m11-36.2l-11.6 1.1-.8.7-19.8 55.1 1 1.3 13.5-.8.9-.7 3.3-9.1c.2-.5.7-.8 1.3-.8 1.7-.2 4.7-.4 7.1-.6 2.6-.2 4.9-.3 6.5-.3h.2c.7 0 1.2.5 1.3 1l2.6 10.4 1 .8 13.6-.8.9-1.3-20-55.4-1-.6zm-10.6 35.2l4.8-15.3 4.1 14.8c-1 0-2.7 0-4.6.1-1.4.1-2.7.2-3.7.3-.2 0-.4 0-.6.1z"/>
        </g>
        <g id="a_35_">
            <path class="st0" d="M286.2 319.7c-.3-1.2-1.4-2.1-2.7-2.1-1.7 0-4.1.1-6.9.3-3.1.2-5.8.5-7.5.7-1 .1-1.9.8-2.2 1.8l-3.5 10.9-14.1.9 20.8-66.2 12.2-1.3 20.9 66.6-14.3 1-2.7-12.6zM270 306.1c-.2.6.3 1.2 1 1.1 1.1-.1 2.8-.4 4.8-.5 2.1-.1 4-.2 5.1-.2.6 0 1-.5.9-1.1l-4.8-18.8c-.2-.9-1.5-.9-1.7 0l-5.3 19.5z"/>
            <path d="M282.3 264.7l20.9 66.6-14.3 1-2.7-12.6c-.3-1.2-1.4-2.1-2.7-2.1-1.7 0-4.1.1-6.9.3-3.1.2-5.8.5-7.5.7-1 .1-1.9.8-2.2 1.8l-3.5 10.9-14.1.9 20.8-66.2 12.2-1.3m-11.5 42.5h.2c1.1-.1 2.8-.4 4.8-.5 2.1-.1 4-.2 5.1-.2.6 0 1-.5.9-1.1l-4.8-18.8c-.1-.5-.5-.7-.9-.7s-.8.2-.9.7l-5.3 19.5c-.1.5.3 1.1.9 1.1m11.4-43.5L270 265l-.8.7-20.8 66.2 1 1.3 14.1-.9.9-.7 3.5-10.9c.2-.6.7-1 1.3-1.1 1.8-.2 4.4-.5 7.5-.7 2.7-.2 5.1-.3 6.8-.3.8 0 1.5.6 1.7 1.3l2.7 12.6 1 .8 14.3-1 .9-1.3-20.9-66.6-1-.7zM271 306.2l5.1-18.9 4.6 18.2c-1 0-2.5.1-4.2.2h-.8c-1.4.1-2.6.2-3.6.4-.4 0-.7 0-1.1.1z"/>
        </g>
        <g id="z_18_">
            <path class="st0" d="M101.7 317c-.7.9.2 2.1 1.4 2 2.1-.1 5.1-.2 9-.2 7.7-.1 14.4.4 14.4.4l-.7 9.1s-9.5-1.1-20.3-1.1-20.4 1.1-20.4 1.1v-6.6s12.4-17.6 17.6-25.1c3.6-5.1 6.1-9.6 7.3-11.9.4-.8-.2-1.8-1.3-1.9-2.6-.2-7.3-.5-11.6-.4-6.5.1-12.7.6-12.7.6l.7-9.2s8.5-1.1 16.8-1.1 23.7 1.1 23.7 1.1v6.5s-12.3 18.8-17.2 26.6c-2.9 4.6-5.2 8.1-6.7 10.1z"/>
            <path d="M101.9 272.7c8.3 0 23.7 1.1 23.7 1.1v6.5s-12.3 18.8-17.2 26.6c-2.9 4.6-5.2 8.1-6.7 10.1-.7.9.1 2 1.3 2h.1c2.1-.1 5.1-.2 9-.2h2.1c6.8 0 12.3.4 12.3.4l-.7 9.1s-9.5-1.1-20.3-1.1-20.4 1.1-20.4 1.1v-6.6s12.4-17.6 17.6-25.1c3.6-5.1 6.1-9.6 7.3-11.9.4-.8-.2-1.8-1.3-1.9-2.2-.2-6.1-.4-9.8-.4h-1.8c-6.5.1-12.7.6-12.7.6l.7-9.2s8.5-1.1 16.8-1.1m0-1c-8.3 0-16.8 1.1-16.9 1.1l-.9.9-.7 9.2 1.1 1.1c.1 0 6.2-.5 12.6-.6h1.8c3.6 0 7.3.2 9.7.4.2 0 .4.1.5.3.1.1 0 .2 0 .2-1.1 2.2-3.6 6.7-7.2 11.8-5.1 7.4-17.5 24.9-17.6 25.1l-.2.6v6.6l1.1 1c.1 0 9.7-1.1 20.3-1.1 10.6 0 20.1 1.1 20.2 1.1l1.1-.9.7-9.1-.9-1.1c-.1 0-5.7-.4-12.4-.4h-2.1c-3.2 0-6.2.1-9 .2h-.1c-.2 0-.4-.1-.5-.3v-.1c1.4-1.9 3.6-5.2 6.8-10.2 4.8-7.7 17.1-26.4 17.2-26.6l.2-.5v-6.5l-.9-1c-.3-.1-15.7-1.2-23.9-1.2z"/>
        </g>
        <g id="e_18_">
            <path class="st0" d="M162.9 303.9c-.1.1.4-.4-7.9-.4-5.2 0-8.4.2-10.2.3-.8.1-1.5.7-1.5 1.4v12.2c0 .8.7 1.5 1.6 1.5 1.5.1 4.1.2 7.4.3 5.6.1 15-1.3 15-1.3l-.7 9.4s-6.9 1.6-13 1.6-10.3-.7-10.3-.7l-12.6-.9s-.5-11.1-.5-27.1.5-28 .5-28 11.3-.4 23-.4 13.6.5 13.6.5l-.7 9.4s-4.4-.5-12.5-.4c-4.7 0-7.5.2-9 .3-.9.1-1.6.7-1.6 1.5v10.1c0 .9.9 1.6 1.9 1.5 1-.1 2.5-.1 4.9-.2 6.7-.2 13.5.5 13.5.5s-.8 8.8-.9 8.9z"/>
            <path d="M153.7 271.8c11.7 0 13.6.5 13.6.5l-.7 9.4s-3.6-.4-10.4-.4h-2.1c-4.7 0-7.5.2-9 .3-.9.1-1.6.7-1.6 1.5v10.1c0 .8.8 1.5 1.7 1.5h.2c1-.1 2.5-.1 4.9-.2h2.5c5.8 0 11 .5 11 .5s-.8 8.8-.9 8.9c-.1 0-.3-.4-7.9-.4-5.2 0-8.4.2-10.2.3-.8.1-1.5.7-1.5 1.4v12.2c0 .8.7 1.5 1.6 1.5 1.5.1 4.1.2 7.4.3h.6c5.6 0 14.4-1.3 14.4-1.3l-.7 9.4s-6.9 1.6-13 1.6-10.3-.7-10.3-.7l-12.6-.9s-.5-11.1-.5-27.1.5-28 .5-28 11.3-.4 23-.4m0-1c-11.6 0-22.9.4-23 .4l-1 1c0 .1-.5 12.2-.5 28s.5 27 .5 27.1l.9 1 12.6.9c.5.1 4.6.7 10.4.7 6.1 0 12.9-1.6 13.2-1.6l.8-.9.7-9.4-1.1-1.1c-.1 0-8.8 1.3-14.3 1.3h-.6c-3.6-.1-6-.2-7.4-.3h-.1c-.4 0-.6-.3-.6-.5v-12.2c0-.1.2-.3.6-.4h.3c1.8-.1 4.9-.3 9.8-.3 6.4 0 7.4.3 7.5.3.1 0 .2.1.4.1l.6-.2c.5-.4.5-.4 1.3-9.6l-.9-1.1c-.1 0-5.3-.5-11.1-.5h-2.5c-.9 0-1.7.1-2.4.1-1.1 0-1.9.1-2.6.1h-.1c-.4 0-.7-.2-.7-.5v-10.1c0-.3.4-.5.7-.5h.1c1.5-.1 4.3-.3 8.8-.3h2.1c6.6 0 10.2.4 10.3.4l1.1-.9.7-9.4-.7-1c-.2-.1-2.3-.6-13.8-.6z"/>
        </g>
        <g id="l_36_">
            <path class="st0" d="M184.3 317.3c.1 1.2 1.1 2.2 2.4 2.3 1.6.1 4 .3 6.6.3 4.9 0 13.9-.9 13.9-.9l-.7 9.8s-6.6 1.2-12.3 1.2c-5.7 0-9.9-.7-9.9-.7l-12.7-.9s-.8-4-.8-27.9.8-29.2.8-29.2l12.7-.8s-.7 7.2-.7 25.4c.1 11.9.5 18.4.7 21.4z"/>
            <path d="M184.3 270.5s-.7 7.2-.7 25.4c.1 11.9.5 18.4.7 21.4.1 1.2 1.1 2.2 2.4 2.3 1.6.1 4 .3 6.6.3 4.9 0 13.9-.9 13.9-.9l-.7 9.8s-6.6 1.2-12.3 1.2c-5.7 0-9.9-.7-9.9-.7l-12.7-.9s-.8-4-.8-27.9.8-29.2.8-29.2l12.7-.8m-.1-1l-12.7.8-.9.8c0 .2-.8 5.6-.8 29.3 0 23.7.8 27.9.8 28.1l.9.8 12.7.9c.5.1 4.6.7 10 .7 5.7 0 12.2-1.2 12.5-1.2l.8-.9.7-9.8-1.1-1.1c-.1 0-9 .9-13.8.9-2.1 0-4-.1-5.6-.2l-.9-.1c-.8-.1-1.4-.7-1.5-1.4-.3-3.8-.6-10.2-.7-21.3 0-17.9.7-25.2.7-25.3l-1.1-1z"/>
        </g>
        <g id="l_35_">
            <path class="st0" d="M224 317.9c.1 1.3 1.1 2.3 2.4 2.4 1.6.1 4 .3 6.6.3 4.9 0 13.9-1 13.9-1l-.7 10.2s-6.6 1.2-12.3 1.2c-5.7 0-9.9-.7-9.9-.7l-12.7-1s-.8-4.2-.8-29.3.8-30.6.8-30.6l12.9-.7s-.7 7.5-.7 26.6c-.1 12.7.3 19.5.5 22.6z"/>
            <path d="M224.2 268.7s-.7 7.5-.7 26.6c-.1 12.7.3 19.5.5 22.6.1 1.3 1.1 2.3 2.4 2.4 1.6.1 4 .3 6.6.3 4.9 0 13.9-1 13.9-1l-.7 10.2s-6.6 1.2-12.3 1.2c-5.7 0-9.9-.7-9.9-.7l-12.7-1s-.8-4.2-.8-29.3.8-30.6.8-30.6l12.9-.7m-.1-1l-12.9.7-.9.9c0 .2-.8 5.9-.8 30.7 0 24.9.8 29.3.8 29.5l.9.8 12.7 1c.5.1 4.5.7 10 .7 5.7 0 12.2-1.2 12.5-1.2l.8-.9.7-10.2-1.1-1.1c-.1 0-9 1-13.8 1-2.1 0-4-.1-5.6-.2l-.9-.1c-.8-.1-1.4-.7-1.5-1.5-.3-4-.6-10.7-.5-22.5 0-18.8.7-26.4.7-26.5l-1.1-1.1z"/>
        </g>
    </g>
</svg>
