<?xml version="1.0" encoding="utf-8"?>
<!-- Generator: Adobe Illustrator 19.0.0, SVG Export Plug-In . SVG Version: 6.00 Build 0)  -->
<svg version="1.1" id="Layer_1" xmlns="http://www.w3.org/2000/svg" xmlns:xlink="http://www.w3.org/1999/xlink" x="0px" y="0px"
	 viewBox="-242 236.2 74 89.8" style="enable-background:new -242 236.2 74 89.8;" xml:space="preserve">
<style type="text/css">
	.st0{fill:#eeeeee;}
</style>
<g id="XMLID_135_">
	<g id="XMLID_82_">
		<path id="XMLID_83_" class="st0" d="M-240.5,315l33-35.5c0.3-0.3,0.5-0.6,0.7-0.9l26.5-40.5c1.7-2.2,4.5,0.9,6.6,2.6l0,0
			c2.2,1.7,6,4.3,4.2,6.5l-32.4,35c-0.6,0.6-1.1,1.3-1.6,2l-26.2,40c-1.7,2.2-4.7-1-6.8-2.7l0,0C-238.7,319.7-242.3,317.2-240.5,315
			z"/>
	</g>
</g>
<g id="XMLID_81_">
	<g id="XMLID_149_">
		<path id="XMLID_150_" class="st0" d="M-169.5,315l-33-35.5c-0.3-0.3-0.5-0.6-0.7-0.9l-26.5-40.5c-1.7-2.2-4.5,0.9-6.6,2.6l0,0
			c-2.2,1.7-6,4.3-4.2,6.5l32.4,35c0.6,0.6,1.1,1.3,1.6,2l26.2,40c1.7,2.2,4.7-1,6.8-2.7l0,0C-171.3,319.7-167.7,317.2-169.5,315z"
			/>
	</g>
</g>
</svg>
