<svg id="Layer_1" xmlns="http://www.w3.org/2000/svg" viewBox="-242 236.2 74 89.8">
    <style>
        .st0{fill:#eee}
    </style>
    <g id="XMLID_135_">
        <g id="XMLID_82_">
            <path id="XMLID_83_" class="st0" d="M-240.5 315l33-35.5c.3-.3.5-.6.7-.9l26.5-40.5c1.7-2.2 4.5.9 6.6 2.6 2.2 1.7 6 4.3 4.2 6.5l-32.4 35c-.6.6-1.1 1.3-1.6 2l-26.2 40c-1.7 2.2-4.7-1-6.8-2.7-2.2-1.8-5.8-4.3-4-6.5z"/>
        </g>
    </g>
    <g id="XMLID_81_">
        <g id="XMLID_149_">
            <path id="XMLID_150_" class="st0" d="M-169.5 315l-33-35.5c-.3-.3-.5-.6-.7-.9l-26.5-40.5c-1.7-2.2-4.5.9-6.6 2.6-2.2 1.7-6 4.3-4.2 6.5l32.4 35c.6.6 1.1 1.3 1.6 2l26.2 40c1.7 2.2 4.7-1 6.8-2.7 2.2-1.8 5.8-4.3 4-6.5z"/>
        </g>
    </g>
</svg>
