<?xml version="1.0" encoding="utf-8"?>
<!-- Generator: Adobe Illustrator 19.0.0, SVG Export Plug-In . SVG Version: 6.00 Build 0)  -->
<svg version="1.1" id="Layer_1" xmlns="http://www.w3.org/2000/svg" xmlns:xlink="http://www.w3.org/1999/xlink" x="0px" y="0px"
	 viewBox="0 0 74 89.8" style="enable-background:new 0 0 74 89.8;" xml:space="preserve">
<g id="XMLID_135_">
	<g id="XMLID_82_">
		<path id="XMLID_83_" d="M1.5,78.8l33-35.5c0.3-0.3,0.5-0.6,0.7-0.9L61.7,1.9c1.7-2.2,4.5,0.9,6.6,2.6l0,0c2.2,1.7,6,4.3,4.2,6.5
			L40.1,46c-0.6,0.6-1.1,1.3-1.6,2l-26.2,40c-1.7,2.2-4.7-1-6.8-2.7h0C3.3,83.5-0.3,81,1.5,78.8z"/>
	</g>
</g>
<g id="XMLID_81_">
	<g id="XMLID_149_">
		<path id="XMLID_150_" d="M72.5,78.8l-33-35.5c-0.3-0.3-0.5-0.6-0.7-0.9L12.3,1.9c-1.7-2.2-4.5,0.9-6.6,2.6l0,0
			c-2.2,1.7-6,4.3-4.2,6.5L33.9,46c0.6,0.6,1.1,1.3,1.6,2l26.2,40c1.7,2.2,4.7-1,6.8-2.7l0,0C70.7,83.5,74.3,81,72.5,78.8z"/>
	</g>
</g>
</svg>
