<svg baseProfile="tiny" xmlns="http://www.w3.org/2000/svg" viewBox="-31 0 77.4 45.1"><path d="M-24.6 10.2h-2.2v5.6h-2.9V.8h5c.8 0 1.6.1 2.2.3.7.2 1.2.5 1.7.9s.8.8 1.1 1.4c.3.6.4 1.2.4 1.9 0 .5-.1 1-.2 1.4-.1.4-.3.8-.5 1.1-.2.3-.5.6-.9.9-.3.3-.7.5-1.1.7l3.2 6.2v.1h-3.1l-2.7-5.5zm-2.2-2.4h2.1c.8 0 1.4-.2 1.9-.6.4-.4.7-1 .7-1.7s-.2-1.3-.6-1.7c-.4-.4-1.1-.6-1.9-.6h-2.1v4.6zm20.2 1.6c0 1-.1 1.8-.4 2.6s-.6 1.5-1.1 2.1-1.1 1-1.7 1.4c-.7.3-1.5.5-2.3.5s-1.6-.2-2.3-.5c-.7-.3-1.2-.8-1.7-1.4-.5-.6-.8-1.3-1-2.1-.2-.8-.4-1.7-.4-2.6V7.2c0-1 .1-1.8.4-2.6s.6-1.5 1-2.1c.5-.6 1-1 1.7-1.4.7-.3 1.4-.5 2.3-.5.9 0 1.6.2 2.3.5.7.3 1.3.8 1.7 1.4.5.6.8 1.3 1.1 2.1s.4 1.7.4 2.6v2.2zm-3-2.2c0-.6 0-1.2-.1-1.7s-.3-1-.5-1.3-.5-.7-.8-.9-.7-.3-1.2-.3-.9.1-1.2.3-.6.5-.8.9-.3.8-.4 1.3-.1 1.1-.1 1.7v2.2c0 .6 0 1.2.1 1.7s.2 1 .4 1.3.4.7.8.9.7.3 1.2.3.9-.1 1.2-.3.6-.5.8-.9c.2-.4.4-.8.5-1.3s.2-1.1.2-1.7V7.2zm5.1 8.6V.8h5c.8 0 1.6.1 2.2.2.7.2 1.3.5 1.8.8s.8.8 1.1 1.3c.3.5.4 1.1.4 1.8s-.2 1.3-.6 1.9-.9 1-1.6 1.2c.4.1.8.3 1.1.5s.6.5.8.8c.2.3.4.6.5 1 .1.4.1.7.1 1.1 0 .7-.1 1.4-.4 1.9s-.6 1-1.1 1.4-1 .6-1.7.8-1.3.3-2.1.3h-5.5zm2.9-8.7H.5c.8 0 1.4-.2 1.8-.5s.6-.8.7-1.4c0-.7-.2-1.2-.6-1.5-.4-.4-1-.5-1.8-.5h-2.1v3.9zm0 2.1v4.3H1c.8 0 1.4-.2 1.8-.6.4-.4.6-.9.6-1.5 0-.7-.2-1.2-.6-1.6s-1-.6-1.7-.6h-2.7zm20.2.2c0 1-.1 1.8-.4 2.6-.3.8-.6 1.5-1.1 2.1-.5.6-1.1 1-1.8 1.4-.6.3-1.4.5-2.3.5-.9 0-1.6-.2-2.3-.5-.7-.3-1.2-.8-1.7-1.4-.5-.6-.8-1.3-1-2.1-.2-.8-.4-1.7-.4-2.6V7.2c0-1 .1-1.8.4-2.6s.6-1.5 1-2.1c.5-.6 1-1 1.7-1.4.7-.3 1.4-.5 2.3-.5.9 0 1.6.2 2.3.5.7.3 1.3.8 1.8 1.4.5.6.8 1.3 1.1 2.1.3.8.4 1.7.4 2.6v2.2zm-3-2.2c0-.6 0-1.2-.1-1.7s-.3-1-.5-1.3c-.2-.4-.5-.7-.8-.9S13.5 3 13 3s-.9.1-1.2.3-.6.5-.8.9-.2.8-.3 1.3-.1 1.1-.1 1.7v2.2c0 .6 0 1.2.1 1.7s.2 1 .4 1.3.4.7.8.9.7.3 1.2.3.9-.1 1.2-.3.6-.5.8-.9c.2-.4.4-.8.5-1.3.1-.5.2-1.1.2-1.7V7.2zm16.1-4h-4.6v12.6h-2.9V3.2h-4.5V.8h12v2.4zm12.1 6.2c0 1-.1 1.8-.4 2.6s-.6 1.5-1.1 2.1c-.5.6-1.1 1-1.7 1.4-.7.3-1.5.5-2.3.5s-1.6-.2-2.3-.5c-.7-.3-1.2-.8-1.7-1.4-.5-.6-.8-1.3-1-2.1-.2-.8-.4-1.7-.4-2.6V7.2c0-1 .1-1.8.4-2.6.2-.8.6-1.5 1-2.1.5-.6 1-1 1.7-1.4.7-.3 1.4-.5 2.3-.5.9 0 1.6.2 2.3.5.7.3 1.3.8 1.7 1.4.5.6.8 1.3 1.1 2.1s.4 1.7.4 2.6v2.2zm-3-2.2c0-.6 0-1.2-.1-1.7s-.3-1-.5-1.3-.5-.7-.8-.9c-.3-.2-.7-.3-1.2-.3s-.9.1-1.2.3c-.3.2-.6.5-.8.9s-.2.8-.3 1.3-.1 1.1-.1 1.7v2.2c0 .6 0 1.2.1 1.7s.2 1 .4 1.3.4.7.8.9c.3.2.7.3 1.2.3s.9-.1 1.2-.3c.3-.2.6-.5.8-.9.2-.4.4-.8.5-1.3.1-.5.2-1.1.2-1.7V7.2zM-25.7 29h-2l-.4 1.4h-1.4l2.2-6.8h1.2l2.2 6.8h-1.4l-.4-1.4zm-1.7-1.1h1.4l-.7-2.5-.7 2.5zm4.1 2.5v-6.8h2.3c.4 0 .7 0 1 .1.3.1.6.2.8.3.2.2.4.3.5.6.1.2.2.5.2.8 0 .3-.1.6-.3.8-.2.2-.4.4-.7.6.2 0 .4.1.5.2s.3.2.4.4c.1.1.2.3.2.4s.1.3.1.5c0 .3-.1.6-.2.9-.1.2-.3.5-.5.6-.2.2-.5.3-.8.4-.3.1-.6.1-1 .1h-2.5zm1.3-3.9h1c.4 0 .6-.1.8-.2s.3-.4.3-.7c0-.3-.1-.5-.3-.7-.2-.1-.5-.2-.8-.2h-1v1.8zm0 .9v1.9h1.2c.4 0 .6-.1.8-.3.2-.2.3-.4.3-.7 0-.3-.1-.6-.3-.7-.2-.2-.4-.3-.8-.3H-22zm9.1.9c0 .3-.1.6-.2.9-.1.3-.3.5-.5.7s-.5.3-.8.4-.6.2-1 .2-.8-.1-1.1-.2c-.3-.1-.6-.4-.8-.6-.2-.3-.4-.6-.5-1s-.2-.8-.2-1.2v-.9c0-.4.1-.9.2-1.2.1-.4.3-.7.5-1 .2-.3.5-.5.8-.6.3-.1.7-.2 1-.2.4 0 .7.1 1 .2.3.1.5.3.7.4s.4.4.5.7c.1.3.2.6.2 1h-1.3c0-.2 0-.4-.1-.5 0-.2-.1-.3-.2-.4-.1-.1-.2-.2-.3-.2-.1-.1-.3-.1-.5-.1s-.4 0-.5.1-.3.2-.4.4c-.1.2-.2.4-.2.6 0 .2-.1.5-.1.8v.9c0 .7.1 1.2.3 1.5.2.3.5.5.9.5.3 0 .6-.1.8-.3s.3-.5.3-.9h1.5zm1 2.1v-6.8h1.7c.4 0 .9.1 1.2.2.4.2.7.4.9.6.3.3.5.6.6 1 .1.4.2.8.2 1.3v.6c0 .5-.1.9-.2 1.2-.1.4-.3.7-.6 1-.2.3-.5.5-.9.7s-.7.2-1.2.2h-1.7zm1.3-5.7v4.6h.5c.2 0 .5 0 .7-.1s.3-.2.4-.4l.3-.6c.1-.2.1-.5.1-.9v-.6c0-.3 0-.6-.1-.8-.1-.2-.2-.5-.3-.6s-.3-.3-.5-.4-.4-.1-.7-.1h-.4zm8.5 2.7h-2.8v1.9h3.2v1.1h-4.6v-6.8h4.5v1.1H-5v1.7h2.8v1zm5.9.2H.9v2.8H-.4v-6.8h4.6v1.1H.9v1.8h2.9v1.1zm6 2l-.3.3c-.2.1-.3.2-.5.3-.2.1-.4.2-.7.2s-.5.1-.8.1c-.4 0-.7-.1-1-.2s-.6-.3-.8-.6c-.2-.3-.4-.6-.5-.9S5 28 5 27.5v-.9c0-.5.1-.9.2-1.3s.3-.7.5-.9.5-.5.8-.6.6-.2 1-.2.7 0 1 .1c.3.1.5.2.7.4.2.2.3.4.5.7.1.3.2.6.2.9H8.6c0-.3-.1-.6-.3-.8-.2-.2-.4-.3-.8-.3-.2 0-.3 0-.5.1s-.3.2-.4.4l-.3.6c-.1.2-.1.5-.1.8v.9c0 .6.1 1.1.3 1.4.2.3.5.5 1 .5h.3c.1 0 .2 0 .3-.1.1 0 .2-.1.2-.1s.1-.1.2-.1v-1.2H7.4v-1h2.4v2.8zm5.5.8H14v-2.9h-1.9v2.9h-1.3v-6.8h1.3v2.8H14v-2.8h1.3v6.8zm1.6-6.8h3.9v1.1h-1.3v4.7h1.3v1h-3.9v-1h1.3v-4.7h-1.3v-1.1zm8.6 0h1.3v4.7c0 .3-.1.6-.2.9s-.3.5-.5.7c-.2.2-.5.3-.7.4-.3.1-.6.2-.9.2-.3 0-.6 0-.9-.1s-.6-.3-.8-.4c-.2-.2-.4-.4-.5-.6s-.2-.6-.2-.9h1.3c0 .4.1.6.2.8.2.2.4.2.7.2.1 0 .3 0 .4-.1.1-.1.2-.1.3-.2.1-.1.2-.2.2-.4 0-.1.1-.3.1-.4v-4.8zm4.5 4l-.7.8v2H28v-6.8h1.3v3.1l.6-.8 1.6-2.3h1.6l-2.3 3 2.4 3.8h-1.5L30 27.6zm5.1 1.7h3.2v1.1h-4.5v-6.8h1.3v5.7zm5.9-5.7l.6 2.5.7-2.5H44v6.8h-1.2v-2l.1-3.2-.9 3h-.6l-.8-2.8.1 3v2h-1.2v-6.8H41zm-65.6 18.2h-1.3l-1.9-4.4v4.4h-1.3V35h1.3l1.9 4.3V35h1.3v6.8zm6-2.9c0 .4-.1.8-.2 1.2-.1.4-.3.7-.5.9-.2.3-.5.5-.8.6-.3.1-.7.2-1.1.2s-.7-.1-1-.2c-.3-.1-.6-.4-.8-.6-.2-.3-.4-.6-.5-.9-.1-.4-.2-.8-.2-1.2v-1c0-.4.1-.8.2-1.2.1-.4.3-.7.5-.9.2-.3.5-.5.8-.6.3-.1.6-.2 1-.2s.7.1 1.1.2c.3.1.6.4.8.6.2.3.4.6.5.9.1.4.2.8.2 1.2v1zm-1.3-1c0-.3 0-.5-.1-.8 0-.2-.1-.4-.2-.6s-.2-.3-.4-.4c-.2-.1-.3-.1-.5-.1s-.4 0-.5.1c-.1.1-.3.2-.3.4-.1.2-.1.4-.2.6 0 .2-.1.5-.1.8v1c0 .3 0 .5.1.8 0 .2.1.4.2.6.1.2.2.3.3.4.1.1.3.1.5.1s.4 0 .5-.1c.1-.1.3-.2.4-.4.1-.2.2-.4.2-.6 0-.2.1-.5.1-.8v-1zm3.7 1.4v2.5h-1.3V35h2.3c.4 0 .7.1 1 .2s.5.3.8.4c.2.2.4.4.5.7.1.3.2.6.2.9 0 .3-.1.6-.2.8-.1.3-.3.5-.5.7-.2.2-.5.3-.8.4s-.6.2-1 .2h-1zm0-1h1c.2 0 .3 0 .5-.1.1-.1.2-.1.3-.2.1-.1.2-.2.2-.3 0-.1.1-.3.1-.4 0-.2 0-.3-.1-.4 0-.1-.1-.3-.2-.4-.1-.1-.2-.2-.3-.2-.1-.1-.3-.1-.5-.1h-1v2.1zm9 .8c0 .4-.1.8-.2 1.2-.1.4-.3.7-.6.9l1.1 1-.8.8-1.3-1.2c-.1 0-.2 0-.3.1s-.2 0-.4 0c-.4 0-.7-.1-1-.2-.3-.2-.6-.4-.8-.6-.2-.3-.4-.5-.5-.9s-.2-.7-.2-1.1V38c0-.4.1-.8.2-1.2.1-.4.3-.7.5-.9.2-.3.5-.5.8-.6.3-.1.6-.2 1-.2s.7.1 1.1.2c.3.2.6.4.8.6.2.3.4.6.5.9.1.4.2.8.2 1.2v1.1zm-1.3-1.2c0-.3 0-.5-.1-.8 0-.2-.1-.4-.2-.6-.1-.2-.2-.3-.4-.4-.1 0-.3-.1-.5-.1s-.4 0-.5.1c-.1.1-.3.2-.3.4-.1.2-.1.4-.2.6s-.1.5-.1.8v1.2c0 .2 0 .4.1.6 0 .2.1.4.2.5s.2.3.3.4c.1.1.3.1.5.1s.4 0 .6-.1c.2-.1.3-.2.4-.4.1-.2.2-.3.2-.5s.1-.4.1-.6v-1.2zm4.6 1.4h-1v2.5h-1.3V35H-4c.4 0 .7 0 1 .1.3.1.6.2.8.4s.4.4.5.6c.1.3.2.5.2.9 0 .2 0 .5-.1.7s-.1.4-.2.5c-.1.2-.2.3-.4.4-.1.1-.3.2-.5.3l1.5 2.8v.1h-1.4l-1.3-2.5zm-1-1.1h1c.4 0 .7-.1.9-.3.2-.2.3-.4.3-.8 0-.3-.1-.6-.3-.8-.2-.2-.5-.3-.9-.3h-1v2.2zM3 40c0-.1 0-.2-.1-.3 0-.1-.1-.2-.2-.3-.1-.1-.2-.2-.4-.3-.1 0-.3-.1-.6-.2s-.6-.2-.8-.3c-.3-.1-.5-.3-.7-.4s-.4-.4-.5-.6c-.1-.2-.2-.5-.2-.8 0-.3.1-.5.2-.8.1-.2.3-.4.5-.6.2-.2.5-.3.8-.4h.9c.4 0 .7.1 1 .2.3.1.5.2.8.4.2.2.4.4.5.7.1.3.2.5.2.8H3c0-.2 0-.3-.1-.4 0-.1-.1-.2-.2-.3-.1-.1-.2-.2-.4-.2-.1-.2-.3-.2-.4-.2-.2 0-.3 0-.5.1-.1 0-.2.1-.3.2-.1.1-.2.2-.2.3s-.1.2-.1.3c0 .1 0 .2.1.3l.3.3c.1.1.3.2.4.2.2.1.4.1.6.2.3.1.6.2.8.3s.5.3.7.5c.2.1.3.3.4.6.1.2.2.5.2.8 0 .3-.1.6-.2.8l-.5.5c-.2.2-.5.3-.8.4-.3.1-.6.1-1 .1-.2 0-.4 0-.6-.1-.2 0-.4-.1-.6-.2s-.4-.2-.5-.3c-.2-.1-.3-.3-.4-.4s-.2-.3-.3-.5c-.1-.2-.1-.4-.1-.7H.6c0 .2 0 .4.1.5s.2.3.3.4c.1.1.3.2.4.2.2 0 .3.1.5.1s.3 0 .5-.1c.1 0 .2-.1.3-.2s.2-.2.2-.3c.1 0 .1-.1.1-.3zm7.1-3.9h-2v5.7H6.8v-5.7H4.7V35h5.4v1.1zm5.3-1.1v4.5c0 .4-.1.7-.2 1-.1.3-.3.5-.5.7-.2.2-.4.4-.7.5-.3.1-.6.2-1 .2-.3 0-.6-.1-.9-.2-.3-.1-.5-.3-.7-.5s-.3-.4-.5-.7c-.1-.3-.2-.6-.2-1V35H12v4.5c0 .4.1.8.2 1 .2.2.4.3.7.3.3 0 .6-.1.7-.3s.3-.6.3-1V35h1.5zm3.4 4.9l1.3-4.9h1.4l-2 6.8h-1.3l-2-6.8h1.4l1.2 4.9zm6.8-.8l.5-4.1h1.2l-.9 6.8h-1.2l-.6-4-.6 4h-1.2l-1-6.8H23l.5 4 .6-4h.9l.6 4.1zm4.7-1.6l1.2-2.4H33l-1.9 3.3 1.9 3.4h-1.5l-1.2-2.5-1.2 2.5h-1.5l1.9-3.4-1.9-3.4h1.5l1.2 2.5zm5.7.7l1.3-3.1h1.4l-2.1 4.4v2.3h-1.3v-2.4L33.2 35h1.4l1.4 3.2zm4.8 2.5h3.3v1.1h-4.9V41l3.3-4.9h-3.3V35H44v.8l-3.2 4.9z"/></svg>