<svg baseProfile="tiny" xmlns="http://www.w3.org/2000/svg" viewBox="0 0 103 24.4"><path d="M26.5 1v.2s-.1.1-.1 0h-.2c0 .1-.1.1-.2.1h-.1v-.1h.1v-.1l-.1-.1h-.1s0 .1-.1.1v.2h.1l-.1.1c-.1 0-.1.1-.2.1v-.1c0-.1 0-.1-.1-.1v-.1c-.1 0-.3.1-.4.2h-.2v.1h-.2v.3h-.3l-.2.2H24c-.1 0-.2 0-.3.1 0-.1 0-.1-.1-.1h-.4c-.1 0-.2.1-.2.1 0 .1-.1.1-.2.1 0 0 .1 0 .2-.1 0 0-.1 0-.1-.1h-.1l-.1.1h-.1l-.1-.1s0 .1-.1.1c-.1-.1-.1-.1-.2 0v.1h-.3v-.1c-.1-.1-.2 0-.3.1l-.1.1s0 .1-.1.1h-.1v-.1c-.1 0-.1.1-.1.1h-.1c-.1-.1-.1 0-.2 0h-.2v.1h-.2v.1c0 .1-.1.2-.2.2H20s-.1 0-.1.1h-.4l-.1.1h-.5v.1h.1s-.1 0-.1.1v-.1h-.2l-.1-.1s0-.1-.1 0h-.1s0 .1-.1.1h-.1v.1c-.1 0-.1 0-.1.1H18v-.1c0-.1-.1-.1-.1 0 0 0-.1 0-.1.1v.1s0 .1-.1.1v-.1h-.1v.1c.1.1.1.1 0 .1 0 0-.1 0 0 .1s0 .1 0 .1h-.2v-.2l-.1-.1-.1.1-.1.1h-.3c-.1 0-.1 0-.1.1h-.1s0 .1.1.1h-.1V4h-.1c-.1 0 0 0 0 0h-.1v.2h-.2v.1h-.4v-.2c0-.1.1-.1.1-.1-.1 0-.1 0-.2-.1V4l-.1.1v.1c0-.1 0-.2-.1-.2 0 0 0-.1-.1-.1 0 0 0 .1-.1.1h-.1v-.1h-.1v.2h-.3L15 4s0 .1.1.1H15v.2s-.1 0-.1-.1v-.1h-.1v.2h.1s.1.1 0 .1 0 .1 0 .1h.1s-.1 0-.1.1l-.1.1s.1 0 .1-.1l.1-.1v.1l-.2.1c.1 0 .1.1.1.1.1.2.1.3.1.3v.2s-.1 0-.2.1v.2s0-.1.1-.1v.1c0 .1 0 .1.1.1v-.2c0 .1 0 .1.1.1v.2c.1 0 .1.1 0 .2l-.1-.1v.3c0 .1-.1.1-.1.1l-.1-.1-.1.1.1.1c-.1 0-.1.1-.1.2v.8c-.1 0-.1-.1 0-.2h-.5v.1l.1.1h.1s0 .1-.1.1l.1-.1.1-.1s.1 0 0 .1v.1h-.1v-.1l-.1-.1v-.1h-.2V7h.1l-.1-.1-.1.1v.1l.2.9h-.1v-.1.2H14v.1h-.2c0 .1.1.1.1 0h-.1s-.1 0 0 .1h-.1s0 .1.1.1h-.2v.2h-.3v.2h.2s.1 0 .1.1c0 0 0 .1-.1.1 0-.1 0-.1-.1-.1V9h.2v.1h-.1v.2s0 .1-.1.1l-.1-.1.1.1h-.1v.1h-.1v-.1c0-.1 0 0 0 0v.3-.1.1c.1.1.1.1.1.2h-.2v.1s.1.1 0 .1H13s-.1 0-.1.1h.1-.1l.1.1v.1l-.1.1v.4s-.1 0-.1.1h.1v.2h-.2l.1.1v.2h-.1l-.1.1h-.2.2s0-.1.1-.1v.1c.1 0 .1-.1.1-.1l.1-.1-.1-.1.1-.1.1-.1h.1V11h.1c0 .1 0 .1.1.2l.1.1v.1c0 .1 0 .1-.1.2l.1.1.1.1.1.1v.3l-.1.1h-.1v-.1s0 .1-.1.1h.1v.3h-.2v.1c.1 0 .2 0 .2.1 0 0 .1 0 .1-.1l.1-.1c.1 0 .1.1 0 .2v.2h-.2v.1h-.1V13h-.1v.3c-.1 0-.1 0-.2.1h.2v.3h-.1l-.1.1v.1c.1 0 .1.1.1.1v.1H13v.1h.1c-.1.2-.1.2-.1.3.1.1 0 .2 0 .2l-.1.1-.1-.1h.1v-.2h-.3v-.2h.3l-.1-.1v.1h-.1v-.1h-.1v.1s.1 0 .1.1c-.1 0-.1 0-.1-.1v.2h-.1v-.2h-.1v.1l-.1-.1v.2H12v.1c0 .1.1.2.2.2 0 .1 0 .1.1.1v.2h-.1v.1c0 .1 0 .1-.1.1v-.2h.1l.1-.1-.1.1V15h.1c0-.1 0-.1-.1-.1v.5h-.1v-.2s0 .1-.1.1c0 0 0 .1-.1.1v.1s.1.1.1.2h-.1l-.2.2h-.1v.1h-.1.4s.1-.1.1-.2c0 0 0 .1.1.1 0 0 0 .1-.1.1h-.4v.2h-.1v.1c0 .1 0 .1.1.1v.2h-.1.2v-.2l.1.1c0-.1 0-.2-.1-.2v.1h.2c0-.1.1 0 .1 0s-.1.1 0 .1h.1v.1c-.1.1-.1.1 0 .2v-.1H12l-.1-.1v.2c.1.1.1.2.1.2h.1s.1 0 .1.1h-.3.1v.1h.2v.1c0 .1 0 0 0 0 .1 0 .1-.1.1-.1v-.1s0-.1.1-.1v-.1s0-.1-.1-.1c0 0-.1 0-.1-.1 0 0-.1 0 0-.1h.1c.2 0 .2.1.1.3v.2c0 .1-.1.2-.1.2l-.1.1s0 .1-.1.1c0 0 0 .1-.1.1 0 0 0 .1-.1.1v-.2h-.1l.1.1s0 .1-.1.3c-.1 0-.1 0-.1.1 0 0 0 .1-.1.2l-.2.2v.2l-.2.2s-.1 0-.1-.1c0 0 0-.1-.1-.1h-.1l-.1.1v.1h-.2v-.1c-.1 0-.1 0-.1.1l-.1-.1v.2c.1 0 .1 0 .2-.1v.1h-.1v.1h.3s.1 0 .1.1h-.1c0 .1-.1.1-.2.1h-.1l-.2.1v-.2h.1s0 .1.1.1c0-.1 0-.1-.1-.1V19h-.2c-.1 0-.1 0-.2-.1 0 0 0-.1.1-.1 0 0 .1-.1 0-.1H10c0 .1 0 .1-.1.1 0 0-.1 0 0 .1v.1l-.1.1s0 .1-.1.1c0 0 .1 0 .1.1v.1h.1c0 .1 0 .2-.1.2-.1-.1-.1-.2-.2-.2v.2L9 20c0 .1-.1.2-.2.2h-.1v.4l-.1.1c0 .1.1.1.1.1-.1 0-.1.1-.1.1v.1h-.1s0-.1-.1-.1h-.3v.3c.1 0 .1 0 .1.1h-.1l-.1-.2-.1-.1H8v-.3l-.1-.1c0 .1-.1.1-.1.1v-.1h-.1s0 .1-.1.2c-.1.2-.2.2-.2.2s-.1.1-.2.1c0 0-.1.1-.1 0v.2h.2v.1h-.2s-.1.1-.2.1-.2.1-.5.1c0 0-.1 0-.2.1-.1 0-.1 0-.2.1h-.8c-.2.2-.3.2-.4.2h-.2c-.1.1-.2 0-.2-.1 0 0-.1-.1-.1 0H3.2l-.1-.1s-.1 0-.2-.1l-.1-.1h-.1s-.1-.1-.2 0h-.1c-.1 0-.2-.1-.3-.2 0-.1-.1-.2-.3-.3l-.1-.1s0-.1-.1-.1 0 0-.1-.1v-.1c0-.1-.1-.1-.1-.1-.1-.1-.2-.2-.3-.4 0 0-.1-.1-.1-.2s-.1-.1-.1-.2v-.2s0-.1-.1-.2c0 0 0-.1-.1-.2 0-.1-.1-.1-.1-.1 0-.1 0-.2-.1-.3 0-.1-.1-.2-.1-.3v-3.2c0-.2.1-.3.1-.5v-.4s0-.1.1-.2c0-.1.1-.2.1-.2s0-.1.1-.2c0-.1 0-.1.1-.2v-.3s0-.1.1-.2l.1-.3v-.2l.1-.1s0-.1.1-.1 0-.1.1-.1v-.1l.1-.1s0-.1.1-.2.1-.2.1-.3c0 0 0-.1.1-.2.1-.2.2-.3.2-.3.1-.2.2-.3.2-.4 0-.1 0-.1.1-.2 0 0 .1 0 .1-.1s0 0 .1-.1 0-.1 0-.1c.1-.2.2-.3.2-.3 0-.1.1-.2.2-.3 0 0 0-.1.1-.2 0 0 .1-.1.1-.2v-.1l.1-.1s0-.1.1-.1c0 0 0-.1.1-.1l.1-.1.2-.2s0-.1.1-.1l.1-.1c-.1-.2 0-.3.2-.5l.1-.1s.1 0 .1-.1c.1 0 .1-.1.2-.2l.1-.2s.1-.1.1-.2c.3-.2.4-.3.4-.3l.3-.3h.4v.2s0 .1-.1.2-.1 0-.1 0l-.1.1c-.1.1-.1.2-.1.3v.2h.1v.3c-.1 0-.1 0-.1.1h.1l-.1.2v.4c0 .1 0 .2-.1.3 0 .1-.1.3 0 .4-.1 0-.1.1-.2.2 0 .1-.1.1-.1.2v.1l.1.1c.1 0 .1 0 .1-.1v.2l-.1.1v.2c-.1 0-.1.1-.1.1h-.2.1l-.1-.1h-.2l-.1.1-.1.1h.1l-.1.1s-.1 0-.1.1h-.1v.3l-.1.1h.2l.1.1h.1c-.1-.1-.2-.1-.3 0-.1-.1-.1-.1-.1-.2v.1s-.1.1-.1.2h.1v-.2h.1l-.1.1v.2h-.2s-.1 0-.1.1h-.1l.1.1s-.1 0-.2-.1l-.1.1v.1h-.1v.1l-.1.1v.1-.1c0 .1-.1.1-.1.1l-.1.1c0 .2-.1.2-.1.3h.1v.2H3v.6s0 .1-.1.1h-.1v.3h.1v.2l.1.1h-.1v.2l-.1.1-.1.1v.4h-.2s.1.1 0 .1h-.1v.4c0 .1 0 .1.1.1l-.1.1s-.1 0-.1.1l.1.1v.3l.1.1V17h.1s0 .1.1.1c0 0 0 .1.1.1 0 0 0-.1-.1-.1v.1h.1v.3h-.1v.5l-.1.1.1-.1v.2h-.1s0 .1.1.2l-.1.1v.1l.2.4h.1c.1 0 0 0 .1-.1 0 0 .1 0 .1.1v.2h.2s.1 0 .1.1v.1h.2l.1-.1.1.1c0 .1 0 .1-.1.1v.2h.1s0 .1.1.1l.1.1v.1l.1.1v.1H4h.2V20c0-.1 0-.1-.1-.1h.1l-.1-.1v-.1h.2v.2l.1-.1v.1h.1l.1-.1v.2l.1.1h.2c0-.1.2-.2.5-.4v-.1s.1-.1.1-.2c.1-.1.1-.1.1-.2.1 0 .2-.1.2-.2 0 0 .1-.1.1-.2h.2s0-.1.1-.1l.1-.1.1-.1.1-.1c.1-.1.1-.2.2-.2l.3-.6.1-.1c0-.1.1-.1.1-.1l.2-.2c.1-.1.1-.2.2-.2 0 0 .1-.1.1-.2s.1-.1.1-.2c0 0 0-.1.1-.1 0-.1 0-.1.1-.1V16c.1-.2.1-.3.2-.4.2-.2.3-.4.3-.5v-.2s.1-.1.1-.2.1-.2.1-.2.1 0 .1-.1v-.2s0-.1.1-.2v-.2l.1-.3s0-.1.1-.3c0 0 .1-.1.1-.2v-.2c0-.1.1-.2.1-.4v-.3l.1-.1s0-.1.1-.3v-.4s0-.1.1-.2c0-.1 0-.1.1-.2v-.5c0-.1 0-.1.1-.1v-.4.1c0-.1.1-.2.1-.3.1-.3.1-.5.1-.5.1-.1.1-.3.2-.5 0-.1.1-.3.1-.5.6-.2.7-.3.7-.3v-.2c0-.1 0-.1.1-.2 0-.1.1-.2.1-.2 0-.1.1-.3.1-.6 0 0 0-.1.1-.2 0-.1 0-.2.1-.2v-.2c.1-.3.2-.5.2-.7v-.1s-.1-.1-.2 0h-.4C11 5 11 5 11 4.8V5h-.1s-.1 0-.1-.1c0 .1 0 .1-.1.1h-.5c-.1 0-.1.1-.2.1h-.2s-.1 0-.2-.1v.2h-.7c-.1 0-.1 0-.1-.1 0 0-.1 0-.1.1s-.1.1-.2 0v.1h-.1v-.2.1l-.1.1h.1c-.1 0-.1 0-.1.1h-.1l-.4.3v.1h-.3c0 .1-.1.1-.1.1h-.6c-.1 0-.1.1 0 .1h-.1v-.1h-.2c0 .1-.1.1-.1.1h-.1s-.1-.1-.1-.2h-.1s-.1 0-.2-.1h-.2c0-.2-.2-.2-.4-.3-.2-.1-.3-.1-.3-.1-.1 0-.2-.1-.3-.1 0 0-.1 0-.1-.1L4.5 5h-.1l-.1-.1.1-.1v-.1c.1 0 .1-.1.1-.2 0 0 .1 0 .1-.1s.1-.1.2-.1.2-.1.3-.1h.4s.1 0 .1-.1c0 0 .1 0 .1-.1 0 0 .1 0 .2-.1s.1 0 .2-.1h.1c.1 0 .1 0 .3-.1.1 0 .2-.1.2-.1.1 0 .2-.1.4-.1s.3-.1.4-.1c.1 0 .2 0 .3-.1s.2 0 .3-.1h.4c.2 0 .3-.1.5-.1-.1-.1.1-.1.1-.1h.1c.2 0 .3-.1.3-.1.1 0 .1 0 .2-.1.1 0 .2-.1.2-.1h.4c.2 0 .3-.1.3-.1h1.2c.2-.1.4-.1.5-.1h.6c.1 0 .2 0 .3-.1h.5c.1 0 .3-.1.5-.1h.4c.2 0 .5-.1.8-.1h.2c.1 0 .3 0 .4-.1.2-.1.3-.1.5-.1h.3s.1 0 .1-.1c0 0 .1 0 .2-.1H19l.1-.1h1.5c.2-.7.4-.7.6-.7h.1c.1 0 .3 0 .5-.1.1 0 .3-.1.5-.1h.5c.1 0 .3-.1.6-.1h.3s.1 0 .2-.1c0 0 .1-.1.1 0h.1s.1 0 .1.1c.1 0 .1.1.1.1s.1.1.2 0h1.7c.1 0 .1 0 .2.1 0 0 .1 0 .1.1zM2.4 14.9c0 .1.1.1.1.1l-.1-.1zm.1.6s-.1 0-.1.1h.1v-.1zm0-.8c0 .1 0 .1 0 0 0 .1 0 .1 0 0zm0 1.8c0-.1 0-.1 0 0zm.1-1.8c0-.1 0-.1 0 0-.1-.1-.1-.1 0 0-.1 0-.1 0 0 0zm0-.3c0 .1 0 .1 0 0 .1 0 .1 0 0 0 .1 0 .1-.1 0 0zm.1.2s0-.1 0 0c0-.1-.1-.1 0 0-.1 0 0 0 0 0zm0 2.5zm0 2s0-.1 0 0c0-.1 0-.1 0 0zm0-.4s.1 0 0 0zm.2-.6c0 .1.1.1.1.1s-.1 0-.1-.1c0 .1 0 .1 0 0-.1 0-.1 0 0 0zm0-3.9c.1 0 .1 0 0 0zm.4-1.1s-.1 0 0 .1c-.1 0 0 0 0-.1zm0 6.9c0-.1 0-.1 0 0zm.1-6.7zm0 6.5zm.1.6v-.1c-.1-.1-.1 0 0 .1-.1-.1-.1-.1 0 0-.1-.1 0-.1 0 0zm.3-7.9s.1 0 0 0c.1 0 .1.1.1.1l-.1-.1c.1.1.1.1 0 0v.4h-.1c-.1-.1-.1-.2 0-.2v-.3h.1v.1c-.1 0 0-.1 0-.1.1 0 .1.1 0 .1zm-.2.4v.1c.1.1.1 0 0-.1 0 .1 0 .1 0 0zm.1 6.8s-.1 0 0 0c-.1 0-.1 0 0 0v-.1.1zm0 .1c0-.1 0 0 0 0zm.3-7v-.1h.1c-.1 0-.1.1-.1.1zm0-1.6c-.1.1-.1.1 0 .1v-.1zm0 1.3zm.1 7.4c0 .1-.1.1-.1.1v-.2c.1 0 .1 0 .1.1 0-.1 0-.1 0 0zm-.1-8h.1H4zm0-.4c0 .1.1.1 0 0 .1.1.1.1 0 0 .1 0 .1 0 0 0 .1 0 .1 0 0 0zm.2-.5c0 .1 0 .1 0 0 0 .1 0 .1 0 0zm0 1s.1 0 0 0l.1.1-.1-.1zm.1-.5c.1 0 .1 0 0 0 .1 0 .1 0 0 0 .1 0 .1 0 0 0zm.3.1c-.1.1-.2.1-.2.1s-.1 0-.1-.1l.1-.1.1-.1c-.1 0-.1-.1 0-.1 0 .1.1.1.1.3zm-.1-.3s0-.1 0 0c0-.1.1-.1 0 0 .1-.1.1-.1 0 0 .1-.1.1-.1.2-.1v.1h-.2zm0-.3c.1 0 .1 0 0 0zm.3-.2s-.1.1-.1 0h.1c-.1 0-.1 0 0 0zm-.2.1zm.4.3c-.1 0-.1-.1-.2-.1h.1c-.1 0-.1-.1-.1-.1H5c0-.1 0-.2.1-.3v.3s-.1.1-.1.2zm-.2-1zm.3.4h-.2v-.1s.1 0 .2.1c0-.1 0 0 0 0zm1.8-4.5h-.1.1c-.1 0-.1-.1 0 0 0-.1 0-.1 0 0zm.2-.3zm.4 15.6c.1 0 .1 0 0 0 .1 0 .1 0 0 0zm.4-.8c-.1-.1-.1-.1 0 0 0-.1 0-.1-.1-.1 0 0 0 .1.1.1zm.1.2c-.1.1-.1 0 0 0-.1 0-.1 0 0 0l-.1-.1c-.1.1 0 .1.1.1-.1 0-.1 0 0 0zM7.9 5.6s0-.1 0 0c0-.1 0-.1 0 0zm0 14.9c.1 0 .1 0 0 0 .1-.1 0-.1 0 0zm.6.1c0-.1 0-.1-.1-.1 0 0-.1 0-.2-.1h.1c-.1 0-.1.1-.1.1v.1h.1v-.1h.2v.2c-.2.1-.1 0 0-.1-.1.1-.1.1 0 0-.1 0-.1 0 0 0zM8.2 6.3zm.2 13.9c-.1 0-.1.1-.1.1 0 .1.1.1.1.1-.1-.1 0-.1 0-.2zm-.1-.2l-.1.1c.1 0 .2 0 .1-.1zm.1.1c0 .1 0 .1 0 0 0 .1 0 0 0 0zm.1.6zm0-.1s.1 0 0 0zm.1-.8c-.1 0 0 0 0 0zm.2 0v-.2.2zm.3-.3v-.1s-.1 0 0 .1zm.1-.2c0-.1 0-.1 0 0zm.2.3zm.2-14.3zM9.8 19s.1 0 0 0c.1 0 .1-.1.1-.1-.1 0-.1.1-.1.1zm.2 0c.1 0 .1 0 0 0 .1.1.1.1 0 0 .1.1.1.1 0 0 .1 0 .1 0 0 0v-.1c.1 0 0 0 0 .1h-.1s0 .1.1 0v.2c.1-.1.1-.1 0-.2.1.1.1.1 0 0 0 .1 0 0 0 0zm0 .3zm.1-2s0 .1 0 0c.1.1.1 0 0 0zm.3 1c-.1-.1-.1-.1-.1-.2l-.1.1h-.1v.1h.1v-.1c0 .1.1.1.2.1-.1.1-.1 0 0 0zm.2.4c.1 0 .1 0 .1-.1l-.1.1c.1-.1 0-.1 0-.1v-.1h.1v-.1h.1v.1l.1-.1c.1-.1 0-.1 0-.1h-.2V18v.2h-.1.2l-.1.1-.1.1v.1h-.1l-.1.1h.2v-.1.1s.1 0 .1.1c-.2.1-.2.1-.1 0 0 .1 0 .1 0 0v.1c.1 0 .1 0 0-.1zm-.3-1.5h-.1.1zm-.1 2zm0-.3c.1 0 0 0 0 0zm.3-1.9v-.1.1c-.1-.1-.1-.1 0 0-.1 0-.1 0 0 0h-.1c0 .1.1.2.1.2V17zm0 .3s-.1 0 0 0h-.1v.2-.1c.1 0 .1.1.1.1h.1v.1h-.1.2v-.2l-.1-.1s0-.1.1-.1c-.1.1-.2.1-.2.1zm-.1.6s0 .1.1 0h-.1zm0 1.1c.1 0 .1-.1.1-.1-.1-.1-.1-.1-.1.1 0-.1 0-.1 0 0zm.1-.6v.1h-.1l.1-.1c-.1 0 0 0 0 0zm0-.3zm.1.6c-.1 0-.1-.1 0 0-.1-.1-.1-.1 0 0zm-.1-.8s0 .1 0 0c0 .1.1.1 0 0 .1.1.1.1.1 0h-.1zM10.7 5c0-.1-.1-.1-.1-.1l.1.1c-.1 0-.1 0 0 0zm.2 13h-.2v.2c0-.2.1-.2.2-.2-.1 0-.1 0 0 0h-.2v.1h.1l.1.1h-.1v-.3h-.1c.3.2.3.2.2.1zm-.2-1.1c-.1 0-.1 0 0 0zm.1-1v-.1.1c-.1-.1-.1 0 0 0-.1 0-.1 0 0 0-.1.1 0 0 0 0zm0 2.4s0-.1 0 0v-.1.1zm-.1-1.6s0-.1.1-.1l-.1.1zm.1-.4c-.1-.1-.1-.1 0 0 0-.1 0-.1.1-.1-.1 0-.1.1-.1.1zm.1.3c0 .1 0 .1 0 0v.2c-.1-.1-.1-.1-.1-.2 0 .1 0 .1.1 0zm-.2 2c.1 0 .1 0 0 0 .1 0 .1 0 0 0 .1 0 .1 0 0 0zm.3-.9c0 .1 0 .1-.1.1v.1h.3v-.2c-.2.1-.2.1-.2 0h.1-.1zm-.1-.1c0 .1 0 0 0 0zm0-.5zm.5-.6c-.1 0-.1 0-.1.1v.1h-.2c0-.1-.1-.1-.2-.1l.1-.1h.1v.2h.1v-.2l.1-.1v.1h.1c.1 0 .1 0 0 0 .1 0 .1.1.1.1h-.1c.1.1 0 .1 0-.1 0 .1 0 0 0 0zm-.3-.2s0-.1 0 0c0-.1 0-.1 0 0l.1-.1v-.1s.1 0 .1.1h.2l-.2.1h-.1v-.1l-.1.1zm0 1.5v.2c.1-.1.1-.2 0-.2zm.1-1.8s0 .1 0 0v.1s-.1 0 0-.1c-.1.1 0 .1 0 0zm0-.3c-.1 0-.1 0 0 0zm0 1.8l.1.1c-.1 0-.1-.1-.1-.1zm0-.5c-.1 0 0-.1 0-.1v.1zm.1-1.3c.1 0 .1.1.1.1-.2 0-.2 0-.1-.1zm0 .2s-.1.1-.1 0h.1zm-.1 1.4zm.2 0c-.1 0-.1-.1 0 0l-.1-.1h.1v.1c0-.1 0-.1 0 0zm-.2-1.8s.1 0 0 0c.1 0 .1 0 0 0 .1-.1.1-.1 0 0zm.1.1c0 .1 0 .1 0 0zm0 1.3s.1 0 0 0c.1 0 .1 0 0 0 0 .1 0 .1 0 0zm.2-1.2c0-.1 0-.1 0 0 0-.1 0 0 0 0zm0 .5s.1.1 0 0c0 .1 0 .1 0 0zm0 .5s.1 0 0 0c.1 0 .2.1.2.1-.1 0-.2 0-.2-.1 0 .1 0 .1 0 0zm.1-.2v.1-.1zm0 .1l.1.1c-.1 0-.1-.1-.1-.1zm0-.2zm.2-1.5l-.1.1v-.1h.1zm-.1.7s-.1 0 0 0c-.1 0-.1-.1 0 0-.1-.1-.1-.1 0 0 0-.1 0 0 0 0zm0 .3c-.1 0-.1 0 0 0zm.2.8s.1 0 0 0c.1.1.1.1 0 .2v-.2h-.2v-.1.2h-.1c.2-.2.2-.2.3-.1-.1-.1-.1-.1 0 0-.1-.1 0-.1 0 0zm-.2.5l.1-.1-.1.1zm0-1.4c0 .1 0 .1 0 0zm.1.3s-.1 0 0 0c-.1-.1 0-.1 0-.1v.1zm0 .6l.1.1v.1l-.1.1v-.2c-.1 0-.1 0 0-.1zm0-1.4s0-.1 0 0zm0-.2V15l.1.1h-.1c-.1 0 0 0 0 0zm.4 1c.1 0 .1 0 0 0 .1 0 .1 0 .1.1-.1 0-.2.1-.2.2v.1c-.1 0-.1.1-.1.1-.1-.1-.1-.2 0-.3h-.1c0-.1 0-.1.1-.1h.1c0 .1 0 .1.1.1v-.2h-.1V16h.2v-.2h.1c-.2.2-.2.2-.2.3zM12 16h-.1v-.1l.1.1zm-.1.2c-.1 0 0 0 0 0zm0-1.7c0 .1 0 .1 0 0zm0 .2s0-.1 0 0zm.1 1.1s0 .1 0 0c-.1 0 0 0 0 0zm.1-.1s-.1 0 0 0l-.1-.1h.1v.1zM12 15v-.1.1c.1-.1.1-.1 0 0zm0 .2c.1 0 .1-.1.1-.1h.1v.2c-.1 0-.2-.1-.2-.1zm.1-.5v.1c-.1-.1-.1-.1 0-.1zm0 .1c.1 0 .1 0 0 0h.2-.2c.1.1.1 0 0 0zm.2-2.9h-.1v.2c.1-.1.2-.1.3-.1l-.1-.1h-.1c.1 0 .1 0 0 0 .1.1.1.1 0 0 0 .1 0 .1 0 0zm-.1 4.2zm0-.5v-.2c.1.1.1.1 0 .2zm0-.5s0-.1.1-.2c0 0 0 .1-.1.2zm.1-.6s0 .1-.1.1l.1-.1c-.1.1-.1.1 0 0-.1 0-.1 0 0 0zm-.1-3c0 .1.1.1 0 0zm0 3.7zm.1-.9c-.1 0 0 0 0 0l.1-.1c-.1 0-.1 0-.1.1zm0 .8s0 .1 0 0zm.2.5v.1c-.1 0-.1 0 0-.1h-.1.1zm-.1-.8c0 .1 0 .1 0 0 0 .1 0 .1 0 0zm0-1c.1 0 0 0 0 0zm0-1.5c0-.1 0-.1 0 0zm.1 2.4s0 .1 0 0l-.1.1s0-.1.1-.1v-.1c.1.1.1.1 0 .1zm0-2.6V12v.1zm.1 1.8c0 .1 0 .1-.1.1h.1v-.1zm.1.8c0 .1.1.1 0 0v.3h-.1v.1h-.2l.1-.1c.1-.1 0-.1 0-.1v-.2.1l.2-.1zm-.1.7zm.1-3.5c-.1 0-.1.1 0 0zm-.1 1.4c0-.1.1-.1 0 0 0-.1 0-.1 0 0zm0 1.6c.1 0 .1 0 .1-.1l-.1.1zm0 .4zm.1-5.2c0 .1 0 .1 0 0v.1-.1zm0 .6zm-.1 2.1c.1.1.1 0 0 0 .1 0 .1 0 0 0zm.2 1.2v-.2h-.1s0 .1.1.1c-.1 0-.1 0 0 .1l-.1-.1.1.1zm0 .5s-.1 0-.1.1l-.1-.1h.2zm.2-1.1v-.2s-.1.1-.1.2h-.1c0 .1 0 .1-.1.1h.3c-.2 0-.1 0 0-.1-.1.1-.1.1 0 0-.1 0-.1 0 0 0-.1 0-.1 0 0 0-.1 0 0 0 0 0zm-.2-.9h-.1.1zm-.1-1.5s.1 0 0 0c0 .1 0 0 0 0zm.1.5c-.1.1 0 .1 0 0 0 .1 0 .1 0 0zm.1.8c0-.1-.1-.1-.1-.1h-.1c.1 0 .1.1.2.1 0 .1 0 .1.1.1 0 .1.1.1.1.1v-.2H13v-.1h.2s0-.1-.1-.1H13v.1h-.1s0-.1-.1-.2v.1h.1v.2zm-.1 2s-.1 0 0 0zm0-4.8zm.2 3.3v-.1.1c-.1-.1-.2 0-.2 0s0 .1.1.1c0-.1 0-.2.1-.1zm-.1.9h-.1s0 .1.1 0c-.1.1-.1.1 0 0 0 .1 0 0 0 0zm0-3.5s0-.1 0 0zm.2 1.1H13v-.2.1l.1.1c-.1 0-.1 0 0 0zm-.2 1.2s.1 0 0 0zm.1 1.2c0 .1 0 .1 0 0zm.1-2.6H13s0-.1.1 0L13 11h.1v.1zm0-.2c-.1 0-.1 0 0 0-.1-.1-.1 0 0 0zm-.1-.7s.1 0 0 0zm.1.5zm.1-2.2v-.1.1c-.1-.1-.1-.1 0 0-.1-.1 0-.1 0 0zm0 3.4c0 .1 0 .1 0 0 .1.1.1 0 0 0zm.1.8zm0-.2c.1 0 .1-.1 0 0 0-.1 0-.1 0 0zm.2-4.3V8h-.2v.2zm-.1.4s.1 0 .2.1l-.1.1c-.1-.1-.1-.1-.1-.2zm0-.2zm0 1.2zm0-1.8v.1c.1-.1.1-.1 0-.1.1 0 0 0 0 0zm0 4.9zm.2-3.3c-.1 0-.1 0-.1-.2l.1.2c0-.1 0-.1 0 0zm.1.1c-.1 0-.1 0 0 0h-.1.1zm-.1-.4l.1.1h-.1v-.1c0 .1-.1 0 0 0zm.3-1.4c0-.1 0-.1 0 0h-.2l.1-.1h-.1s0-.1-.1-.1v.1h.1s0 .1-.1.1l.1.1.1-.1c0 .1 0 .1.1 0zm-.3 2.2h.1v.1c-.1 0-.1 0-.1-.1zm0-1.4s.1 0 0 0c.1 0 .1 0 .1.1 0 0-.1 0-.1-.1zm0 1.3zm.1-1.5zm0 1.3s.1 0 0 0zm.1.2s0-.1 0 0zm0-1.5s.1.1 0 0c0 .1 0 0 0 0zm0 .6c0-.1 0-.1 0 0 0-.1 0-.1 0 0 .1-.1.1 0 0 0zm.1-.8c0 .1 0 .1 0 0zm.1 0s.1 0 0 0c.1 0 .1.1 0 0 .1.1 0 .1 0 0v.2h-.2l.2-.2c-.1.1 0 .1 0 0zm0-.9c.1 0 .1 0 0 0 .1 0 .1 0 0 0zm0 1.9c.1-.1.1-.1 0 0zm.1-1.1s0 .1 0 0c0 .1 0 .1 0 0zm.1-.8zm.3 0c-.1-.1-.1-.1 0 0-.1-.1-.1 0-.1 0h.1c-.1 0-.1 0 0 0zm-.1.9zm0 .2s.1.1 0 .1h-.1v-.1h.1zm.1-.9s0 .1 0 0l.1.2v.1c0-.1-.1-.1-.1-.1v-.1c-.1-.1-.1-.1 0-.1-.1 0 0 0 0 0zm-.1.7c0-.1.1-.1 0 0zm.1.4c.1 0 .1.1 0 0 0 .1-.1.1-.1.1l.1-.1zm0-2c.1 0 .1 0 0 0 0 0 0-.1 0 0 0-.1 0 0 0 0zm0 1.5s.1-.1 0 0v-.1.1c.1-.1.1-.1 0 0 .1 0 .1 0 0 0zm.1-.5c.1 0 .1 0 0 0zm.1-2.9zm.1 1.3c-.1 0-.1 0 0 0-.1 0-.1 0 0 0-.1 0-.1.1 0 0V6s.1-.1 0-.1zm.2-.5v-.1c.1.1.1.1 0 .1.1 0 .1 0 0 0zm0-.8c.1.1.1.1 0 0zm.1.6s-.1 0 0 0zm.2-1.2v.4c-.1-.3-.1-.3 0-.4zm0 .4zm.1-.4l.1-.1s0 .1-.1.1c.1 0 0 0 0 0zm.1-.1zm2.5-.5c0-.1 0-.1 0 0l-.1-.1c0 .1 0 .1.1.1zm.1.2c.1 0 .1 0 0 0 .1 0 .1 0 .1-.1v-.1s0 .1-.1.2H18c.2.1.2.1.1 0 .1 0 .1 0 0 0zm.3-.2l.1.2s0 .1-.1.1l.1-.1c-.1-.1-.1-.1-.1-.2zm.9-.2V3v.2-.1.1zm.5-.1c.1-.1.1-.1.1 0h-.1c.1.1 0 .1 0 0 0 .1 0 .1 0 0zm.4.1c0-.1 0-.1 0 0zm.2-.2c0-.1 0 0 0 0zm.2.1s0-.1 0 0c0-.1 0-.1 0 0zm.3-.3c0-.1 0-.1.1-.1 0 0 0 .1-.1.1zm1.1-.4s0 .1 0 0c0 .1 0 .1-.1.1h-.1c.1 0 .1-.1.2-.1zm0 .1h.1-.1zm.2 0c.1-.1.1-.1 0 0 .1 0 .1 0 0 0zm.6-.2c-.1 0-.1 0-.1-.1 0 0 .1 0 .1.1zm2.6-.8c.1 0 .1 0 0 0 .1 0 .1 0 0 0zm.4-.1h-.1c0-.1 0-.1.1 0l-.1-.1v.1h.1c-.1 0-.1 0 0 0-.1 0 0 0 0 0zm.1-.3c0 .1 0 .1 0 0-.1.1-.1.1 0 0 0 .1 0 0 0 0z"/><path d="M25.6 12l-.1.1h-.2l-.1.1h-.1s-.1.1-.2.1c0 0-.1 0-.2.1h-.3l-.2.1c-.1 0-.1 0-.1.1 0 0-.1 0-.2.1h-.2c-.1 0-.1 0-.1.1 0 0-.1.1-.2.1h-.6s-.1 0-.1.1v.8c0 .1-.1.2-.1.4l-.1.2v.2s-.1.1-.1.2l-.1.2v1s0 .1-.1.1v-.6.3l-.1.1v.3H22c-.1 0 0 .1 0 .1h-.1v.1s0 .1 0 0c0 0 .1 0 0 .1h-.1v.1s0 .1.1.1h-.1v2.8l-.1-.1v-1 .5-.3.2-1.1h-.1v-3.5h-.7s-.1 0-.1.1h-.6s-.1 0-.2.1l-.2.2c0 .1-.1.1-.1.3 0 0-.1.1-.1.3 0 .1-.1.1-.1.1v.1l-.1.1s0 .1-.1.1l-.1.1v.1s0 .1-.1.1c0 0-.1.1-.1.2 0 0 0 .1-.1.1s-.1.1-.1.1h-.1l-.1.1-.2.2s-.1 0-.1.1c0 0 0 .1-.1.1 0 0-.1 0-.1.1-.1.1-.2.2-.3.2l-.1.1-.1.1h-.1l-.1.1s0 .1-.1.1l-.2.2-.2.2-.1.1s-.1.1-.2.1h-.9c-.1 0-.1 0-.2-.1h-.1l-.1-.1-.1-.1v-.2s0-.1-.1-.1v-1.6s0-.1.1-.1c0 0 .1-.1.1-.2v-.1h-.4l-.2-.1v-.7c0-.1.1-.2.1-.2l.1-.1.1-.1.1-.1s0-.1.1-.1 0 0 .1-.1h.2c.1 0 .1-.1.2-.1 0 0 .1 0 .1-.1 0 0 .1 0 .1-.1h.6l.2-.1h.4s.1 0 .1-.1l.1-.1.1-.1v-.1l.1-.1s0-.1.1-.1c0 0 0-.1.1-.1 0 0 0-.1.1-.1l.1-.1.1-.1s.1-.1.2-.3c0 0 .1-.1.2-.3 0 0 .1-.1.1-.2.1-.1.1-.2.1-.2l.1-.1s0-.1.1-.1c.1-.1.1-.2.2-.3 0 0 0-.1.1-.1 0-.1.1-.1.1-.1s.1-.1.1-.2l.1-.1.1-.1c.1-.1.1-.3.2-.4v-.2l.2-.2c-.9-.3-.9-.4-.9-.4v-.1l.1-.1V9l.1-.1c0-.1.1-.1.1-.1.1-.1.1-.2.1-.2v-.2l.1-.1.1-.1s0-.1.1-.1v-.2h.3c0-.1.1-.1.1-.2 0 0 0-.1.1-.1v-1c0-.1 0-.1.1-.2 0-.1.1-.1.1-.2.1-.1.1-.1.2-.1h.2s.1 0 .1-.1h.5c.1 0 .1 0 .1.1l.1.1c.1.1.1 0 .1.1h.1l.1.1c.1.1.1.1.1.2v.8c0 .2.1.3.1.3v.9c0 .1.1.2.1.2 0 .1 0 .2.1.3v1-.1 2.2s0 .1.1 0h.7c.1 0 .2 0 .3-.1h.6s0 .1.1.1h1.5zm-5.3.7s.1 0 0 0l.1-.2v-1.3l-.1.1c0 .1 0 .2-.1.3v.5l-.1.2v.6h.3c.1 0 .2-.1.2-.1-.4-.1-.4-.1-.3-.1zm.2 4.4l-.1.1v-.1zm0 .8l-.1-.1.1.1zm-.1-.2s.1 0 0 0c.1 0 .1 0 0 0 .1.1.1.1 0 0zm.1-.1v-.3.3zm0-.5zm.1 1.1v-.1s-.1.1 0 .1zm0-.3v.1-.1zm0-.2s.1 0 0 0c0-.1 0-.1 0 0 0-.1 0-.1 0 0zm.1.4s0-.1 0 0V18c-.1 0-.1.1 0 .1-.1 0-.1 0 0 0zm-.1.6c.1 0 .1.1 0 0 .1.1.1.1 0 0zm.1-1.8zm.4.1v-.1c-.1 0-.1.1 0 .1zm.4-1c-.1 0 0 0 0 0zm.1-.2c0-.1 0-.1 0 0h-.1.1zm-.1.8zm.1-1zm0 .5c0 .1 0 .1 0 0 0 .1 0 .1 0 0zm.2-.3v.2c-.1-.1-.1-.2 0-.2z"/><path d="M33.8 5.4c.2.1.2.2.3.4V6s0 .1-.1.1l-.1.1V7c-.1.3-.3.4-.4.5-.1.1-.2.1-.2.2s-.1.3-.3.7v.1c0 .1 0 .2-.1.3 0 0-.1.1-.1.2s-.4 0-.5.1c0 .1-.1.1-.1.2-.1 0-.1.1-.2.3v.2c-.1.1-.2.2-.3.5v.1l-.1.1s0 .1-.1.2c0 .1 0 .1-.1.1 0 .1-.1.2-.3.5-.2.3-.3.5-.4.7-.1.1-.1.2-.1.2-.1.2-.2.4-.4.6 0 0 0 .1-.1.2s-.2.3-.3.5c-.1.1-.2.3-.4.7h-.1s-.1 0-.2.1c-.1 0-.1.1-.2.1s-.1.2-.2.3c-.1.1-.1.2-.1.3-.1.1-.1.2-.2.2-.1.1-.1.2 0 .2l.1.1v.3c-.1 0-.2.1-.2.2-.1.2-.2.3-.2.4l-.1.1c-.1 0-.1.1-.1.1 0 .1-.1.2-.1.3-.1.2-.1.3-.1.3v.2s0 .1-.1.1v.1c0 .1-.1.2-.2.3v.2h-.3c-.1-.1-.1-.2 0-.3.1-.1.1-.2.1-.2h.1l-.1.1-.1.1H27l-.1.1-.1.1s0 .1-.1.1v.2h-.2l-.1.1c-.1 0-.1-.1-.1-.1v-.1h-.2c-.1 0-.1-.1-.1-.1l-.1.1-.1.1-.1-.1-.1-.1s0-.1.1-.1.1-.1 0-.2h-.1c0-.1-.1-.1-.1-.1v-.4c0-.1.1-.3.1-.5s.1-.4.1-.5v-.5s-.1-.1-.1-.2-.1-.2-.1-.2c-.1-.1-.1-.2-.1-.4-.1-.1-.1-.3-.2-.5 0-.2-.1-.3-.1-.4-.1-.3-.2-.5-.3-.8 0 0-.1-.2-.2-.7 0 0 0-.1-.1-.2 0-.1-.1-.2-.1-.2-.1-.2-.1-.4-.2-.6-.2-.3-.2-.6-.2-.8-.1-.7-.2-1-.2-1.2 0-.1-.1-.1-.1-.2s0-.2-.1-.3 0-.2 0-.2v-.7c0-.1-.1-.2-.1-.2 0-.1-.1-.2-.1-.2l-.1-.1s-.1 0-.1.1l-.1.1c-.1.2-.3.3-.6.5-.1-.1-.1-.2-.1-.3-.1 0-.2.1-.3.3v.1c0 .1 0 .2-.1.2h-.4c-.1 0-.2-.1-.3-.2-.3-.2-.3-.4-.2-.5l.7-.7c.4-.3.7-.5.8-.6.1 0 .1-.1.2-.1 0 0 0-.1-.1-.2v-.1c.1-.1.3-.2.4-.2h.6c.2-.1.4 0 .6.1.1.1.2.1.3.1.1 0 .3.1.5.3l.2.2c0 .1 0 .2.1.2 0 0 0 .1.1.1 0 .1.1.1.1.2l.1.1.1.1c.1 0 .1.1.1.2s0 .2.1.3v.1c0 .1.1.3.1.4.1.2.1.3.1.4V9h.4l-.1.1s-.1.1 0 .1v.3c0 .2 0 .3.1.4v1.2s.1 0 .1-.1.1-.1.2-.1v.2c-.1.1-.1.1 0 .2s.1.3.1.4c0 .1 0 .3.1.4h.2v-.3c0-.1.1-.3.2-.4 0 0 .1-.1.1-.2s.1-.2.1-.2.1-.1.1-.2 0-.1.1-.2c0-.1 0-.1.1-.2v-.1c.1-.1.1-.2.1-.3 0 0 0-.1.1-.2v.3h.2v-.2l.1-.1.1-.1v-.1c.1-.1.1-.2.2-.3.1-.1.1-.2.2-.3.1-.1.1-.2.2-.5 0-.1.1-.2.2-.3.1-.1.2-.2.3-.4 0-.1.1-.2.2-.3.1-.1.1-.2.2-.3l.1-.1c0-.1.1-.1.1-.1 0-.1.1-.2.1-.2 0-.1 0-.2.1-.2l.2-.2c.2-.3.3-.5.4-.6.1-.1.2-.3.3-.4.1-.1.2-.2.2-.3v-.2c.1 0 .1-.1.2-.1h.3s.1 0 .2.1h.4c.1 0 .2.1.3.2.1.1.2.1.3.2 0 0 .1.1.2.1.2-.1.3 0 .3 0zm-11.7 3c0 .1-.1.2-.1.2v.2l.1-.1c0-.1.1-.2 0-.3.1.1.1 0 0 0zm.3-1.1c0-.1 0-.1 0 0zm.8 1.2c-.1 0-.1-.1-.2-.1l-.1-.1h-.3v.1c.1.1.3.2.4.4h.1v-.1c.1 0 .1-.1.1-.2zm3.5 9.9s.1 0 0 0c.1 0 .1 0 0 0zm.5.3c0-.1 0 0 0 0zm.6-.5c-.1.1-.1.2-.2.2h.2s-.1-.1 0-.1 0-.1 0-.1zm0-7.2s-.1.1 0 0zm.1 6zm.1 1.3l-.1.1c0 .1 0 .1.1.1h.1c0-.1 0-.1.1-.2s.2-.2.2-.3c-.2.1-.3.2-.4.3zm.2-1.7s-.1 0 0 0c-.1 0-.1 0 0 0-.1.1 0 .1 0 0 0 .1 0 .1 0 0zm.1-6.6v-.1.1zm.1 5.5zm0 2.5zm.1-.3s-.1 0 0 0c0 .1 0 .1-.1.2v.1c.1 0 .1-.1.2-.2 0-.1 0-.1-.1-.1 0-.1 0-.1 0 0zm.2-8.4c0-.1 0-.1 0 0 0-.1 0-.1 0 0zm0 6.2s0 .1 0 0c0 .1.1.1.1.1h.1c-.1-.1-.1-.1-.2-.1zm0 1.9c0 .1.1.1 0 0 .1.1.1 0 0 0zm.1-.3c0 .1 0 .1 0 0 0 .1 0 .1 0 0 0 .1 0 0 0 0zm.3-1.3v-.1c-.1 0-.1.1 0 .1-.1 0-.1 0 0 0zm.1-7.4l.1-.1s-.1 0-.1.1c0-.1 0-.1 0 0zm.8 6.3v.2l-.1.1s0 .1-.1.1 0 .1 0 .1c.2-.2.3-.4.2-.5.1.1.1 0 0 0z"/><path d="M40.9 12l-.1.1h-.2l-.1.1h-.1s-.1.1-.2.1c0 0-.1 0-.2.1h-.3l-.2.1c-.1 0-.1 0-.1.1 0 0-.1 0-.2.1H39c-.1 0-.1 0-.1.1 0 0-.1.1-.2.1h-.6s-.1 0-.1.1v.8c0 .1-.1.2-.1.4l-.1.2v.2s-.1.1-.1.2l-.1.2v1s0 .1-.1.1v-.6.3l-.5-.1v.3h-.1c-.1 0 0 .1 0 .1h-.1v.1s0 .1 0 0c0 0 .1 0 0 .1h-.1v.1s0 .1.1.1h-.1v3l-.1-.1v-1 .5-.3.2-1.1h-.1v-3.5h-.7s-.1 0-.1.1h-.6s-.1 0-.2.1l-.2.2c0 .1-.1.1-.1.3 0 0-.1.1-.1.3 0 .1-.1.1-.1.1v.1l-.1.1s0 .1-.1.1l-.1.1v.1s0 .1-.1.1c0 0-.1.1-.1.2 0 0 0 .1-.1.1h-.9l-.1.1-.2.2s-.1 0-.1.1c0 0 0 .1-.1.1 0 0-.1 0-.1.1-.1.2-.2.2-.3.3l-.1.1-.1.1h-.1l-.1.1s0 .1-.1.1l-.2.2-.2.2-.1.1s-.1.1-.2.1h-.9c-.1 0-.1 0-.2-.1h-.1l-.1-.1-.1-.1v-.2s0-.1-.1-.1v-1.6s0-.1.1-.1c0 0 .1-.1.1-.2v-.1h-.4l-.2-.1v-.7c0-.1.1-.2.1-.2l.1-.1.1-.1.1-.1s0-.1.1-.1 0 0 .1-.1h.2c.1 0 .1-.1.2-.1 0 0 .1 0 .1-.1 0 0 .1 0 .1-.1h.6l.2-.1h.4s.1 0 .1-.1l.1-.1.1-.1v-.1l.1-.1s0-.1.1-.1c0 0 0-.1.1-.1 0 0 0-.1.1-.1l.1-.1.1-.1s.1-.1.2-.3c0 0 .1-.1.2-.3 0 0 .1-.1.1-.2.1-.1.1-.2.1-.2l.1-.1s0-.1.1-.1c.1-.1.1-.2.2-.3 0 0 0-.1.1-.1 0-.1.1-.1.1-.1s.1-.1.1-.2l.1-.1.1-.1c.1-.1.1-.3.2-.4v-.2l.2-.2c.1-.1.1-.2.1-.2v-.1l.1-.1v-.1l.1-.1c0-.1.1-.1.1-.1.1-.1.1-.2.1-.2v-.2l.1-.1.1-.1s0-.1.1-.1v-.2l.1-.2c0-.1.1-.1.1-.2 0 0 0-.1.1-.1v-1c0-.1 0-.1.1-.2 0-.1.1-.1.1-.2.1-.1.1-.1.2-.1h.2s.1 0 .1-.1h1.2l.1.1c.1.1.1 0 .1.1h.1l.1.1c.1.1.1.1.1.2v.8c0 .2.1.3.1.3v.9c0 .1.1.2.1.2 0 .1 0 .2.1.3v3.2s0 .1.1 0h.7c.1 0 .2 0 .3-.1h.6s0 .1.1.1h1.2zm-5.3.7s.1 0 0 0l.1-.2v-1.3l-.1.1c0 .1 0 .2-.1.3v.5l-.1.2v.6H35h.2c.1 0 .2-.1.2-.1.1-.1.1-.1.2-.1zm.2 4.4l-.1.1v-.1zm0 .8l-.1-.1.1.1zm-.1-.2s.1 0 0 0c.1 0 .1 0 0 0 .1.1.1.1 0 0zm.1-.1v-.3.3zm0-.5zm.1 1.1v-.1s-.1.1 0 .1zm0-.3v.1-.1zm0-.2c.1 0 .1 0 0 0 0-.1 0-.1 0 0 0-.1 0-.1 0 0zm.1.4s0-.1 0 0V18c-.1 0-.1.1 0 .1-.1 0-.1 0 0 0zm-.1.6c.1 0 .1.1 0 0 .1.1.1.1 0 0zm.1-1.8zm.4.1v-.1c-.1 0-.1.1 0 .1zm.4-1c-.1 0 0 0 0 0zm.1-.2c0-.1 0-.1 0 0h-.1.1zm-.1.8c.1 0 0 0 0 0zm.1-1zm0 .5c0 .1 0 .1 0 0 0 .1 0 .1 0 0zm.2-.3v.2c-.1-.1-.1-.2 0-.2z"/><path d="M31.1 24l.1-.1s0 .1-.1.1zm.1-.3s.1 0 0 0c.1-.1.1-.1 0 0l.2-.2c0 .2-.1.2-.2.2zm.3-.2c-.1 0 0 0 0 0zm0-.1c.1 0 .1 0 0 0zm.6-.3h.1c0 .1-.1.1-.1.1s-.1.1-.3.2h.1v-.1c0-.1.1-.1.2-.2zm.1-.1c.1 0 0 0 0 0zM46.3 3.7v.6c0 .1 0 .3-.1.4v.1c0 .1 0 .2-.1.3v.2c0 .1-.1.2-.1.4v.7c-.1.2-.2.4-.4.6-.1.1-.1.2-.1.3 0 0-.1.1-.1.3 0 0 0 .1-.1.1 0 0 0 .1-.1.1v.1c0 .1 0 0 0 0s0 .1-.1.2-.1.2-.1.2c-.1.1-.2.2-.3.2h-.1c-.1 0-.1 0-.1.1-.1.1-.2.1-.4.2H44c-.1.1-.2.1-.3 0h-.2s-.1 0-.1-.1h-.1c-.1 0-.1-.1-.1-.1v-.7s0-.1.1-.2l.1-.1c0-.1.1-.1.1-.1.1-.1.1-.1.1-.2.1-.2.2-.3.2-.5l.3-.6s0-.1.1-.2c.1-.2.2-.3.2-.4 0 0 0-.1.1-.1 0 0 0-.1.1-.1 0 0 0-.1.1-.1 0-.1 0-.1.1-.1 0-.1.1-.2.2-.4 0 0 0-.1.1-.2s.1-.1.1-.2.1-.2.1-.4v-.1c.1-.2.1-.4 0-.6s0 0 0-.1-.1-.1-.1-.2-.1-.1-.1-.2-.1-.1-.1-.2h-.4s-.1.1-.1.2c-1 .2-1.1.2-1.1.3 0 0 0 .1-.1.1s-.1.1-.1.1h-.1l-.1.1h-.2l-.1.1-.1.1c-.1.1-.1 0-.1.1 0 0-.1 0-.1.1l-.1.1s-.1 0-.1.1c0 0-.1 0-.1.1-.1.1-.1.1-.1.2l-.1.1-.1.1-.1.1h-.1s-.1 0-.1.1-.1.1-.1.1-.1 0-.1.1c0 0 0 .1-.1.1l-.1.1-.1.1-.1.1-.1.1-.1.1s0 .1-.1.1c0 .1-.1.1-.1.2l-.1.1s-.1.1-.1.2-.1.2-.2.4c-.1 0-.1.1-.2.2v1.4s0 .1.1.2c0 0 .1.1.1.2v.1c0 .1 0 0 0 0s0 .1.1.1c0 0 .1.1.1.2.1.1.2.2.2.3 0 0 0 .1.1.1v.1s0 .1.1.1l.2.2c.1.1.2.2.2.3 0 .1.1.1.1.2l.1.1c.1 0 .1.1.1.1s.1.1.2.1.2.1.2.2c0 0 .1.1.2.1s.1.1.2.2l.1.1c.1 0 .1.1.1.1 0 .1.1.1.2.2 0 0 .1 0 .1.1l.3.3.1.1h.2l.3.3s0 .1.1.1c0 0 0 .1.1.1s.1.1.1.1 0 .1.1.1l.1.1c0 .1.1.1.1.1s.1.1.1.2.1.2.1.2.1.2.3.5c0 0 0 .1.1.2 0 .1 0 .1.1.2v1.8c0 .1-.1.2-.1.2l-.1.1c0 .1-.1.2-.2.3-.1 0-.1.1-.2.2s-.2.2-.3.2h-.2c-.1 0-.1.1-.2.1h-.2l-.2.1h-.7c-.1.1-.2.1-.2.1h-.6l-.2.1-.1.1h-.1c-.1 0-.2 0-.2.1s-.1.1-.1.1h-.1l-.2.1h-.3s-.1 0-.1.1c0 0-.1 0-.1.1l-.2 1c-.1 0-.1.1-.1.1l-.1.1c-.1 0-.1.1-.1.1s-.1.1-.2.1v.1l-.1.1s0-.1.1-.1c0 0 .1 0 .1-.1h-.1c0 .1-.1.1-.1 0l.1-.1s.1 0 .1-.1h-.2l-.1.1s-.1 0-.1.1c0 0-.1 0-.1.1l-.1.1h-.2l-.1.1s-.1.1-.2.1h-.4s-.1 0-.1.1l-.1.1h-.3l-.6.4v.2h-.4v.1l-.1.1h-.1c-.1.1-.2.1-.3.2 0 0-.1 0-.1.1s-.1.1-.1.1v-.2h.3c-.1 0-.1 0-.1.1h.1l-.1.1H36V21h.1l-.1.1c-.1.1-.1 0-.1.1h-.1V21h-.2.1c-.1 0-.1 0-.1.1h-.2v.1c.1 0 .2-.1.3-.2v.2h-.2l-.1.1V21l-.1.1h-.2c-.1 0-.1 0-.2.1h-.3l-.1.1-.1.1.1-.1.1-.1-.2.2c-.1.1-.1.1-.1.2-.1 0-.1 0-.1.1l-.1.1-.1.1h-.3c-.1.1-.3.2-.4.3-.1 0-.1.1-.1.1s-.1 0-.1.1c0 0-.1 0-.1.1h-.1l.1-.1.1-.1.1-.1.2-.2c.1 0 .1-.1.1-.1.1 0 .1-.1.1-.1.2-.1.3-.2.3-.2l.3-.3.1-.1.1-.1s.1 0 .1-.1c0 0 .1 0 .1-.1l.4-.4.2-.2c.1-.1.2-.1.2-.2 0 0 .1 0 .1-.1l.1-.1s.1 0 .1-.1l.2-.2c.1-.1.1-.1.2-.1 0 0 .2-.1.5-.4.1-.1.2-.1.2-.2h.1s.1-.1.3-.2c.1 0 .1-.1.3-.2.1-.1.2-.2.3-.2.1-.1.3-.2.5-.4l.1-.1c.1 0 .1-.1.1-.1.1 0 .1-.1.3-.2.1-.1.2-.1.2-.1s.1-.1.2-.1.1-.1.1-.1.1-.1.2-.1h.2l.1-.1s.1 0 .2-.1c.2-.1.4-.2.5-.3.2-.1.4-.2.5-.3l.3-.2s.1-.1.2-.1c.1-.1.2-.1.2-.1.2-.1.3-.2.5-.4.1-.1.1-.2.1-.4v-.4c0-.2 0-.4-.1-.6v-.2c0-.1 0-.2-.1-.4v-.2c0-.1-.1-.2-.2-.3 0 0 0-.1-.1-.1 0 0 0-.1-.1-.1-.2-.3-.3-.4-.4-.4-.1 0-.2-.1-.3-.2-.1-.1-.2-.2-.3-.2-.1-.1-.1-.2-.2-.3-.1-.1-.2-.2-.2-.3-.1-.1-.2-.2-.3-.4h-.4l-.2-.2s-.1-.1-.1-.2c-.1-.1-.1-.1-.1-.2-.1-.1-.2-.3-.4-.6-.1-.1-.2-.3-.3-.4 0 0-.1-.1-.1-.2s-.1-.1-.2-.2v-.2s0-.1-.1-.2l-.1-.1c-.1-.2-.2-.5-.2-.9v-.8c0-.1 0-.2.1-.3v-.1c0-.1 0-.1.1-.1v-.1c0-.1.1-.2.1-.3 0 0 .1-.1.1-.2s.1-.2.1-.2c.1-.1.1-.2.2-.4 0 0 .1-.1.1-.2.1-.1.1-.1.1-.2 0 0 .1-.1.1-.2s.1-.1.2-.2.1-.1.1-.2c.1-.1.1-.1.1-.2l.3-.3.1-.1.1-.1.1-.1s.1-.1.1-.2c.2 0 .2-.1.3-.1l.1-.1.1-.1.1-.1.2-.2s.1 0 .1-.1l.1-.1c.1 0 .2-.1.3-.2l.1-.1.1-.1.1-.1c0-.1.1-.1.2-.2 0 0 .1 0 .1-.1.1-.1.1-.2.2-.2l.1-.1.3-.3c.1 0 .1-.1.1-.1s.1 0 .1-.1h.2s.1 0 .3.1h.4v.1h.3c.1 0 .1.1.1.1s.1 0 .1.1c.1 0 .1 0 .1.1h.2s.1.1.2.1h.3c.1.1.1.2.2.2h.2c.1 0 .1.1.1.1s.1.1.1.3c0 0 0 .1.1.1 0 0 .1.1.1.2v.1s0 .1.1.1c0 .1 0 .1.1.1v.4c0 .1 0 .2.1.3.4.2.4.3.4.5zM32.9 22.6s.1 0 0 0c.1 0 .1 0 0 0 .1 0 0 0 0 0zm.2-.1l.1-.1v.1h-.1zm.4-.3c.1 0 .1 0 0 0 .1 0 0 0 0 0zm.3-.1zm.4-.5c.1 0 .1 0 0 0 .1 0 .1 0 0 0 .1 0 .1 0 0 0zm1.1-.5c0 .1-.1.1-.1.1 0-.1 0-.1.1-.1zm.3-.2c.1 0 .1 0 0 0zm.2.3c-.1 0 0 0 0 0zm.2-.3s-.1.1 0 0c-.1 0-.1 0 0 0zm.4-.4v-.1.1c0-.1 0-.1 0 0-.1-.1-.1 0 0 0-.1 0-.1 0 0 0-.1 0-.1 0 0 0zm.1-.1zm.1-.1h.1c0-.1 0-.1-.1 0 0-.1 0-.1 0 0zm1.1-.3c.1 0 .1 0 0 0zm.2-.1s0-.1.1-.1c0 0 0 .1-.1.1zm.4-.3c.1 0 0 .1 0 0l-.1.1h-.1v-.1c.1.1.1 0 .2 0zm.3-.2c.1-.1 0-.1 0 0zM54.7 7.5c-.1.1-.1.2-.1.2s0 .1-.1.1c0 0 0 .1.1.1 0 .1.1.1.1.2v.2c-.1.1-.1.2-.1.2s0 .1-.1.2c0 .1-.1.2-.2.4s-.2.3-.2.4l-.1.1-.1.1v-.1s.1-.1.1-.2c.1-.1.1-.2.1-.2v-.1H54v.1c0-.1 0-.1-.1-.1 0 0 0 .1-.1.1-.1.1-.2.2-.3.4v-.1c.1-.1.1-.2.2-.3.1-.1.1-.2.2-.2v-.1h-.2l-.2.2c0 .1-.1.2-.2.3-.2 0-.3.1-.3.2-.1 0-.2-.1-.5-.2 0-.1 0-.2.1-.2 0 0 .1-.1.2-.3v-.1c.2-.2.2-.2.2-.3 0-.1.1-.2.1-.2-.1-.1-.3-.1-.4-.1-.1.1-.3.1-.5.2h-.1s-.1.1-.2.1-.1.1-.1.1-.1 0-.1.1-.1.1-.2.1l-.1.1-.1.1-.1.1c-.1 0-.1.1-.1.1l-.1.1-.2.2c-.1.1-.2.1-.2.2l-.1.1c-.2.2-.4.4-.6.7l-.1.1c0 .1-.1.1-.1.1-.1.1-.1.2-.1.2v.1s.1.1.1 0c.1 0 .1-.1.2-.1.1-.1.1-.2.1-.3 0-.1 0-.1.1-.2v.2c0 .1 0 .1-.1.2 0 .1-.1.2-.2.3h-.2c0 .1-.1.3-.2.5-.4.5-.4.5-.4.6 0 0 0 .1-.1.1v.1s.1.1 0 .1c0 0-.1.1-.1.2h-.2v.1c0 .2-.1.3-.1.5.1 0 .1-.1.1-.1 0-.1.1-.1.1-.1v.1c-.1.2-.1.3-.1.3-.1.2-.1.3-.2.3-.1.3-.1.4-.1.5v.5c0 .2.1.4.1.4.1.2.2.3.3.5.2.2.5.2.7.2.3 0 .6-.1.8-.3l.1-.1c.2-.1.4-.2.9-.5.3-.2.4-.3.5-.3 0 0 .1 0 .2-.1.6-.4.9-.6 1.1-.8l.1-.1c0 .2-.1.4-.3.5-.2.2-.4.3-.4.4l-.1.1c-.1.1-.1.1-.1.2s-.1.1-.1.2c-.1 0-.1.1-.3.2-.1.1-.2.2-.3.2-.1 0-.1.1-.1.1v.1l-.1.1-.1.1s.1 0 .2.1l-.1.1h-.1c-.1-.1-.1-.1-.1 0s-.1.2-.1.2h-.1s-.1 0-.1.1-.1.1-.2.1h-.2v.1h.2c-.3.2-.6.3-1 .4 0 0 0-.1.1-.1 0 0 .1 0 .1-.1-.1-.1-.5-.1-.9 0 0 0 0 .1.1.1h.1c-.1 0-.2.1-.3 0-.1 0-.2-.1-.2-.1-.2 0-.4-.1-.7-.3 0 0-.1-.1-.2-.1h-.1v.1c.1.2.2.3.3.4h-.1l-.3-.3v-.2s-.1-.1-.2-.1l-.2-.2c-.1 0-.2-.2-.4-.4-.1-.1-.1-.2-.1-.4v-.2c-.1-.3-.2-.7-.1-1 0-.5.1-.9.1-1.3 0-.2.1-.4.2-.7 0 0 0-.1.1-.3.1-.2.1-.3.1-.4 0-.2.1-.3.2-.6.1-.1.2-.3.3-.6s.2-.4.3-.4c0 0 0-.1.1-.1s.1-.1.1-.1c.3-.4.5-.8.8-1l.3-.3.1-.1c.1 0 .1-.1.1-.1s.1-.1.2-.1c.2-.2.7-.6 1.3-1.1l.3-.3c.2-.2.3-.3.5-.3.3-.2.6-.3.8-.4h.1s.1 0 .4.1c.1 0 .3 0 .4.1h.6c.1 0 .3 0 .3.1h.2c.1 0 .2.1.3.2 0 0 0 .1.1.1.1.1.2.2.2.4 0 0 0 .1-.1.2s-.2.3-.2.4zm-6.3 10.2c-.1 0-.1 0-.2-.1 0 0 .1.1.2.1zm.1.1h.4c-.1.1-.3 0-.4 0zm.5-.6c.1 0 .1 0 0 0h.4-.1c-.1-.1-.2 0-.3 0zm.2-5.2c.1 0 .1 0 0 0l.1-.1-.1.1zm.3-.4l-.1.1c-.1.1-.1.1 0 .2 0 0 0-.1.1-.1s0-.1 0-.2c0 .1 0 .1 0 0zm.6-1.1c-.1 0-.2.1-.2.2l.1-.1.1-.1c-.1.1 0 0 0 0zm0 0zm.1-.1c-.1 0-.1.1-.1.1s.1 0 .1-.1zm0 6.5c-.1 0-.1 0 0 0-.1 0-.1 0 0 0zm.6.1zm.3-.8s-.1 0 0 0zm.1.7h-.1v.1h.3c-.1 0-.2-.1-.2-.1zm0-.5c-.1 0-.1 0 0 0zm.3-.2c.1 0 .1 0 0 0h.2v-.1l-.1.1c0-.1 0-.1-.1 0 0-.1 0-.1 0 0zm.4-.2h-.1.1zm0 0z"/><path d="M56.3 8.8h-.1c0-.1 0-.1.1-.2l.1-.1v-.1c-.1 0-.2 0-.3.1v.2c-.1 0-.1.1-.2.3l-.1.1-.1.1v.1c-.1 0-.2 0-.3-.1-.2 0-.4-.1-.4-.2l-.1-.1v-.1c0-.1-.1-.2-.1-.2-.1-.1-.2-.2-.2-.4 0-.1-.1-.2-.1-.3-.1-.1 0-.2 0-.3.1-.1.2-.1.3-.2.1-.1.2-.2.2-.3l.1-.1s.1-.1.4-.2c0 0 .1-.1.3-.2.2-.1.5-.3 1-.5 0 0 .1-.1.2-.1s.2-.1.2-.1c.2-.1.6-.2 1.1-.4 0 0 .1 0 .3-.1.1 0 .2-.1.3-.1h.2c.4-.1.9-.1 1.4 0 .4 0 .8.1 1.3.3.3.1.6.3.7.6 0 .1.1.2.2.3.2.2.3.4.3.4.1.2.1.3.1.4 0 .1.1.3.1.4.1.3.1.5.1.7 0 .2-.1.3-.1.4 0 0 0 .1-.1.1v.2c0 .2-.1.3-.1.4 0 0-.1.1-.1.2s-.1.2-.1.2v.2l-.3.3s-.1 0-.1.1c-.1.1-.1.2-.2.2v.1s0 .1-.1.2v-.1c-.1 0-.2.1-.2.2-.2 0-.3.1-.3.2 0-.1 0-.1-.1-.1s-.2.1-.3.1c-.1.1-.2.1-.3.1v-.1l.1-.1-.1.1h-.3l-.2.2h-.1c.1.2.1.3.1.3.1.2.1.4.1.5v.8c0 .1 0 .3-.1.5s-.1.4-.1.5c0 .2 0 .5-.1.7l-.1.1v.2c-.1 0-.1 0-.1.1.1.1.1.2 0 .3v.2c-.1.2-.1.3-.2.3s-.1 0-.1.1v.3c0 .1-.1.3-.2.5 0 0 0 .1-.1.2 0 .1-.1.2-.1.2s0 .1-.1.2v.7c0 .1 0 .1.1.2l.1.1c0 .1.1.2.1.2.2.2.3.4.4.5.1 0 .1.1.1.1l.1.1c.1 0 .1 0 .2.1.3.1.4.2.5.2-.4-.2-.8-.4-1.1-.6l-.5-.5s0-.1-.1-.1v.2c0 .2.1.4.3.6.2.2.3.3.5.3 0 0 .1 0 .2.1s.2.1.3.1c.2.1.4.1.7.1.3 0 .6 0 .9-.1h.3c0 .1-.1.1-.2.1s-.2.1-.2.2c-.1.1-.2.2-.3.2v.2c-.2.1-.2.1-.3.1-.1.1-.2.1-.3.1h-.2v.2h-.2c-.1 0-.3.1-.4.2h-.6c-.5 0-.9-.2-1.2-.4l-.4-.4c-.1-.2-.2-.3-.2-.4-.1-.1-.1-.2-.1-.3v-.1c-.1-.3-.1-.7-.1-1.1 0-.2.1-.4.1-.6v-1.7c0-.3.1-.7.3-1.3 0-.1.1-.2.1-.4.1-.1.1-.2.1-.3 0-.1 0-.2.1-.3 0-.1.1-.3.1-.4 0-.1 0-.2.1-.3v-.3s-.1-.1-.2-.1c-.2-.1-.4-.1-.6-.1-.1 0-.2.1-.3.1h-.3c-.1 0-.1 0-.1.1v.2l.1-.1.1-.1v.2c0 .1-.1.2-.1.2l-.1.1h-.1l-.1-.1h-.1.1l-.1.1s0 .1-.1.1v.2c0 .1 0 .2-.1.3 0 .1 0 .1.1.2v.1c0 .1-.1.1-.1.2v.1h-.2l-.1.1v.1c-.1.1-.1.1-.1.2s0 .1.1.1v.1h.2v.3c0 .1-.1.2-.1.3l-.1.1s0 .1-.1.1c-.2 0-.2.1-.3.2-.1 0-.2-.1-.2-.1-.1 0-.1.1-.1.1v.1h-.2v.2l-.2.2v.1c0 .1-.1.2-.2.2h-.1s-.1 0-.2-.1c0 .1-.1.1-.1.2s-.1.1-.1.1h-.2c0 .1-.1.1-.1.2s-.1.1-.1.1v-.2l.1-.1V17l-.1.1c.2-.5.4-.9.4-1.1l-.2-.2c-.1-.1-.1-.2-.1-.3 0-.1.1-.2.1-.2 0-.1 0-.2.1-.4h.2l.1.1c.1.1.1 0 .1 0s.1-.1.1-.2 0-.1.1-.2c0-.1 0-.1.1-.2v-.2c.1-.2.1-.3.1-.4 0-.1.1-.3.1-.5 0-.1.1-.2.1-.3h-.2l.3-.3c.1 0 .1-.1.1-.2.1-.4.2-.7.3-.9.1-.3.2-.6.4-1.1 0-.1 0-.2.1-.3V10s0-.1.1-.1c.1-.1.1-.2.1-.2.1-.1.1-.2.2-.3 0 0 0-.1.1-.2-.3-.2-.3-.2-.5-.4.1.1 0 .1 0 0zm-2 5.4zm1.6-4.3zm.3 4.2h-.1v.2l.2-.2c0 .2 0 .1-.1 0zm.1-.3zm.3-4.9s.1-.1 0-.2c-.1 0-.2 0-.3.1h.1c.1.1.2.1.2.1zm-.1 4.3s-.1.1 0 .1v-.1zm.6 0s0 .1 0 0zm2.8-4c.1-.1.2-.1.2-.2.1-.1.2-.1.2-.2l.2-.2c.2-.2.4-.3.6-.5h.1c-.3.3-.5.5-.5.6v.1l.2-.2.1-.1.1-.1.2-.2.1-.1c.1 0 .1-.1.1-.1 0 .1 0 .1-.1.2 0 .1-.1.1 0 .1v-.2h.1l.1-.1s.1-.1.1-.2c.1-.1.1-.2.1-.2.2 0 .2-.2.2-.3 0-.1-.1-.1-.2-.1s-.2 0-.2-.1h.4c0-.1-.1-.1-.1-.1h-.4c-.2 0-.4-.1-.6-.1h-.8L60 7h-.3c-.2 0-.3 0-.4.1h-.1s-.1 0-.2.1v.1h.4l-.1.1h-.2c-.1 0-.1.1-.1.1v.3h.2c.1 0 0 0 0 .1V8c0 .1 0 .1-.1.1H59c-.1 0-.1 0-.1.1l-.1.1c0 .2-.1.3-.2.3l-.1.1c0 .2 0 .3-.1.3v.1c0 .1 0 .2-.1.4 0 .1-.1.2-.1.3-.1.1-.1.2-.1.3h.2v.1l-.2.2v.1c.3-.1.5-.2.6-.3 0 0 .1 0 .1-.1.1 0 .1-.1.2-.1.3-.2.5-.3.5-.3l.3-.3c-.1 0 0-.1.1-.2zm-1.4 11.1c0-.1-.1-.2-.2-.3-.1-.1-.1-.2-.2-.2v-.1c0-.1-.1-.1-.2-.1v.1l.1.1v.1h.2l.2.2.1.2zm-.4-10.1s.1 0 0 0c.1 0 .1 0 0 0 .1 0 0 0 0 0zm.2-1.8c0 .1 0 .1-.1.2v.1c.2-.2.2-.4.2-.6h-.1c-.1 0-.1.1-.1.2.2 0 .2 0 .1.1zm1.3 3.5c.2.1.3.3.3.6 0 0 0 .1.1.2v-.6c0-.1 0-.3-.2-.6v-.1c-.1 0-.2.1-.3.1-.1 0-.1.1-.1.1l.2.3zm1.1-4.8c.1 0 .1 0 0 0h-.5c-.1 0-.1 0-.3.1-.1 0-.2 0-.3.1h-.2c0-.1.1-.1.1-.1.4-.1.7-.1.8-.1h.4zm-1.1 8.7c0-.1.1-.1.1-.1l-.1.1zm.2-.5zm.1-5.8zm1.3-2.3H61h.4-.2zm.2.8z"/><path d="M65.7 7.5v.9s0 .1-.1.3c-.1.2-.2.5-.3.9v.1c0 .1 0 .2-.1.4 0 .1-.1.2-.1.4 0 .1-.1.3-.1.4-.1.1-.1.3 0 .4-.1.1-.2.3-.1.4 0 .1 0 .2-.1.2-.1.1-.2.3-.2.4v.1s0 .1.1.1v.2c-.1.1-.2.2-.2.3 0 0 0 .1-.1.2 0 .1 0 .1-.1.2v.8c-.1.2-.1.3-.1.4v.4c-.1.2-.2.4-.2.6v.1s0 .1-.1.1 0 .1-.1.1c0 .1-.1.1-.1.1s-.1 0-.1.1-.1.2-.1.3c-.1.1-.2.1-.2 0l-.1.1c0 .1-.1.1-.2.1s-.2.1-.3.2c-.1.2-.2.3-.2.4 0 .1-.1.2-.1.2H62s-.1.1-.1.2c-.1.1-.1.2-.1.2s0-.1-.1-.2c0-.1 0-.1-.1-.2-.2 0-.2-.2-.2-.4v-.7c0-.2.1-.4.1-.6.1-.3.1-.4.1-.5.2-.6.3-.9.3-1 0-.1.1-.1.1-.2s0-.2.1-.3c0-.1 0-.2.1-.2.1-.6.3-1.1.4-1.7 0-.1.1-.2.2-.5v-.2c0-.1.1-.2.2-.5 0-.1.1-.2.1-.2 0-.1.1-.2.1-.3 0-.1.1-.2.1-.3.3-.8.5-1.3.6-1.5 0-.1.1-.3.2-.5.1-.3.1-.4.2-.5.1 0 .1.1.1.2h.1l.1.1s.1 0 .1.1l.1-.1c.1 0 .1-.1.2-.1s.1 0 .1.1h.2c.1 0 .1 0 .2.1s.1.1 0 .2c.1-.2.1-.3.3-.3v-.1zM66 5v.3l-.1.1v.2s-.1 0-.1.1c0 0 0 .1-.1.1V6s0 .1-.1.1c-.1.1-.2.1-.2.1h-.1v.1h-.1v.1s0-.1-.1-.1v.2H65v.1l.1-.1.1-.1s0-.1.1-.1v.1H65v-.1h-.1V6v.8c.1 0 .1 0 .1-.1v.1c0 .1 0 0 0 0 0-.1 0-.1-.1-.1v-.9h-.1l.1-.1v-.2s0-.1-.1-.1c0 0-.1-.1-.1-.2v-.1h.2c0-.1 0-.1.1-.1v-.6.1l.1-.1v.1h.4v-.1.2c.1 0 .1.1 0 .1v.1c.4.1.4.1.5.2zm-1.4 1.7l.1.1h-.1v-.1l-.1.1v-.5.2c0 .1 0 .2.1.2zm.1-.3s0 .1 0 0v.1-.1zm.1.1c0 .1 0 .1 0 0zm.2.2s.1 0 0 0zm.2-2.3s-.1 0 0 0c-.1 0-.1 0 0 0-.1-.1-.1-.1 0 0zm0 2.2c0 .1 0 .1 0 0 0 .1 0 .1 0 0 0 .1 0 .1 0 0zm.3-2.2h-.1s-.1-.1.1 0c-.1-.1 0-.1 0 0zm-.1 2.2c0 .1-.1.1 0 0zm0 0c.1 0 .1 0 0 0zm.2-.1c-.1.1-.1 0 0 0zm.1-.2c0 .1 0 .1 0 0v.1-.1c-.1.1-.1.1 0 0-.1.1-.1 0 0 0zm0-1.7c0 .1 0 .1 0 0 0 .1 0 .1 0 0 0 .1 0 .1 0 0zm0 1zm.2.6c0 .1 0 .1-.1.1l.1-.1zm9.4 1.7v.5h-.1v-.2s0 .1-.1.1l-.1.1v.4s-.1.1-.1.2c-.1.4-.2.6-.2.7 0 0 0 .1-.1.1v.2c-.1.1-.1.2-.2.2 0 0-.1 0-.1.1l-.1.1-.1.1c0 .1-.1.2-.3.4-.2.1-.2.1-.3.1v.3h-.1v-.2l-.1.1c-.1.1 0 .1 0 .1l-.1.1-.1.1-.2.2h-.2l-.1.1-.1.1h-.1s-.1 0-.1.1-.1 0-.1 0c-.1.1-.2.1-.3.1 0 0-.1.1-.3.2 0 0-.2.1-.4.3v-.2l-.1.1-.1.1c-.1.1 0 .2 0 .2s-.1 0-.1.1l-.1.1c-.1.1-.1 0-.1.1h-.4c-.1 0-.1 0-.1.1-.1 0-.2.1-.2.1-.1 0-.2 0-.2.1h-.1c-.1.1-.2.1-.3.2 0 .1 0 .1-.1.2H69c.1-.1.1-.1.1-.2v-.1H69c-.1.1-.2.1-.2.1-.1.1-.1.1 0 .2h-.1c-.1 0-.1.1-.1.1v.7c0 .1 0 .2-.1.3 0 0 0 .1-.1.2 0 .1 0 .1-.1.1 0 0 0 .1-.1.3 0 .1-.1.2-.1.2v.3s.1 0 .1.1c0 0 0 .1-.1.1 0 .1-.1.1-.1.2 0 0 0 .1-.1.1s-.1.1-.1.2c-.1.3-.1.5-.1.5v.1s-.1.1-.1.3v.1s0 .1-.1.1l-.1.1v-.2h-.1v.1h.1l-.1.1-.1.1c-.1.1-.2.2-.2.3v-.2s0 .1-.1.2c0 .1-.1.2-.2.2v-.1.2h-.2c-.1.1-.1.2-.1.3v.2c0 .1-.1.2-.1.2s0 .1-.1.1h-.3c-.1-.1-.1-.3 0-.6V18c0-.1.1-.2.1-.4 0-.1.1-.1.1-.2s0-.1.1-.2c0-.1 0-.2.1-.2v-.2c0-.1.1-.3.2-.5s.1-.4.2-.5c0-.1.1-.3.1-.5.1-.2.1-.4.1-.5.1-.2.1-.4.1-.4 0-.1 0-.2.1-.4s.1-.3.1-.3c.1-.2.2-.6.3-1 0-.1 0-.1.1-.2 0-.1 0-.2.1-.2v-.4s0-.1.1-.3v-.1c.1-.1.1-.2.2-.4 0-.1 0-.2.1-.3 0-.1.1-.1.1-.2s.1-.2.1-.2v-.3c0-.1.1-.3.2-.5s.1-.3.1-.4c0-.1.1-.2.1-.3 0-.2.1-.3.1-.3s0-.1-.1-.2c0-.1-.1-.2-.1-.2V8s0-.1.1-.1c0 0 .1-.1.1-.2l.2-.2c0-.1.1-.1.2-.2 0 0 0-.1.1-.2 0-.1.1-.2.1-.4.1-.2.1-.3.1-.4.1-.2.2-.3.3-.3h.3c.1.1.2.1.3.2.1.1.2.1.3 0 .1-.1.1-.1.2-.1.2-.1.4-.1.5-.1h.1c.2-.1.4-.1.7-.2h.8c.1 0 .3 0 .6.1 0 0 .2 0 .6.1.1 0 .2.1.4.2.1.1.2.1.2.2 0 0 .1.2.2.3 0 0 0 .1.1.1 0 0 0 .1.1.1l.1.1c-.4-.2-.3-.1-.3-.1.1 0 .1.1.1.2v.2h.1v.3c0 .1 0 .2.1.3zm-8.6 8.9c.1 0 .1-.1 0 0v-.1.1zm.4-1.2v-.2l-.2.2c0 .1 0 .1-.1.2 0 .1-.1.2-.1.2.1 0 .1-.1.2-.2.1 0 .1-.1.2-.2zm-.1.6c0-.1 0-.1 0 0-.1.1-.2.2-.2.3 0 0 0-.1.1-.1 0-.1 0-.1.1-.2zm.3-1s0-.1.1-.2c0-.1.1-.2.1-.3v-.1c0-.1-.1-.2-.1-.3-.1 0-.1.1-.1.2s0 .2-.1.2l-.1.3c0 .1-.1.2-.2.3v.1s0-.1.1-.1h.1c.1 0 .2 0 .2-.1zm.3.1s0-.1 0 0v-.1l.1-.1v-.2c.1-.1.1-.2.1-.2v-.2c-.1.2-.1.2-.1.3-.1.1-.1.2-.1.3-.1.1-.1.2-.2.3v.4c.2-.3.2-.4.2-.5zm0-1.4c-.1.1-.2.3-.1.5.1-.2.1-.3.1-.3v-.2zm-.1 2.5c.1-.1.1-.1.1-.2-.1 0-.1.1-.1.2zm.4-.8c.1-.1.1-.3.1-.4v-.1s0-.1-.1-.2v.3s-.1.1-.1.2l-.1.1h.2zm-.1-1.8zm.3-1.6c-.1 0-.1 0-.1.1 0 0 0-.1.1-.1zm.1-.2c0-.1 0-.1 0 0zm0-.7c0-.1.1-.1.1-.2-.1 0-.1.1-.1.2zm.6 2.2s0-.1 0 0zM73 7.2c0-.1 0-.2-.1-.2h-1l-.1.1c-.1.1 0 .1-.1.1 0 .1-.1.1-.1 0h-.2l-.1.1s0 .1-.1.1l-.2.2c-.1.2-.2.3-.3.3 0 0-.1 0-.1.1v.6c0 .1 0 .2-.1.4-.1 0-.1.1-.1.1v.1c-.1.1-.1.1-.1.2s-.1.2-.2.3c-.1.2-.2.3-.3.3 0 0-.1.1-.2.3v.1l.1-.1c0 .1 0 .1.1.2 0 0 0 .1-.1.2 0 .1-.1.1-.1.2-.1 0-.2.1-.2.3-.1.1-.1.2-.2.3v.1l.2-.2c.1 0 .1-.1.2-.2 0 0 0-.1.1-.1 0-.1 0-.1.1-.1l.1.1v.2c.1 0 .2-.1.2-.1l.3-.3c.4-.3.8-.5 1-.7.2-.1.3-.3.4-.5 0-.1.1-.2.2-.3.1-.1.1-.2.2-.3s.1-.2.1-.3c.1-.1.1-.1.1-.3 0 0 0-.1.1-.2 0-.1.1-.1.1-.2.1-.2.2-.5.3-.8.1 0 .1-.1.1-.1zm-2.9 2.2c0 .1 0 .1 0 0 .1.1.1.1.1 0V9s0-.1-.1-.1c0 0 0 .1-.1.1v.1l.1.3zm.2-.7v.2c.1 0 .1-.1.1-.1v-.3c-.1 0-.1 0-.1.1v.1zm1.4-1.6z"/><path d="M83.1 4.9h1.2c0 .1-.1.2-.1.3-.3.2-.4.3-.4.3h-.2l-.2.1s0 .1.1.1c0 .1 0 .1.1.1h.3c-.1.1-.1.1-.2.1s-.2 0-.4.1h.2c-.1 0-.2.1-.3.1-.2 0-.3 0-.3.2h-.8c-.3.1-.5.1-.6.1h-.4c-.1.1-.2.1-.2.2l-.1.1h-.4v.2c-.1 0-.1.1-.1.1h-.1c-.2 0-.3 0-.4.1h-.4c-.1.1-.2.2-.2.4v1.1c0 .1-.2.4-.3.9v.1s0 .2-.1.5c-.1.1-.1.3-.1.5 0 0 0 .2-.1.4s-.1.3 0 .5c0 0 0 .1-.1.1 0 .1-.1.1-.1.2v.1c0 .1 0 .2-.1.3 0 .1-.1.2-.1.3-.1.1-.1.2-.1.2v.5c-.1.1-.2.2-.2.4 0 .1 0 .1-.1.2 0 .1-.1.1-.1.2v.9c0 .1-.1.3-.1.4 0 .1-.1.1-.1.2v.3c-.1.2-.2.5-.3.7v.1s-.1.1-.1.3c-.7.1-.7.1-.8.1h-.1v.1c0 .1-.1.2-.2.3-.1.1-.1.1-.2 0l-.1.1c0 .1-.1.1-.2.1s-.2.1-.3.2c-.1.1-.2.2-.3.5 0 .1-.1.1-.1.2h-.2c-.1 0-.2-.1-.2-.1s-.1.1-.1.2-.1.2-.1.3c0 0 0-.1-.1-.2 0-.1 0-.2-.1-.2s-.2-.2-.2-.4v-.8c.1-.5.2-1 .3-1.3 0-.1.1-.3.2-.5s.1-.4.2-.5c0 0 .1-.3.2-.8.1-.7.3-1.3.4-1.9 0-.2.1-.4.2-.5 0-.1 0-.2.1-.3s.1-.3.1-.3c0-.1.1-.1.1-.2s.1-.1.1-.2 0-.1.1-.2c0-.1.1-.2.1-.2 0-.1.1-.3.2-.6.1-.2.2-.4.2-.6 0-.1.1-.2.2-.4s.1-.3.2-.4v-.2c-.3 0-.5 0-.6.1h-.3c-.2 0-.3 0-.4.1h-.2c-.3-.1-.6-.1-.7-.1-.2 0-.4-.1-.6-.2-.1-.1-.1-.1-.3-.2-.1-.1-.2-.1-.2-.1-.1-.1-.2-.2-.2-.4 0-.1 0-.1-.1-.3 0-.1-.1-.2-.1-.3v-.1s0-.1-.1-.1c0-.1-.1-.1-.1-.1v-.4c0-.2 0-.4.1-.7h.4c.1 0 0 .1.1.1v.1c.1 0 .1.2.1.3l.1.1s0-.1.1-.2c0-.1.1-.1.1-.1v.2l.1-.2s.1 0 .2.1V6H74c.1.1.2.1.2.1h.1s.1-.1.1-.2h.1v.2h.2c.1 0 .4-.1.6-.1s.5-.1.6-.1h.3c.4-.1 1.1-.2 2-.3.4-.1 1.3-.1 2.4-.2h1c.3 0 .7 0 1-.1h.2l.3-.4z"/><path d="M90 11.2c-.1.2-.1.3-.1.3v.1s0 .1-.1.1c0 0 0 .1-.1.1l-.1.2s-.1 0-.1.1l-.1.1h-.1l-.1.1s0 .1-.1.1c-.1.1-.2.3-.2.4v1.6l-.1.1v.1h-.2l-.1.1c-.1 0-.1.1-.1.1s0 .1-.1.1h-.1v.1s0 .1-.1.1H88v.1s-.1.1-.1.2l.1.1-.1.1-.1.1v.1c0 .1 0 .1-.1.1 0 0-.1.1-.2.3l-.1.1-.1.1c-.1.1-.1.1-.2.1l-.1.1h-.1l-.1.1-.2.2v.1h-.1l-.1.1s0 .1-.1.1l-.1.1-.1.1h-.6c0 .1-.1.1-.2.2s-.1.1-.2.1c0 0-.1.1-.2.1-.1.1-.1.1-.2.1l-.3.1h-.1s-.1 0-.1.1c0 0-.1 0-.1.1s-.1.1-.2.1h-.2c-.1.1-.2.1-.4.1h-.1l-.2.5-.1.1c-.1 0-.2.1-.3.1 0 0-.1 0-.1.1l-.1.1h-.3l-.1.1v.1c0 .1-.1.1-.1.1s-.1 0-.1.1c0 0 0 .1-.1.1h-.1s0 .1-.1.1h-.1s-.1 0-.2-.1H81c-.1 0-.3-.1-.4-.1 0 0-.1 0-.1-.1l-.1-.1h-.8s-.1 0-.1-.1c-.1 0-.1-.1-.1-.1h-.2c-.1 0-.2-.1-.4-.1-.1 0-.2-.1-.3-.1-.1 0-.1 0-.2-.1H78v-.1h-.1c-.1 0 0 0 0 0h-.3c-.1 0-.1-.1-.1-.1l-.1-.2c0-.1 0-.1.1-.2.1 0 .2 0 .4-.1h.1s.1 0 .1.1h.3c.2 0 .3-.1.4 0h.5s.1 0 .1.1h.7c.1 0 .2 0 .2-.1.1 0 .2-.1.3-.1h.1c.1 0 .1-.1.3-.2 0 0 .1 0 .2-.1l.1-.1c.1 0 .2-.1.2-.1.1 0 .2-.1.3-.2.1-.1.2-.1.2-.1l.1-.1.1-.1.1-.1s.1-.1.2-.1.1 0 .1-.1.1-.1.1-.2c.2-.1.4-.3.6-.5.2-.1.3-.2.4-.4.1 0 .1-.1.2-.3 0 0 .1-.1.3-.2l.2-.2c.1-.1.2-.2.2-.3l.3-.3c.1 0 .1-.1.2-.2.1 0 .1 0 .1-.1l.1-.1.1-.1c0-.1.1-.1.1-.1.1 0 .1-.1.2-.2l.1-.2v-.3l.1-.1v-.3c0-.1 0-.2.1-.2v-.1c0-.1 0-.2.1-.2v-.6c0-.1.1-.2.1-.2v-1s0-.1-.1-.1h-1.7c-.1 0-.1 0-.1.1h-.6c-.1 0-.1.1-.2.1h-.1c-.1 0-.2.1-.3.1-.1 0-.2.1-.3.1-.1 0-.2 0-.4-.1h-.1s-.1-.1-.2-.1v-.1h-.2l-.1-.1v-.4l.2-.3v.1l.1-.1s0-.1.1-.1c0 0 .1 0 .2-.1v-.1c.1-.1.2-.1.2-.1l.1-.1s.1 0 .2-.1l.1-.1c.1-.1.2-.2.3-.2 0 0 .1-.1.2-.1l.1-.1.1-.1c0-.1.1-.1.1-.1l.1-.1.1-.1.2-.2c.1-.1.2-.1.2-.2.1 0 .1 0 .1-.1s.1-.2.2-.3l.1-.1.1-.1c.1 0 .2-.2.3-.5 0-.1.1-.2.2-.4s.1-.3.1-.3 0-.1.1-.1c0 0 0-.1.1-.1v-.3l.1-.2V3.6c0-.1 0-.2.1-.3 0-.2.1-.4.1-.6 0-.1 0-.2-.1-.3 0-.2-.1-.3-.1-.3s0-.1-.1-.2c0-.1-.1-.2-.1-.2v-.1h-.4l-.1.1c0 .2-.1.3-.2.3s-.1 0-.2.1c-.1 0-.1.1-.1.1h-.3c0 .1 0 .1.1.1v.1l-.1.1h-.4v.1s0 .1.1.1v.2c-.1.1-.1 0-.1 0h-.1v-.1c0-.1 0 0 0 0V3s0 .1-.1.1l-.1.1v.1l-.1.1h-.1s-.2.1-.5.2h-.2c-.1 0-.2.1-.3.1l-.1.1h-.1s-.1 0-.1.1c0 0 0 .1-.1.1 0 .1 0 .1-.1.1h-.1c.1 0 .1.1 0 .2l-.1.1-.1.1c0 .1-.1.1-.3.2H81v-.3c0-.1.1-.3.2-.4l.1-.2v-.3c.1 0 .1-.1.1-.2 0 0 .1-.1.1-.2s.1-.1.1-.2c0 0 .1-.1.2-.3.2 0 .2-.1.3-.2v-.2c.1-.1.2-.2.2-.3l.1-.1c0-.1.1-.1.1-.1.1-.1.1-.2.3-.3l.3-.3c.2-.1.3-.2.3-.2l.4-.2s.1-.1.2-.1.1-.1.2-.1c0 0 .1 0 .1-.1.1 0 .1 0 .1-.1.4-.1.6-.1.6-.1h1.1c.1.1.3.1.5.1.1 0 .2 0 .3.1s.2 0 .2 0 .1.1.2.1c0 0 .1 0 .1.1l.1.1c.2.1.3.1.4.1h.1l.1.1c.1.1.2.1.3.2 0 0 .1.1.2.1.1.1.1.1.2.1 0 .1.1.1.1.1s.1.1.1.2 0 .1.1.1v.4s.1.2.1.4c0 .1.1.2 0 .4v.5c0 .1.1.1.1.2v.7s0 .1-.1.2v.2s0 .1-.1.3c0 0 0 .1-.1.2s-.1.1-.1.2c-.1 0-.1.1-.1.2s-.1.2-.2.3c0 0 0 .1-.1.1 0 0-.1 0-.1.1-.1.1-.1.2-.1.3-.3.4-.3.5-.3.6v.5l-.1.1v.2c0 .1-.1.2-.2.3 0 0-.1.1-.2.1 0 .1 0 .2.1.2h.2s.1 0 .1.1h.2c.1 0 .1 0 .2.1 0 0 .1 0 .1-.1h.2s.1 0 .1.1l.1.1s.1 0 .2.1l.1.1c.1 0 .1.1.2.1l.1.1s0 .1.1.1l.2.2v.1s0 .1.1.1c0 0 .1.1.1.2s.1.1.1.2c0 0 0 .1.1.1v.2c0 .1 0 .2.1.3v.6c-.3-.2-.3-.1-.2 0zm-12.3 7.3c0-.1 0-.1 0 0 0-.1 0-.1 0 0-.1-.1-.1-.1 0 0-.1-.1-.1-.1 0 0-.1-.1-.1-.1 0 0zm.4 0c-.1 0-.1 0 0 0-.1.1-.1.1 0 0zm.3.1v-.1s-.1 0 0 .1h-.1v-.1.3c-.1 0 0-.1.1-.2zm.1.1c.1 0 0-.1 0 0 0-.1 0-.1-.1-.1 0 0 0 .1-.1.1h.2zm.4.2c0-.1-.1-.1-.1 0h.1zm.2.3v-.1.1zm.2-.1v-.3h-.1v.2s-.1.1-.1 0c.1 0 .1.1.2.1zm.1-.4v.1-.1zm0 .2c0 .1-.1.2-.1.3l.1-.1s.1 0 .1-.1l-.1-.1c.1.1.1.1 0 0 .1.1.1 0 0 0zm.1.5c0-.1 0-.1-.1-.1l-.1.1h.2zm.4-.3c0-.1 0-.1 0 0 0-.1-.1-.1-.1-.1h-.1c-.1 0-.1 0-.1.1h.1c0-.1.1-.1.2 0h-.1v.1l-.1.1v.1h.2v-.1l.1.1c-.2-.2-.2-.3-.1-.3zm.4-.1c.1 0 .1-.1.2-.1-.1-.1-.1-.1-.2.1v-.2c-.1 0-.1 0-.1-.1v-.1c-.1 0-.1 0-.2.1v.2c.2 0 .2 0 .3.1zm-.3-.1c0 .1 0 .1.1.1s.1 0 .1.1v.1c.1 0 .1-.1.1-.2v-.1H80c.1 0 .1 0 0 0zm.1.6s0-.1.1-.1c0 0-.1 0-.1.1 0-.1 0 0 0 0zm.1-.2s.1 0 0 0c.1 0 0 0 0 0s0-.1 0 0zm.5-.3c0-.1 0-.1 0 0l-.1-.1v-.1l-.1.1s.1 0 .1.1h.1zm-.1.7c.1 0 .1-.1 0 0 0-.1 0-.1 0 0l-.1-.1c.1 0 .1.1.1.1zm.3-1s0-.1-.1-.1v.1c0-.1 0 0 .1 0-.1 0-.1 0 0 0zm1.2.4c0-.1 0-.1 0 0 0-.1 0 0 0 0-.1-.1-.1-.2-.1-.2h-.1v-.2c0 .2-.1.3-.2.4V19s0-.1-.1-.1h-.2l-.1-.1v.3h.2v.1h-.2c-.1 0-.1 0-.1-.1v-.3c.1 0 .1-.1.1-.1h-.1c0 .1-.1.1-.2.1 0 0 0-.1-.1-.1v.1h.1c0 .1 0 .1.1.1v.3l-.1.1v-.1.1c0 .1 0 .1-.1.1v.1h.1-.1.1v-.2h.1s0-.1.1-.1v.1l.1-.1.2.1-.1.1v.1h.2c.1 0 .1-.1.1-.1.1-.1.2-.1.2-.2.1 0 .1-.1.1-.1 0-.1 0-.2.1-.2v.2h.2-.2zm-.9-.6c-.1.1 0 .1 0 .2s.1.1.1.1c0-.1 0-.1-.1-.1v-.2zm.2 0h-.1s.1.1.2.1c0 0 0-.1-.1-.1zm0 .7c-.1 0-.1-.1 0-.1s.1 0 0 .1c.1-.1.1-.1 0 0 .1 0 .1 0 0 0zm.3-.5zm.1-.2c-.1 0-.1 0 0 0zm.3.2zm0 .2zm.2-.1c.1-.1 0-.1-.1-.1l.1.1zm.2-.2l.1-.1c-.1 0-.1 0-.1-.1-.1.1-.1.1 0 .2-.1-.1-.1-.1 0 0zm.5-.7h-.1c0 .1 0 .1.1 0zm.2.3c.1 0 .1 0 0 0 .1-.1.1-.1 0-.1V18v.2l-.1-.1V18c-.1 0-.1 0 0 .1H83v.2h-.1v.2l.1-.1.1.1c-.1 0-.1-.1-.1-.1.1-.2.1-.2.2-.2zm0-.8l-.1.1h.2c.1 0 .1-.1-.1-.1.1 0 .1 0 0 0zm.2.4v-.2h-.2l-.1-.1c.1.1.1.1 0 .1h.3zm.6-.1h.2l-.1-.1H84l-.1-.1h-.1v.1c.1 0 .1.1.1.2 0 0-.1.1-.1 0v.3h-.1v.1s0-.1.1-.2c0-.1.1-.1.1-.1v.1l-.1.1h.2v-.2h.2l-.2-.2c-.1.1-.1 0-.1 0h.1zm-.5-.1c0 .1.1.1.1.1v-.1h-.1zm0 .7s.1 0 0 0c.1 0 .1 0 0 0 .1 0 .1 0 0 0zm.5-.9s-.1.1 0 0zm.2.6c0-.1 0-.1 0 0-.1-.1-.1-.1-.2-.1.1 0 .1.1.2.1zm.3-15.9h-.2c.1.1.1.1.2 0 0 .1 0 .1 0 0 0 .1 0 .1 0 0zm1.1 14.3h.1-.1c.1-.1.1-.1 0 0zm.1.5c-.1 0 0 0 0 0zm.1-.5c.1 0 .1-.1 0 0 0-.1 0-.1 0 0zm.1-2.2c0-.1 0-.1 0 0zm.1 2.7c.1 0 .1-.1.1-.1h-.2c.1-.1.1 0 .1.1zm.2-.9c-.1 0-.2 0-.2.1.1-.1.1-.1.2-.1zm0 .4zm.3-.3h.1c0-.1 0-.1-.1 0zm.2-.3h.2c0-.1-.1-.1-.2 0zm.2-1s-.1-.1-.2-.1v.1h.2zm.2 1.4V16h-.2v.2h.2c0 .1 0 .1 0 0zm-.1-.6v.1c.1 0 .1-.1 0-.1.1-.1 0-.1 0 0zm.2-.6H87h.2zm.2.3c0 .1.1.1 0 0zm.2.3l-.1-.1v.1h.1zm.2-.6c0-.1 0-.1-.1-.1 0 .1 0 .2-.1.2l.2-.1zm0-2.3s0-.1 0 0c0-.1 0-.1-.1-.1l.1.1zm.1.9l.1-.1-.1-.1h-.1v.2c.1-.1.1 0 .1 0zm.1 1.5v-.2s-.1 0-.1-.1v-.2.4l.1.1c0-.1 0-.1 0 0zm.1-2.8H88c0 .1 0 .1.1 0-.1.1 0 .2 0 .2v.2h.1v-.2l.1-.1s.1 0 .1-.1v-.2c0-.1 0-.1-.1-.1h-.1v-.2c0 .1-.1.1-.1.2H88c.2.1.2.2.1.3.1-.1.1-.1.2-.1v.1c-.1 0-.1.1-.1.1h-.1v-.1c0 .1 0 .1 0 0zm.7 2v-.4c-.1-.1-.1-.2 0-.2h-.1c-.1 0 0 0 0 0v-.2h.2v-.2h-.1v-.1.2l-.1-.1v.1s0 .1-.1.1v-.1H88v.4c.1-.1.2-.1.2.1l-.1.1H88l.1.1h.2s0 .1-.1.1v.1h-.1v.2H88l.2-.5v.2l-.1.1v.2l.1.2c.1 0 .1 0 .1-.1l.1-.1.1-.1h.2v-.3s.1 0 .1-.1v.1c-.1 0-.1.1 0 .2-.1-.1-.2-.1-.2 0h.2zm-.7-.4H88h.1zm.1-.9c-.1 0-.1 0 0 0zm0-1.3c0-.1 0-.1 0 0l.1.1s0-.1.1-.1h-.2zm0-.5zm0 3.2zm0 .3v-.1.1zm.4-2c0-.1 0-.1.1-.1h-.3v.1h-.1v.1h.3zm-.3-4.1s0 .1 0 0c.1.1.1 0 0 0zm.3 3.3h-.2v.1h.2zm-.1-3.2l-.1-.1v.3h.1v-.2zm-.1 2.3c0 .1 0 .1 0 0v.1s.1 0 0-.1c.1 0 .1 0 0 0zm0 1.1c.1 0 .1 0 .1-.1l-.1.1c.1-.1.1 0 0 0zm.2-.4s0-.1-.1-.1l.1.1zm.1 1.2s-.1 0-.1-.1v.1h.1zm0-4.2c-.1 0-.1.1-.1.2h.1v.2s0 .1.1.1v-.3c.1 0 .1-.1.1-.1-.1 0-.1 0-.2-.1zm-.1 3.1l.1.1c.1 0 .1-.1 0-.1h-.1c.1 0 .1 0 0 0zm.2 1.2v-.1c-.1 0-.1.1 0 .1-.1 0-.1 0 0 0v.1-.1zm0-1.8l-.1.1v.1h.1v.2h.1c0-.1.1-.1.1-.2v-.1c-.1-.2-.1-.1-.2-.1zm0 0c0-.1.1-.1.1-.2h-.1c-.1.1-.1.2 0 .2zm.1.6v-.1c0-.1 0-.1-.1-.1v.1l.1.1zm0 .5c0-.1-.1-.1 0 0-.1-.1-.1-.1 0 0zm0-1.6c0 .1 0 .2.1.3v-.2c0-.2 0-.2-.1-.1zm.3 1.2s0-.1 0 0c0-.1-.1-.2-.1-.2h-.2.1s0 .1.1.1c0 .1 0 .1.1.1zm0-1.6s.1 0 0 0c.1.1.2 0 .2-.1-.1 0-.2 0-.2.1zm.1.2v.1c.1 0 .1 0 0-.1.1 0 .1 0 0 0zm0 .5zm.5.1c0-.1 0-.1 0 0 .1-.1 0-.1 0-.1v-.1.1c-.1-.1-.1-.1-.1-.2 0 0 0-.1.1-.1h-.1c-.1 0-.1 0-.1.1v.3h-.2l-.1.1.1.1s.1-.1.1-.2.1-.1.1-.2h.1v.2zm-.3-.6l.1.1-.1-.1zm.1-.5v.4s0 .1.1.1c0-.1 0-.1.1-.1 0 0-.1 0-.1-.1s0-.2-.1-.3c0 .1 0 .1 0 0 0 .1 0 .1 0 0zm12.7-1.2v.9c0 .1-.1.2-.1.3v1c0 .2 0 .3-.1.4l-.1.1c0 .1-.1.1-.1.2v.1s0 .1-.1.2-.1.2-.1.2 0 .1-.1.2c0 .1 0 .1-.1.2v.7c-.1.2-.1.4-.1.6 0 0 0 .1-.1.1l-.1.1c-.1.2-.1.4-.2.6 0 .1-.1.2-.1.4 0 0 0 .1-.1.1 0 0 0 .1-.1.1l-.2.2c0 .1-.1.2-.1.3-.1.1-.1.2-.1.3 0 0 0 .1-.1.1v.1c0 .1 0 .1-.1.2h-.1c0 .1-.1.3-.3.6 0 .1-.1.1-.1.2s-.1.1-.1.2c-.1.1-.2.1-.2.2v.1l-.1.1-.1.1c-.1.1-.1.2-.1.2 0 .1 0 .1-.1.2l-.1.1-.4.4h-.1c0 .1 0 .1-.1.2 0 .1-.1.1-.1.1s-.2.1-.5.4c0 0 0 .1-.1.1l-.1.1h.2l.1-.1.1-.1c0 .1 0 .2-.1.2l-.2.1-.1.1s-.1 0-.1.1h-.1v.2H97l-.1.1h-.1s-.1 0-.1.1l-.1.1h-.3s0 .1-.1.1H96c-.1 0-.2.1-.2.1h-.1.1-.2c-.1 0-.1 0-.1-.1-.1 0-.1-.1-.2-.1 0 0-.1 0-.1-.1-.1 0-.1 0-.2-.1-.1 0-.1 0-.1-.1h-.2l-.2-.1h-.1l-.1-.1-.1-.1c-.1 0-.2-.1-.2-.2-.1-.1-.1-.1-.1-.2 0 0-.1 0-.1-.1-.1-.1-.1-.1-.1-.2V19l-.1-.1c-.1-.1 0-.1-.1-.1 0-.1-.1-.1-.1-.2h-.1c0-.1 0-.2-.2-.3-.1-.1-.1-.1-.1-.2v-.4s-.1 0-.1-.1v-.2c-.1-.1-.1-.2-.2-.3 0-.2-.1-.3-.1-.3 0-.1-.1-.3-.1-.4 0-.1-.1-.2-.1-.4-.1-.2-.1-.3-.1-.4v-1c-.1-.1-.1-.1 0-.2 0 0-.1-.1-.1-.2v-.1l-.1-.1v-.1c.1-.1.1-.3 0-.4v-.9c0-.2-.1-.3-.1-.3v-.1c-.1-.1-.1-.3-.1-.5v-.2c0-.3 0-.5.1-.7v-.7c.1-.1.2-.2.1-.3 0 0 .1 0 .1-.1.1-.5.1-.9.1-1.1v-.1c-.3.1-.3 0-.3-.1s0-.2.1-.3V7s0-.1.1-.2l.1-.1v-.3s0-.1.1-.3c.1-.2.1-.3.2-.4v-.2h.1s.3-.2.3-.3c0-.1 0-.1.1-.1 0 0 0-.1.1-.3 0-.1.1-.2.1-.3 0 0 0-.1.1-.2 0-.1.1-.2.1-.2v-.2l.1-.1s0-.1.1-.1v-.1c.1-.1.2-.4.4-.6H94l.1-.1s.1-.1.1-.3c.1-.1.1-.2.2-.3l.1-.1c.1 0 .1-.1.1-.1.2-.1.3-.2.4-.3 0 0 .1 0 .1-.1s.1-.1.1-.2c.1 0 .1 0 .2-.1h.1s.1 0 .1-.1v-.1s.1 0 .2-.1c.2-.1.2-.1.3-.2.2 0 .3-.1.3-.2h.3c0 .1-.1.1-.1.1h-.2s-.1.1 0 .1c0 0 0 .1.1.2.2-.1.3-.1.3-.1s.1 0 .1-.1l.1.1c.3-.1.5-.2.6-.2h.2c.1 0 .1 0 .2-.1h.7s0-.1.1-.1c0 .1 0 .1.1.1 0 0 .1 0 .3.1V.7v.1c.1 0 .3.1.6.2 0 0 .1 0 .1.1.1 0 .1.1.1.1l.1.1.1.1s.1 0 .1.1V2c.1 0 .2.1.2.2v.2h.2s0 .1.1.2c0 .1.1.2.1.2.1.1.1.1 0 .2.1 0 .1.1.1.2v.2l.1-.1c.1 0 .1.1.1.1s0 .1-.1.1l.1.1c0-.1.1-.1.1-.2 0 0 0 .1.1.1 0 0 0 .1.1.1 0 .1-.1.2-.1.3l.1-.1c0 .1 0 .2.1.3v.5c0 .1.1.2.1.2 0 .1 0 .1.1.2 0 .1.1.1.1.2.1.3.2.5.2.8v.4c0 .2.1.4 0 .7v1.7h.2zm-10.6.1s0-.1 0 0c-.1-.1-.1-.1 0 0v-.3s.1 0 .1.1c0 0-.1.1-.1.2zm0 1c0-.1 0-.1 0 0zm0-1.9c.1.1 0 .2 0 .3V8zm.1-.5s-.1 0-.1-.1c0 0 .1 0 .1.1zm0 1.6v.2c-.1-.2-.1-.3 0-.4v.2zm0-1.4l-.1-.1v-.1c.1.1.1.1.1.2 0-.1 0-.1 0 0zm0 .1c-.1.1-.1 0 0 0zm0-.7l-.1-.1c.1 0 .1.1.1.1zm.3-1.4zm.1-.6s0 .1-.1.1l.1-.1zm.1-.1s-.1 0-.1-.1 0-.1.1-.1V5zm.2-.2h-.1v-.2s0-.1.1-.1v.3zm.2-.7s0 .1 0 0c-.1.1-.1.2-.1.2 0-.1 0-.2.1-.2zm.1-.3c.1 0 .1 0 0 0zm.4-.2c-.1 0-.1 0 0 0-.1-.1 0-.1 0-.1v.1zm0 14.1c0 .2.1.3.2.3-.1-.1-.2-.2-.2-.3zm.2.7s0-.1 0 0v-.1.1zm7.2-9V7.5l-.1-.1V7c0-.1-.1-.1-.1-.2v-.9c-.1-.2-.1-.3-.1-.4v-.2c0-.1-.1-.1-.1-.2v-.2h-.1v-.3h-.1c0-.1 0-.2.1-.3l-.1-.1-.1-.1s-.1 0-.1-.1 0-.2-.1-.3c0-.1 0-.2-.1-.4 0 0 0-.1-.1-.2 0-.1-.1-.1-.1-.2-.1-.1-.1-.2-.2-.2v-.1s-.1-.1-.1-.2-.1-.1-.1-.1v-.1c0-.1-.1-.1-.1-.1V2c0-.1-.1-.1-.1-.1s0-.1-.1-.1l-.1-.1h-.9c0 .1-.1.2-.3.3l-.1.1c-.1.1-.1.2-.2.2s-.1 0-.1-.1v.1h.2c0 .1 0 .1-.1.1 0 0-.1.1-.2.1l-.1.1-.1.1s-.1 0-.1.1c-.1 0-.1.1-.1.1s-.1 0-.2.1c-.2.1-.2.2-.3.2 0 .1-.1.2-.1.2v.2h-.1c0 .1.1.2 0 .2 0 0-.1.1-.1.2s-.1.1-.1.2v.2c0 .2-.1.3-.1.3-.1.2-.1.3-.2.4 0 .1 0 .1-.1.2h-.1v-.2l-.1.1v.1h.1c0 .2 0 .3-.1.3v.2c-.1.2-.1.4-.1.5v.1s-.1 0-.1-.1v.6h-.2c0 .1-.1.2 0 .3 0 .2 0 .3-.1.4v.8l.1.1V9c0 .1 0 .2-.1.3v.7l-.1-.1v.2l.1.1v1.2h-.1c.1.1.1.1.1.3v1.6h-.2s.1 0 .1.1.1.1 0 .1l-.1.1-.1.1v.1c0 .1 0 .1-.1.2v.2c0 .1 0 .1.1.1v.4c0 .1.1.2.1.3v.2h.2c0-.1 0-.1.1 0h.1v.1l.1.4h-.1v-.3c0-.1 0-.1-.1-.1v.1l-.1.1h-.1v.1c.1 0 .1 0 .2.1-.1.1-.1.2 0 .3l.1.1v-.4h.1v.1c.1.1.1.2 0 .2v1s.1.2.1.3c.1.4.2.6.2.6l.1.1v-.3c0-.1 0-.1-.1-.1v-.3c.1 0 .1 0 .1.1v.2c.1 0 .1.1.1.2v.1h.1v.2l-.1.1s.1.1.2.1c0 .1-.1.1-.1.1 0 .1 0 .1.1.1s.1 0 .1.1 0 .2.1.4c0 0 .1 0 .1.1h.3c.2 0 .3-.1.3-.1s.1 0 .1-.1h.2c.1 0 .1 0 .1-.1 0 0 .1 0 .2-.1h.2l.1-.1.1-.1c0 .1 0 .1-.1.1-.1.1-.2.1-.2.1-.1 0-.1 0-.1.1h-.2c-.1 0-.1.1-.2.1l-.1.1H96c.1.1.1.2.2.2h.3s.2.1.5.1h.4c.1 0 .1 0 .1-.1 0 0 0-.1.1-.1.2-.3.4-.5.6-.7l.2-.2.1-.1v-.2h.1l.1-.1v-.1c.2-.2.3-.3.3-.4.2-.3.3-.4.3-.6 0 0 .1-.1.1-.2.1-.1.1-.2.2-.3v-.1c0-.1.1-.2.1-.3.1-.1.1-.2.1-.3 0-.1 0-.2.1-.3v-.1c0-.1 0-.1.1-.2 0 0 0-.1.1-.2 0-.1.1-.1.1-.2v-.2c0-.1 0-.1.1-.1v-.1c.1 0 .1-.1.1-.2v-.2c0-.4.1-.6.1-.6V13c-.1-.1 0-.2.1-.3l.1-.1.1-.1h.1c.1 0 0 0 0 .1l-.1.1s-.1.1-.1.2 0 .2-.1.2v.5c0 .1-.1.1-.1.2v.1s.1-.2.2-.6c0-.1.1-.2.1-.2s0-.1.1-.3.1-.2.1-.3c.1-.4.2-.6.2-.8v-.9c0-.1 0-.3.1-.5v-.8c-.8.1-.7 0-.7-.1zm-7 4.2c0-.1 0-.1 0 0-.1-.1 0-.1 0 0 0-.1 0-.1 0 0zm0 .1c-.1.1-.1.1 0 .2v-.2zm.1-1c-.1 0-.1 0 0 0-.1.1-.1.1-.1.2v.1s0 .1.1.2c0 0 0 .1-.1.1h.2s0-.1-.1-.2v-.2h-.2v-.2zm0-.9l-.1.1h.1v-.1zm.1 2.8s.1 0 0 0v.2h-.1v-.5s.1 0 .1-.1c.1.1.1.1 0 .2v.2zm-.1-3.8l-.1.1s0 .1.1.1v-.2zm.1 3.4h-.2v-.1.1h.2zm.1.9c-.1 0-.1 0-.1-.1 0 0 0 .1.1.1zm.1 1.1v.1s-.1 0 0-.1l-.1.1.1-.1zm-.1-1.3s.1 0 0 0c.1.1 0 .1 0 0zM94 16v.1c-.1 0 0-.1 0-.1zm-.1.6c.1 0 .1 0 0 0 .1.1 0 .1 0 .1.1 0 .1 0 0-.1zm.2.3c0-.1 0-.1 0 0zm-.1.2c0-.1 0-.1.1-.1l-.1.1zm.1.1l.1-.1c0 .1 0 .1-.1.1zm.1.2c0-.1 0-.1 0 0 0-.1 0-.1 0 0 .1 0 .1 0 0 0zm.2 1.1c0 .1.1.2.1.2 0 .1.1.1.1.2h.1v-.2c-.2 0-.2-.1-.1-.2-.1-.1-.1-.1-.1-.2v-.1s-.1-.2-.2-.2c.1.1.1.3.1.5zm.7 1.7V20l-.1-.1s-.1 0-.1-.1h-.2c0 .1 0 .1.1.2 0 .1.2.2.3.2zm-.3-1.3zm.6-15.2l-.1.1s.1 0 .1-.1zm.2 16.8s.1 0 .1.1l.1.1c0-.1-.1-.2-.2-.2zm1 0l.2-.2.2-.2-.1.1-.1.1h-1 .8zM96.8.8c0-.1.1-.1 0 0zm.2 18.1l-.1-.1.2-.2c.1-.1.2-.1.3-.1-.1 0-.2.2-.4.4zM97.3.5c0 .1 0 .1 0 0 0 .1-.1.1 0 0l-.1.1s-.1.1-.2.1c0-.1 0-.2.1-.2h.2zm.1 19.7c-.1-.1-.2 0-.2.1h.1s.1 0 .1-.1zM97.5.5h-.1l-.1-.1c.1.1.1.1.2.1.1-.1.1-.1.2-.1-.1.1-.1.1-.2.1zm.4-.1s0 .1 0 0l-.1.1c0-.1 0-.2.1-.1zm.4.1h-.2s-.1 0-.1-.1c.1 0 .2 0 .3.1zm-.2 19.4s.1 0 .2-.1.2-.1.2-.1 0-.1.1-.1v.1s-.1 0-.1.1h-.2s-.1.1-.1.2c-.2 0-.2-.1-.1-.1zM98.5.5c0 .1-.1.1-.2 0 0 0 0-.1.1-.1h.1c-.1 0 0 0 0 .1 0-.1.1 0 .1-.1.1 0 .2 0 .3.1h1l-.1.1h-.3c-.1-.1-.3-.1-.4 0l.1.1H99V.6s-.1-.1-.2-.1c-.1.1-.2.1-.3 0zm.4 19l.1.1c-.1 0-.1.1-.2.2 0-.2 0-.3.1-.3zm.4-.2l.1-.1.1-.1v.1s-.1.1-.2.1c.1.1 0 0 0 0zm.2-4.6v.1-.1zm.1 4.5V19c.1 0 .1.1 0 .2zm.2-.4zm.5-18h-.4V.6c.3.1.4.2.4.2zm-.4 18s0-.1 0 0c.1 0 .1 0 0 0zm.4-.3c0-.1 0-.1 0 0 0-.1 0-.1 0 0zm.2-17.5c-.1 0-.1 0-.1-.1V.8l.1.1c.1 0 .1.1.1.1v.1l-.1-.1zm.4.3c-.1 0-.2-.1-.1-.3.2.1.4.4.6.7h-.2v-.1s0-.1-.1-.1l-.2-.2zm-.2 1.6c0 .1 0 .1.1.1 0 0 .1 0 .1-.1h-.2zm.2.4c.1-.1.1-.2-.1-.2.1.1.1.1.1.2zm.3-1.4s.1 0 .1-.1l.1.1V2s0 .1-.1.1c0 0 0-.1-.1-.1.1-.1.1-.1 0-.1zm.4 1.1c0-.2 0-.3-.1-.5v-.1c.1 0 .1.1.1.2.1.2.1.3 0 .4zm.3.3l-.1-.1c0-.1 0-.1-.1-.1h.1s0 .1.1.1v.1zm-.1 0c.2.1.2.1.1.3v-.1s-.1-.1-.1-.2zm.3.6c0 .1 0 .2.1.2v.3l-.1.1s-.1 0-.1-.1v-.2c-.1 0-.2-.1-.2-.3 0-.1 0-.1.1-.1.1.1.1.1.2.1zm0-.2c-.1 0-.1 0 0 0 0 .1-.1.1-.1.2 0-.1-.1-.1-.1-.1 0-.1.1-.1.2-.1-.1 0-.1 0 0 0zm0 1c.1-.1.1-.1 0 0 .1 0 .1 0 .1.1V5c0 .1 0 .3.1.6v.2c-.1 0-.1 0-.1-.1v-.6l.1-.1-.2-.3zm.3 4.6c0 .1 0 .1 0 0zm0-3.3v-.2h.1c0 .1.1.1.1.3v.4c0 .1 0 .1.1.2s0 .1 0 .2c0 0 0-.1-.1-.2 0-.1-.1-.2 0-.2v-.3l-.2-.2zm.1 2.4c-.1 0-.1-.1-.1-.1s.1-.1.1-.2v.3zm-.1.3c.1 0 .1 0 0 0 .1.1.1.1 0 0 0 .1 0 .1.1.1-.1 0-.1 0-.1-.1zm0-.7c0-.1.1-.1 0 0 .1-.1.1-.1 0 0zm.2-.7c0 .1-.1.2-.1.3v.3c-.1 0-.1-.1-.1-.1.1 0 .1-.1.1-.2 0-.2 0-.3.1-.3zm-.1 1.3s.1 0 0 0c.1 0 0 0 0 0 0 .1 0 .1 0 0z"/></svg>