<svg baseProfile="tiny" xmlns="http://www.w3.org/2000/svg" viewBox="0 0 797 1010"><path fill="none" stroke="#000" stroke-width="3" stroke-miterlimit="10" d="M179.1 40.6h436.5v69H179.1zm69 90h297v30h-297zm-69 114h52.5v24h-52.5zm238.5 0h58.5v24h-58.5zm103.5 0h58.5v24h-58.5zm-241.1 0h58.5v24H280z"/><path fill="none" stroke="#000" stroke-miterlimit="10" d="M405.6 423.1h34.5v21h-34.5zm-56.3 0h34.5v21h-34.5zm17.3 97.5h66v33h-66zm-256.6 51h580v33H110zM89 623h623v33H89zm37 96h546v33H126zm57 51.4h431v33H183zm-70.2-99.6h580v33h-580zm118.8 152.6h333.7v33H231.6z"/><path fill="none" stroke="#000" stroke-width="3" stroke-miterlimit="10" d="M500 954h45.1v44H500zm-122 0h45.1v44H378zm-125 0h45.1v44H253z"/></svg>