<svg baseProfile="tiny" xmlns="http://www.w3.org/2000/svg" viewBox="0 0 913 983"><path fill="none" stroke="#000" stroke-width="5" stroke-miterlimit="10" d="M450.1 29.1h379.5v556.5H450.1z"/><path fill="none" stroke="#000" stroke-width="3" stroke-miterlimit="10" d="M467 176h293v24H467z"/><path fill="none" stroke="#000" stroke-miterlimit="10" d="M467 242h337v16H467zm0 27h337v16H467zm0 27h337v16H467zm0 27h337v16H467zm0 24h337v16H467zm0 88h238v16H467z"/><path fill="none" stroke="#000" stroke-width="3" stroke-miterlimit="10" d="M75 174.5h293v24H75z"/><path fill="none" stroke="#000" stroke-miterlimit="10" d="M75 240.5h337v16H75zm0 27h337v16H75zm0 27h337v16H75zm0 27h337v16H75zm0 24h337v16H75zm0 88h238v16H75zM467 374h91v16h-91z"/><path fill="none" stroke="#000" stroke-width="5" stroke-miterlimit="10" d="M75 51h340v82H75z"/><path fill="none" stroke="#000" stroke-width="3" stroke-miterlimit="10" d="M73.5 734.5h293v24h-293z"/><path fill="none" stroke="#000" stroke-miterlimit="10" d="M73.5 800.5h337v16h-337zm0 27h337v16h-337zm0 27h337v16h-337zm0 27h337v16h-337zm0 24h337v16h-337z"/><path fill="none" stroke="#000" stroke-width="5" stroke-miterlimit="10" d="M73.5 611h340v82h-340z"/><path fill="none" stroke="#000" stroke-width="3" stroke-miterlimit="10" d="M465.5 734.5h293v24h-293z"/><path fill="none" stroke="#000" stroke-miterlimit="10" d="M465.5 800.5h337v16h-337zm0 27h337v16h-337zm0 27h337v16h-337zm0 27h337v16h-337zm0 24h337v16h-337z"/><path fill="none" stroke="#000" stroke-width="5" stroke-miterlimit="10" d="M465.5 611h340v82h-340zm4.3-560h340v82h-340z"/></svg>