<svg baseProfile="tiny" xmlns="http://www.w3.org/2000/svg" viewBox="463 -480 795.1 667.6"><path fill="none" stroke="#000" stroke-miterlimit="10" d="M546.6-406h630v248h-630z"/><path fill="none" stroke="#000" stroke-miterlimit="10" d="M561.6-388h78v12h-78z"/><path fill="none" stroke="#000" stroke-width="5" stroke-miterlimit="10" d="M563.9-328h488.8v33H563.9z"/><path fill="none" stroke="#000" stroke-miterlimit="10" d="M561.6-249h550v15h-550zm0 25h550v15h-550zm0 28h163v15h-163zm-17 50h630v248h-630z"/><path fill="none" stroke="#000" stroke-miterlimit="10" d="M559.6-128h78v12h-78z"/><path fill="none" stroke="#000" stroke-width="5" stroke-miterlimit="10" d="M559.6-68h488.8v33H559.6z"/><path fill="none" stroke="#000" stroke-miterlimit="10" d="M559.6 11h550v15h-550zm0 25h550v15h-550zm0 28h163v15h-163z"/></svg>