<svg baseProfile="tiny" xmlns="http://www.w3.org/2000/svg" viewBox="168 -11.7 485.7 73.7"><path d="M181 54.5c-.6-10.6-.9-19.9-.9-27.8 0-7.9.2-16.1.5-24.7l-11 1.5-2-10.4c5.9-1 11.7-1.8 17.5-2.2L202-10l1.7 10c-3.3.2-7 .4-11.2.8-.4 8.6-.5 16.6-.5 23.8s.1 17.5.4 31L181 54.5zm45.5-45.2l.1 10.3 13.5-.8c0-9.4.1-19.3.4-29.8l11.9 1.1c-.5 9.5-.8 19.9-.8 31 0 11.1.3 22.3 1 33.5l-11.5-1c-.5-5.2-.9-13.4-1-24.8l-13.2.8c.2 8.5.4 17.2.8 26l-12.2-1.1c-.7-12.7-1-24.3-1-34.9 0-10.6.2-19.8.7-27.5L227-6.8c-.3 5.3-.5 10.7-.5 16.1zm59.4 48.1c-5.7 0-10.6-2.6-14.5-7.7-3.9-5.1-5.9-12.9-5.9-23.4 0-10.5 2.1-19 6.4-25.6 4.3-6.6 9.3-9.9 15.2-9.9 5.8 0 10.7 2.6 14.5 7.7 3.9 5.2 5.8 12.9 5.8 23.3s-2.2 18.9-6.5 25.6-9.2 10-15 10zm-5.5-48.9c-1.9 4.7-2.9 10.5-2.9 17.6 0 7.1.8 12.3 2.5 15.7 1.6 3.4 3.7 5.1 6.2 5.1s4.6-2.3 6.5-7c1.9-4.7 2.8-10.5 2.8-17.6 0-7-.8-12.3-2.4-15.6-1.6-3.4-3.6-5-5.9-5-2.6-.2-4.9 2.2-6.8 6.8zM320 54.9c-.5-15.6-.7-27.4-.7-35.3s.5-16.4 1.5-25.4l16.9 1.4c2.1 7.6 4.3 18.2 6.7 31.8 3.4-11 6.3-22.9 8.9-35.6l17 1.5c.5 18.5.7 32.1.7 40.6s-.3 16.2-.8 22.8l-12.3-1.2c.8-7.6 1.4-23.6 2-48.1l-.7-.1c-.6 2.3-1.6 6.4-2.9 12.1-2.8 11.8-5.4 21.9-8 30.2l-8.2-.7c-1.4-5.8-3.1-13.2-5-22.4-1.9-9.1-3.3-15.9-4.4-20.2h-.7c.5 20 1.2 36.6 1.9 49.7L320 54.9zm90.8-1.4L408.7 41l-13.4.5-3.4 16.9-12.6-1.1 16.1-65.2 16.7 1.4 11.8 61-13.1-1zm-7.9-49.6l-5.7 28 10.1-.4-4.4-27.6zm45.5 39.5c2.2-.2 5-.3 8.5-.3s8.1.4 13.7 1.3l-1.5 10.7c-6.8-.9-12-1.3-15.7-1.3-3.7 0-9.5.7-17.4 2l-1.4-9.4c11.3-18 19.6-32.2 24.8-42.5-8.3.5-15.5 1.2-21.7 2.1L436-4.7c7.4-1.6 19.2-2.4 35.4-2.6l1.5 7.8c-8.9 17-17 31.2-24.5 42.9zm36.2 11.3c-.2-9.5-.4-18.5-.4-26.9s.5-19.5 1.4-33C496-6.8 506-7.6 515.8-7.6V3.5c-6.8 0-13.1.2-18.9.6-.2 6.7-.4 11.9-.5 15.5 4.6-.7 10-1 16.2-1.2l1.7 9.9c-4 .1-10.1.5-18.1 1.3 0 7.2 0 12.4.1 15.6 5.2-.4 11.5-1.3 18.7-2.7l1.5 9.9c-5.1 2.3-11.1 3.5-18.1 3.5l-13.8-1.2zm46.7-.9c-.8-12.4-1.2-23.7-1.2-34s.3-19.6 1-28l12 1.1c-.9 10.3-1.4 20.2-1.4 29.6 0 9.4.1 16.4.5 20.8 2.2-.3 7.5-.9 15.9-1.8l1.8 10.4c-4.5.5-10.9 1.4-19.1 2.7l-9.5-.8zm40.5 0c-.8-12.4-1.2-23.7-1.2-34s.3-19.6 1-28l12 1.1c-.9 10.3-1.4 20.2-1.4 29.6 0 9.4.1 16.4.5 20.8 2.2-.3 7.5-.9 15.9-1.8l1.8 10.4c-4.5.5-10.9 1.4-19.1 2.7l-9.5-.8zm66.4-.3L636.1 41l-13.4.5-3.4 16.9-12.6-1.1 16.1-65.2 16.7 1.4 11.8 61-13.1-1zm-8-49.6l-5.7 28 10.1-.4-4.4-27.6z"/></svg>