<?xml version="1.0" encoding="utf-8"?>
<svg version="1.1" xmlns="http://www.w3.org/2000/svg" xmlns:xlink="http://www.w3.org/1999/xlink" x="0px" y="0px"
	 viewBox="0 0 482.2 69.6" style="enable-background:new 0 0 482.2 69.6;" xml:space="preserve">
<style type="text/css">
	.letter{fill:#878787;}
</style>
<g id="logo">
	<path id="t_18_" class="letter" d="M46.9,11.9l-14,0.5c-1.2,0-2.2,1-2.2,2.3c-0.2,7.7-0.7,32.8-0.7,25.1c0-9.1,0.5,28.8,0.5,28.8
		l-13.7,1c0,0-0.6-20.5-0.6-29.7c0-7.1,0.4-19.2,0.6-24.4c0.1-1.3-1-2.4-2.4-2.4L0,13.6L0.6,2.3c0,0,10.5-1.1,18.8-1.4
		s28-0.3,28-0.3L46.9,11.9z"/>
	<path id="h_18_" class="letter" d="M96.2,66.2l-12.7,0.9c0,0-0.5-2.7-0.5-13.1c0-5.9,0.1-9.4,0.2-11.3c0.1-1.1-0.8-2.1-2-2.2
		c-1.5-0.1-3.9-0.1-7.1,0.1c-3.7,0.2-6.3,0.6-7.8,0.8c-1,0.1-1.7,0.9-1.8,1.8c-0.2,1.6-0.4,4.8-0.4,10.8c0,10.6,0.5,12.2,0.5,12.2
		l-12.7,0.9c0,0-1-16.8-1-31.9s1-29.6,1-29.6l12.7-0.9c0,0-0.7,6.6-0.7,14.7c0,4.4,0.1,7.6,0.1,9.5c0,1.2,1.2,2.2,2.4,2
		c1.5-0.2,3.9-0.5,7-0.7c3.2-0.2,5.6-0.2,7.2-0.2c1.2,0,2.2-0.9,2.2-2.1c0-1.6-0.1-4.4-0.1-8.9c0-9,0.8-13.5,0.8-13.5l12.7-0.8
		c0,0-1,10.1-1,30.1S96.2,66.2,96.2,66.2z"/>
	<path id="o_18_" class="letter" d="M145.1,39.7c-0.4,8-4.7,26.5-24.2,26.4c0,0,0,0,0,0C101.8,64.7,98.7,46,99,38.1c0,0,0-2.6,0.1-3.2
		c0-0.6,0.2-2.8,0.2-2.8c0.4-8.2,5.1-28,24.3-27.2c19.3,1.3,22.1,20.6,21.8,28.8c0,0,0,1.8-0.1,2.7
		C145.2,37.4,145.1,39.7,145.1,39.7z M132.5,33.4c0.2-5.4-1.5-18.1-9.4-18.9c0,0,0,0,0,0c-7.9,0.1-10.8,12.3-11.1,17.5
		c0,0-0.2,2.3-0.3,3.1c0,0.8,0,3.2,0,3.2c-0.2,5.2,2.3,17.4,9.6,18.2c0,0,0,0,0,0c7.5-0.2,10.7-12,10.9-17c0,0,0.1-2,0.2-3.1
		S132.5,33.4,132.5,33.4z"/>
	<path id="m_18_" class="letter" d="M194.9,29.1c0-0.6-1-0.8-1.2-0.2c-2.2,6-6.7,18.2-8.1,22.4c-2,5.6-3.3,9.1-3.3,9.1l-8.7,0.5
		c0,0-1.3-4.2-3.3-9.6c-1.5-4-5.9-16.2-8.1-22.3c-0.2-0.6-1.2-0.5-1.2,0.2c0.1,6.9,0.2,21.3,0.4,25.1c0.3,5,0.7,9.8,0.7,9.8
		l-12.7,0.8c0,0-0.5-11.7-0.5-28.9s0.5-27.5,0.5-27.5L166,7.3c0,0,1.7,4,4,12.3c1.9,6.6,5.9,18,7.4,22.2c0.2,0.5,1,0.5,1.2,0
		c1.3-3.5,4.6-12.5,7.2-21.7c3.3-11.9,4.2-11.7,4.2-11.7l16.6-1.1c0,0,0.3,17.6,0.3,28.6S206.6,64,206.6,64l-12.8,0.8
		c0,0,0.3-8.9,0.7-15.4C194.8,44.8,194.9,34.6,194.9,29.1z"/>
	<path id="a_36_" class="letter" d="M244.8,54.4c-0.3-1-1.3-1.8-2.5-1.7c-1.6,0-3.9,0.1-6.6,0.3c-2.9,0.2-5.5,0.4-7.1,0.6
		c-1,0.1-1.8,0.7-2.1,1.5l-3.3,9.1l-13.5,0.8l19.8-55.1l11.6-1.1L261,64l-13.6,0.8L244.8,54.4z M229.3,43.1c-0.2,0.5,0.3,1,0.9,0.9
		c1.1-0.1,2.7-0.3,4.6-0.4c2-0.1,3.8-0.1,4.8-0.1c0.6,0,0.9-0.5,0.8-0.9L236,26.9c-0.2-0.7-1.4-0.8-1.6,0L229.3,43.1z"/>
	<path id="a_35_" class="letter" d="M465.2,56c-0.3-1.2-1.4-2.1-2.7-2.1c-1.7,0-4.1,0.1-6.9,0.3c-3.1,0.2-5.8,0.5-7.5,0.7
		c-1,0.1-1.9,0.8-2.2,1.8l-3.5,10.9l-14.1,0.9l20.8-66.2L461.3,1l20.9,66.6l-14.3,1L465.2,56z M449,42.4c-0.2,0.6,0.3,1.2,1,1.1
		c1.1-0.1,2.8-0.4,4.8-0.5c2.1-0.1,4-0.2,5.1-0.2c0.6,0,1-0.5,0.9-1.1L456,22.9c-0.2-0.9-1.5-0.9-1.7,0L449,42.4z"/>
	<path id="z_18_" class="letter" d="M280.7,53.3c-0.7,0.9,0.2,2.1,1.4,2c2.1-0.1,5.1-0.2,9-0.2c7.7-0.1,14.4,0.4,14.4,0.4l-0.7,9.1
		c0,0-9.5-1.1-20.3-1.1s-20.4,1.1-20.4,1.1V58c0,0,12.4-17.6,17.6-25.1c3.6-5.1,6.1-9.6,7.3-11.9c0.4-0.8-0.2-1.8-1.3-1.9
		c-2.6-0.2-7.3-0.5-11.6-0.4c-6.5,0.1-12.7,0.6-12.7,0.6l0.7-9.2c0,0,8.5-1.1,16.8-1.1c8.3,0,23.7,1.1,23.7,1.1v6.5
		c0,0-12.3,18.8-17.2,26.6C284.5,47.8,282.2,51.3,280.7,53.3z"/>
	<path id="e_18_" class="letter" d="M341.9,40.2c0,0,0.4-0.4-7.9-0.4c-5.2,0-8.4,0.2-10.2,0.3c-0.8,0.1-1.5,0.7-1.5,1.4v12.2
		c0,0.8,0.7,1.5,1.6,1.5c1.5,0.1,4.1,0.2,7.4,0.3c5.6,0.1,15-1.3,15-1.3l-0.7,9.4c0,0-6.9,1.6-13,1.6s-10.3-0.7-10.3-0.7l-12.6-0.9
		c0,0-0.5-11.1-0.5-27.1s0.5-28,0.5-28s11.3-0.4,23-0.4s13.6,0.5,13.6,0.5l-0.7,9.4c0,0-4.4-0.5-12.5-0.4c-4.7,0-7.5,0.2-9,0.3
		c-0.9,0.1-1.6,0.7-1.6,1.5v10.1c0,0.9,0.9,1.6,1.9,1.5c1-0.1,2.5-0.1,4.9-0.2c6.7-0.2,13.5,0.5,13.5,0.5L341.9,40.2z"/>
	<path id="l_36_" class="letter" d="M363.3,53.6c0.1,1.2,1.1,2.2,2.4,2.3c1.6,0.1,4,0.3,6.6,0.3c4.9,0,13.9-0.9,13.9-0.9l-0.7,9.8
		c0,0-6.6,1.2-12.3,1.2c-5.7,0-9.9-0.7-9.9-0.7l-12.7-0.9c0,0-0.8-4-0.8-27.9s0.8-29.2,0.8-29.2l12.7-0.8c0,0-0.7,7.2-0.7,25.4
		C362.7,44.1,363.1,50.6,363.3,53.6z"/>
	<path id="l_35_" class="letter" d="M403,54.2c0.1,1.3,1.1,2.3,2.4,2.4c1.6,0.1,4,0.3,6.6,0.3c4.9,0,13.9-1,13.9-1l-0.7,10.2
		c0,0-6.6,1.2-12.3,1.2c-5.7,0-9.9-0.7-9.9-0.7l-12.7-1c0,0-0.8-4.2-0.8-29.3s0.8-30.6,0.8-30.6L403.2,5c0,0-0.7,7.5-0.7,26.6
		C402.4,44.3,402.8,51.1,403,54.2z"/>
</g>
</svg>
